G04*
G04 #@! TF.GenerationSoftware,Altium Limited,Altium Designer,22.2.1 (43)*
G04*
G04 Layer_Color=16711935*
%FSLAX44Y44*%
%MOMM*%
G71*
G04*
G04 #@! TF.SameCoordinates,C2D7B67D-8841-428D-B263-7EF30795714A*
G04*
G04*
G04 #@! TF.FilePolarity,Positive*
G04*
G01*
G75*
%ADD10C,0.2540*%
D10*
X-36875Y405625D02*
G03*
X-73750Y368750I-0J-36875D01*
G01*
D02*
G03*
X-36875Y331875I36875J0D01*
G01*
X0Y295000D02*
G03*
X-36875Y331875I-36875J0D01*
G01*
Y405625D02*
G03*
X0Y442500I0J36875D01*
G01*
Y-442500D02*
G03*
X-36875Y-405625I-36875J0D01*
G01*
Y-331875D02*
G03*
X0Y-295000I0J36875D01*
G01*
X-36875Y-331875D02*
G03*
X-73750Y-368750I-0J-36875D01*
G01*
D02*
G03*
X-36875Y-405625I36875J0D01*
G01*
X2561875D02*
G03*
X2598750Y-368750I0J36875D01*
G01*
D02*
G03*
X2561875Y-331875I-36875J0D01*
G01*
X2525000Y-295000D02*
G03*
X2561875Y-331875I36875J0D01*
G01*
Y-405625D02*
G03*
X2525000Y-442500I-0J-36875D01*
G01*
Y442500D02*
G03*
X2561875Y405625I36875J0D01*
G01*
Y331875D02*
G03*
X2525000Y295000I-0J-36875D01*
G01*
X2561875Y331875D02*
G03*
X2598750Y368750I0J36875D01*
G01*
D02*
G03*
X2561875Y405625I-36875J0D01*
G01*
X450750Y428000D02*
G03*
X459286Y431535I0J12071D01*
G01*
X475250Y442500D02*
G03*
X466715Y438965I0J-12071D01*
G01*
X408786D02*
G03*
X400250Y442500I-8536J-8536D01*
G01*
X416214Y431535D02*
G03*
X424750Y428000I8536J8536D01*
G01*
X0Y-295000D02*
Y-0D01*
Y295000D01*
X2525000Y-0D02*
Y295000D01*
Y-295000D02*
Y-0D01*
X475250Y442500D02*
X2525000Y442500D01*
X0Y442500D02*
X400250Y442500D01*
X459286Y431536D02*
X466715Y438965D01*
X408786D02*
X416214Y431536D01*
X424750Y428000D02*
X437750D01*
X450750D01*
X0Y-442500D02*
X2525000Y-442500D01*
X-36875Y405625D02*
G03*
X-73750Y368750I-0J-36875D01*
G01*
D02*
G03*
X-36875Y331875I36875J0D01*
G01*
X0Y295000D02*
G03*
X-36875Y331875I-36875J0D01*
G01*
Y405625D02*
G03*
X0Y442500I0J36875D01*
G01*
Y-442500D02*
G03*
X-36875Y-405625I-36875J0D01*
G01*
Y-331875D02*
G03*
X0Y-295000I0J36875D01*
G01*
X-36875Y-331875D02*
G03*
X-73750Y-368750I-0J-36875D01*
G01*
D02*
G03*
X-36875Y-405625I36875J0D01*
G01*
X2561875D02*
G03*
X2598750Y-368750I0J36875D01*
G01*
D02*
G03*
X2561875Y-331875I-36875J0D01*
G01*
X2525000Y-295000D02*
G03*
X2561875Y-331875I36875J0D01*
G01*
Y-405625D02*
G03*
X2525000Y-442500I-0J-36875D01*
G01*
Y442500D02*
G03*
X2561875Y405625I36875J0D01*
G01*
Y331875D02*
G03*
X2525000Y295000I-0J-36875D01*
G01*
X2561875Y331875D02*
G03*
X2598750Y368750I0J36875D01*
G01*
D02*
G03*
X2561875Y405625I-36875J0D01*
G01*
X450750Y428000D02*
G03*
X459286Y431535I0J12071D01*
G01*
X475250Y442500D02*
G03*
X466715Y438965I0J-12071D01*
G01*
X408786D02*
G03*
X400250Y442500I-8536J-8536D01*
G01*
X416214Y431535D02*
G03*
X424750Y428000I8536J8536D01*
G01*
X0Y-295000D02*
Y-0D01*
Y295000D01*
X2525000Y-0D02*
Y295000D01*
Y-295000D02*
Y-0D01*
X475250Y442500D02*
X2525000Y442500D01*
X0Y442500D02*
X400250Y442500D01*
X459286Y431536D02*
X466715Y438965D01*
X408786D02*
X416214Y431536D01*
X424750Y428000D02*
X437750D01*
X450750D01*
X0Y-442500D02*
X2525000Y-442500D01*
M02*
