M48
;Layer_Color=9474304
;FILE_FORMAT=4:4
METRIC,LZ
;TYPE=PLATED
T1F00S00C0.3000
T2F00S00C0.4000
T3F00S00C0.5500
T4F00S00C0.9000
T5F00S00C1.0000
T6F00S00C1.2000
T8F00S00C3.2000
;TYPE=NON_PLATED
T9F00S00C0.9000
T10F00S00C1.1520
%
T01
X02546236Y-00385013
X02541251Y-00377552
X025395Y-0036875
X02541251Y-00359948
X02553698Y-0039
X025625Y-0039175
X02571302Y-0039
X02578763Y-00385014
X02583749Y-00377552
X025855Y-0036875
X02583749Y-00359949
X0245Y-004
X024
X0235
X023
X0225
X022
X0215
X021
X0205
X02
X0195
X019
X0185
X018
X017
X0165
X016
X0155
X015
X0145
X014
X0135
X013
X0125
X012
X0115
X011
X010425Y-00426429
X01Y-004
X00936394Y-0038706
X0092344
X0079383Y-0040357
X0080018Y-0041627
X0080953Y-0042897
X007775Y-00375
X007Y-004
X0065
X003
X002
X0015
X001
X0005
X-00021236Y-00385013
X-00016251Y-00377552
X-000145Y-0036875
X-00016251Y-00359948
X-00028698Y-0039
X-000375Y-0039175
X-00046302Y-0039
X-00053763Y-00385014
X-00058749Y-00377552
X-000605Y-0036875
X-00058749Y-00359949
X-00053763Y-00352486
X-00046302Y-00347501
X-000375Y-0034575
X-00028698Y-00347501
X-00021237Y-00352486
X0005Y-003
X00075Y-0025
X0005Y-001
X00043Y-00035
Y-00025
X00043Y-00015
Y-00005
Y00005
Y00015
X00043Y00025
Y00035
X000355Y0003
X000355Y0002
Y0001
Y0
Y-0001
Y-0002
X000355Y-0003
X0005Y0
X000825
Y-0001
Y-0002
X000825Y-0003
Y-0004
Y-0005
Y-0006
X0009Y-00055
Y-00045
Y-00035
Y-00025
X0009Y-00015
Y-00005
Y00005
Y00015
X0009Y00025
Y00035
X000825Y0003
X000825Y0002
Y0001
X002Y0
X0025
X003
X0035
X004
X0045
X00475Y-0005
X00425
X00375
X00325
X00275
X00225
X00175
X001Y-001
X00205Y-001825
X00225Y-0025
X00275
X00325
X00375
X00425
X00475
X00475Y-0018
X0046
X00425Y-0015
X00375
X004Y-001
X0045
X0035
Y-002
X0031Y-0018
X003Y-003
X00325Y-0035
X00275
X00225
X002Y-003
X001
X00125Y-0035
X00625
X00675
X007Y-003
X0075
X008
X0080949Y-0028152
X0080014Y-0026882
X0079379Y-0025612
X0079379Y-0019508
X0080014Y-0018238
X0080949Y-0020778
X00825Y-0015
X0080953Y-0013397
X0080018Y-0012127
X0079383Y-0010857
X007775Y-0008
X0079383Y-0004753
X0080018Y-0003483
X0080953Y-0006023
X0080949Y0001373
X0080014Y0002643
X0079379Y0003913
X0085Y0
X007
X0065
X006
X0055
X005
X00525Y-0005
X00575
X00625
X00675
X0065Y-001
X006
X0055
X005
X00625Y-0015
X00675
X00725
X007775Y-00155
X007Y-002
X0065
X006
X00575Y-0025
X00625
X00675
X0065Y-003
X00525Y-0025
X0080018Y-0032983
X0079383Y-0034253
X0080953Y-0035523
X0085Y-003
X0092343Y-00295
X0092344Y-0031332
X00936394
X0095Y-003
X01
X0104246Y-0029501
X011Y-003
X0115
X012
X0125
X01275Y-0025
X01225
X01175
X01125
X01075
X011Y-002
X0115
X012
X0125
X01275Y-0015
X01225
X01175
X01125
X01075
X010425Y-0014746
X01025Y-0015
X00975
X0092347Y-0014745
X009234Y-0016587
X00936354
X00936354Y-0023961
X009234
X00975Y-0025
X01Y-002
Y-001
X00936394Y-0009206
X0092344
X0092344Y-0001832
X00936394
X0092343Y0000025
X009Y0
X0095
X01
X0104246Y0000024
X011Y0
X0115
X012
X0125
X01275Y-0005
X01225
X01175
X01125
X01075
X011Y-001
X0115
X012
X0125
X01275Y-0035
X01225
X01175
X01125
X01075
X01025
X00975
Y-0005
X01325
X01375
X01425
X01475
X01525
X01575
X01625
X01675
X0165Y0
X016
X0155
X015
X0145
X014
X0135
X013
Y-001
X0135
X014
X0145
X015
X0155
X016
X0165
X01675Y-0015
X01625
X01575
X01525
X01475
X01425
X01375
X01325
X0135Y-002
X014
X0145
X015
X0155
X016
X0165
X01675Y-0025
X01625
X01575
X01525
X01475
X01425
X01375
X01325
X0135Y-003
X014
X0145
X015
X0155
X016
X0165
X01675Y-0035
X01625
X01575
X01525
X01475
X01425
X01375
X01325
X013Y-003
Y-002
X017
X0175
X018
X0185
X019
X0195
X02
X0205
X02075Y-0015
X02025
X01975
X01925
X01875
X01825
X01775
X01725
X0175Y-001
X018
X0185
X019
X0195
X02
X0205
X02075Y-0005
X02025
X01975
X01925
X01875
X01825
X01775
X01725
X0175Y0
X018
X0185
X019
X0195
X02
X0205
X02075Y-0025
X02025
X01975
X01925
X01875
X01825
X01775
X01725
X017Y-003
X01725Y-0035
X01775
X01825
X01875
X01925
X01975
X02025
X02075
X0205Y-003
X02
X0195
X019
X0185
X018
X017Y-001
Y0
X021
X0215
X022
X0225
X023
X0235
X024
X02425Y-0005
X02375
X02325
X02275
X02225
X02175
X02125
X0215Y-001
X022
X0225
X023
X0235
X024
X02425Y-0015
X02375
X02325
X02275
X02225
X02175
X02125
X0215Y-002
X022
X0225
X023
X0235
X024
X02425Y-0025
X02375
X02325
X02275
X02225
X02175
X02125
X0215Y-003
X022
X0225
X023
X0235
X024
X02425Y-0035
X02375
X02325
X02275
X02225
X02175
X02125
X021Y-003
Y-002
Y-001
X02546237Y-00352486
X02553698Y-00347501
X025625Y-0034575
X02571302Y-00347501
X02578763Y-00352486
Y00352486
X02571302Y00347501
X025625Y0034575
X02553698Y00347501
X02546237Y00352486
X02541251Y00359948
X025395Y0036875
X02541251Y00377552
X02546236Y00385013
X02553698Y0039
X025625Y0039175
X02571302Y0039
X02578763Y00385014
X02583749Y00377552
X025855Y0036875
X02583749Y00359949
X02425Y0035
X024
X02375
X0235
X02325
X023
X02275
X0225
X02225
X022
X02175
X0215
X02125
X021
Y004
X02125
X0215
X022
X02225
X0225
X02275
X023
X02325
X02375
X024
X02425
X0245
X024Y003
X02425Y0025
X02375
X02325
X02275
X02225
X02175
X02125
X0215Y003
X022
X0225
X023
Y002
X0235
X024
X02425Y0015
X02375
X02325
X02275
X02225
X02175
X02125
X0215Y002
X022
X0225
Y001
X023
X0235
X024
X02425Y0005
X02375
X02325
X02275
X02225
X02175
X02125
X0215Y001
X022
X021
Y002
Y003
X0205
Y0035
X02075
Y004
X0205
X02025
X02
X01975
X0195
X01925
X019
X01875
X0185
X01825
X018
X01775
X0175
X01725
X017
Y0035
X01725
X0175
X01775
X018
X01825
X0185
X01875
X019
X01925
X0195
X01975
X02
X02025
X02Y003
X0195
X019
X0185
X018
X0175
X017
X01725Y0025
X01775
X01825
X01875
X01925
X01975
X02025
X02075
X0205Y002
X02
X0195
X019
X0185
X018
X0175
X017
X01725Y0015
X01775
X01825
X01875
X01925
X01975
X02025
X02075
X0205Y001
X02
X0195
X019
X0185
X018
X0175
X017
X01725Y0005
X01775
X01825
X01875
X01925
X01975
X02025
X02075
X01675
X01625
X01575
X01525
X01475
X01425
X01375
X01325
X0135Y001
X014
X0145
X015
X0155
X016
X0165
X01675Y0015
X01625
X01575
X01525
X01475
X01425
X01375
X01325
X0135Y002
X014
X0145
X015
X0155
X016
X0165
X01675Y0025
X01625
X01575
X01525
X01475
X01425
X01375
X01325
X0135Y003
Y0035
X01375
X014
X01425
X0145
X01475
X015
X01525
X0155
X01575
X016
X01625
X0165
X01675
Y004
X0165
X01625
X016
X01575
X0155
X01525
X01475
X0145
X01425
X014
X01375
X0135
X013
Y0035
X01325
X013Y003
X014
X0145
X0155
X016
X0165
X013Y002
Y001
X0125
X012
X0115
X011
X01125Y0015
X01175
X01225
X01275
X0125Y002
X012
X0115
X011
X01125Y0025
X01175
X01225
X01275
X0125Y003
Y0035
X01275
Y004
X0125
X01225
X012
X01175
X0115
X01125
X01075
X01053924Y0042413
X01075Y0035
X011
X01125
X0115
X01175
X012
X01225
X012Y003
X0115
X011
X0104253Y0029499
X01Y003
Y0035
X01025
X00975
X0095
X00936424Y0035039
X009365Y0035875
Y0036875
Y0037875
X0092347Y0035039
X009235Y00295
X0092344Y0027668
X00936394
X0095Y003
X00936394Y0020294
X0092344
X0092347Y0014755
X009234Y0012938
X00936354
X00975Y0015
X01025
X010425Y0014754
X01075Y0015
Y0025
X01Y002
Y001
X00975Y0005
X00936354Y0005564
X009234
X01075Y0005
X01125
X01175
X01225
X01275
X0092347Y00409626
X00936424Y0042413
X0088375Y0036875
X0087375
X0086375
X0085375
X0080956Y0038222
X0079386Y0039492
X0080021Y0040762
X0079386Y0033388
X0080021Y0032118
X0080956Y0030848
X0085Y003
X0080018Y0026017
X0079383Y0024747
X0080953Y0023477
X007775Y00215
X0079383Y0018643
X0080018Y0017373
X0080953Y0016103
X00825Y0015
X007775Y0014
X0080014Y0011287
X0079379Y0010017
X0080949Y0008747
X007Y001
X00725Y0015
X00675
X006285Y00123
X0062Y00129
X0057825Y00135
X005695Y00141
X0055Y001
X00575Y0005
X00625
X00675
X00525
Y0025
X0055Y003
X006
X006075Y0025
X00595Y00225
X00586Y00219
X00637Y00231
X00645668Y00237
X006625Y0025
X00675
X007Y003
Y004
X00675
X0065
X00625
X006
X00575
X0055
X005
Y003
X007Y002
X00475Y0018
X0045Y002
X0046Y0025
X00475
X004875
X0045Y002875
X0044
X0043
X00435Y00295
X00445
X0045Y003025
X0044
X0043
X00425Y0035
X00392Y0039762
X00385Y004325
X003675
X003Y004
X0025
X002325Y004025
Y004125
X00225Y004075
Y004175
Y003975
Y003875
Y003775
X002325Y003825
Y003925
X0018375Y0032
X00175Y0025
X002Y002425
X00225Y0025
X00275
X0035Y0018
X00375Y0015
X00425
X0041245Y00165
X0041875Y00127
Y00119
Y00111
Y00103
Y00087
Y00079
Y00071
Y00063
X00425Y0005
X00475
X00375
X00325
X00275
X00225
X002Y001
X0015
X0013Y001315
X00125Y0015
X0013Y001825
X00125Y0025
X0035Y001
X0005
X000825Y0006
Y0005
Y0004
X0009Y00045
Y00055
X00075Y0035
X-00021237Y00352486
X-00028698Y00347501
X-000375Y0034575
X-00046302Y00347501
X-00053763Y00352486
X-00058749Y00359949
X-000605Y0036875
X-00058749Y00377552
X-00053763Y00385014
X-00046302Y0039
X-000375Y0039175
X-00028698Y0039
X-00021236Y00385013
X-00016251Y00377552
X-000145Y0036875
X-00016251Y00359948
T02
X0002Y-0034
X00035
X0044Y00275
T03
X001955Y-001925
X003345
X004505
X005895
Y001675
X004505
X003745
X002355
T04
X0051405Y003429
X0053945
X0056485
X0059025
X0061565
X0064105
X0066645
X0069185
X0048865
X0046325
X0041245
X0038705
X0036165
X0033625
X0031085
X0028545
X0026005
X0023465
X0020925
X0018385
T05
X0018Y-00365
Y-0034
Y-00315
T06
X020925Y-0041875
X022625
X019225
X017525
X015825
X014125
X012425
X010725
Y-0031875
X011575Y-0027125
Y-0017125
X012425Y-0012375
Y-0002375
X011575Y0002375
X010725Y-0002375
Y-0012375
X012425Y-0031875
X013275Y-0027125
Y-0017125
X014125Y-0012375
Y-0002375
X013275Y0002375
X014975
X015825Y-0002375
Y-0012375
X016675Y-0017125
Y-0027125
X015825Y-0031875
X014975Y-0027125
Y-0017125
X014125Y-0031875
X016675Y0002375
X017525Y-0002375
Y-0012375
X018375Y-0017125
Y-0027125
X019225Y-0031875
X020075Y-0027125
Y-0017125
X019225Y-0012375
Y-0002375
X018375Y0002375
X020075
X017525Y-0031875
X020925
X021775Y-0027125
Y-0017125
X022625Y-0012375
Y-0002375
X021775Y0002375
X020925Y-0002375
Y-0012375
X023475Y-0017125
Y-0027125
X022625Y-0031875
X023475Y0002375
Y0012375
X022625Y0017125
Y0027125
X021775Y0031875
Y0041875
X023475
Y0031875
X020925Y0027125
Y0017125
X021775Y0012375
X020075
X019225Y0017125
Y0027125
X018375Y0031875
Y0041875
X020075
Y0031875
X017525Y0027125
Y0017125
X018375Y0012375
X016675
X015825Y0017125
Y0027125
X016675Y0031875
Y0041875
X014975
Y0031875
X014125Y0027125
Y0017125
X013275Y0012375
X014975
X013275Y0031875
Y0041875
X011575
Y0031875
X012425Y0027125
Y0017125
X011575Y0012375
X010725Y0017125
Y0027125
X0010765Y0038735
X0005685
T08
X025625Y-0036875
X-000375
X025625Y0036875
X-000375
T09
X00424Y00415
X00454
T10
X025125Y-0043
X000125
X025125Y0043
X000125
M30
