G04*
G04 #@! TF.GenerationSoftware,Altium Limited,Altium Designer,22.2.1 (43)*
G04*
G04 Layer_Color=128*
%FSLAX44Y44*%
%MOMM*%
G71*
G04*
G04 #@! TF.SameCoordinates,C2D7B67D-8841-428D-B263-7EF30795714A*
G04*
G04*
G04 #@! TF.FilePolarity,Positive*
G04*
G01*
G75*
%ADD10C,0.2540*%
%ADD49R,1.0000X0.8000*%
%ADD50R,0.7000X1.5000*%
%ADD51R,4.6000X1.1000*%
%ADD52R,9.4000X10.8000*%
%ADD53R,0.8000X1.4000*%
%ADD54O,2.2000X0.6000*%
%ADD55R,0.4000X0.6000*%
%ADD56R,5.5000X2.5000*%
%ADD57R,5.0000X2.2000*%
%ADD58R,1.4000X1.4000*%
%ADD59R,4.7200X4.8000*%
%ADD60R,4.8000X4.7200*%
%ADD61R,1.4000X1.4000*%
%ADD62R,4.5000X3.2500*%
%ADD63R,0.6350X0.8890*%
%ADD64R,1.1430X1.7780*%
%ADD65R,1.7780X1.1430*%
%ADD66R,0.8890X0.6350*%
%ADD67R,0.8000X0.6500*%
%ADD68R,0.8000X0.5000*%
%ADD69R,0.6500X0.8000*%
%ADD70R,0.5000X0.8000*%
%ADD71R,0.8000X0.8000*%
%ADD72R,1.0000X1.2000*%
%ADD73R,1.5000X2.2000*%
D10*
X-36875Y405625D02*
G03*
X-73750Y368750I-0J-36875D01*
G01*
D02*
G03*
X-36875Y331875I36875J0D01*
G01*
X0Y295000D02*
G03*
X-36875Y331875I-36875J0D01*
G01*
Y405625D02*
G03*
X0Y442500I0J36875D01*
G01*
Y-442500D02*
G03*
X-36875Y-405625I-36875J0D01*
G01*
Y-331875D02*
G03*
X0Y-295000I0J36875D01*
G01*
X-36875Y-331875D02*
G03*
X-73750Y-368750I-0J-36875D01*
G01*
D02*
G03*
X-36875Y-405625I36875J0D01*
G01*
X2561875D02*
G03*
X2598750Y-368750I0J36875D01*
G01*
D02*
G03*
X2561875Y-331875I-36875J0D01*
G01*
X2525000Y-295000D02*
G03*
X2561875Y-331875I36875J0D01*
G01*
Y-405625D02*
G03*
X2525000Y-442500I-0J-36875D01*
G01*
Y442500D02*
G03*
X2561875Y405625I36875J0D01*
G01*
Y331875D02*
G03*
X2525000Y295000I-0J-36875D01*
G01*
X2561875Y331875D02*
G03*
X2598750Y368750I0J36875D01*
G01*
D02*
G03*
X2561875Y405625I-36875J0D01*
G01*
X450750Y428000D02*
G03*
X459286Y431535I0J12071D01*
G01*
X475250Y442500D02*
G03*
X466715Y438965I0J-12071D01*
G01*
X408786D02*
G03*
X400250Y442500I-8536J-8536D01*
G01*
X416214Y431535D02*
G03*
X424750Y428000I8536J8536D01*
G01*
X0Y-295000D02*
Y-0D01*
Y295000D01*
X2525000Y-0D02*
Y295000D01*
Y-295000D02*
Y-0D01*
X475250Y442500D02*
X2525000Y442500D01*
X0Y442500D02*
X400250Y442500D01*
X459286Y431536D02*
X466715Y438965D01*
X408786D02*
X416214Y431536D01*
X424750Y428000D02*
X437750D01*
X450750D01*
X0Y-442500D02*
X2525000Y-442500D01*
D49*
X475500Y424650D02*
D03*
X402500D02*
D03*
Y405350D02*
D03*
X475500D02*
D03*
D50*
X416500Y397500D02*
D03*
X446500D02*
D03*
X461500D02*
D03*
D51*
X158250Y131500D02*
D03*
Y148500D02*
D03*
Y199500D02*
D03*
Y165500D02*
D03*
Y182500D02*
D03*
X158500Y-148500D02*
D03*
Y-165500D02*
D03*
Y-131500D02*
D03*
Y-182500D02*
D03*
Y-199500D02*
D03*
D52*
X67250Y165500D02*
D03*
X67500Y-165500D02*
D03*
D53*
X438050Y126500D02*
D03*
X450750D02*
D03*
X463450D02*
D03*
X476150D02*
D03*
X488850D02*
D03*
X501550D02*
D03*
X514250D02*
D03*
X526950D02*
D03*
Y63500D02*
D03*
X514250D02*
D03*
X501550D02*
D03*
X488850D02*
D03*
X476150D02*
D03*
X463450D02*
D03*
X450750D02*
D03*
X438050D02*
D03*
D54*
X778030Y321110D02*
D03*
Y346510D02*
D03*
X832030Y308410D02*
D03*
Y321110D02*
D03*
Y333810D02*
D03*
X778030Y308410D02*
D03*
Y333810D02*
D03*
X832030Y346510D02*
D03*
X832000Y199060D02*
D03*
X778000Y186360D02*
D03*
Y160960D02*
D03*
X832000Y186360D02*
D03*
Y173660D02*
D03*
Y160960D02*
D03*
X778000Y199060D02*
D03*
Y173660D02*
D03*
X777960Y26360D02*
D03*
Y51760D02*
D03*
X831960Y13660D02*
D03*
Y26360D02*
D03*
Y39060D02*
D03*
X777960Y13660D02*
D03*
Y39060D02*
D03*
X831960Y51760D02*
D03*
X832000Y-95940D02*
D03*
X778000Y-108640D02*
D03*
Y-134040D02*
D03*
X832000Y-108640D02*
D03*
Y-121340D02*
D03*
Y-134040D02*
D03*
X778000Y-95940D02*
D03*
Y-121340D02*
D03*
X778030Y394850D02*
D03*
Y420250D02*
D03*
X832030Y382150D02*
D03*
Y394850D02*
D03*
Y407550D02*
D03*
X778030Y382150D02*
D03*
Y407550D02*
D03*
X832030Y420250D02*
D03*
X832000Y272800D02*
D03*
X778000Y260100D02*
D03*
Y234700D02*
D03*
X832000Y260100D02*
D03*
Y247400D02*
D03*
Y234700D02*
D03*
X778000Y272800D02*
D03*
Y247400D02*
D03*
X777960Y100100D02*
D03*
Y125500D02*
D03*
X831960Y87400D02*
D03*
Y100100D02*
D03*
Y112800D02*
D03*
X777960Y87400D02*
D03*
Y112800D02*
D03*
X831960Y125500D02*
D03*
X832000Y-22200D02*
D03*
X778000Y-34900D02*
D03*
Y-60300D02*
D03*
X832000Y-34900D02*
D03*
Y-47600D02*
D03*
Y-60300D02*
D03*
X778000Y-22200D02*
D03*
Y-47600D02*
D03*
X777960Y-268890D02*
D03*
Y-243490D02*
D03*
X831960Y-281590D02*
D03*
Y-268890D02*
D03*
Y-256190D02*
D03*
X777960Y-281590D02*
D03*
Y-256190D02*
D03*
X831960Y-243490D02*
D03*
X832000Y-390940D02*
D03*
X778000Y-403640D02*
D03*
Y-429040D02*
D03*
X832000Y-403640D02*
D03*
Y-416340D02*
D03*
Y-429040D02*
D03*
X778000Y-390940D02*
D03*
Y-416340D02*
D03*
X777960Y-195150D02*
D03*
Y-169750D02*
D03*
X831960Y-207850D02*
D03*
Y-195150D02*
D03*
Y-182450D02*
D03*
X777960Y-207850D02*
D03*
Y-182450D02*
D03*
X831960Y-169750D02*
D03*
X832000Y-317200D02*
D03*
X778000Y-329900D02*
D03*
Y-355300D02*
D03*
X832000Y-329900D02*
D03*
Y-342600D02*
D03*
Y-355300D02*
D03*
X778000Y-317200D02*
D03*
Y-342600D02*
D03*
D55*
X936530Y341330D02*
D03*
X923530D02*
D03*
X930029Y322330D02*
D03*
X936530D02*
D03*
X923530D02*
D03*
X930031Y341330D02*
D03*
X930001Y193880D02*
D03*
X923500Y174880D02*
D03*
X936500D02*
D03*
X929999D02*
D03*
X923500Y193880D02*
D03*
X936500D02*
D03*
X936460Y46580D02*
D03*
X923460D02*
D03*
X929959Y27580D02*
D03*
X936460D02*
D03*
X923460D02*
D03*
X929961Y46580D02*
D03*
X930001Y-101120D02*
D03*
X923500Y-120120D02*
D03*
X936500D02*
D03*
X929999D02*
D03*
X923500Y-101120D02*
D03*
X936500D02*
D03*
X936530Y415070D02*
D03*
X923530D02*
D03*
X930029Y396070D02*
D03*
X936530D02*
D03*
X923530D02*
D03*
X930031Y415070D02*
D03*
X930001Y267620D02*
D03*
X923500Y248620D02*
D03*
X936500D02*
D03*
X929999D02*
D03*
X923500Y267620D02*
D03*
X936500D02*
D03*
X936460Y120320D02*
D03*
X923460D02*
D03*
X929959Y101320D02*
D03*
X936460D02*
D03*
X923460D02*
D03*
X929961Y120320D02*
D03*
X930001Y-27380D02*
D03*
X923500Y-46380D02*
D03*
X936500D02*
D03*
X929999D02*
D03*
X923500Y-27380D02*
D03*
X936500D02*
D03*
X936460Y-248670D02*
D03*
X923460D02*
D03*
X929959Y-267670D02*
D03*
X936460D02*
D03*
X923460D02*
D03*
X929961Y-248670D02*
D03*
X930001Y-396120D02*
D03*
X923500Y-415120D02*
D03*
X936500D02*
D03*
X929999D02*
D03*
X923500Y-396120D02*
D03*
X936500D02*
D03*
X936460Y-174930D02*
D03*
X923460D02*
D03*
X929959Y-193930D02*
D03*
X936460D02*
D03*
X923460D02*
D03*
X929961Y-174930D02*
D03*
X930001Y-322380D02*
D03*
X923500Y-341380D02*
D03*
X936500D02*
D03*
X929999D02*
D03*
X923500Y-322380D02*
D03*
X936500D02*
D03*
X368500Y399500D02*
D03*
X355500D02*
D03*
X361999Y380500D02*
D03*
X368500D02*
D03*
X355500D02*
D03*
D56*
X147500Y295500D02*
D03*
X37500D02*
D03*
D57*
X39000Y54000D02*
D03*
X123000D02*
D03*
X123250Y-54000D02*
D03*
X39250D02*
D03*
Y-277000D02*
D03*
X123250D02*
D03*
D58*
X156950Y407900D02*
D03*
Y387100D02*
D03*
D59*
X195000Y397500D02*
D03*
D60*
X211000Y-128000D02*
D03*
Y203000D02*
D03*
D61*
X221400Y-166050D02*
D03*
X200600D02*
D03*
Y164950D02*
D03*
X221400D02*
D03*
D62*
X303750Y-109250D02*
D03*
Y-221750D02*
D03*
Y221750D02*
D03*
Y109250D02*
D03*
D63*
X157620Y-365000D02*
D03*
X142380D02*
D03*
X157620Y-220000D02*
D03*
X142380D02*
D03*
X157620Y-111000D02*
D03*
X142380D02*
D03*
X895120Y-357875D02*
D03*
X879880D02*
D03*
X895120Y-305875D02*
D03*
X879880D02*
D03*
X895080Y-284175D02*
D03*
X879840D02*
D03*
X895080Y-232175D02*
D03*
X879840D02*
D03*
X895080Y-210425D02*
D03*
X879840D02*
D03*
X984910Y405570D02*
D03*
X1000150D02*
D03*
X895150Y431575D02*
D03*
X879910D02*
D03*
X727410Y426740D02*
D03*
X742650D02*
D03*
X727410Y352960D02*
D03*
X742650D02*
D03*
X895150Y379575D02*
D03*
X879910D02*
D03*
X727410Y401740D02*
D03*
X742650D02*
D03*
X895150Y357825D02*
D03*
X879910D02*
D03*
X895150Y305825D02*
D03*
X879910D02*
D03*
X727410Y327960D02*
D03*
X742650D02*
D03*
X727410Y414240D02*
D03*
X742650D02*
D03*
X727410Y340460D02*
D03*
X742650D02*
D03*
X742580Y-249540D02*
D03*
X727340D02*
D03*
X742580Y-175760D02*
D03*
X727340D02*
D03*
X742580Y-262040D02*
D03*
X727340D02*
D03*
X742580Y-188260D02*
D03*
X727340D02*
D03*
X1000080Y-184430D02*
D03*
X984840D02*
D03*
X742580Y-237040D02*
D03*
X727340D02*
D03*
X742580Y-163260D02*
D03*
X727340D02*
D03*
X879840Y-158425D02*
D03*
X895080D02*
D03*
X742620Y-396990D02*
D03*
X727380D02*
D03*
X742620Y-323210D02*
D03*
X727380D02*
D03*
X742620Y-409490D02*
D03*
X727380D02*
D03*
X879880Y-431625D02*
D03*
X895120D02*
D03*
X879880Y-379625D02*
D03*
X895120D02*
D03*
X742620Y-335710D02*
D03*
X727380D02*
D03*
X1000120Y-331880D02*
D03*
X984880D02*
D03*
X742620Y-384490D02*
D03*
X727380D02*
D03*
X742620Y-310710D02*
D03*
X727380D02*
D03*
X895120Y-136625D02*
D03*
X879880D02*
D03*
X984880Y258120D02*
D03*
X1000120D02*
D03*
X984880Y-36880D02*
D03*
X1000120D02*
D03*
X895120Y-84625D02*
D03*
X879880D02*
D03*
X895120Y-10875D02*
D03*
X879880D02*
D03*
X895120Y-62875D02*
D03*
X879880D02*
D03*
X727380Y279290D02*
D03*
X742620D02*
D03*
X727380Y254290D02*
D03*
X742620D02*
D03*
X727380Y266790D02*
D03*
X742620D02*
D03*
X727340Y131990D02*
D03*
X742580D02*
D03*
X727340Y58210D02*
D03*
X742580D02*
D03*
X727340Y106990D02*
D03*
X742580D02*
D03*
X727340Y33210D02*
D03*
X742580D02*
D03*
X727340Y119490D02*
D03*
X742580D02*
D03*
X727340Y45710D02*
D03*
X742580D02*
D03*
X984840Y110820D02*
D03*
X1000080D02*
D03*
X895080Y136825D02*
D03*
X879840D02*
D03*
X895080Y84825D02*
D03*
X879840D02*
D03*
X895080Y63075D02*
D03*
X879840D02*
D03*
X895080Y11075D02*
D03*
X879840D02*
D03*
X727380Y-15710D02*
D03*
X742620D02*
D03*
X727380Y-89490D02*
D03*
X742620D02*
D03*
X727380Y-40710D02*
D03*
X742620D02*
D03*
X727380Y-28210D02*
D03*
X742620D02*
D03*
X727380Y-114490D02*
D03*
X742620D02*
D03*
X727380Y-101990D02*
D03*
X742620D02*
D03*
X727380Y180510D02*
D03*
X742620D02*
D03*
X727380Y205510D02*
D03*
X742620D02*
D03*
X727380Y193010D02*
D03*
X742620D02*
D03*
X895120Y210375D02*
D03*
X879880D02*
D03*
X895120Y232125D02*
D03*
X879880D02*
D03*
X895120Y284125D02*
D03*
X879880D02*
D03*
X895120Y158375D02*
D03*
X879880D02*
D03*
D64*
X142260Y-240500D02*
D03*
X172740D02*
D03*
X142260Y-90500D02*
D03*
X172740D02*
D03*
D65*
X180000Y54010D02*
D03*
Y84490D02*
D03*
X180000Y237260D02*
D03*
Y267740D02*
D03*
D66*
X200000Y84620D02*
D03*
Y69380D02*
D03*
X200000Y267620D02*
D03*
Y252380D02*
D03*
X355500Y410630D02*
D03*
Y425870D02*
D03*
X341000Y382380D02*
D03*
Y397620D02*
D03*
X382000Y397620D02*
D03*
Y382380D02*
D03*
X446250Y381620D02*
D03*
Y366380D02*
D03*
X852500Y-408620D02*
D03*
Y-423860D02*
D03*
X852500Y-334880D02*
D03*
Y-350120D02*
D03*
X852460Y-261170D02*
D03*
Y-276410D02*
D03*
X1042530Y418580D02*
D03*
Y433820D02*
D03*
X1042530Y376320D02*
D03*
Y361080D02*
D03*
Y318820D02*
D03*
Y303580D02*
D03*
X852530Y402570D02*
D03*
Y387330D02*
D03*
X852530Y328830D02*
D03*
Y313590D02*
D03*
X1042460Y-286420D02*
D03*
Y-271180D02*
D03*
Y-228920D02*
D03*
Y-213680D02*
D03*
X1042460Y-156180D02*
D03*
Y-171420D02*
D03*
X852460Y-202670D02*
D03*
Y-187430D02*
D03*
X1042500Y-433870D02*
D03*
Y-418630D02*
D03*
Y-376370D02*
D03*
Y-361130D02*
D03*
X1042500Y-303630D02*
D03*
Y-318870D02*
D03*
X1042500Y-123630D02*
D03*
Y-138870D02*
D03*
X852500Y-113620D02*
D03*
Y-128860D02*
D03*
X1042500Y-23870D02*
D03*
Y-8630D02*
D03*
X1042500Y-66130D02*
D03*
Y-81370D02*
D03*
X852500Y-39880D02*
D03*
Y-55120D02*
D03*
X1042460Y24070D02*
D03*
Y8830D02*
D03*
X1042460Y123830D02*
D03*
Y139070D02*
D03*
X1042460Y81570D02*
D03*
Y66330D02*
D03*
X852460Y107820D02*
D03*
Y92580D02*
D03*
X852500Y181380D02*
D03*
Y166140D02*
D03*
X852460Y34080D02*
D03*
Y18840D02*
D03*
X1042500Y271130D02*
D03*
Y286370D02*
D03*
X1042500Y228870D02*
D03*
Y213630D02*
D03*
Y171370D02*
D03*
Y156130D02*
D03*
X852500Y255120D02*
D03*
Y239880D02*
D03*
D67*
X395500Y62250D02*
D03*
Y87750D02*
D03*
X409500Y62250D02*
D03*
Y87750D02*
D03*
X395500Y102250D02*
D03*
Y127750D02*
D03*
X409500Y102250D02*
D03*
Y127750D02*
D03*
D68*
X395500Y79000D02*
D03*
Y71000D02*
D03*
X409500Y79000D02*
D03*
Y71000D02*
D03*
X395500Y119000D02*
D03*
Y111000D02*
D03*
X409500Y119000D02*
D03*
Y111000D02*
D03*
D69*
X569350Y112250D02*
D03*
X594850D02*
D03*
X569350Y98250D02*
D03*
X594850D02*
D03*
X620150Y112250D02*
D03*
X645650D02*
D03*
X620150Y98250D02*
D03*
X645650D02*
D03*
D70*
X586100Y112250D02*
D03*
X578100D02*
D03*
X586100Y98250D02*
D03*
X578100D02*
D03*
X636900Y112250D02*
D03*
X628900D02*
D03*
X636900Y98250D02*
D03*
X628900D02*
D03*
D71*
X651950Y66000D02*
D03*
Y81000D02*
D03*
X639250D02*
D03*
Y66000D02*
D03*
X613850Y81000D02*
D03*
Y66000D02*
D03*
X575750Y81000D02*
D03*
Y66000D02*
D03*
X588450Y81000D02*
D03*
Y66000D02*
D03*
X601150Y81000D02*
D03*
Y66000D02*
D03*
X563050Y81000D02*
D03*
Y66000D02*
D03*
X626550Y81000D02*
D03*
Y66000D02*
D03*
D72*
X871260Y-269175D02*
D03*
X903660D02*
D03*
X871260Y-247175D02*
D03*
X903660D02*
D03*
X871330Y416575D02*
D03*
X903730D02*
D03*
X871330Y394575D02*
D03*
X903730D02*
D03*
X751230Y385240D02*
D03*
X718830D02*
D03*
X871330Y342825D02*
D03*
X903730D02*
D03*
X871330Y320825D02*
D03*
X903730D02*
D03*
X751230Y311460D02*
D03*
X718830D02*
D03*
X718760Y-278540D02*
D03*
X751160D02*
D03*
X718760Y-204760D02*
D03*
X751160D02*
D03*
X903660Y-195425D02*
D03*
X871260D02*
D03*
X903660Y-173425D02*
D03*
X871260D02*
D03*
X718800Y-425990D02*
D03*
X751200D02*
D03*
X903700Y-416625D02*
D03*
X871300D02*
D03*
X903700Y-394625D02*
D03*
X871300D02*
D03*
X718800Y-352210D02*
D03*
X751200D02*
D03*
X903700Y-342875D02*
D03*
X871300D02*
D03*
X903700Y-320875D02*
D03*
X871300D02*
D03*
Y-121625D02*
D03*
X903700D02*
D03*
X871300Y-99625D02*
D03*
X903700D02*
D03*
X871300Y269125D02*
D03*
X903700D02*
D03*
X871300Y-25875D02*
D03*
X903700D02*
D03*
X871300Y-47875D02*
D03*
X903700D02*
D03*
X751160Y90490D02*
D03*
X718760D02*
D03*
X751160Y16710D02*
D03*
X718760D02*
D03*
X871260Y121825D02*
D03*
X903660D02*
D03*
X871260Y48075D02*
D03*
X903660D02*
D03*
X871260Y99825D02*
D03*
X903660D02*
D03*
X871260Y26075D02*
D03*
X903660D02*
D03*
X751200Y-57210D02*
D03*
X718800D02*
D03*
X751200Y-130990D02*
D03*
X718800D02*
D03*
X871300Y173375D02*
D03*
X903700D02*
D03*
X871300Y195375D02*
D03*
X903700D02*
D03*
X871300Y247125D02*
D03*
X903700D02*
D03*
X751200Y237790D02*
D03*
X718800D02*
D03*
X751200Y164010D02*
D03*
X718800D02*
D03*
D73*
X961030Y405575D02*
D03*
X1024030D02*
D03*
X961030Y331825D02*
D03*
X1024030D02*
D03*
X960960Y-258175D02*
D03*
X1023960D02*
D03*
X960960Y-184425D02*
D03*
X1023960D02*
D03*
X961000Y-405625D02*
D03*
X1024000D02*
D03*
X961000Y-331875D02*
D03*
X1024000D02*
D03*
X961000Y-110625D02*
D03*
X1024000D02*
D03*
X961000Y258125D02*
D03*
X1024000D02*
D03*
X961000Y-36875D02*
D03*
X1024000D02*
D03*
X960960Y37075D02*
D03*
X1023960D02*
D03*
X960960Y110825D02*
D03*
X1023960D02*
D03*
X961000Y184375D02*
D03*
X1024000D02*
D03*
M02*
