G04*
G04 #@! TF.GenerationSoftware,Altium Limited,Altium Designer,22.2.1 (43)*
G04*
G04 Layer_Color=8421504*
%FSLAX44Y44*%
%MOMM*%
G71*
G04*
G04 #@! TF.SameCoordinates,C2D7B67D-8841-428D-B263-7EF30795714A*
G04*
G04*
G04 #@! TF.FilePolarity,Positive*
G04*
G01*
G75*
%ADD10C,0.2540*%
%ADD15R,0.9000X1.5000*%
%ADD16R,0.2500X2.0000*%
D10*
X-36875Y405625D02*
G03*
X-73750Y368750I-0J-36875D01*
G01*
D02*
G03*
X-36875Y331875I36875J0D01*
G01*
X0Y295000D02*
G03*
X-36875Y331875I-36875J0D01*
G01*
Y405625D02*
G03*
X0Y442500I0J36875D01*
G01*
Y-442500D02*
G03*
X-36875Y-405625I-36875J0D01*
G01*
Y-331875D02*
G03*
X0Y-295000I0J36875D01*
G01*
X-36875Y-331875D02*
G03*
X-73750Y-368750I-0J-36875D01*
G01*
D02*
G03*
X-36875Y-405625I36875J0D01*
G01*
X2561875D02*
G03*
X2598750Y-368750I0J36875D01*
G01*
D02*
G03*
X2561875Y-331875I-36875J0D01*
G01*
X2525000Y-295000D02*
G03*
X2561875Y-331875I36875J0D01*
G01*
Y-405625D02*
G03*
X2525000Y-442500I-0J-36875D01*
G01*
Y442500D02*
G03*
X2561875Y405625I36875J0D01*
G01*
Y331875D02*
G03*
X2525000Y295000I-0J-36875D01*
G01*
X2561875Y331875D02*
G03*
X2598750Y368750I0J36875D01*
G01*
D02*
G03*
X2561875Y405625I-36875J0D01*
G01*
X450750Y428000D02*
G03*
X459286Y431535I0J12071D01*
G01*
X475250Y442500D02*
G03*
X466715Y438965I0J-12071D01*
G01*
X408786D02*
G03*
X400250Y442500I-8536J-8536D01*
G01*
X416214Y431535D02*
G03*
X424750Y428000I8536J8536D01*
G01*
X0Y-295000D02*
Y-0D01*
Y295000D01*
X2525000Y-0D02*
Y295000D01*
Y-295000D02*
Y-0D01*
X475250Y442500D02*
X2525000Y442500D01*
X0Y442500D02*
X400250Y442500D01*
X459286Y431536D02*
X466715Y438965D01*
X408786D02*
X416214Y431536D01*
X424750Y428000D02*
X437750D01*
X450750D01*
X0Y-442500D02*
X2525000Y-442500D01*
D15*
X2499000Y-344250D02*
D03*
X2466000D02*
D03*
X2499000Y-393250D02*
D03*
X2466000D02*
D03*
X2499000Y-196750D02*
D03*
X2466000D02*
D03*
X2499000Y-245750D02*
D03*
X2466000D02*
D03*
X2499000Y-49250D02*
D03*
X2466000D02*
D03*
X2499000Y-98250D02*
D03*
X2466000D02*
D03*
X2499000Y98250D02*
D03*
X2466000D02*
D03*
X2499000Y49250D02*
D03*
X2466000D02*
D03*
X2499000Y245750D02*
D03*
X2466000D02*
D03*
X2499000Y196750D02*
D03*
X2466000D02*
D03*
X2499000Y393250D02*
D03*
X2466000D02*
D03*
X2499000Y344250D02*
D03*
X2466000D02*
D03*
D16*
X460000Y-202000D02*
D03*
X465000D02*
D03*
X470000D02*
D03*
X475000D02*
D03*
X480000D02*
D03*
X485000D02*
D03*
X490000D02*
D03*
X495000D02*
D03*
X500000D02*
D03*
X505000D02*
D03*
X535000D02*
D03*
X515000D02*
D03*
X510000D02*
D03*
X520000D02*
D03*
X575000D02*
D03*
X525000D02*
D03*
X530000D02*
D03*
X540000D02*
D03*
X545000D02*
D03*
X550000D02*
D03*
X555000D02*
D03*
X560000D02*
D03*
X565000D02*
D03*
X570000D02*
D03*
X580000D02*
D03*
X460000Y-158000D02*
D03*
X465000D02*
D03*
X470000D02*
D03*
X475000D02*
D03*
X480000D02*
D03*
X485000D02*
D03*
X490000D02*
D03*
X495000D02*
D03*
X500000D02*
D03*
X505000D02*
D03*
X535000D02*
D03*
X515000D02*
D03*
X510000D02*
D03*
X520000D02*
D03*
X575000D02*
D03*
X525000D02*
D03*
X530000D02*
D03*
X540000D02*
D03*
X545000D02*
D03*
X550000D02*
D03*
X555000D02*
D03*
X560000D02*
D03*
X565000D02*
D03*
X570000D02*
D03*
X580000D02*
D03*
X205000Y-202000D02*
D03*
X210000D02*
D03*
X215000D02*
D03*
X220000D02*
D03*
X225000D02*
D03*
X230000D02*
D03*
X235000D02*
D03*
X240000D02*
D03*
X245000D02*
D03*
X250000D02*
D03*
X280000D02*
D03*
X260000D02*
D03*
X255000D02*
D03*
X265000D02*
D03*
X320000D02*
D03*
X270000D02*
D03*
X275000D02*
D03*
X285000D02*
D03*
X290000D02*
D03*
X295000D02*
D03*
X300000D02*
D03*
X305000D02*
D03*
X310000D02*
D03*
X315000D02*
D03*
X325000D02*
D03*
X205000Y-158000D02*
D03*
X210000D02*
D03*
X215000D02*
D03*
X220000D02*
D03*
X225000D02*
D03*
X230000D02*
D03*
X235000D02*
D03*
X240000D02*
D03*
X245000D02*
D03*
X250000D02*
D03*
X280000D02*
D03*
X260000D02*
D03*
X255000D02*
D03*
X265000D02*
D03*
X320000D02*
D03*
X270000D02*
D03*
X275000D02*
D03*
X285000D02*
D03*
X290000D02*
D03*
X295000D02*
D03*
X300000D02*
D03*
X305000D02*
D03*
X310000D02*
D03*
X315000D02*
D03*
X325000D02*
D03*
X460000Y158000D02*
D03*
X465000D02*
D03*
X470000D02*
D03*
X475000D02*
D03*
X480000D02*
D03*
X485000D02*
D03*
X490000D02*
D03*
X495000D02*
D03*
X500000D02*
D03*
X505000D02*
D03*
X535000D02*
D03*
X515000D02*
D03*
X510000D02*
D03*
X520000D02*
D03*
X575000D02*
D03*
X525000D02*
D03*
X530000D02*
D03*
X540000D02*
D03*
X545000D02*
D03*
X550000D02*
D03*
X555000D02*
D03*
X560000D02*
D03*
X565000D02*
D03*
X570000D02*
D03*
X580000D02*
D03*
X460000Y202000D02*
D03*
X465000D02*
D03*
X470000D02*
D03*
X475000D02*
D03*
X480000D02*
D03*
X485000D02*
D03*
X490000D02*
D03*
X495000D02*
D03*
X500000D02*
D03*
X505000D02*
D03*
X535000D02*
D03*
X515000D02*
D03*
X510000D02*
D03*
X520000D02*
D03*
X575000D02*
D03*
X525000D02*
D03*
X530000D02*
D03*
X540000D02*
D03*
X545000D02*
D03*
X550000D02*
D03*
X555000D02*
D03*
X560000D02*
D03*
X565000D02*
D03*
X570000D02*
D03*
X580000D02*
D03*
X245000Y158000D02*
D03*
X250000D02*
D03*
X255000D02*
D03*
X260000D02*
D03*
X265000D02*
D03*
X270000D02*
D03*
X275000D02*
D03*
X280000D02*
D03*
X285000D02*
D03*
X290000D02*
D03*
X320000D02*
D03*
X300000D02*
D03*
X295000D02*
D03*
X305000D02*
D03*
X360000D02*
D03*
X310000D02*
D03*
X315000D02*
D03*
X325000D02*
D03*
X330000D02*
D03*
X335000D02*
D03*
X340000D02*
D03*
X345000D02*
D03*
X350000D02*
D03*
X355000D02*
D03*
X365000D02*
D03*
X245000Y202000D02*
D03*
X250000D02*
D03*
X255000D02*
D03*
X260000D02*
D03*
X265000D02*
D03*
X270000D02*
D03*
X275000D02*
D03*
X280000D02*
D03*
X285000D02*
D03*
X290000D02*
D03*
X320000D02*
D03*
X300000D02*
D03*
X295000D02*
D03*
X305000D02*
D03*
X360000D02*
D03*
X310000D02*
D03*
X315000D02*
D03*
X325000D02*
D03*
X330000D02*
D03*
X335000D02*
D03*
X340000D02*
D03*
X345000D02*
D03*
X350000D02*
D03*
X355000D02*
D03*
X365000D02*
D03*
M02*
