G04*
G04 #@! TF.GenerationSoftware,Altium Limited,Altium Designer,22.2.1 (43)*
G04*
G04 Layer_Color=128*
%FSLAX44Y44*%
%MOMM*%
G71*
G04*
G04 #@! TF.SameCoordinates,CDD9168B-683F-4F5A-B1B2-3852E0251DB5*
G04*
G04*
G04 #@! TF.FilePolarity,Positive*
G04*
G01*
G75*
%ADD10C,0.2540*%
%ADD18R,0.6350X0.8890*%
%ADD84O,0.4000X1.0000*%
%ADD85R,0.7000X0.2000*%
%ADD86R,1.2000X1.0000*%
G04:AMPARAMS|DCode=87|XSize=0.3mm|YSize=0.67mm|CornerRadius=0.075mm|HoleSize=0mm|Usage=FLASHONLY|Rotation=270.000|XOffset=0mm|YOffset=0mm|HoleType=Round|Shape=RoundedRectangle|*
%AMROUNDEDRECTD87*
21,1,0.3000,0.5200,0,0,270.0*
21,1,0.1500,0.6700,0,0,270.0*
1,1,0.1500,-0.2600,-0.0750*
1,1,0.1500,-0.2600,0.0750*
1,1,0.1500,0.2600,0.0750*
1,1,0.1500,0.2600,-0.0750*
%
%ADD87ROUNDEDRECTD87*%
%ADD88O,0.4000X1.2600*%
%ADD89O,0.9000X0.2500*%
%ADD90R,3.7000X3.7000*%
%ADD91O,0.2500X0.9000*%
%ADD92R,0.4000X0.6000*%
%ADD93R,1.4000X1.2000*%
%ADD94O,0.3000X1.0000*%
%ADD95R,0.3000X2.6000*%
%ADD96R,2.6000X0.3000*%
%ADD97R,1.1430X1.7780*%
%ADD98R,0.8890X0.6350*%
%ADD99R,1.0000X0.7000*%
%ADD100R,1.7780X1.1430*%
%ADD101R,0.8000X1.0000*%
%ADD102R,1.5000X0.7000*%
%ADD103R,1.2500X0.6000*%
%ADD104R,1.2500X0.3000*%
%ADD105R,2.2000X5.0000*%
%ADD106R,2.5000X5.5000*%
%ADD107R,1.4000X1.4000*%
%ADD108R,4.8000X4.7200*%
%ADD109R,3.2500X4.5000*%
%ADD110R,4.7200X4.8000*%
%ADD111R,1.4000X1.4000*%
%ADD112R,1.1000X4.6000*%
%ADD113R,10.8000X9.4000*%
%ADD114O,2.2000X0.6000*%
%ADD115R,2.0000X0.2500*%
%ADD116R,0.6500X0.8000*%
%ADD117R,0.5000X0.8000*%
%ADD118R,1.7780X1.0160*%
%ADD119R,0.8000X0.8000*%
%ADD120R,1.0160X1.7780*%
%ADD121O,0.6000X2.2000*%
%ADD122R,0.7000X1.0000*%
%ADD123R,2.2000X1.5000*%
D10*
X-310000Y2270000D02*
G03*
X-300000Y2280000I0J10000D01*
G01*
X-365000Y2260000D02*
G03*
X-355000Y2250000I10000J0D01*
G01*
Y2270000D02*
G03*
X-365000Y2260000I0J-10000D01*
G01*
X-310000Y2250000D02*
G03*
X-280000Y2280000I0J30000D01*
G01*
X-280000Y2370000D02*
G03*
X-290000Y2380000I-10000J0D01*
G01*
D02*
G03*
X-300000Y2370000I0J-10000D01*
G01*
X195000Y-740000D02*
G03*
X205000Y-750000I10000J0D01*
G01*
X195000Y-665000D02*
G03*
X185000Y-655000I-10000J0D01*
G01*
X-5000D02*
G03*
X-15000Y-665000I0J-10000D01*
G01*
X-488000Y-102000D02*
G03*
X-498000Y-92000I-10000J0D01*
G01*
X-606000Y-129000D02*
G03*
X-570261Y-101576I0J37000D01*
G01*
X-688000Y-261000D02*
G03*
X-678000Y-271000I10000J0D01*
G01*
Y-129000D02*
G03*
X-688000Y-139000I0J-10000D01*
G01*
X-560250Y-92000D02*
G03*
X-569457Y-98838I0J-9618D01*
G01*
X-498000Y-271000D02*
G03*
X-488000Y-261000I0J10000D01*
G01*
X-25000Y-750000D02*
G03*
X-15000Y-740000I0J10000D01*
G01*
X-1100000Y-1350000D02*
G03*
X-1060000Y-1310000I0J40000D01*
G01*
X-260000Y-750000D02*
G03*
X-300000Y-790000I0J-40000D01*
G01*
X-340000Y-1050000D02*
G03*
X-300000Y-1010000I0J40000D01*
G01*
X-1020000Y-1050000D02*
G03*
X-1060000Y-1090000I0J-40000D01*
G01*
X-1489035Y-121285D02*
G03*
X-1485500Y-112750I-8536J8536D01*
G01*
X-1496465Y-128714D02*
G03*
X-1500000Y-137250I8536J-8536D01*
G01*
Y-62250D02*
G03*
X-1496465Y-70785I12071J0D01*
G01*
X-1485500Y-86750D02*
G03*
X-1489035Y-78214I-12071J0D01*
G01*
X-360000Y2410000D02*
G03*
X-400000Y2370000I0J-40000D01*
G01*
X-440000Y2140000D02*
G03*
X-400000Y2180000I0J40000D01*
G01*
X-1460000Y2140000D02*
G03*
X-1500000Y2100000I0J-40000D01*
G01*
X400000Y2180000D02*
G03*
X440000Y2140000I40000J0D01*
G01*
X400000Y2370000D02*
G03*
X360000Y2410000I-40000J0D01*
G01*
X1500000Y2100000D02*
G03*
X1460000Y2140000I-40000J0D01*
G01*
X-1500000Y-1310000D02*
G03*
X-1460000Y-1350000I40000J0D01*
G01*
X1420000Y-790000D02*
G03*
X1380000Y-750000I-40000J0D01*
G01*
X1420000Y-800000D02*
G03*
X1500000Y-800000I40000J0D01*
G01*
X-355000Y2250000D02*
X-310000Y2250000D01*
X-355000Y2270000D02*
X-310000Y2270000D01*
X-280000Y2280000D02*
X-280000Y2370000D01*
X-300000Y2280000D02*
X-300000Y2370000D01*
X-678000Y-271000D02*
X-498000D01*
X-488000Y-261000D02*
Y-190000D01*
X-688000D02*
Y-139000D01*
X-678000Y-129000D02*
X-606000D01*
X-488000Y-190000D02*
Y-102000D01*
X-560250Y-92000D02*
X-498000D01*
X-570261Y-101576D02*
X-569457Y-98838D01*
X-688000Y-261000D02*
Y-190000D01*
X-5000Y-655000D02*
X90000D01*
X185000D01*
X195000Y-740000D02*
Y-665000D01*
X-15000Y-740000D02*
Y-665000D01*
X-300000Y-1010000D02*
Y-790000D01*
X-1020000Y-1050000D02*
X-340000Y-1050000D01*
X-1060000Y-1310000D02*
Y-1090000D01*
X-1485500Y-99750D02*
Y-86750D01*
Y-112750D02*
Y-99750D01*
X-1496464Y-128715D02*
X-1489036Y-121286D01*
X-1496464Y-70785D02*
X-1489036Y-78214D01*
X-400000Y2180000D02*
Y2370000D01*
X-360000Y2410000D02*
X360000D01*
X-1460000Y2140000D02*
X-440000Y2140000D01*
X400000Y2180000D02*
Y2370000D01*
X440000Y2140000D02*
X1460000Y2140000D01*
X-1500000Y-137250D02*
X-1500000Y-1310000D01*
X-1460000Y-1350000D02*
X-1100000D01*
X-260000Y-750000D02*
X-25000Y-750000D01*
X205000Y-750000D02*
X1380000Y-750000D01*
X1420000Y-800000D02*
Y-790000D01*
X1499999Y-800000D02*
X1500000Y2100000D01*
X-1500000Y-62250D02*
Y2100000D01*
D18*
X-357620Y2342500D02*
D03*
X-342380D02*
D03*
X-1002620Y-387000D02*
D03*
X-987380D02*
D03*
X-1403380Y-172000D02*
D03*
X-1418620D02*
D03*
X-1390620Y-267000D02*
D03*
X-1375380D02*
D03*
X-1341380Y-760000D02*
D03*
X-1356620D02*
D03*
Y-772000D02*
D03*
X-1341380D02*
D03*
Y-784000D02*
D03*
X-1356620D02*
D03*
Y-796000D02*
D03*
X-1341380D02*
D03*
X-1356620Y-808000D02*
D03*
X-1341380D02*
D03*
Y-820000D02*
D03*
X-1356620D02*
D03*
Y-832000D02*
D03*
X-1341380D02*
D03*
X-1220620Y-792000D02*
D03*
X-1205380D02*
D03*
X-1272380Y-975000D02*
D03*
X-1287620D02*
D03*
X-653380Y-535000D02*
D03*
X-668620D02*
D03*
X-702620Y-535000D02*
D03*
X-687380D02*
D03*
X57620Y-40000D02*
D03*
X42380D02*
D03*
X-110620Y-240000D02*
D03*
X-95380D02*
D03*
Y-225000D02*
D03*
X-110620D02*
D03*
X42620Y-181000D02*
D03*
X27380D02*
D03*
Y-168000D02*
D03*
X42620D02*
D03*
X27380Y-251000D02*
D03*
X42620D02*
D03*
X324620Y-210000D02*
D03*
X309380D02*
D03*
X309380Y-225000D02*
D03*
X324620D02*
D03*
Y-240000D02*
D03*
X309380D02*
D03*
X1137380Y-480000D02*
D03*
X1152620D02*
D03*
X-1243380Y-368000D02*
D03*
X-1258620D02*
D03*
X-1203010Y195000D02*
D03*
X-1218250D02*
D03*
X-1129260D02*
D03*
X-1144500D02*
D03*
X-1350510D02*
D03*
X-1365750D02*
D03*
X-1276760D02*
D03*
X-1292000D02*
D03*
X-686760D02*
D03*
X-702000D02*
D03*
X-760510D02*
D03*
X-775750D02*
D03*
X-539260D02*
D03*
X-554500D02*
D03*
X-613010D02*
D03*
X-628250D02*
D03*
X-391760D02*
D03*
X-407000D02*
D03*
X-465510D02*
D03*
X-480750D02*
D03*
X-244260D02*
D03*
X-259500D02*
D03*
X-318010D02*
D03*
X-333250D02*
D03*
X-96760D02*
D03*
X-112000D02*
D03*
X-170510D02*
D03*
X-185750D02*
D03*
X50740D02*
D03*
X35500D02*
D03*
X-23010D02*
D03*
X-38250D02*
D03*
X198240D02*
D03*
X183000D02*
D03*
X124490D02*
D03*
X109250D02*
D03*
X345740D02*
D03*
X330500D02*
D03*
X271990D02*
D03*
X256750D02*
D03*
X493240D02*
D03*
X478000D02*
D03*
X419490D02*
D03*
X404250D02*
D03*
X640740D02*
D03*
X625500D02*
D03*
X566990D02*
D03*
X551750D02*
D03*
X-834260D02*
D03*
X-849500D02*
D03*
X-908010D02*
D03*
X-923250D02*
D03*
X788240D02*
D03*
X773000D02*
D03*
X714490D02*
D03*
X699250D02*
D03*
X935740D02*
D03*
X920500D02*
D03*
X861990D02*
D03*
X846750D02*
D03*
X-981760D02*
D03*
X-997000D02*
D03*
X-1055510D02*
D03*
X-1070750D02*
D03*
X1083240D02*
D03*
X1068000D02*
D03*
X1009490D02*
D03*
X994250D02*
D03*
X1230740D02*
D03*
X1215500D02*
D03*
X1156990D02*
D03*
X1141750D02*
D03*
X1378240D02*
D03*
X1363000D02*
D03*
X1304490D02*
D03*
X1289250D02*
D03*
D84*
X-1301250Y-269500D02*
D03*
X-1307750D02*
D03*
X-1314250D02*
D03*
X-1320750D02*
D03*
X-1301250Y-234500D02*
D03*
X-1307750D02*
D03*
X-1314250D02*
D03*
X-1320750D02*
D03*
X-1270250Y-1037500D02*
D03*
X-1276750D02*
D03*
X-1283250D02*
D03*
X-1289750D02*
D03*
X-1270250Y-1002500D02*
D03*
X-1276750D02*
D03*
X-1283250D02*
D03*
X-1289750D02*
D03*
D85*
X-840000Y-202000D02*
D03*
X-870800D02*
D03*
X-840000Y-206000D02*
D03*
X-870800D02*
D03*
X-840000Y-210000D02*
D03*
X-870800D02*
D03*
X-840000Y-214000D02*
D03*
X-870800D02*
D03*
X-840000Y-218000D02*
D03*
X-870800D02*
D03*
X-840000Y-222000D02*
D03*
X-870800D02*
D03*
X-840000Y-226000D02*
D03*
X-870800D02*
D03*
X-840000Y-230000D02*
D03*
X-870800D02*
D03*
X-840000Y-234000D02*
D03*
X-870800D02*
D03*
X-840000Y-238000D02*
D03*
X-870800D02*
D03*
X-840000Y-242000D02*
D03*
X-870800D02*
D03*
X-840000Y-246000D02*
D03*
X-870800D02*
D03*
X-840000Y-250000D02*
D03*
X-870800D02*
D03*
X-840000Y-254000D02*
D03*
X-870800D02*
D03*
X-840000Y-258000D02*
D03*
X-870800D02*
D03*
X-840000Y-262000D02*
D03*
X-870800D02*
D03*
X-840000Y-266000D02*
D03*
X-870800D02*
D03*
X-840000Y-270000D02*
D03*
X-870800D02*
D03*
X-840000Y-274000D02*
D03*
X-870800D02*
D03*
X-840000Y-278000D02*
D03*
X-870800D02*
D03*
X-840000Y-282000D02*
D03*
X-870800D02*
D03*
X-840000Y-286000D02*
D03*
X-870800D02*
D03*
X-840000Y-290000D02*
D03*
X-870800D02*
D03*
X-840000Y-294000D02*
D03*
X-870800D02*
D03*
X-840000Y-298000D02*
D03*
X-870800D02*
D03*
X-840000Y-302000D02*
D03*
X-870800D02*
D03*
X-840000Y-306000D02*
D03*
X-870800D02*
D03*
X-840000Y-310000D02*
D03*
X-870800D02*
D03*
X-840000Y-314000D02*
D03*
X-870800D02*
D03*
X-840000Y-318000D02*
D03*
X-870800D02*
D03*
X-840000Y-322000D02*
D03*
X-870800D02*
D03*
X-840000Y-326000D02*
D03*
X-870800D02*
D03*
X-840000Y-330000D02*
D03*
X-870800D02*
D03*
X-840000Y-334000D02*
D03*
X-870800D02*
D03*
X-840000Y-338000D02*
D03*
X-870800D02*
D03*
X-840000Y-342000D02*
D03*
X-870800D02*
D03*
X-840000Y-346000D02*
D03*
X-870800D02*
D03*
X-840000Y-350000D02*
D03*
X-870800D02*
D03*
X-840000Y-354000D02*
D03*
X-870800D02*
D03*
X-840000Y-358000D02*
D03*
X-870800D02*
D03*
X-840000Y-362000D02*
D03*
X-870800D02*
D03*
X-840000Y-366000D02*
D03*
X-870800D02*
D03*
X-840000Y-370000D02*
D03*
X-870800D02*
D03*
X-840000Y-374000D02*
D03*
X-870800D02*
D03*
X-840000Y-378000D02*
D03*
X-870800D02*
D03*
X-840000Y-382000D02*
D03*
X-870800D02*
D03*
X-840000Y-386000D02*
D03*
X-870800D02*
D03*
X-840000Y-390000D02*
D03*
X-870800D02*
D03*
X-840000Y-394000D02*
D03*
X-870800D02*
D03*
X-840000Y-398000D02*
D03*
X-870800D02*
D03*
X-1179200Y-202000D02*
D03*
X-1210000D02*
D03*
X-1179200Y-206000D02*
D03*
X-1210000D02*
D03*
X-1179200Y-210000D02*
D03*
X-1210000D02*
D03*
X-1179200Y-214000D02*
D03*
X-1210000D02*
D03*
X-1179200Y-218000D02*
D03*
X-1210000D02*
D03*
X-1179200Y-222000D02*
D03*
X-1210000D02*
D03*
X-1179200Y-226000D02*
D03*
X-1210000D02*
D03*
X-1179200Y-230000D02*
D03*
X-1210000D02*
D03*
X-1179200Y-234000D02*
D03*
X-1210000D02*
D03*
X-1179200Y-238000D02*
D03*
X-1210000D02*
D03*
X-1179200Y-242000D02*
D03*
X-1210000D02*
D03*
X-1179200Y-246000D02*
D03*
X-1210000D02*
D03*
X-1179200Y-250000D02*
D03*
X-1210000D02*
D03*
X-1179200Y-254000D02*
D03*
X-1210000D02*
D03*
X-1179200Y-258000D02*
D03*
X-1210000D02*
D03*
X-1179200Y-262000D02*
D03*
X-1210000D02*
D03*
X-1179200Y-266000D02*
D03*
X-1210000D02*
D03*
X-1179200Y-270000D02*
D03*
X-1210000D02*
D03*
X-1179200Y-274000D02*
D03*
X-1210000D02*
D03*
X-1179200Y-278000D02*
D03*
X-1210000D02*
D03*
X-1179200Y-282000D02*
D03*
X-1210000D02*
D03*
X-1179200Y-286000D02*
D03*
X-1210000D02*
D03*
X-1179200Y-290000D02*
D03*
X-1210000D02*
D03*
X-1179200Y-294000D02*
D03*
X-1210000D02*
D03*
X-1179200Y-298000D02*
D03*
X-1210000D02*
D03*
X-1179200Y-302000D02*
D03*
X-1210000D02*
D03*
X-1179200Y-306000D02*
D03*
X-1210000D02*
D03*
X-1179200Y-310000D02*
D03*
X-1210000D02*
D03*
X-1179200Y-314000D02*
D03*
X-1210000D02*
D03*
X-1179200Y-318000D02*
D03*
X-1210000D02*
D03*
X-1179200Y-322000D02*
D03*
X-1210000D02*
D03*
X-1179200Y-326000D02*
D03*
X-1210000D02*
D03*
X-1179200Y-330000D02*
D03*
X-1210000D02*
D03*
X-1179200Y-334000D02*
D03*
X-1210000D02*
D03*
X-1179200Y-338000D02*
D03*
X-1210000D02*
D03*
X-1179200Y-342000D02*
D03*
X-1210000D02*
D03*
X-1179200Y-346000D02*
D03*
X-1210000D02*
D03*
X-1179200Y-350000D02*
D03*
X-1210000D02*
D03*
X-1179200Y-354000D02*
D03*
X-1210000D02*
D03*
X-1179200Y-358000D02*
D03*
X-1210000D02*
D03*
X-1179200Y-362000D02*
D03*
X-1210000D02*
D03*
X-1179200Y-366000D02*
D03*
X-1210000D02*
D03*
X-1179200Y-370000D02*
D03*
X-1210000D02*
D03*
X-1179200Y-374000D02*
D03*
X-1210000D02*
D03*
X-1179200Y-378000D02*
D03*
X-1210000D02*
D03*
X-1179200Y-382000D02*
D03*
X-1210000D02*
D03*
X-1179200Y-386000D02*
D03*
X-1210000D02*
D03*
X-1179200Y-390000D02*
D03*
X-1210000D02*
D03*
X-1179200Y-394000D02*
D03*
X-1210000D02*
D03*
X-1179200Y-398000D02*
D03*
X-1210000D02*
D03*
D86*
X-1266813Y61300D02*
D03*
Y93700D02*
D03*
X-1119313D02*
D03*
Y61300D02*
D03*
X-971813D02*
D03*
Y93700D02*
D03*
X-824313D02*
D03*
Y61300D02*
D03*
X-676813D02*
D03*
Y93700D02*
D03*
X-529313D02*
D03*
Y61300D02*
D03*
X-381813D02*
D03*
Y93700D02*
D03*
X-234312D02*
D03*
Y61300D02*
D03*
X-86812D02*
D03*
Y93700D02*
D03*
X60687D02*
D03*
Y61300D02*
D03*
X208188D02*
D03*
Y93700D02*
D03*
X355687D02*
D03*
Y61300D02*
D03*
X503187D02*
D03*
Y93700D02*
D03*
X650687D02*
D03*
Y61300D02*
D03*
X798187D02*
D03*
Y93700D02*
D03*
X945687D02*
D03*
Y61300D02*
D03*
X1093187D02*
D03*
Y93700D02*
D03*
X1240687D02*
D03*
Y61300D02*
D03*
X1388188D02*
D03*
Y93700D02*
D03*
X-1284000Y213800D02*
D03*
Y246200D02*
D03*
X-1136500D02*
D03*
Y213800D02*
D03*
X-989000D02*
D03*
Y246200D02*
D03*
X-841500D02*
D03*
Y213800D02*
D03*
X-694000D02*
D03*
Y246200D02*
D03*
X-546500D02*
D03*
Y213800D02*
D03*
X-399000D02*
D03*
Y246200D02*
D03*
X-251500D02*
D03*
Y213800D02*
D03*
X-104000D02*
D03*
Y246200D02*
D03*
X43500D02*
D03*
Y213800D02*
D03*
X191000D02*
D03*
Y246200D02*
D03*
X338500D02*
D03*
Y213800D02*
D03*
X486000D02*
D03*
Y246200D02*
D03*
X633500D02*
D03*
Y213800D02*
D03*
X781000D02*
D03*
Y246200D02*
D03*
X928500D02*
D03*
Y213800D02*
D03*
X1076000D02*
D03*
Y246200D02*
D03*
X1223500D02*
D03*
Y213800D02*
D03*
X1371000D02*
D03*
Y246200D02*
D03*
X-1290625Y343700D02*
D03*
Y311300D02*
D03*
X-1143125D02*
D03*
Y343700D02*
D03*
X-995625D02*
D03*
Y311300D02*
D03*
X-848125D02*
D03*
Y343700D02*
D03*
X-700625D02*
D03*
Y311300D02*
D03*
X-553125D02*
D03*
Y343700D02*
D03*
X-405625D02*
D03*
Y311300D02*
D03*
X-258125D02*
D03*
Y343700D02*
D03*
X-110625D02*
D03*
Y311300D02*
D03*
X36875D02*
D03*
Y343700D02*
D03*
X184375D02*
D03*
Y311300D02*
D03*
X331875D02*
D03*
Y343700D02*
D03*
X479375D02*
D03*
Y311300D02*
D03*
X626875D02*
D03*
Y343700D02*
D03*
X774375D02*
D03*
Y311300D02*
D03*
X921875D02*
D03*
Y343700D02*
D03*
X1069375D02*
D03*
Y311300D02*
D03*
X1216875D02*
D03*
Y343700D02*
D03*
X1364375D02*
D03*
Y311300D02*
D03*
X-1306000Y213800D02*
D03*
Y246200D02*
D03*
X-1158500D02*
D03*
Y213800D02*
D03*
X-1011000D02*
D03*
Y246200D02*
D03*
X-863500D02*
D03*
Y213800D02*
D03*
X-716000D02*
D03*
Y246200D02*
D03*
X-568500D02*
D03*
Y213800D02*
D03*
X-421000D02*
D03*
Y246200D02*
D03*
X-273500D02*
D03*
Y213800D02*
D03*
X-126000D02*
D03*
Y246200D02*
D03*
X21500D02*
D03*
Y213800D02*
D03*
X169000D02*
D03*
Y246200D02*
D03*
X316500D02*
D03*
Y213800D02*
D03*
X464000D02*
D03*
Y246200D02*
D03*
X611500D02*
D03*
Y213800D02*
D03*
X759000D02*
D03*
Y246200D02*
D03*
X906500D02*
D03*
Y213800D02*
D03*
X1054000D02*
D03*
Y246200D02*
D03*
X1201500D02*
D03*
Y213800D02*
D03*
X1349000D02*
D03*
Y246200D02*
D03*
X-1312750Y343700D02*
D03*
Y311300D02*
D03*
X-1165250D02*
D03*
Y343700D02*
D03*
X-1017750D02*
D03*
Y311300D02*
D03*
X-870250D02*
D03*
Y343700D02*
D03*
X-722750D02*
D03*
Y311300D02*
D03*
X-575250D02*
D03*
Y343700D02*
D03*
X-427750D02*
D03*
Y311300D02*
D03*
X-280250D02*
D03*
Y343700D02*
D03*
X-132750D02*
D03*
Y311300D02*
D03*
X14750D02*
D03*
Y343700D02*
D03*
X162250D02*
D03*
Y311300D02*
D03*
X309750D02*
D03*
Y343700D02*
D03*
X457250D02*
D03*
Y311300D02*
D03*
X604750D02*
D03*
Y343700D02*
D03*
X752250D02*
D03*
Y311300D02*
D03*
X899750D02*
D03*
Y343700D02*
D03*
X1047250D02*
D03*
Y311300D02*
D03*
X1194750D02*
D03*
Y343700D02*
D03*
X1342250D02*
D03*
Y311300D02*
D03*
X-1340560Y93700D02*
D03*
Y61300D02*
D03*
X-1193060D02*
D03*
Y93700D02*
D03*
X-1045560D02*
D03*
Y61300D02*
D03*
X-898060D02*
D03*
Y93700D02*
D03*
X-750560D02*
D03*
Y61300D02*
D03*
X-603060D02*
D03*
Y93700D02*
D03*
X-455560D02*
D03*
Y61300D02*
D03*
X-308060D02*
D03*
Y93700D02*
D03*
X-160560D02*
D03*
Y61300D02*
D03*
X-13060D02*
D03*
Y93700D02*
D03*
X134440D02*
D03*
Y61300D02*
D03*
X281940D02*
D03*
Y93700D02*
D03*
X429440D02*
D03*
Y61300D02*
D03*
X576940D02*
D03*
Y93700D02*
D03*
X724440D02*
D03*
Y61300D02*
D03*
X871940D02*
D03*
Y93700D02*
D03*
X1019440D02*
D03*
Y61300D02*
D03*
X1166940D02*
D03*
Y93700D02*
D03*
X1314440D02*
D03*
Y61300D02*
D03*
X-1357750Y246200D02*
D03*
Y213800D02*
D03*
X-1210250D02*
D03*
Y246200D02*
D03*
X-1062750D02*
D03*
Y213800D02*
D03*
X-915250D02*
D03*
Y246200D02*
D03*
X-767750D02*
D03*
Y213800D02*
D03*
X-620250D02*
D03*
Y246200D02*
D03*
X-472750D02*
D03*
Y213800D02*
D03*
X-325250D02*
D03*
Y246200D02*
D03*
X-177750D02*
D03*
Y213800D02*
D03*
X-30250D02*
D03*
Y246200D02*
D03*
X117250D02*
D03*
Y213800D02*
D03*
X264750D02*
D03*
Y246200D02*
D03*
X412250D02*
D03*
Y213800D02*
D03*
X559750D02*
D03*
Y246200D02*
D03*
X707250D02*
D03*
Y213800D02*
D03*
X854750D02*
D03*
Y246200D02*
D03*
X1002250D02*
D03*
Y213800D02*
D03*
X1149750D02*
D03*
Y246200D02*
D03*
X1297250D02*
D03*
Y213800D02*
D03*
X-1364375Y311300D02*
D03*
Y343700D02*
D03*
X-1216875D02*
D03*
Y311300D02*
D03*
X-1069375D02*
D03*
Y343700D02*
D03*
X-921875D02*
D03*
Y311300D02*
D03*
X-774375D02*
D03*
Y343700D02*
D03*
X-626875D02*
D03*
Y311300D02*
D03*
X-479375D02*
D03*
Y343700D02*
D03*
X-331875D02*
D03*
Y311300D02*
D03*
X-184375D02*
D03*
Y343700D02*
D03*
X-36875D02*
D03*
Y311300D02*
D03*
X110625D02*
D03*
Y343700D02*
D03*
X258125D02*
D03*
Y311300D02*
D03*
X405625D02*
D03*
Y343700D02*
D03*
X553125D02*
D03*
Y311300D02*
D03*
X700625D02*
D03*
Y343700D02*
D03*
X848125D02*
D03*
Y311300D02*
D03*
X995625D02*
D03*
Y343700D02*
D03*
X1143125D02*
D03*
Y311300D02*
D03*
X1290625D02*
D03*
Y343700D02*
D03*
X-1379750Y246200D02*
D03*
Y213800D02*
D03*
X-1232250D02*
D03*
Y246200D02*
D03*
X-1084750D02*
D03*
Y213800D02*
D03*
X-937250D02*
D03*
Y246200D02*
D03*
X-789750D02*
D03*
Y213800D02*
D03*
X-642250D02*
D03*
Y246200D02*
D03*
X-494750D02*
D03*
Y213800D02*
D03*
X-347250D02*
D03*
Y246200D02*
D03*
X-199750D02*
D03*
Y213800D02*
D03*
X-52250D02*
D03*
Y246200D02*
D03*
X95250D02*
D03*
Y213800D02*
D03*
X242750D02*
D03*
Y246200D02*
D03*
X390250D02*
D03*
Y213800D02*
D03*
X537750D02*
D03*
Y246200D02*
D03*
X685250D02*
D03*
Y213800D02*
D03*
X832750D02*
D03*
Y246200D02*
D03*
X980250D02*
D03*
Y213800D02*
D03*
X1127750D02*
D03*
Y246200D02*
D03*
X1275250D02*
D03*
Y213800D02*
D03*
X-1386500Y311300D02*
D03*
Y343700D02*
D03*
X-1239000D02*
D03*
Y311300D02*
D03*
X-1091500D02*
D03*
Y343700D02*
D03*
X-944000D02*
D03*
Y311300D02*
D03*
X-796500D02*
D03*
Y343700D02*
D03*
X-649000D02*
D03*
Y311300D02*
D03*
X-501500D02*
D03*
Y343700D02*
D03*
X-354000D02*
D03*
Y311300D02*
D03*
X-206500D02*
D03*
Y343700D02*
D03*
X-59000D02*
D03*
Y311300D02*
D03*
X88500D02*
D03*
Y343700D02*
D03*
X236000D02*
D03*
Y311300D02*
D03*
X383500D02*
D03*
Y343700D02*
D03*
X531000D02*
D03*
Y311300D02*
D03*
X678500D02*
D03*
Y343700D02*
D03*
X826000D02*
D03*
Y311300D02*
D03*
X973500D02*
D03*
Y343700D02*
D03*
X1121000D02*
D03*
Y311300D02*
D03*
X1268500D02*
D03*
Y343700D02*
D03*
X1166000Y2075200D02*
D03*
Y2042800D02*
D03*
D87*
X-342600Y2320000D02*
D03*
Y2330000D02*
D03*
X-357400Y2325000D02*
D03*
Y2320000D02*
D03*
Y2330000D02*
D03*
X-342600Y2325000D02*
D03*
X-987600Y-370000D02*
D03*
X-1002400Y-365000D02*
D03*
Y-375000D02*
D03*
Y-370000D02*
D03*
X-987600Y-365000D02*
D03*
Y-375000D02*
D03*
D88*
X1054250Y-674500D02*
D03*
X1060750D02*
D03*
X1067250D02*
D03*
X1073750D02*
D03*
Y-718500D02*
D03*
X1060750D02*
D03*
X1054250D02*
D03*
X1067250D02*
D03*
D89*
X-1309000Y-780000D02*
D03*
Y-785000D02*
D03*
Y-790000D02*
D03*
Y-795000D02*
D03*
Y-800000D02*
D03*
Y-805000D02*
D03*
Y-810000D02*
D03*
Y-815000D02*
D03*
Y-820000D02*
D03*
X-1251000Y-780000D02*
D03*
Y-785000D02*
D03*
Y-790000D02*
D03*
Y-795000D02*
D03*
Y-800000D02*
D03*
Y-805000D02*
D03*
Y-810000D02*
D03*
Y-815000D02*
D03*
Y-820000D02*
D03*
D90*
X-1280000Y-800000D02*
D03*
D91*
X-1260000Y-829000D02*
D03*
X-1265000D02*
D03*
X-1270000D02*
D03*
X-1275000D02*
D03*
X-1280000D02*
D03*
X-1285000D02*
D03*
X-1290000D02*
D03*
X-1295000D02*
D03*
X-1300000D02*
D03*
Y-771000D02*
D03*
X-1295000D02*
D03*
X-1290000D02*
D03*
X-1285000D02*
D03*
X-1280000D02*
D03*
X-1275000D02*
D03*
X-1270000D02*
D03*
X-1265000D02*
D03*
X-1260000D02*
D03*
D92*
X-1410001Y-234500D02*
D03*
X-1403500Y-215500D02*
D03*
X-1416500D02*
D03*
X-1409999D02*
D03*
X-1403500Y-234500D02*
D03*
X-1416500D02*
D03*
X-1206000Y-803000D02*
D03*
X-1219000D02*
D03*
X-1212501Y-822000D02*
D03*
X-1206000D02*
D03*
X-1219000D02*
D03*
X-1212499Y-803000D02*
D03*
D93*
X-1272500Y-720500D02*
D03*
Y-739500D02*
D03*
X-1296500Y-720500D02*
D03*
Y-739500D02*
D03*
D94*
X-1385000Y-201000D02*
D03*
X-1380000D02*
D03*
X-1375000D02*
D03*
X-1370000D02*
D03*
X-1385000Y-249000D02*
D03*
X-1380000D02*
D03*
X-1375000D02*
D03*
X-1370000D02*
D03*
X-1365000Y-201000D02*
D03*
Y-249000D02*
D03*
D95*
X135000Y-552400D02*
D03*
X130000D02*
D03*
X80000D02*
D03*
X75000D02*
D03*
X70000D02*
D03*
X65000D02*
D03*
X60000D02*
D03*
X55000D02*
D03*
X50000D02*
D03*
X45000D02*
D03*
X125000D02*
D03*
X120000D02*
D03*
X115000D02*
D03*
X110000D02*
D03*
X105000D02*
D03*
X100000D02*
D03*
X95000D02*
D03*
X90000D02*
D03*
X85000D02*
D03*
D96*
X-1407400Y-645000D02*
D03*
Y-650000D02*
D03*
Y-655000D02*
D03*
Y-660000D02*
D03*
Y-665000D02*
D03*
Y-670000D02*
D03*
Y-675000D02*
D03*
Y-680000D02*
D03*
Y-685000D02*
D03*
Y-605000D02*
D03*
Y-610000D02*
D03*
Y-615000D02*
D03*
Y-620000D02*
D03*
Y-625000D02*
D03*
Y-630000D02*
D03*
Y-635000D02*
D03*
Y-640000D02*
D03*
Y-690000D02*
D03*
Y-695000D02*
D03*
D97*
X289760Y2325000D02*
D03*
X320240D02*
D03*
X-72240Y2377500D02*
D03*
X-41760D02*
D03*
X-1077260Y2105000D02*
D03*
X-1107740D02*
D03*
X-339760D02*
D03*
X-370240D02*
D03*
X397740D02*
D03*
X367260D02*
D03*
X1135240D02*
D03*
X1104760D02*
D03*
X-702260Y-820000D02*
D03*
X-732740D02*
D03*
X-452740D02*
D03*
X-422260D02*
D03*
X954760Y-540000D02*
D03*
X985240D02*
D03*
X954760Y-325000D02*
D03*
X985240D02*
D03*
X594760Y-580000D02*
D03*
X625240D02*
D03*
X594760Y-325000D02*
D03*
X625240D02*
D03*
X1074760D02*
D03*
X1105240D02*
D03*
Y-580000D02*
D03*
X1074760D02*
D03*
X1434760Y-540000D02*
D03*
X1465240D02*
D03*
X1434760Y-325000D02*
D03*
X1465240D02*
D03*
D98*
X1233000Y2082620D02*
D03*
Y2067380D02*
D03*
X-1404000Y-184380D02*
D03*
Y-199620D02*
D03*
X-1418000Y-250380D02*
D03*
Y-265620D02*
D03*
X-1418000Y-184380D02*
D03*
Y-199620D02*
D03*
X-1312000Y-722380D02*
D03*
Y-737620D02*
D03*
X-1257000Y-737620D02*
D03*
Y-722380D02*
D03*
X-1244500Y-737620D02*
D03*
Y-722380D02*
D03*
X-1232000Y-737620D02*
D03*
Y-722380D02*
D03*
X-1219500D02*
D03*
Y-737620D02*
D03*
X-1207000D02*
D03*
Y-722380D02*
D03*
X-1262000Y-857380D02*
D03*
Y-872620D02*
D03*
X-1274000Y-857380D02*
D03*
Y-872620D02*
D03*
X-1286500Y-857380D02*
D03*
Y-872620D02*
D03*
X-1270000Y-1062380D02*
D03*
Y-1077620D02*
D03*
X-1255000Y-1062380D02*
D03*
Y-1077620D02*
D03*
X-1240000Y-1062380D02*
D03*
Y-1077620D02*
D03*
X-1290000Y-1062380D02*
D03*
Y-1077620D02*
D03*
X-1305000Y-1062380D02*
D03*
Y-1077620D02*
D03*
X-1320000Y-1062380D02*
D03*
Y-1077620D02*
D03*
X-1305000Y-1027620D02*
D03*
Y-1012380D02*
D03*
X-1255000D02*
D03*
Y-1027620D02*
D03*
X345000Y-281120D02*
D03*
Y-265880D02*
D03*
X1106500Y-649120D02*
D03*
Y-633880D02*
D03*
Y-686620D02*
D03*
Y-671380D02*
D03*
Y-724120D02*
D03*
Y-708880D02*
D03*
X1038000Y-688380D02*
D03*
Y-703620D02*
D03*
X-1285000Y-259620D02*
D03*
Y-244380D02*
D03*
X-1301000Y-290380D02*
D03*
Y-305620D02*
D03*
X-1314000Y-290380D02*
D03*
Y-305620D02*
D03*
X-1247250Y237620D02*
D03*
Y222380D02*
D03*
X-1232750Y69880D02*
D03*
Y85120D02*
D03*
X-1159000Y69880D02*
D03*
Y85120D02*
D03*
X-1195250Y237620D02*
D03*
Y222380D02*
D03*
X-1208750Y69880D02*
D03*
Y85120D02*
D03*
X-1173500Y237620D02*
D03*
Y222380D02*
D03*
X-1171000Y69880D02*
D03*
Y85120D02*
D03*
X-1121500Y237620D02*
D03*
Y222380D02*
D03*
X-1244750Y69880D02*
D03*
Y85120D02*
D03*
X-1135000Y69880D02*
D03*
Y85120D02*
D03*
X-1191063Y357380D02*
D03*
Y372620D02*
D03*
X-1220750Y85120D02*
D03*
Y69880D02*
D03*
X-1117313Y357380D02*
D03*
Y372620D02*
D03*
X-1147000Y85120D02*
D03*
Y69880D02*
D03*
X-1394750Y237620D02*
D03*
Y222380D02*
D03*
X-1380250Y69880D02*
D03*
Y85120D02*
D03*
X-1306500Y69880D02*
D03*
Y85120D02*
D03*
X-1342750Y237620D02*
D03*
Y222380D02*
D03*
X-1356250Y69880D02*
D03*
Y85120D02*
D03*
X-1321000Y237620D02*
D03*
Y222380D02*
D03*
X-1318500Y69880D02*
D03*
Y85120D02*
D03*
X-1269000Y237620D02*
D03*
Y222380D02*
D03*
X-1392250Y69880D02*
D03*
Y85120D02*
D03*
X-1282500Y69880D02*
D03*
Y85120D02*
D03*
X-1338563Y357380D02*
D03*
Y372620D02*
D03*
X-1368250Y85120D02*
D03*
Y69880D02*
D03*
X-1264813Y357380D02*
D03*
Y372620D02*
D03*
X-1294500Y85120D02*
D03*
Y69880D02*
D03*
X-704500Y85120D02*
D03*
Y69880D02*
D03*
X-674813Y357380D02*
D03*
Y372620D02*
D03*
X-778250Y85120D02*
D03*
Y69880D02*
D03*
X-748563Y357380D02*
D03*
Y372620D02*
D03*
X-692500Y69880D02*
D03*
Y85120D02*
D03*
X-802250Y69880D02*
D03*
Y85120D02*
D03*
X-679000Y237620D02*
D03*
Y222380D02*
D03*
X-728500Y69880D02*
D03*
Y85120D02*
D03*
X-731000Y237620D02*
D03*
Y222380D02*
D03*
X-766250Y69880D02*
D03*
Y85120D02*
D03*
X-752750Y237620D02*
D03*
Y222380D02*
D03*
X-716500Y69880D02*
D03*
Y85120D02*
D03*
X-790250Y69880D02*
D03*
Y85120D02*
D03*
X-804750Y237620D02*
D03*
Y222380D02*
D03*
X-557000Y85120D02*
D03*
Y69880D02*
D03*
X-527313Y357380D02*
D03*
Y372620D02*
D03*
X-630750Y85120D02*
D03*
Y69880D02*
D03*
X-601063Y357380D02*
D03*
Y372620D02*
D03*
X-545000Y69880D02*
D03*
Y85120D02*
D03*
X-654750Y69880D02*
D03*
Y85120D02*
D03*
X-531500Y237620D02*
D03*
Y222380D02*
D03*
X-581000Y69880D02*
D03*
Y85120D02*
D03*
X-583500Y237620D02*
D03*
Y222380D02*
D03*
X-618750Y69880D02*
D03*
Y85120D02*
D03*
X-605250Y237620D02*
D03*
Y222380D02*
D03*
X-569000Y69880D02*
D03*
Y85120D02*
D03*
X-642750Y69880D02*
D03*
Y85120D02*
D03*
X-657250Y237620D02*
D03*
Y222380D02*
D03*
X-409500Y85120D02*
D03*
Y69880D02*
D03*
X-379813Y357380D02*
D03*
Y372620D02*
D03*
X-483250Y85120D02*
D03*
Y69880D02*
D03*
X-453563Y357380D02*
D03*
Y372620D02*
D03*
X-397500Y69880D02*
D03*
Y85120D02*
D03*
X-507250Y69880D02*
D03*
Y85120D02*
D03*
X-384000Y237620D02*
D03*
Y222380D02*
D03*
X-433500Y69880D02*
D03*
Y85120D02*
D03*
X-436000Y237620D02*
D03*
Y222380D02*
D03*
X-471250Y69880D02*
D03*
Y85120D02*
D03*
X-457750Y237620D02*
D03*
Y222380D02*
D03*
X-421500Y69880D02*
D03*
Y85120D02*
D03*
X-495250Y69880D02*
D03*
Y85120D02*
D03*
X-509750Y237620D02*
D03*
Y222380D02*
D03*
X-262000Y85120D02*
D03*
Y69880D02*
D03*
X-232313Y357380D02*
D03*
Y372620D02*
D03*
X-335750Y85120D02*
D03*
Y69880D02*
D03*
X-306063Y357380D02*
D03*
Y372620D02*
D03*
X-250000Y69880D02*
D03*
Y85120D02*
D03*
X-359750Y69880D02*
D03*
Y85120D02*
D03*
X-236500Y237620D02*
D03*
Y222380D02*
D03*
X-286000Y69880D02*
D03*
Y85120D02*
D03*
X-288500Y237620D02*
D03*
Y222380D02*
D03*
X-323750Y69880D02*
D03*
Y85120D02*
D03*
X-310250Y237620D02*
D03*
Y222380D02*
D03*
X-274000Y69880D02*
D03*
Y85120D02*
D03*
X-347750Y69880D02*
D03*
Y85120D02*
D03*
X-362250Y237620D02*
D03*
Y222380D02*
D03*
X-114500Y85120D02*
D03*
Y69880D02*
D03*
X-84813Y357380D02*
D03*
Y372620D02*
D03*
X-188250Y85120D02*
D03*
Y69880D02*
D03*
X-158563Y357380D02*
D03*
Y372620D02*
D03*
X-102500Y69880D02*
D03*
Y85120D02*
D03*
X-212250Y69880D02*
D03*
Y85120D02*
D03*
X-89000Y237620D02*
D03*
Y222380D02*
D03*
X-138500Y69880D02*
D03*
Y85120D02*
D03*
X-141000Y237620D02*
D03*
Y222380D02*
D03*
X-176250Y69880D02*
D03*
Y85120D02*
D03*
X-162750Y237620D02*
D03*
Y222380D02*
D03*
X-126500Y69880D02*
D03*
Y85120D02*
D03*
X-200250Y69880D02*
D03*
Y85120D02*
D03*
X-214750Y237620D02*
D03*
Y222380D02*
D03*
X33000Y85120D02*
D03*
Y69880D02*
D03*
X62687Y357380D02*
D03*
Y372620D02*
D03*
X-40750Y85120D02*
D03*
Y69880D02*
D03*
X-11063Y357380D02*
D03*
Y372620D02*
D03*
X45000Y69880D02*
D03*
Y85120D02*
D03*
X-64750Y69880D02*
D03*
Y85120D02*
D03*
X58500Y237620D02*
D03*
Y222380D02*
D03*
X9000Y69880D02*
D03*
Y85120D02*
D03*
X6500Y237620D02*
D03*
Y222380D02*
D03*
X-28750Y69880D02*
D03*
Y85120D02*
D03*
X-15250Y237620D02*
D03*
Y222380D02*
D03*
X21000Y69880D02*
D03*
Y85120D02*
D03*
X-52750Y69880D02*
D03*
Y85120D02*
D03*
X-67250Y237620D02*
D03*
Y222380D02*
D03*
X180500Y85120D02*
D03*
Y69880D02*
D03*
X210187Y357380D02*
D03*
Y372620D02*
D03*
X106750Y85120D02*
D03*
Y69880D02*
D03*
X136437Y357380D02*
D03*
Y372620D02*
D03*
X192500Y69880D02*
D03*
Y85120D02*
D03*
X82750Y69880D02*
D03*
Y85120D02*
D03*
X206000Y237620D02*
D03*
Y222380D02*
D03*
X156500Y69880D02*
D03*
Y85120D02*
D03*
X154000Y237620D02*
D03*
Y222380D02*
D03*
X118750Y69880D02*
D03*
Y85120D02*
D03*
X132250Y237620D02*
D03*
Y222380D02*
D03*
X168500Y69880D02*
D03*
Y85120D02*
D03*
X94750Y69880D02*
D03*
Y85120D02*
D03*
X80250Y237620D02*
D03*
Y222380D02*
D03*
X328000Y85120D02*
D03*
Y69880D02*
D03*
X357687Y357380D02*
D03*
Y372620D02*
D03*
X254250Y85120D02*
D03*
Y69880D02*
D03*
X283937Y357380D02*
D03*
Y372620D02*
D03*
X340000Y69880D02*
D03*
Y85120D02*
D03*
X230250Y69880D02*
D03*
Y85120D02*
D03*
X353500Y237620D02*
D03*
Y222380D02*
D03*
X304000Y69880D02*
D03*
Y85120D02*
D03*
X301500Y237620D02*
D03*
Y222380D02*
D03*
X266250Y69880D02*
D03*
Y85120D02*
D03*
X279750Y237620D02*
D03*
Y222380D02*
D03*
X316000Y69880D02*
D03*
Y85120D02*
D03*
X242250Y69880D02*
D03*
Y85120D02*
D03*
X227750Y237620D02*
D03*
Y222380D02*
D03*
X475500Y85120D02*
D03*
Y69880D02*
D03*
X505187Y357380D02*
D03*
Y372620D02*
D03*
X401750Y85120D02*
D03*
Y69880D02*
D03*
X431437Y357380D02*
D03*
Y372620D02*
D03*
X487500Y69880D02*
D03*
Y85120D02*
D03*
X377750Y69880D02*
D03*
Y85120D02*
D03*
X501000Y237620D02*
D03*
Y222380D02*
D03*
X451500Y69880D02*
D03*
Y85120D02*
D03*
X449000Y237620D02*
D03*
Y222380D02*
D03*
X413750Y69880D02*
D03*
Y85120D02*
D03*
X427250Y237620D02*
D03*
Y222380D02*
D03*
X463500Y69880D02*
D03*
Y85120D02*
D03*
X389750Y69880D02*
D03*
Y85120D02*
D03*
X375250Y237620D02*
D03*
Y222380D02*
D03*
X623000Y85120D02*
D03*
Y69880D02*
D03*
X652687Y357380D02*
D03*
Y372620D02*
D03*
X549250Y85120D02*
D03*
Y69880D02*
D03*
X578937Y357380D02*
D03*
Y372620D02*
D03*
X635000Y69880D02*
D03*
Y85120D02*
D03*
X525250Y69880D02*
D03*
Y85120D02*
D03*
X648500Y237620D02*
D03*
Y222380D02*
D03*
X599000Y69880D02*
D03*
Y85120D02*
D03*
X596500Y237620D02*
D03*
Y222380D02*
D03*
X561250Y69880D02*
D03*
Y85120D02*
D03*
X574750Y237620D02*
D03*
Y222380D02*
D03*
X611000Y69880D02*
D03*
Y85120D02*
D03*
X537250Y69880D02*
D03*
Y85120D02*
D03*
X522750Y237620D02*
D03*
Y222380D02*
D03*
X-852000Y85120D02*
D03*
Y69880D02*
D03*
X-822313Y357380D02*
D03*
Y372620D02*
D03*
X-925750Y85120D02*
D03*
Y69880D02*
D03*
X-896063Y357380D02*
D03*
Y372620D02*
D03*
X-840000Y69880D02*
D03*
Y85120D02*
D03*
X-949750Y69880D02*
D03*
Y85120D02*
D03*
X-826500Y237620D02*
D03*
Y222380D02*
D03*
X-876000Y69880D02*
D03*
Y85120D02*
D03*
X-878500Y237620D02*
D03*
Y222380D02*
D03*
X-913750Y69880D02*
D03*
Y85120D02*
D03*
X-900250Y237620D02*
D03*
Y222380D02*
D03*
X-864000Y69880D02*
D03*
Y85120D02*
D03*
X-937750Y69880D02*
D03*
Y85120D02*
D03*
X-952250Y237620D02*
D03*
Y222380D02*
D03*
X770500Y85120D02*
D03*
Y69880D02*
D03*
X800187Y357380D02*
D03*
Y372620D02*
D03*
X696750Y85120D02*
D03*
Y69880D02*
D03*
X726437Y357380D02*
D03*
Y372620D02*
D03*
X782500Y69880D02*
D03*
Y85120D02*
D03*
X672750Y69880D02*
D03*
Y85120D02*
D03*
X796000Y237620D02*
D03*
Y222380D02*
D03*
X746500Y69880D02*
D03*
Y85120D02*
D03*
X744000Y237620D02*
D03*
Y222380D02*
D03*
X708750Y69880D02*
D03*
Y85120D02*
D03*
X722250Y237620D02*
D03*
Y222380D02*
D03*
X758500Y69880D02*
D03*
Y85120D02*
D03*
X684750Y69880D02*
D03*
Y85120D02*
D03*
X670250Y237620D02*
D03*
Y222380D02*
D03*
X918000Y85120D02*
D03*
Y69880D02*
D03*
X947687Y357380D02*
D03*
Y372620D02*
D03*
X844250Y85120D02*
D03*
Y69880D02*
D03*
X873937Y357380D02*
D03*
Y372620D02*
D03*
X930000Y69880D02*
D03*
Y85120D02*
D03*
X820250Y69880D02*
D03*
Y85120D02*
D03*
X943500Y237620D02*
D03*
Y222380D02*
D03*
X894000Y69880D02*
D03*
Y85120D02*
D03*
X891500Y237620D02*
D03*
Y222380D02*
D03*
X856250Y69880D02*
D03*
Y85120D02*
D03*
X869750Y237620D02*
D03*
Y222380D02*
D03*
X906000Y69880D02*
D03*
Y85120D02*
D03*
X832250Y69880D02*
D03*
Y85120D02*
D03*
X817750Y237620D02*
D03*
Y222380D02*
D03*
X-999500Y85120D02*
D03*
Y69880D02*
D03*
X-969813Y357380D02*
D03*
Y372620D02*
D03*
X-1073250Y85120D02*
D03*
Y69880D02*
D03*
X-1043563Y357380D02*
D03*
Y372620D02*
D03*
X-987500Y69880D02*
D03*
Y85120D02*
D03*
X-1097250Y69880D02*
D03*
Y85120D02*
D03*
X-974000Y237620D02*
D03*
Y222380D02*
D03*
X-1023500Y69880D02*
D03*
Y85120D02*
D03*
X-1026000Y237620D02*
D03*
Y222380D02*
D03*
X-1061250Y69880D02*
D03*
Y85120D02*
D03*
X-1047750Y237620D02*
D03*
Y222380D02*
D03*
X-1011500Y69880D02*
D03*
Y85120D02*
D03*
X-1085250Y69880D02*
D03*
Y85120D02*
D03*
X-1099750Y237620D02*
D03*
Y222380D02*
D03*
X1065500Y85120D02*
D03*
Y69880D02*
D03*
X1095187Y357380D02*
D03*
Y372620D02*
D03*
X991750Y85120D02*
D03*
Y69880D02*
D03*
X1021437Y357380D02*
D03*
Y372620D02*
D03*
X1077500Y69880D02*
D03*
Y85120D02*
D03*
X967750Y69880D02*
D03*
Y85120D02*
D03*
X1091000Y237620D02*
D03*
Y222380D02*
D03*
X1041500Y69880D02*
D03*
Y85120D02*
D03*
X1039000Y237620D02*
D03*
Y222380D02*
D03*
X1003750Y69880D02*
D03*
Y85120D02*
D03*
X1017250Y237620D02*
D03*
Y222380D02*
D03*
X1053500Y69880D02*
D03*
Y85120D02*
D03*
X979750Y69880D02*
D03*
Y85120D02*
D03*
X965250Y237620D02*
D03*
Y222380D02*
D03*
X1213000Y85120D02*
D03*
Y69880D02*
D03*
X1242687Y357380D02*
D03*
Y372620D02*
D03*
X1139250Y85120D02*
D03*
Y69880D02*
D03*
X1168937Y357380D02*
D03*
Y372620D02*
D03*
X1225000Y69880D02*
D03*
Y85120D02*
D03*
X1115250Y69880D02*
D03*
Y85120D02*
D03*
X1238500Y237620D02*
D03*
Y222380D02*
D03*
X1189000Y69880D02*
D03*
Y85120D02*
D03*
X1186500Y237620D02*
D03*
Y222380D02*
D03*
X1151250Y69880D02*
D03*
Y85120D02*
D03*
X1164750Y237620D02*
D03*
Y222380D02*
D03*
X1201000Y69880D02*
D03*
Y85120D02*
D03*
X1127250Y69880D02*
D03*
Y85120D02*
D03*
X1112750Y237620D02*
D03*
Y222380D02*
D03*
X1360500Y85120D02*
D03*
Y69880D02*
D03*
X1390187Y357380D02*
D03*
Y372620D02*
D03*
X1286750Y85120D02*
D03*
Y69880D02*
D03*
X1316437Y357380D02*
D03*
Y372620D02*
D03*
X1372500Y69880D02*
D03*
Y85120D02*
D03*
X1262750Y69880D02*
D03*
Y85120D02*
D03*
X1386000Y237620D02*
D03*
Y222380D02*
D03*
X1336500Y69880D02*
D03*
Y85120D02*
D03*
X1334000Y237620D02*
D03*
Y222380D02*
D03*
X1298750Y69880D02*
D03*
Y85120D02*
D03*
X1312250Y237620D02*
D03*
Y222380D02*
D03*
X1348500Y69880D02*
D03*
Y85120D02*
D03*
X1274750Y69880D02*
D03*
Y85120D02*
D03*
X1260250Y237620D02*
D03*
Y222380D02*
D03*
D99*
X1218000Y2065500D02*
D03*
Y2084500D02*
D03*
X1194000Y2075000D02*
D03*
X1122000Y-632000D02*
D03*
Y-651000D02*
D03*
X1146000Y-641500D02*
D03*
X1122000Y-669500D02*
D03*
Y-688500D02*
D03*
X1146000Y-679000D02*
D03*
X1122000Y-707000D02*
D03*
Y-726000D02*
D03*
X1146000Y-716500D02*
D03*
D100*
X-1262000Y-140240D02*
D03*
Y-109760D02*
D03*
X-1238000Y-140240D02*
D03*
Y-109760D02*
D03*
X-199500Y-288740D02*
D03*
Y-258260D02*
D03*
X-54500Y-288740D02*
D03*
Y-258260D02*
D03*
X220500Y-258260D02*
D03*
Y-288740D02*
D03*
X365500Y-258260D02*
D03*
Y-288740D02*
D03*
X-1238000Y-267240D02*
D03*
Y-236760D02*
D03*
X-1262000Y-267240D02*
D03*
Y-236760D02*
D03*
X-1194750Y312260D02*
D03*
Y342740D02*
D03*
X-1121000Y312260D02*
D03*
Y342740D02*
D03*
X-1342250Y312260D02*
D03*
Y342740D02*
D03*
X-1268500Y312260D02*
D03*
Y342740D02*
D03*
X-678500Y312260D02*
D03*
Y342740D02*
D03*
X-752250Y312260D02*
D03*
Y342740D02*
D03*
X-531000Y312260D02*
D03*
Y342740D02*
D03*
X-604750Y312260D02*
D03*
Y342740D02*
D03*
X-383500Y312260D02*
D03*
Y342740D02*
D03*
X-457250Y312260D02*
D03*
Y342740D02*
D03*
X-236000Y312260D02*
D03*
Y342740D02*
D03*
X-309750Y312260D02*
D03*
Y342740D02*
D03*
X-88500Y312260D02*
D03*
Y342740D02*
D03*
X-162250Y312260D02*
D03*
Y342740D02*
D03*
X59000Y312260D02*
D03*
Y342740D02*
D03*
X-14750Y312260D02*
D03*
Y342740D02*
D03*
X206500Y312260D02*
D03*
Y342740D02*
D03*
X132750Y312260D02*
D03*
Y342740D02*
D03*
X354000Y312260D02*
D03*
Y342740D02*
D03*
X280250Y312260D02*
D03*
Y342740D02*
D03*
X501500Y312260D02*
D03*
Y342740D02*
D03*
X427750Y312260D02*
D03*
Y342740D02*
D03*
X649000Y312260D02*
D03*
Y342740D02*
D03*
X575250Y312260D02*
D03*
Y342740D02*
D03*
X-826000Y312260D02*
D03*
Y342740D02*
D03*
X-899750Y312260D02*
D03*
Y342740D02*
D03*
X796500Y312260D02*
D03*
Y342740D02*
D03*
X722750Y312260D02*
D03*
Y342740D02*
D03*
X944000Y312260D02*
D03*
Y342740D02*
D03*
X870250Y312260D02*
D03*
Y342740D02*
D03*
X-973500Y312260D02*
D03*
Y342740D02*
D03*
X-1047250Y312260D02*
D03*
Y342740D02*
D03*
X1091500Y312260D02*
D03*
Y342740D02*
D03*
X1017750Y312260D02*
D03*
Y342740D02*
D03*
X1239000Y312260D02*
D03*
Y342740D02*
D03*
X1165250Y312260D02*
D03*
Y342740D02*
D03*
X1386500Y312260D02*
D03*
Y342740D02*
D03*
X1312750Y312260D02*
D03*
Y342740D02*
D03*
D101*
X-1462850Y-62000D02*
D03*
Y-135000D02*
D03*
X-1482150D02*
D03*
Y-62000D02*
D03*
D102*
X-1455000Y-76000D02*
D03*
Y-91000D02*
D03*
Y-121000D02*
D03*
D103*
X-1438000Y-193000D02*
D03*
Y-201000D02*
D03*
Y-249000D02*
D03*
Y-257000D02*
D03*
D104*
Y-207500D02*
D03*
Y-212500D02*
D03*
Y-217500D02*
D03*
Y-222500D02*
D03*
Y-227500D02*
D03*
Y-232500D02*
D03*
Y-237500D02*
D03*
Y-242500D02*
D03*
D105*
X-1330000Y-73000D02*
D03*
Y-157000D02*
D03*
X-348800Y-729500D02*
D03*
Y-645500D02*
D03*
X410000Y-404500D02*
D03*
Y-320500D02*
D03*
D106*
X-985000Y-885000D02*
D03*
Y-775000D02*
D03*
X-262500Y-417500D02*
D03*
Y-307500D02*
D03*
X7500D02*
D03*
Y-417500D02*
D03*
X157500Y-307500D02*
D03*
Y-417500D02*
D03*
D107*
X-892900Y-858050D02*
D03*
X-872100D02*
D03*
D108*
X-882500Y-820000D02*
D03*
D109*
X-36750Y-128750D02*
D03*
X-149250D02*
D03*
X200750D02*
D03*
X313250D02*
D03*
D110*
X-165000Y-221500D02*
D03*
X255000Y-221500D02*
D03*
D111*
X-126950Y-211100D02*
D03*
Y-231900D02*
D03*
X293050Y-231900D02*
D03*
Y-211100D02*
D03*
D112*
X-94000Y-275250D02*
D03*
X-111000D02*
D03*
X-162000D02*
D03*
X-128000D02*
D03*
X-145000D02*
D03*
X275000D02*
D03*
X292000D02*
D03*
X258000D02*
D03*
X309000D02*
D03*
X326000D02*
D03*
D113*
X-128000Y-366250D02*
D03*
X292000D02*
D03*
D114*
X8000Y-235050D02*
D03*
X62000Y-222350D02*
D03*
Y-196950D02*
D03*
X8000Y-222350D02*
D03*
Y-209650D02*
D03*
Y-196950D02*
D03*
X62000Y-235050D02*
D03*
Y-209650D02*
D03*
D115*
X992000Y-505000D02*
D03*
Y-500000D02*
D03*
Y-495000D02*
D03*
Y-490000D02*
D03*
Y-485000D02*
D03*
Y-480000D02*
D03*
Y-475000D02*
D03*
Y-470000D02*
D03*
Y-465000D02*
D03*
Y-460000D02*
D03*
Y-430000D02*
D03*
Y-450000D02*
D03*
Y-455000D02*
D03*
Y-445000D02*
D03*
Y-390000D02*
D03*
Y-440000D02*
D03*
Y-435000D02*
D03*
Y-425000D02*
D03*
Y-420000D02*
D03*
Y-415000D02*
D03*
Y-410000D02*
D03*
Y-405000D02*
D03*
Y-400000D02*
D03*
Y-395000D02*
D03*
Y-385000D02*
D03*
X948000Y-505000D02*
D03*
Y-500000D02*
D03*
Y-495000D02*
D03*
Y-490000D02*
D03*
Y-485000D02*
D03*
Y-480000D02*
D03*
Y-475000D02*
D03*
Y-470000D02*
D03*
Y-465000D02*
D03*
Y-460000D02*
D03*
Y-430000D02*
D03*
Y-450000D02*
D03*
Y-455000D02*
D03*
Y-445000D02*
D03*
Y-390000D02*
D03*
Y-440000D02*
D03*
Y-435000D02*
D03*
Y-425000D02*
D03*
Y-420000D02*
D03*
Y-415000D02*
D03*
Y-410000D02*
D03*
Y-405000D02*
D03*
Y-400000D02*
D03*
Y-395000D02*
D03*
Y-385000D02*
D03*
X632000Y-545000D02*
D03*
Y-540000D02*
D03*
Y-535000D02*
D03*
Y-530000D02*
D03*
Y-525000D02*
D03*
Y-520000D02*
D03*
Y-515000D02*
D03*
Y-510000D02*
D03*
Y-505000D02*
D03*
Y-500000D02*
D03*
Y-470000D02*
D03*
Y-490000D02*
D03*
Y-495000D02*
D03*
Y-485000D02*
D03*
Y-430000D02*
D03*
Y-480000D02*
D03*
Y-475000D02*
D03*
Y-465000D02*
D03*
Y-460000D02*
D03*
Y-455000D02*
D03*
Y-450000D02*
D03*
Y-445000D02*
D03*
Y-440000D02*
D03*
Y-435000D02*
D03*
Y-425000D02*
D03*
X588000Y-545000D02*
D03*
Y-540000D02*
D03*
Y-535000D02*
D03*
Y-530000D02*
D03*
Y-525000D02*
D03*
Y-520000D02*
D03*
Y-515000D02*
D03*
Y-510000D02*
D03*
Y-505000D02*
D03*
Y-500000D02*
D03*
Y-470000D02*
D03*
Y-490000D02*
D03*
Y-495000D02*
D03*
Y-485000D02*
D03*
Y-430000D02*
D03*
Y-480000D02*
D03*
Y-475000D02*
D03*
Y-465000D02*
D03*
Y-460000D02*
D03*
Y-455000D02*
D03*
Y-450000D02*
D03*
Y-445000D02*
D03*
Y-440000D02*
D03*
Y-435000D02*
D03*
Y-425000D02*
D03*
X632000Y-290000D02*
D03*
Y-285000D02*
D03*
Y-280000D02*
D03*
Y-275000D02*
D03*
Y-270000D02*
D03*
Y-265000D02*
D03*
Y-260000D02*
D03*
Y-255000D02*
D03*
Y-250000D02*
D03*
Y-245000D02*
D03*
Y-215000D02*
D03*
Y-235000D02*
D03*
Y-240000D02*
D03*
Y-230000D02*
D03*
Y-175000D02*
D03*
Y-225000D02*
D03*
Y-220000D02*
D03*
Y-210000D02*
D03*
Y-205000D02*
D03*
Y-200000D02*
D03*
Y-195000D02*
D03*
Y-190000D02*
D03*
Y-185000D02*
D03*
Y-180000D02*
D03*
Y-170000D02*
D03*
X588000Y-290000D02*
D03*
Y-285000D02*
D03*
Y-280000D02*
D03*
Y-275000D02*
D03*
Y-270000D02*
D03*
Y-265000D02*
D03*
Y-260000D02*
D03*
Y-255000D02*
D03*
Y-250000D02*
D03*
Y-245000D02*
D03*
Y-215000D02*
D03*
Y-235000D02*
D03*
Y-240000D02*
D03*
Y-230000D02*
D03*
Y-175000D02*
D03*
Y-225000D02*
D03*
Y-220000D02*
D03*
Y-210000D02*
D03*
Y-205000D02*
D03*
Y-200000D02*
D03*
Y-195000D02*
D03*
Y-190000D02*
D03*
Y-185000D02*
D03*
Y-180000D02*
D03*
Y-170000D02*
D03*
X992000Y-290000D02*
D03*
Y-285000D02*
D03*
Y-280000D02*
D03*
Y-275000D02*
D03*
Y-270000D02*
D03*
Y-265000D02*
D03*
Y-260000D02*
D03*
Y-255000D02*
D03*
Y-250000D02*
D03*
Y-245000D02*
D03*
Y-215000D02*
D03*
Y-235000D02*
D03*
Y-240000D02*
D03*
Y-230000D02*
D03*
Y-175000D02*
D03*
Y-225000D02*
D03*
Y-220000D02*
D03*
Y-210000D02*
D03*
Y-205000D02*
D03*
Y-200000D02*
D03*
Y-195000D02*
D03*
Y-190000D02*
D03*
Y-185000D02*
D03*
Y-180000D02*
D03*
Y-170000D02*
D03*
X948000Y-290000D02*
D03*
Y-285000D02*
D03*
Y-280000D02*
D03*
Y-275000D02*
D03*
Y-270000D02*
D03*
Y-265000D02*
D03*
Y-260000D02*
D03*
Y-255000D02*
D03*
Y-250000D02*
D03*
Y-245000D02*
D03*
Y-215000D02*
D03*
Y-235000D02*
D03*
Y-240000D02*
D03*
Y-230000D02*
D03*
Y-175000D02*
D03*
Y-225000D02*
D03*
Y-220000D02*
D03*
Y-210000D02*
D03*
Y-205000D02*
D03*
Y-200000D02*
D03*
Y-195000D02*
D03*
Y-190000D02*
D03*
Y-185000D02*
D03*
Y-180000D02*
D03*
Y-170000D02*
D03*
X1112000Y-290000D02*
D03*
Y-285000D02*
D03*
Y-280000D02*
D03*
Y-275000D02*
D03*
Y-270000D02*
D03*
Y-265000D02*
D03*
Y-260000D02*
D03*
Y-255000D02*
D03*
Y-250000D02*
D03*
Y-245000D02*
D03*
Y-215000D02*
D03*
Y-235000D02*
D03*
Y-240000D02*
D03*
Y-230000D02*
D03*
Y-175000D02*
D03*
Y-225000D02*
D03*
Y-220000D02*
D03*
Y-210000D02*
D03*
Y-205000D02*
D03*
Y-200000D02*
D03*
Y-195000D02*
D03*
Y-190000D02*
D03*
Y-185000D02*
D03*
Y-180000D02*
D03*
Y-170000D02*
D03*
X1068000Y-290000D02*
D03*
Y-285000D02*
D03*
Y-280000D02*
D03*
Y-275000D02*
D03*
Y-270000D02*
D03*
Y-265000D02*
D03*
Y-260000D02*
D03*
Y-255000D02*
D03*
Y-250000D02*
D03*
Y-245000D02*
D03*
Y-215000D02*
D03*
Y-235000D02*
D03*
Y-240000D02*
D03*
Y-230000D02*
D03*
Y-175000D02*
D03*
Y-225000D02*
D03*
Y-220000D02*
D03*
Y-210000D02*
D03*
Y-205000D02*
D03*
Y-200000D02*
D03*
Y-195000D02*
D03*
Y-190000D02*
D03*
Y-185000D02*
D03*
Y-180000D02*
D03*
Y-170000D02*
D03*
X1112000Y-545000D02*
D03*
Y-540000D02*
D03*
Y-535000D02*
D03*
Y-530000D02*
D03*
Y-525000D02*
D03*
Y-520000D02*
D03*
Y-515000D02*
D03*
Y-510000D02*
D03*
Y-505000D02*
D03*
Y-500000D02*
D03*
Y-470000D02*
D03*
Y-490000D02*
D03*
Y-495000D02*
D03*
Y-485000D02*
D03*
Y-430000D02*
D03*
Y-480000D02*
D03*
Y-475000D02*
D03*
Y-465000D02*
D03*
Y-460000D02*
D03*
Y-455000D02*
D03*
Y-450000D02*
D03*
Y-445000D02*
D03*
Y-440000D02*
D03*
Y-435000D02*
D03*
Y-425000D02*
D03*
X1068000Y-545000D02*
D03*
Y-540000D02*
D03*
Y-535000D02*
D03*
Y-530000D02*
D03*
Y-525000D02*
D03*
Y-520000D02*
D03*
Y-515000D02*
D03*
Y-510000D02*
D03*
Y-505000D02*
D03*
Y-500000D02*
D03*
Y-470000D02*
D03*
Y-490000D02*
D03*
Y-495000D02*
D03*
Y-485000D02*
D03*
Y-430000D02*
D03*
Y-480000D02*
D03*
Y-475000D02*
D03*
Y-465000D02*
D03*
Y-460000D02*
D03*
Y-455000D02*
D03*
Y-450000D02*
D03*
Y-445000D02*
D03*
Y-440000D02*
D03*
Y-435000D02*
D03*
Y-425000D02*
D03*
X1472000Y-505000D02*
D03*
Y-500000D02*
D03*
Y-495000D02*
D03*
Y-490000D02*
D03*
Y-485000D02*
D03*
Y-480000D02*
D03*
Y-475000D02*
D03*
Y-470000D02*
D03*
Y-465000D02*
D03*
Y-460000D02*
D03*
Y-430000D02*
D03*
Y-450000D02*
D03*
Y-455000D02*
D03*
Y-445000D02*
D03*
Y-390000D02*
D03*
Y-440000D02*
D03*
Y-435000D02*
D03*
Y-425000D02*
D03*
Y-420000D02*
D03*
Y-415000D02*
D03*
Y-410000D02*
D03*
Y-405000D02*
D03*
Y-400000D02*
D03*
Y-395000D02*
D03*
Y-385000D02*
D03*
X1428000Y-505000D02*
D03*
Y-500000D02*
D03*
Y-495000D02*
D03*
Y-490000D02*
D03*
Y-485000D02*
D03*
Y-480000D02*
D03*
Y-475000D02*
D03*
Y-470000D02*
D03*
Y-465000D02*
D03*
Y-460000D02*
D03*
Y-430000D02*
D03*
Y-450000D02*
D03*
Y-455000D02*
D03*
Y-445000D02*
D03*
Y-390000D02*
D03*
Y-440000D02*
D03*
Y-435000D02*
D03*
Y-425000D02*
D03*
Y-420000D02*
D03*
Y-415000D02*
D03*
Y-410000D02*
D03*
Y-405000D02*
D03*
Y-400000D02*
D03*
Y-395000D02*
D03*
Y-385000D02*
D03*
X1472000Y-290000D02*
D03*
Y-285000D02*
D03*
Y-280000D02*
D03*
Y-275000D02*
D03*
Y-270000D02*
D03*
Y-265000D02*
D03*
Y-260000D02*
D03*
Y-255000D02*
D03*
Y-250000D02*
D03*
Y-245000D02*
D03*
Y-215000D02*
D03*
Y-235000D02*
D03*
Y-240000D02*
D03*
Y-230000D02*
D03*
Y-175000D02*
D03*
Y-225000D02*
D03*
Y-220000D02*
D03*
Y-210000D02*
D03*
Y-205000D02*
D03*
Y-200000D02*
D03*
Y-195000D02*
D03*
Y-190000D02*
D03*
Y-185000D02*
D03*
Y-180000D02*
D03*
Y-170000D02*
D03*
X1428000Y-290000D02*
D03*
Y-285000D02*
D03*
Y-280000D02*
D03*
Y-275000D02*
D03*
Y-270000D02*
D03*
Y-265000D02*
D03*
Y-260000D02*
D03*
Y-255000D02*
D03*
Y-250000D02*
D03*
Y-245000D02*
D03*
Y-215000D02*
D03*
Y-235000D02*
D03*
Y-240000D02*
D03*
Y-230000D02*
D03*
Y-175000D02*
D03*
Y-225000D02*
D03*
Y-220000D02*
D03*
Y-210000D02*
D03*
Y-205000D02*
D03*
Y-200000D02*
D03*
Y-195000D02*
D03*
Y-190000D02*
D03*
Y-185000D02*
D03*
Y-180000D02*
D03*
Y-170000D02*
D03*
D116*
X1051250Y-656000D02*
D03*
X1076750D02*
D03*
Y-642000D02*
D03*
X1051250D02*
D03*
D117*
X1060000Y-656000D02*
D03*
X1068000D02*
D03*
Y-642000D02*
D03*
X1060000D02*
D03*
D118*
X-1335000Y-480240D02*
D03*
Y-449760D02*
D03*
D119*
X-1270500Y-368000D02*
D03*
X-1285500D02*
D03*
D120*
X-1201635Y487500D02*
D03*
X-1232115D02*
D03*
X1305865D02*
D03*
X1275385D02*
D03*
X-1235803Y365000D02*
D03*
X-1205322D02*
D03*
X-1162053D02*
D03*
X-1131572D02*
D03*
X-1383302D02*
D03*
X-1352823D02*
D03*
X-1379615Y487500D02*
D03*
X-1349135D02*
D03*
X-1309552Y365000D02*
D03*
X-1279072D02*
D03*
X-719553D02*
D03*
X-689072D02*
D03*
X-789615Y487500D02*
D03*
X-759135D02*
D03*
X-793303Y365000D02*
D03*
X-762822D02*
D03*
X-572052D02*
D03*
X-541572D02*
D03*
X-642115Y487500D02*
D03*
X-611635D02*
D03*
X-645803Y365000D02*
D03*
X-615322D02*
D03*
X-424552D02*
D03*
X-394072D02*
D03*
X-494615Y487500D02*
D03*
X-464135D02*
D03*
X-498302Y365000D02*
D03*
X-467822D02*
D03*
X-277052D02*
D03*
X-246572D02*
D03*
X-347115Y487500D02*
D03*
X-316635D02*
D03*
X-350802Y365000D02*
D03*
X-320322D02*
D03*
X-129552D02*
D03*
X-99073D02*
D03*
X-199615Y487500D02*
D03*
X-169135D02*
D03*
X-203302Y365000D02*
D03*
X-172822D02*
D03*
X17947D02*
D03*
X48428D02*
D03*
X-52115Y487500D02*
D03*
X-21635D02*
D03*
X-55802Y365000D02*
D03*
X-25322D02*
D03*
X165448D02*
D03*
X195928D02*
D03*
X95385Y487500D02*
D03*
X125865D02*
D03*
X91698Y365000D02*
D03*
X122177D02*
D03*
X312948D02*
D03*
X343428D02*
D03*
X242885Y487500D02*
D03*
X273365D02*
D03*
X239198Y365000D02*
D03*
X269678D02*
D03*
X460448D02*
D03*
X490928D02*
D03*
X390385Y487500D02*
D03*
X420865D02*
D03*
X386698Y365000D02*
D03*
X417178D02*
D03*
X607948D02*
D03*
X638428D02*
D03*
X537885Y487500D02*
D03*
X568365D02*
D03*
X534198Y365000D02*
D03*
X564678D02*
D03*
X-867053D02*
D03*
X-836572D02*
D03*
X-937115Y487500D02*
D03*
X-906635D02*
D03*
X-940803Y365000D02*
D03*
X-910322D02*
D03*
X755447D02*
D03*
X785928D02*
D03*
X685385Y487500D02*
D03*
X715865D02*
D03*
X681697Y365000D02*
D03*
X712178D02*
D03*
X902947D02*
D03*
X933428D02*
D03*
X832885Y487500D02*
D03*
X863365D02*
D03*
X829197Y365000D02*
D03*
X859678D02*
D03*
X-1014553D02*
D03*
X-984072D02*
D03*
X-1084615Y487500D02*
D03*
X-1054135D02*
D03*
X-1088303Y365000D02*
D03*
X-1057822D02*
D03*
X1050447D02*
D03*
X1080928D02*
D03*
X980385Y487500D02*
D03*
X1010865D02*
D03*
X976697Y365000D02*
D03*
X1007178D02*
D03*
X1197947D02*
D03*
X1228428D02*
D03*
X1127885Y487500D02*
D03*
X1158365D02*
D03*
X1124197Y365000D02*
D03*
X1154678D02*
D03*
X1345448D02*
D03*
X1375927D02*
D03*
X1271697D02*
D03*
X1302177D02*
D03*
D121*
X-1235925Y174505D02*
D03*
X-1223225Y120505D02*
D03*
X-1197825D02*
D03*
X-1223225Y174505D02*
D03*
X-1210525D02*
D03*
X-1197825D02*
D03*
X-1235925Y120505D02*
D03*
X-1210525D02*
D03*
X-1162175Y174505D02*
D03*
X-1149475Y120505D02*
D03*
X-1124075D02*
D03*
X-1149475Y174505D02*
D03*
X-1136775D02*
D03*
X-1124075D02*
D03*
X-1162175Y120505D02*
D03*
X-1136775D02*
D03*
X-1383425Y174505D02*
D03*
X-1370725Y120505D02*
D03*
X-1345325D02*
D03*
X-1370725Y174505D02*
D03*
X-1358025D02*
D03*
X-1345325D02*
D03*
X-1383425Y120505D02*
D03*
X-1358025D02*
D03*
X-1309675Y174505D02*
D03*
X-1296975Y120505D02*
D03*
X-1271575D02*
D03*
X-1296975Y174505D02*
D03*
X-1284275D02*
D03*
X-1271575D02*
D03*
X-1309675Y120505D02*
D03*
X-1284275D02*
D03*
X-719675Y174505D02*
D03*
X-706975Y120505D02*
D03*
X-681575D02*
D03*
X-706975Y174505D02*
D03*
X-694275D02*
D03*
X-681575D02*
D03*
X-719675Y120505D02*
D03*
X-694275D02*
D03*
X-793425Y174505D02*
D03*
X-780725Y120505D02*
D03*
X-755325D02*
D03*
X-780725Y174505D02*
D03*
X-768025D02*
D03*
X-755325D02*
D03*
X-793425Y120505D02*
D03*
X-768025D02*
D03*
X-572175Y174505D02*
D03*
X-559475Y120505D02*
D03*
X-534075D02*
D03*
X-559475Y174505D02*
D03*
X-546775D02*
D03*
X-534075D02*
D03*
X-572175Y120505D02*
D03*
X-546775D02*
D03*
X-645925Y174505D02*
D03*
X-633225Y120505D02*
D03*
X-607825D02*
D03*
X-633225Y174505D02*
D03*
X-620525D02*
D03*
X-607825D02*
D03*
X-645925Y120505D02*
D03*
X-620525D02*
D03*
X-424675Y174505D02*
D03*
X-411975Y120505D02*
D03*
X-386575D02*
D03*
X-411975Y174505D02*
D03*
X-399275D02*
D03*
X-386575D02*
D03*
X-424675Y120505D02*
D03*
X-399275D02*
D03*
X-498425Y174505D02*
D03*
X-485725Y120505D02*
D03*
X-460325D02*
D03*
X-485725Y174505D02*
D03*
X-473025D02*
D03*
X-460325D02*
D03*
X-498425Y120505D02*
D03*
X-473025D02*
D03*
X-277175Y174505D02*
D03*
X-264475Y120505D02*
D03*
X-239075D02*
D03*
X-264475Y174505D02*
D03*
X-251775D02*
D03*
X-239075D02*
D03*
X-277175Y120505D02*
D03*
X-251775D02*
D03*
X-350925Y174505D02*
D03*
X-338225Y120505D02*
D03*
X-312825D02*
D03*
X-338225Y174505D02*
D03*
X-325525D02*
D03*
X-312825D02*
D03*
X-350925Y120505D02*
D03*
X-325525D02*
D03*
X-129675Y174505D02*
D03*
X-116975Y120505D02*
D03*
X-91575D02*
D03*
X-116975Y174505D02*
D03*
X-104275D02*
D03*
X-91575D02*
D03*
X-129675Y120505D02*
D03*
X-104275D02*
D03*
X-203425Y174505D02*
D03*
X-190725Y120505D02*
D03*
X-165325D02*
D03*
X-190725Y174505D02*
D03*
X-178025D02*
D03*
X-165325D02*
D03*
X-203425Y120505D02*
D03*
X-178025D02*
D03*
X17825Y174505D02*
D03*
X30525Y120505D02*
D03*
X55925D02*
D03*
X30525Y174505D02*
D03*
X43225D02*
D03*
X55925D02*
D03*
X17825Y120505D02*
D03*
X43225D02*
D03*
X-55925Y174505D02*
D03*
X-43225Y120505D02*
D03*
X-17825D02*
D03*
X-43225Y174505D02*
D03*
X-30525D02*
D03*
X-17825D02*
D03*
X-55925Y120505D02*
D03*
X-30525D02*
D03*
X165325Y174505D02*
D03*
X178025Y120505D02*
D03*
X203425D02*
D03*
X178025Y174505D02*
D03*
X190725D02*
D03*
X203425D02*
D03*
X165325Y120505D02*
D03*
X190725D02*
D03*
X91575Y174505D02*
D03*
X104275Y120505D02*
D03*
X129675D02*
D03*
X104275Y174505D02*
D03*
X116975D02*
D03*
X129675D02*
D03*
X91575Y120505D02*
D03*
X116975D02*
D03*
X312825Y174505D02*
D03*
X325525Y120505D02*
D03*
X350925D02*
D03*
X325525Y174505D02*
D03*
X338225D02*
D03*
X350925D02*
D03*
X312825Y120505D02*
D03*
X338225D02*
D03*
X239075Y174505D02*
D03*
X251775Y120505D02*
D03*
X277175D02*
D03*
X251775Y174505D02*
D03*
X264475D02*
D03*
X277175D02*
D03*
X239075Y120505D02*
D03*
X264475D02*
D03*
X460325Y174505D02*
D03*
X473025Y120505D02*
D03*
X498425D02*
D03*
X473025Y174505D02*
D03*
X485725D02*
D03*
X498425D02*
D03*
X460325Y120505D02*
D03*
X485725D02*
D03*
X386575Y174505D02*
D03*
X399275Y120505D02*
D03*
X424675D02*
D03*
X399275Y174505D02*
D03*
X411975D02*
D03*
X424675D02*
D03*
X386575Y120505D02*
D03*
X411975D02*
D03*
X607825Y174505D02*
D03*
X620525Y120505D02*
D03*
X645925D02*
D03*
X620525Y174505D02*
D03*
X633225D02*
D03*
X645925D02*
D03*
X607825Y120505D02*
D03*
X633225D02*
D03*
X534075Y174505D02*
D03*
X546775Y120505D02*
D03*
X572175D02*
D03*
X546775Y174505D02*
D03*
X559475D02*
D03*
X572175D02*
D03*
X534075Y120505D02*
D03*
X559475D02*
D03*
X-867175Y174505D02*
D03*
X-854475Y120505D02*
D03*
X-829075D02*
D03*
X-854475Y174505D02*
D03*
X-841775D02*
D03*
X-829075D02*
D03*
X-867175Y120505D02*
D03*
X-841775D02*
D03*
X-940925Y174505D02*
D03*
X-928225Y120505D02*
D03*
X-902825D02*
D03*
X-928225Y174505D02*
D03*
X-915525D02*
D03*
X-902825D02*
D03*
X-940925Y120505D02*
D03*
X-915525D02*
D03*
X755325Y174505D02*
D03*
X768025Y120505D02*
D03*
X793425D02*
D03*
X768025Y174505D02*
D03*
X780725D02*
D03*
X793425D02*
D03*
X755325Y120505D02*
D03*
X780725D02*
D03*
X681575Y174505D02*
D03*
X694275Y120505D02*
D03*
X719675D02*
D03*
X694275Y174505D02*
D03*
X706975D02*
D03*
X719675D02*
D03*
X681575Y120505D02*
D03*
X706975D02*
D03*
X902825Y174505D02*
D03*
X915525Y120505D02*
D03*
X940925D02*
D03*
X915525Y174505D02*
D03*
X928225D02*
D03*
X940925D02*
D03*
X902825Y120505D02*
D03*
X928225D02*
D03*
X829075Y174505D02*
D03*
X841775Y120505D02*
D03*
X867175D02*
D03*
X841775Y174505D02*
D03*
X854475D02*
D03*
X867175D02*
D03*
X829075Y120505D02*
D03*
X854475D02*
D03*
X-1014675Y174505D02*
D03*
X-1001975Y120505D02*
D03*
X-976575D02*
D03*
X-1001975Y174505D02*
D03*
X-989275D02*
D03*
X-976575D02*
D03*
X-1014675Y120505D02*
D03*
X-989275D02*
D03*
X-1088425Y174505D02*
D03*
X-1075725Y120505D02*
D03*
X-1050325D02*
D03*
X-1075725Y174505D02*
D03*
X-1063025D02*
D03*
X-1050325D02*
D03*
X-1088425Y120505D02*
D03*
X-1063025D02*
D03*
X1050325Y174505D02*
D03*
X1063025Y120505D02*
D03*
X1088425D02*
D03*
X1063025Y174505D02*
D03*
X1075725D02*
D03*
X1088425D02*
D03*
X1050325Y120505D02*
D03*
X1075725D02*
D03*
X976575Y174505D02*
D03*
X989275Y120505D02*
D03*
X1014675D02*
D03*
X989275Y174505D02*
D03*
X1001975D02*
D03*
X1014675D02*
D03*
X976575Y120505D02*
D03*
X1001975D02*
D03*
X1197825Y174505D02*
D03*
X1210525Y120505D02*
D03*
X1235925D02*
D03*
X1210525Y174505D02*
D03*
X1223225D02*
D03*
X1235925D02*
D03*
X1197825Y120505D02*
D03*
X1223225D02*
D03*
X1124075Y174505D02*
D03*
X1136775Y120505D02*
D03*
X1162175D02*
D03*
X1136775Y174505D02*
D03*
X1149475D02*
D03*
X1162175D02*
D03*
X1124075Y120505D02*
D03*
X1149475D02*
D03*
X1345325Y174505D02*
D03*
X1358025Y120505D02*
D03*
X1383425D02*
D03*
X1358025Y174505D02*
D03*
X1370725D02*
D03*
X1383425D02*
D03*
X1345325Y120505D02*
D03*
X1370725D02*
D03*
X1271575Y174505D02*
D03*
X1284275Y120505D02*
D03*
X1309675D02*
D03*
X1284275Y174505D02*
D03*
X1296975D02*
D03*
X1309675D02*
D03*
X1271575Y120505D02*
D03*
X1296975D02*
D03*
D122*
X-1235313Y294500D02*
D03*
X-1225813Y270500D02*
D03*
X-1244813D02*
D03*
X-1198438Y294500D02*
D03*
X-1188938Y270500D02*
D03*
X-1207938D02*
D03*
X-1161563Y294500D02*
D03*
X-1152063Y270500D02*
D03*
X-1171063D02*
D03*
X-1124688Y294500D02*
D03*
X-1115188Y270500D02*
D03*
X-1134188D02*
D03*
X-1382813Y294500D02*
D03*
X-1373313Y270500D02*
D03*
X-1392313D02*
D03*
X-1345938Y294500D02*
D03*
X-1336438Y270500D02*
D03*
X-1355438D02*
D03*
X-1309063Y294500D02*
D03*
X-1299563Y270500D02*
D03*
X-1318563D02*
D03*
X-1272188Y294500D02*
D03*
X-1262688Y270500D02*
D03*
X-1281688D02*
D03*
X-682188Y294500D02*
D03*
X-672688Y270500D02*
D03*
X-691688D02*
D03*
X-719063Y294500D02*
D03*
X-709563Y270500D02*
D03*
X-728563D02*
D03*
X-755938Y294500D02*
D03*
X-746438Y270500D02*
D03*
X-765438D02*
D03*
X-792813Y294500D02*
D03*
X-783313Y270500D02*
D03*
X-802313D02*
D03*
X-534688Y294500D02*
D03*
X-525187Y270500D02*
D03*
X-544188D02*
D03*
X-571563Y294500D02*
D03*
X-562062Y270500D02*
D03*
X-581063D02*
D03*
X-608438Y294500D02*
D03*
X-598937Y270500D02*
D03*
X-617938D02*
D03*
X-645313Y294500D02*
D03*
X-635812Y270500D02*
D03*
X-654813D02*
D03*
X-387188Y294500D02*
D03*
X-377687Y270500D02*
D03*
X-396688D02*
D03*
X-424063Y294500D02*
D03*
X-414562Y270500D02*
D03*
X-433563D02*
D03*
X-460938Y294500D02*
D03*
X-451437Y270500D02*
D03*
X-470438D02*
D03*
X-497813Y294500D02*
D03*
X-488312Y270500D02*
D03*
X-507313D02*
D03*
X-239688Y294500D02*
D03*
X-230187Y270500D02*
D03*
X-249188D02*
D03*
X-276563Y294500D02*
D03*
X-267062Y270500D02*
D03*
X-286063D02*
D03*
X-313438Y294500D02*
D03*
X-303937Y270500D02*
D03*
X-322938D02*
D03*
X-350313Y294500D02*
D03*
X-340812Y270500D02*
D03*
X-359813D02*
D03*
X-92188Y294500D02*
D03*
X-82688Y270500D02*
D03*
X-101688D02*
D03*
X-129063Y294500D02*
D03*
X-119563Y270500D02*
D03*
X-138563D02*
D03*
X-165938Y294500D02*
D03*
X-156438Y270500D02*
D03*
X-175438D02*
D03*
X-202813Y294500D02*
D03*
X-193312Y270500D02*
D03*
X-212313D02*
D03*
X55312Y294500D02*
D03*
X64812Y270500D02*
D03*
X45812D02*
D03*
X18437Y294500D02*
D03*
X27938Y270500D02*
D03*
X8937D02*
D03*
X-18438Y294500D02*
D03*
X-8938Y270500D02*
D03*
X-27938D02*
D03*
X-55313Y294500D02*
D03*
X-45813Y270500D02*
D03*
X-64813D02*
D03*
X202812Y294500D02*
D03*
X212313Y270500D02*
D03*
X193312D02*
D03*
X165937Y294500D02*
D03*
X175438Y270500D02*
D03*
X156437D02*
D03*
X129062Y294500D02*
D03*
X138562Y270500D02*
D03*
X119562D02*
D03*
X92187Y294500D02*
D03*
X101687Y270500D02*
D03*
X82687D02*
D03*
X350312Y294500D02*
D03*
X359813Y270500D02*
D03*
X340812D02*
D03*
X313437Y294500D02*
D03*
X322938Y270500D02*
D03*
X303937D02*
D03*
X276562Y294500D02*
D03*
X286063Y270500D02*
D03*
X267062D02*
D03*
X239687Y294500D02*
D03*
X249188Y270500D02*
D03*
X230187D02*
D03*
X497812Y294500D02*
D03*
X507313Y270500D02*
D03*
X488312D02*
D03*
X460937Y294500D02*
D03*
X470438Y270500D02*
D03*
X451437D02*
D03*
X424062Y294500D02*
D03*
X433563Y270500D02*
D03*
X414562D02*
D03*
X387187Y294500D02*
D03*
X396688Y270500D02*
D03*
X377687D02*
D03*
X645312Y294500D02*
D03*
X654812Y270500D02*
D03*
X635812D02*
D03*
X608437Y294500D02*
D03*
X617938Y270500D02*
D03*
X598937D02*
D03*
X571562Y294500D02*
D03*
X581063Y270500D02*
D03*
X562062D02*
D03*
X534687Y294500D02*
D03*
X544188Y270500D02*
D03*
X525187D02*
D03*
X-829688Y294500D02*
D03*
X-820188Y270500D02*
D03*
X-839188D02*
D03*
X-866563Y294500D02*
D03*
X-857063Y270500D02*
D03*
X-876063D02*
D03*
X-903438Y294500D02*
D03*
X-893938Y270500D02*
D03*
X-912938D02*
D03*
X-940313Y294500D02*
D03*
X-930813Y270500D02*
D03*
X-949813D02*
D03*
X792812Y294500D02*
D03*
X802312Y270500D02*
D03*
X783312D02*
D03*
X755937Y294500D02*
D03*
X765437Y270500D02*
D03*
X746437D02*
D03*
X719062Y294500D02*
D03*
X728562Y270500D02*
D03*
X709562D02*
D03*
X682187Y294500D02*
D03*
X691687Y270500D02*
D03*
X672687D02*
D03*
X940312Y294500D02*
D03*
X949812Y270500D02*
D03*
X930812D02*
D03*
X903437Y294500D02*
D03*
X912937Y270500D02*
D03*
X893937D02*
D03*
X866562Y294500D02*
D03*
X876062Y270500D02*
D03*
X857062D02*
D03*
X829687Y294500D02*
D03*
X839187Y270500D02*
D03*
X820187D02*
D03*
X-977188Y294500D02*
D03*
X-967688Y270500D02*
D03*
X-986688D02*
D03*
X-1014063Y294500D02*
D03*
X-1004563Y270500D02*
D03*
X-1023563D02*
D03*
X-1050938Y294500D02*
D03*
X-1041438Y270500D02*
D03*
X-1060438D02*
D03*
X-1087813Y294500D02*
D03*
X-1078313Y270500D02*
D03*
X-1097313D02*
D03*
X1087812Y294500D02*
D03*
X1097312Y270500D02*
D03*
X1078312D02*
D03*
X1050937Y294500D02*
D03*
X1060437Y270500D02*
D03*
X1041437D02*
D03*
X1014062Y294500D02*
D03*
X1023562Y270500D02*
D03*
X1004562D02*
D03*
X977187Y294500D02*
D03*
X986687Y270500D02*
D03*
X967687D02*
D03*
X1235312Y294500D02*
D03*
X1244812Y270500D02*
D03*
X1225812D02*
D03*
X1198437Y294500D02*
D03*
X1207937Y270500D02*
D03*
X1188937D02*
D03*
X1161562Y294500D02*
D03*
X1171062Y270500D02*
D03*
X1152062D02*
D03*
X1124687Y294500D02*
D03*
X1134187Y270500D02*
D03*
X1115187D02*
D03*
X1382812Y294500D02*
D03*
X1392312Y270500D02*
D03*
X1373312D02*
D03*
X1345937Y294500D02*
D03*
X1355437Y270500D02*
D03*
X1336437D02*
D03*
X1309062Y294500D02*
D03*
X1318562Y270500D02*
D03*
X1299562D02*
D03*
X1272187Y294500D02*
D03*
X1281687Y270500D02*
D03*
X1262687D02*
D03*
D123*
X-1216875Y456500D02*
D03*
Y393500D02*
D03*
X-1143125Y456500D02*
D03*
Y393500D02*
D03*
X-1364375Y456500D02*
D03*
Y393500D02*
D03*
X-1290625Y456500D02*
D03*
Y393500D02*
D03*
X-700625Y456500D02*
D03*
Y393500D02*
D03*
X-774375Y456500D02*
D03*
Y393500D02*
D03*
X-553125Y456500D02*
D03*
Y393500D02*
D03*
X-626875Y456500D02*
D03*
Y393500D02*
D03*
X-405625Y456500D02*
D03*
Y393500D02*
D03*
X-479375Y456500D02*
D03*
Y393500D02*
D03*
X-258125Y456500D02*
D03*
Y393500D02*
D03*
X-331875Y456500D02*
D03*
Y393500D02*
D03*
X-110625Y456500D02*
D03*
Y393500D02*
D03*
X-184375Y456500D02*
D03*
Y393500D02*
D03*
X36875Y456500D02*
D03*
Y393500D02*
D03*
X-36875Y456500D02*
D03*
Y393500D02*
D03*
X184375Y456500D02*
D03*
Y393500D02*
D03*
X110625Y456500D02*
D03*
Y393500D02*
D03*
X331875Y456500D02*
D03*
Y393500D02*
D03*
X258125Y456500D02*
D03*
Y393500D02*
D03*
X479375Y456500D02*
D03*
Y393500D02*
D03*
X405625Y456500D02*
D03*
Y393500D02*
D03*
X626875Y456500D02*
D03*
Y393500D02*
D03*
X553125Y456500D02*
D03*
Y393500D02*
D03*
X-848125Y456500D02*
D03*
Y393500D02*
D03*
X-921875Y456500D02*
D03*
Y393500D02*
D03*
X774375Y456500D02*
D03*
Y393500D02*
D03*
X700625Y456500D02*
D03*
Y393500D02*
D03*
X921875Y456500D02*
D03*
Y393500D02*
D03*
X848125Y456500D02*
D03*
Y393500D02*
D03*
X-995625Y456500D02*
D03*
Y393500D02*
D03*
X-1069375Y456500D02*
D03*
Y393500D02*
D03*
X1069375Y456500D02*
D03*
Y393500D02*
D03*
X995625Y456500D02*
D03*
Y393500D02*
D03*
X1216875Y456500D02*
D03*
Y393500D02*
D03*
X1143125Y456500D02*
D03*
Y393500D02*
D03*
X1364375Y456500D02*
D03*
Y393500D02*
D03*
X1290625Y456500D02*
D03*
Y393500D02*
D03*
M02*
