M48
;Layer_Color=9474304
;FILE_FORMAT=4:4
METRIC,LZ
;TYPE=PLATED
T4F00S00C0.6000
T6F00S00C0.9000
;TYPE=NON_PLATED
%
G90
G05
T04
G00X-014905Y-002682
M15
G01X-014825
M16
G00X-014502Y-002682
M15
G01X-014392
M16
G00X-014502Y-001818
M15
G01X-014392
M16
G00X-014905Y-001818
M15
G01X-014825
M16
T06
G00X-014806Y-007225
M15
G01X-014686
M16
G00X-01424Y-007225
M15
G01X-01406
M16
G00X-01406Y-005775
M15
G01X-01424
M16
G00X-014686Y-005775
M15
G01X-014806
M16
G00X000175Y-00551
M15
G01Y-00569
M16
G00X000175Y-006136
M15
G01Y-006256
M16
G00X001625Y-006256
M15
G01Y-006136
M16
G00X001625Y-00569
M15
G01Y-00551
M16
M17
M30
