G04*
G04 #@! TF.GenerationSoftware,Altium Limited,Altium Designer,22.2.1 (43)*
G04*
G04 Layer_Color=16711935*
%FSLAX44Y44*%
%MOMM*%
G71*
G04*
G04 #@! TF.SameCoordinates,CDD9168B-683F-4F5A-B1B2-3852E0251DB5*
G04*
G04*
G04 #@! TF.FilePolarity,Negative*
G04*
G01*
G75*
%ADD10C,0.2540*%
%ADD20R,0.8382X1.0922*%
%ADD21C,5.2032*%
%ADD22O,1.7032X2.0032*%
%ADD23R,1.7032X2.0032*%
%ADD24O,1.7032X3.5032*%
%ADD25O,1.7032X2.9032*%
%ADD26O,3.5032X1.7032*%
%ADD27O,2.9032X1.7032*%
%ADD28R,1.9032X2.4032*%
%ADD29O,1.9032X2.4032*%
%ADD30R,2.0032X2.4032*%
%ADD31O,2.0032X2.4032*%
%ADD32C,1.2032*%
%ADD33C,0.2032*%
%ADD34O,2.3032X1.4032*%
%ADD35O,2.5032X1.4032*%
%ADD36C,4.0032*%
%ADD37R,2.4032X1.9032*%
%ADD38O,2.4032X1.9032*%
%ADD39O,2.3032X1.7032*%
%ADD40O,2.1032X2.6032*%
%ADD41R,2.1032X2.6032*%
%ADD42O,3.2032X3.7032*%
%ADD43R,3.2032X3.7032*%
%ADD44C,2.7032*%
%ADD45O,2.0032X2.7032*%
%ADD46R,4.0032X5.2032*%
%ADD47C,1.4480*%
%ADD48C,6.4032*%
%ADD49C,2.9032*%
%ADD131O,0.6032X1.2032*%
%ADD132R,0.9032X0.4032*%
%ADD133R,1.4032X1.2032*%
G04:AMPARAMS|DCode=134|XSize=0.5032mm|YSize=0.8732mm|CornerRadius=0.1766mm|HoleSize=0mm|Usage=FLASHONLY|Rotation=270.000|XOffset=0mm|YOffset=0mm|HoleType=Round|Shape=RoundedRectangle|*
%AMROUNDEDRECTD134*
21,1,0.5032,0.5200,0,0,270.0*
21,1,0.1500,0.8732,0,0,270.0*
1,1,0.3532,-0.2600,-0.0750*
1,1,0.3532,-0.2600,0.0750*
1,1,0.3532,0.2600,0.0750*
1,1,0.3532,0.2600,-0.0750*
%
%ADD134ROUNDEDRECTD134*%
%ADD135O,0.6032X1.4632*%
%ADD136O,1.1032X0.4532*%
%ADD137R,3.9032X3.9032*%
%ADD138O,0.4532X1.1032*%
%ADD139R,0.6032X0.8032*%
%ADD140R,1.6032X1.4032*%
%ADD141O,0.5032X1.2032*%
%ADD142R,0.5032X2.8032*%
%ADD143R,2.8032X0.5032*%
%ADD144R,1.3462X1.9812*%
%ADD145R,1.0922X0.8382*%
%ADD146R,1.2032X0.9032*%
%ADD147R,1.9812X1.3462*%
%ADD148R,1.0032X1.2032*%
%ADD149R,1.7032X0.9032*%
%ADD150R,1.4532X0.8032*%
%ADD151R,1.4532X0.5032*%
%ADD152R,2.4032X5.2032*%
%ADD153R,2.7032X5.7032*%
%ADD154R,1.6032X1.6032*%
%ADD155R,5.0032X4.9232*%
%ADD156R,3.4532X4.7032*%
%ADD157R,4.9232X5.0032*%
%ADD158R,1.6032X1.6032*%
%ADD159R,1.3032X4.8032*%
%ADD160R,11.0032X9.6032*%
%ADD161O,2.4032X0.8032*%
%ADD162R,2.2032X0.4532*%
%ADD163R,0.8532X1.0032*%
%ADD164R,0.7032X1.0032*%
%ADD165R,1.9812X1.2192*%
%ADD166R,1.0032X1.0032*%
%ADD167R,1.2192X1.9812*%
%ADD168O,0.8032X2.4032*%
%ADD169R,0.9032X1.2032*%
%ADD170R,2.4032X1.7032*%
G36*
X109881Y2019026D02*
X110829D01*
Y2018788D01*
X111541D01*
Y2018551D01*
X112015D01*
Y2018314D01*
X112253D01*
Y2018077D01*
X112490D01*
Y2017840D01*
X112727D01*
Y2017602D01*
X112964D01*
Y2017365D01*
X113201D01*
Y2017128D01*
X113439D01*
Y2016891D01*
Y2016653D01*
X113676D01*
Y2016416D01*
Y2016179D01*
X113913D01*
Y2015942D01*
Y2015705D01*
Y2015468D01*
X114150D01*
Y2015230D01*
Y2014993D01*
Y2014756D01*
Y2014519D01*
Y2014281D01*
Y2014044D01*
Y2013807D01*
Y2013570D01*
Y2013333D01*
X113913D01*
Y2013096D01*
Y2012858D01*
Y2012621D01*
X113676D01*
Y2012384D01*
Y2012147D01*
X113439D01*
Y2011909D01*
Y2011672D01*
X113201D01*
Y2011435D01*
Y2011198D01*
X112964D01*
Y2010961D01*
X112727D01*
Y2010724D01*
X112490D01*
Y2010486D01*
X112015D01*
Y2010249D01*
X111778D01*
Y2010012D01*
X111067D01*
Y2009775D01*
X110355D01*
Y2009538D01*
X107983D01*
Y2009775D01*
X107508D01*
Y2010012D01*
X107034D01*
Y2010249D01*
X106560D01*
Y2010486D01*
X106322D01*
Y2010724D01*
X106085D01*
Y2010961D01*
X105848D01*
Y2011198D01*
X105611D01*
Y2011435D01*
X105374D01*
Y2011672D01*
Y2011909D01*
X105136D01*
Y2012147D01*
X104899D01*
Y2012384D01*
Y2012621D01*
Y2012858D01*
X104662D01*
Y2013096D01*
Y2013333D01*
Y2013570D01*
Y2013807D01*
Y2014044D01*
X104425D01*
Y2014281D01*
Y2014519D01*
Y2014756D01*
Y2014993D01*
Y2015230D01*
X104662D01*
Y2015468D01*
Y2015705D01*
Y2015942D01*
X104899D01*
Y2016179D01*
Y2016416D01*
Y2016653D01*
X105136D01*
Y2016891D01*
X105374D01*
Y2017128D01*
Y2017365D01*
X105611D01*
Y2017602D01*
X105848D01*
Y2017840D01*
X106085D01*
Y2018077D01*
X106322D01*
Y2018314D01*
X106797D01*
Y2018551D01*
X107271D01*
Y2018788D01*
X107746D01*
Y2019026D01*
X108695D01*
Y2019263D01*
X109881D01*
Y2019026D01*
D02*
G37*
G36*
X145461Y2005505D02*
X146410D01*
Y2005268D01*
X146884D01*
Y2005031D01*
X147358D01*
Y2004794D01*
X147596D01*
Y2004556D01*
X147833D01*
Y2004319D01*
X148070D01*
Y2004082D01*
X148307D01*
Y2003845D01*
X148544D01*
Y2003607D01*
X148781D01*
Y2003370D01*
Y2003133D01*
X149019D01*
Y2002896D01*
Y2002659D01*
Y2002422D01*
Y2002184D01*
X149256D01*
Y2001947D01*
Y2001710D01*
Y2001473D01*
Y2001236D01*
Y2000998D01*
Y2000761D01*
Y2000524D01*
X149019D01*
Y2000287D01*
Y2000049D01*
Y1999812D01*
X148781D01*
Y1999575D01*
Y1999338D01*
X148544D01*
Y1999101D01*
Y1998864D01*
X148307D01*
Y1998626D01*
X148070D01*
Y1998389D01*
X147833D01*
Y1998152D01*
X147596D01*
Y1997915D01*
X147121D01*
Y1997677D01*
X146884D01*
Y1997440D01*
X146172D01*
Y1997203D01*
X143800D01*
Y1997440D01*
X142851D01*
Y1997677D01*
X142614D01*
Y1997915D01*
X142377D01*
Y1998152D01*
X142140D01*
Y1998389D01*
X141903D01*
Y1998626D01*
X141665D01*
Y1998864D01*
X141428D01*
Y1999101D01*
X141191D01*
Y1999338D01*
Y1999575D01*
X140954D01*
Y1999812D01*
Y2000049D01*
X140717D01*
Y2000287D01*
Y2000524D01*
Y2000761D01*
Y2000998D01*
Y2001236D01*
Y2001473D01*
Y2001710D01*
Y2001947D01*
Y2002184D01*
Y2002422D01*
X140954D01*
Y2002659D01*
Y2002896D01*
Y2003133D01*
X141191D01*
Y2003370D01*
Y2003607D01*
X141428D01*
Y2003845D01*
X141665D01*
Y2004082D01*
Y2004319D01*
X141903D01*
Y2004556D01*
X142140D01*
Y2004794D01*
X142377D01*
Y2005031D01*
X142851D01*
Y2005268D01*
X143326D01*
Y2005505D01*
X144275D01*
Y2005742D01*
X145461D01*
Y2005505D01*
D02*
G37*
G36*
X74300D02*
X75249D01*
Y2005268D01*
X75724D01*
Y2005031D01*
X76198D01*
Y2004794D01*
X76435D01*
Y2004556D01*
X76672D01*
Y2004319D01*
X76909D01*
Y2004082D01*
X77147D01*
Y2003845D01*
Y2003607D01*
X77384D01*
Y2003370D01*
X77621D01*
Y2003133D01*
Y2002896D01*
Y2002659D01*
X77858D01*
Y2002422D01*
Y2002184D01*
Y2001947D01*
Y2001710D01*
Y2001473D01*
X78096D01*
Y2001236D01*
Y2000998D01*
Y2000761D01*
Y2000524D01*
X77858D01*
Y2000287D01*
Y2000049D01*
Y1999812D01*
X77621D01*
Y1999575D01*
Y1999338D01*
X77384D01*
Y1999101D01*
X77147D01*
Y1998864D01*
Y1998626D01*
X76909D01*
Y1998389D01*
X76672D01*
Y1998152D01*
X76435D01*
Y1997915D01*
X75961D01*
Y1997677D01*
X75724D01*
Y1997440D01*
X75249D01*
Y1997203D01*
X74063D01*
Y1996966D01*
X73351D01*
Y1997203D01*
X72403D01*
Y1997440D01*
X71928D01*
Y1997677D01*
X71454D01*
Y1997915D01*
X71217D01*
Y1998152D01*
X70742D01*
Y1998389D01*
X70505D01*
Y1998626D01*
X70268D01*
Y1998864D01*
X70031D01*
Y1999101D01*
Y1999338D01*
X69794D01*
Y1999575D01*
Y1999812D01*
Y2000049D01*
X69556D01*
Y2000287D01*
Y2000524D01*
Y2000761D01*
Y2000998D01*
Y2001236D01*
X69319D01*
Y2001473D01*
X69556D01*
Y2001710D01*
Y2001947D01*
Y2002184D01*
Y2002422D01*
Y2002659D01*
Y2002896D01*
X69794D01*
Y2003133D01*
Y2003370D01*
X70031D01*
Y2003607D01*
Y2003845D01*
X70268D01*
Y2004082D01*
X70505D01*
Y2004319D01*
X70742D01*
Y2004556D01*
X70979D01*
Y2004794D01*
X71217D01*
Y2005031D01*
X71691D01*
Y2005268D01*
X72165D01*
Y2005505D01*
X73114D01*
Y2005742D01*
X74300D01*
Y2005505D01*
D02*
G37*
G36*
X107746Y1975855D02*
X108457D01*
Y1975618D01*
X108932D01*
Y1975381D01*
X109406D01*
Y1975143D01*
X109643D01*
Y1974906D01*
X109881D01*
Y1974669D01*
X110118D01*
Y1974432D01*
X110355D01*
Y1974194D01*
Y1973957D01*
X110592D01*
Y1973720D01*
Y1973483D01*
X110829D01*
Y1973246D01*
X111067D01*
Y1973009D01*
Y1972771D01*
Y1972534D01*
Y1972297D01*
Y1972060D01*
Y1971823D01*
Y1971585D01*
Y1971348D01*
Y1971111D01*
Y1970874D01*
Y1970636D01*
X110829D01*
Y1970399D01*
Y1970162D01*
Y1969925D01*
X110592D01*
Y1969688D01*
Y1969451D01*
X110355D01*
Y1969213D01*
Y1968976D01*
X110118D01*
Y1968739D01*
X109881D01*
Y1968502D01*
X109643D01*
Y1968264D01*
X109169D01*
Y1968027D01*
X108695D01*
Y1967790D01*
X108220D01*
Y1967553D01*
X105848D01*
Y1967790D01*
X104899D01*
Y1968027D01*
X104425D01*
Y1968264D01*
X104188D01*
Y1968502D01*
X103951D01*
Y1968739D01*
X103713D01*
Y1968976D01*
X103476D01*
Y1969213D01*
Y1969451D01*
X103239D01*
Y1969688D01*
X103002D01*
Y1969925D01*
Y1970162D01*
Y1970399D01*
X102765D01*
Y1970636D01*
Y1970874D01*
Y1971111D01*
Y1971348D01*
X102527D01*
Y1971585D01*
Y1971823D01*
Y1972060D01*
Y1972297D01*
Y1972534D01*
X102765D01*
Y1972771D01*
Y1973009D01*
Y1973246D01*
X103002D01*
Y1973483D01*
Y1973720D01*
X103239D01*
Y1973957D01*
Y1974194D01*
X103476D01*
Y1974432D01*
X103713D01*
Y1974669D01*
X103951D01*
Y1974906D01*
X104188D01*
Y1975143D01*
X104425D01*
Y1975381D01*
X104662D01*
Y1975618D01*
X105136D01*
Y1975855D01*
X106085D01*
Y1976092D01*
X107746D01*
Y1975855D01*
D02*
G37*
G36*
X165148Y1972060D02*
X165623D01*
Y1971823D01*
X166097D01*
Y1971585D01*
X166334D01*
Y1971348D01*
X166572D01*
Y1971111D01*
X166809D01*
Y1970874D01*
X167046D01*
Y1970636D01*
Y1970399D01*
X167283D01*
Y1970162D01*
Y1969925D01*
X167521D01*
Y1969688D01*
Y1969451D01*
Y1969213D01*
X167758D01*
Y1968976D01*
Y1968739D01*
Y1968502D01*
Y1968264D01*
Y1968027D01*
X167521D01*
Y1967790D01*
Y1967553D01*
Y1967316D01*
Y1967079D01*
X167283D01*
Y1966841D01*
Y1966604D01*
X167046D01*
Y1966367D01*
X166809D01*
Y1966130D01*
Y1965892D01*
X166572D01*
Y1965655D01*
X166097D01*
Y1965418D01*
X165860D01*
Y1965181D01*
X165386D01*
Y1964944D01*
X164200D01*
Y1964707D01*
X163488D01*
Y1964944D01*
X162539D01*
Y1965181D01*
X162065D01*
Y1965418D01*
X161590D01*
Y1965655D01*
X161353D01*
Y1965892D01*
X161116D01*
Y1966130D01*
X160879D01*
Y1966367D01*
X160642D01*
Y1966604D01*
Y1966841D01*
X160404D01*
Y1967079D01*
Y1967316D01*
Y1967553D01*
X160167D01*
Y1967790D01*
Y1968027D01*
Y1968264D01*
Y1968502D01*
Y1968739D01*
Y1968976D01*
Y1969213D01*
Y1969451D01*
Y1969688D01*
X160404D01*
Y1969925D01*
Y1970162D01*
Y1970399D01*
X160642D01*
Y1970636D01*
X160879D01*
Y1970874D01*
X161116D01*
Y1971111D01*
X161353D01*
Y1971348D01*
X161590D01*
Y1971585D01*
X161828D01*
Y1971823D01*
X162302D01*
Y1972060D01*
X163014D01*
Y1972297D01*
X165148D01*
Y1972060D01*
D02*
G37*
G36*
X55799D02*
X56510D01*
Y1971823D01*
X56747D01*
Y1971585D01*
X57222D01*
Y1971348D01*
X57459D01*
Y1971111D01*
X57696D01*
Y1970874D01*
X57933D01*
Y1970636D01*
X58171D01*
Y1970399D01*
Y1970162D01*
X58408D01*
Y1969925D01*
Y1969688D01*
Y1969451D01*
X58645D01*
Y1969213D01*
Y1968976D01*
Y1968739D01*
Y1968502D01*
Y1968264D01*
X58408D01*
Y1968027D01*
Y1967790D01*
Y1967553D01*
Y1967316D01*
X58171D01*
Y1967079D01*
Y1966841D01*
Y1966604D01*
X57933D01*
Y1966367D01*
Y1966130D01*
X57696D01*
Y1965892D01*
X57459D01*
Y1965655D01*
X57222D01*
Y1965418D01*
X56747D01*
Y1965181D01*
X56036D01*
Y1964944D01*
X55087D01*
Y1964707D01*
X54375D01*
Y1964944D01*
X53189D01*
Y1965181D01*
X52715D01*
Y1965418D01*
X52478D01*
Y1965655D01*
X52241D01*
Y1965892D01*
X52003D01*
Y1966130D01*
X51766D01*
Y1966367D01*
X51529D01*
Y1966604D01*
Y1966841D01*
X51292D01*
Y1967079D01*
Y1967316D01*
X51055D01*
Y1967553D01*
Y1967790D01*
Y1968027D01*
Y1968264D01*
Y1968502D01*
Y1968739D01*
Y1968976D01*
Y1969213D01*
Y1969451D01*
Y1969688D01*
X51292D01*
Y1969925D01*
Y1970162D01*
Y1970399D01*
X51529D01*
Y1970636D01*
X51766D01*
Y1970874D01*
Y1971111D01*
X52003D01*
Y1971348D01*
X52241D01*
Y1971585D01*
X52715D01*
Y1971823D01*
X52952D01*
Y1972060D01*
X53664D01*
Y1972297D01*
X55799D01*
Y1972060D01*
D02*
G37*
G36*
X79519Y1965418D02*
X80230D01*
Y1965181D01*
X80705D01*
Y1964944D01*
X80942D01*
Y1964707D01*
X81179D01*
Y1964469D01*
X81416D01*
Y1964232D01*
X81654D01*
Y1963995D01*
Y1963758D01*
X81891D01*
Y1963521D01*
Y1963283D01*
X82128D01*
Y1963046D01*
Y1962809D01*
Y1962572D01*
X82365D01*
Y1962334D01*
Y1962097D01*
Y1961860D01*
Y1961623D01*
Y1961386D01*
Y1961148D01*
Y1960911D01*
X82128D01*
Y1960674D01*
Y1960437D01*
X81891D01*
Y1960200D01*
Y1959962D01*
X81654D01*
Y1959725D01*
X81416D01*
Y1959488D01*
Y1959251D01*
X81179D01*
Y1959014D01*
X80705D01*
Y1958776D01*
X80468D01*
Y1958539D01*
X79993D01*
Y1958302D01*
X78807D01*
Y1958065D01*
X77858D01*
Y1958302D01*
X77147D01*
Y1958539D01*
X76672D01*
Y1958776D01*
X76435D01*
Y1959014D01*
X75961D01*
Y1959251D01*
X75724D01*
Y1959488D01*
X75486D01*
Y1959725D01*
X75249D01*
Y1959962D01*
Y1960200D01*
X75012D01*
Y1960437D01*
Y1960674D01*
Y1960911D01*
X74775D01*
Y1961148D01*
Y1961386D01*
Y1961623D01*
Y1961860D01*
Y1962097D01*
Y1962334D01*
Y1962572D01*
X75012D01*
Y1962809D01*
Y1963046D01*
Y1963283D01*
X75249D01*
Y1963521D01*
Y1963758D01*
X75486D01*
Y1963995D01*
Y1964232D01*
X75724D01*
Y1964469D01*
X75961D01*
Y1964707D01*
X76198D01*
Y1964944D01*
X76435D01*
Y1965181D01*
X76909D01*
Y1965418D01*
X77384D01*
Y1965655D01*
X79519D01*
Y1965418D01*
D02*
G37*
G36*
X138819Y1957828D02*
X139768D01*
Y1957590D01*
X140242D01*
Y1957353D01*
X140479D01*
Y1957116D01*
X140717D01*
Y1956879D01*
X140954D01*
Y1956642D01*
X141191D01*
Y1956404D01*
X141428D01*
Y1956167D01*
X141665D01*
Y1955930D01*
Y1955693D01*
X141903D01*
Y1955456D01*
Y1955218D01*
X142140D01*
Y1954981D01*
Y1954744D01*
X142377D01*
Y1954507D01*
Y1954270D01*
Y1954032D01*
Y1953795D01*
Y1953558D01*
X142614D01*
Y1953321D01*
Y1953084D01*
X142377D01*
Y1952846D01*
Y1952609D01*
Y1952372D01*
Y1952135D01*
Y1951898D01*
X142140D01*
Y1951660D01*
Y1951423D01*
Y1951186D01*
X141903D01*
Y1950949D01*
Y1950712D01*
X141665D01*
Y1950474D01*
X141428D01*
Y1950237D01*
X141191D01*
Y1950000D01*
X140954D01*
Y1949763D01*
X140717D01*
Y1949526D01*
X140479D01*
Y1949288D01*
X140005D01*
Y1949051D01*
X139768D01*
Y1948814D01*
X139056D01*
Y1948577D01*
X136447D01*
Y1948814D01*
X135498D01*
Y1949051D01*
X135024D01*
Y1949288D01*
X134787D01*
Y1949526D01*
X134550D01*
Y1949763D01*
X134312D01*
Y1950000D01*
X134075D01*
Y1950237D01*
X133838D01*
Y1950474D01*
X133601D01*
Y1950712D01*
Y1950949D01*
X133364D01*
Y1951186D01*
Y1951423D01*
X133126D01*
Y1951660D01*
Y1951898D01*
Y1952135D01*
X132889D01*
Y1952372D01*
Y1952609D01*
Y1952846D01*
Y1953084D01*
Y1953321D01*
Y1953558D01*
Y1953795D01*
Y1954032D01*
Y1954270D01*
Y1954507D01*
Y1954744D01*
X133126D01*
Y1954981D01*
Y1955218D01*
Y1955456D01*
X133364D01*
Y1955693D01*
Y1955930D01*
X133601D01*
Y1956167D01*
X133838D01*
Y1956404D01*
X134075D01*
Y1956642D01*
X134312D01*
Y1956879D01*
X134550D01*
Y1957116D01*
X134787D01*
Y1957353D01*
X135261D01*
Y1957590D01*
X135736D01*
Y1957828D01*
X136447D01*
Y1958065D01*
X138819D01*
Y1957828D01*
D02*
G37*
G36*
X-38845Y1989375D02*
X-36710D01*
Y1989138D01*
X-35287D01*
Y1988901D01*
X-34101D01*
Y1988664D01*
X-33152D01*
Y1988427D01*
X-32203D01*
Y1988189D01*
X-31491D01*
Y1987952D01*
X-30543D01*
Y1987715D01*
X-30068D01*
Y1987478D01*
X-29357D01*
Y1987241D01*
X-28645D01*
Y1987003D01*
X-28171D01*
Y1986766D01*
X-27696D01*
Y1986529D01*
X-27222D01*
Y1986292D01*
X-26747D01*
Y1986055D01*
X-26273D01*
Y1985817D01*
X-25799D01*
Y1985580D01*
X-25324D01*
Y1985343D01*
X-25087D01*
Y1985106D01*
X-24613D01*
Y1984869D01*
X-24138D01*
Y1984631D01*
X-23901D01*
Y1984394D01*
X-23427D01*
Y1984157D01*
X-23189D01*
Y1983920D01*
X-22952D01*
Y1983683D01*
X-22478D01*
Y1983445D01*
X-22241D01*
Y1983208D01*
X-22003D01*
Y1982971D01*
X-21529D01*
Y1982734D01*
X-21292D01*
Y1982497D01*
X-21055D01*
Y1982259D01*
X-20817D01*
Y1982022D01*
X-20580D01*
Y1981785D01*
X-20343D01*
Y1981548D01*
X-20106D01*
Y1981310D01*
X-19869D01*
Y1981073D01*
X-19631D01*
Y1980836D01*
X-19394D01*
Y1980599D01*
X-19157D01*
Y1980362D01*
X-18920D01*
Y1980125D01*
X-18683D01*
Y1979887D01*
X-18445D01*
Y1979650D01*
X-18208D01*
Y1979413D01*
X-17971D01*
Y1979176D01*
Y1978938D01*
X-17734D01*
Y1978701D01*
X-17497D01*
Y1978464D01*
X-17259D01*
Y1978227D01*
Y1977990D01*
X-17022D01*
Y1977753D01*
X-16785D01*
Y1977515D01*
X-16548D01*
Y1977278D01*
Y1977041D01*
X-16311D01*
Y1976804D01*
X-16073D01*
Y1976566D01*
Y1976329D01*
X-15836D01*
Y1976092D01*
X-15599D01*
Y1975855D01*
Y1975618D01*
X-15362D01*
Y1975381D01*
Y1975143D01*
X-15125D01*
Y1974906D01*
Y1974669D01*
X-14887D01*
Y1974432D01*
Y1974194D01*
X-14650D01*
Y1973957D01*
Y1973720D01*
X-14413D01*
Y1973483D01*
Y1973246D01*
X-14176D01*
Y1973009D01*
Y1972771D01*
X-13939D01*
Y1972534D01*
Y1972297D01*
X-13701D01*
Y1972060D01*
Y1971823D01*
Y1971585D01*
X-13464D01*
Y1971348D01*
Y1971111D01*
X-13227D01*
Y1970874D01*
Y1970636D01*
Y1970399D01*
X-12990D01*
Y1970162D01*
Y1969925D01*
Y1969688D01*
X-12752D01*
Y1969451D01*
Y1969213D01*
Y1968976D01*
X-12515D01*
Y1968739D01*
Y1968502D01*
Y1968264D01*
Y1968027D01*
X-12278D01*
Y1967790D01*
Y1967553D01*
Y1967316D01*
Y1967079D01*
X-12041D01*
Y1966841D01*
Y1966604D01*
Y1966367D01*
Y1966130D01*
Y1965892D01*
X-11804D01*
Y1965655D01*
Y1965418D01*
Y1965181D01*
Y1964944D01*
Y1964707D01*
Y1964469D01*
X-11567D01*
Y1964232D01*
Y1963995D01*
Y1963758D01*
Y1963521D01*
Y1963283D01*
Y1963046D01*
Y1962809D01*
X-11329D01*
Y1962572D01*
Y1962334D01*
Y1962097D01*
Y1961860D01*
Y1961623D01*
Y1961386D01*
Y1961148D01*
Y1960911D01*
Y1960674D01*
Y1960437D01*
Y1960200D01*
Y1959962D01*
Y1959725D01*
Y1959488D01*
Y1959251D01*
Y1959014D01*
Y1958776D01*
Y1958539D01*
Y1958302D01*
Y1958065D01*
Y1957828D01*
Y1957590D01*
Y1957353D01*
Y1957116D01*
Y1956879D01*
Y1956642D01*
Y1956404D01*
Y1956167D01*
Y1955930D01*
Y1955693D01*
Y1955456D01*
Y1955218D01*
Y1954981D01*
X-11567D01*
Y1954744D01*
Y1954507D01*
Y1954270D01*
Y1954032D01*
Y1953795D01*
Y1953558D01*
Y1953321D01*
Y1953084D01*
X-11804D01*
Y1952846D01*
Y1952609D01*
Y1952372D01*
Y1952135D01*
Y1951898D01*
Y1951660D01*
X-12041D01*
Y1951423D01*
Y1951186D01*
Y1950949D01*
Y1950712D01*
Y1950474D01*
X-12278D01*
Y1950237D01*
Y1950000D01*
Y1949763D01*
Y1949526D01*
X-12515D01*
Y1949288D01*
Y1949051D01*
Y1948814D01*
X-12752D01*
Y1948577D01*
Y1948340D01*
Y1948102D01*
Y1947865D01*
X-12990D01*
Y1947628D01*
Y1947391D01*
Y1947154D01*
X-13227D01*
Y1946916D01*
Y1946679D01*
Y1946442D01*
X-13464D01*
Y1946205D01*
Y1945968D01*
X-13701D01*
Y1945730D01*
Y1945493D01*
Y1945256D01*
X-13939D01*
Y1945019D01*
Y1944782D01*
X-14176D01*
Y1944544D01*
Y1944307D01*
X-14413D01*
Y1944070D01*
Y1943833D01*
X-14650D01*
Y1943596D01*
Y1943358D01*
X-14887D01*
Y1943121D01*
Y1942884D01*
X-15125D01*
Y1942647D01*
Y1942410D01*
X-15362D01*
Y1942172D01*
X-15599D01*
Y1941935D01*
Y1941698D01*
X-15836D01*
Y1941461D01*
Y1941223D01*
X-16073D01*
Y1940986D01*
X-16311D01*
Y1940749D01*
Y1940512D01*
X-16548D01*
Y1940275D01*
X-16785D01*
Y1940038D01*
X-17022D01*
Y1939800D01*
Y1939563D01*
X-17259D01*
Y1939326D01*
X-17497D01*
Y1939089D01*
X-17734D01*
Y1938851D01*
X-17971D01*
Y1938614D01*
Y1938377D01*
X-18208D01*
Y1938140D01*
X-18445D01*
Y1937903D01*
X-18683D01*
Y1937666D01*
X-18920D01*
Y1937428D01*
X-19157D01*
Y1937191D01*
X-19394D01*
Y1936954D01*
X-19631D01*
Y1936717D01*
X-19869D01*
Y1936479D01*
X-20106D01*
Y1936242D01*
X-20343D01*
Y1936005D01*
X-20817D01*
Y1935768D01*
X-21055D01*
Y1935531D01*
X-21292D01*
Y1935293D01*
X-21529D01*
Y1935056D01*
X-22003D01*
Y1934819D01*
X-22241D01*
Y1934582D01*
X-22478D01*
Y1934345D01*
X-22952D01*
Y1934108D01*
X-23189D01*
Y1933870D01*
X-23664D01*
Y1933633D01*
X-24138D01*
Y1933396D01*
X-24375D01*
Y1933159D01*
X-24850D01*
Y1932921D01*
X-25324D01*
Y1932684D01*
X-25799D01*
Y1932447D01*
X-26273D01*
Y1932210D01*
X-26747D01*
Y1931973D01*
X-27222D01*
Y1931736D01*
X-27933D01*
Y1931498D01*
X-28408D01*
Y1931261D01*
X-29119D01*
Y1931024D01*
X-29831D01*
Y1930787D01*
X-30543D01*
Y1930549D01*
X-31491D01*
Y1930312D01*
X-32440D01*
Y1930075D01*
X-33626D01*
Y1929838D01*
X-35050D01*
Y1929601D01*
X-37184D01*
Y1929364D01*
X-43589D01*
Y1929601D01*
X-46198D01*
Y1929838D01*
X-47858D01*
Y1930075D01*
X-49282D01*
Y1930312D01*
X-50230D01*
Y1930549D01*
X-51416D01*
Y1930787D01*
X-52128D01*
Y1931024D01*
X-53077D01*
Y1931261D01*
X-53788D01*
Y1931498D01*
X-54263D01*
Y1931736D01*
X-54974D01*
Y1931973D01*
X-55449D01*
Y1932210D01*
Y1932447D01*
Y1932684D01*
Y1932921D01*
Y1933159D01*
X-55212D01*
Y1933396D01*
Y1933633D01*
Y1933870D01*
Y1934108D01*
X-54974D01*
Y1934345D01*
Y1934582D01*
Y1934819D01*
X-54737D01*
Y1935056D01*
Y1935293D01*
Y1935531D01*
Y1935768D01*
X-54500D01*
Y1936005D01*
Y1936242D01*
Y1936479D01*
Y1936717D01*
X-54263D01*
Y1936954D01*
Y1937191D01*
Y1937428D01*
Y1937666D01*
X-54026D01*
Y1937903D01*
Y1938140D01*
X-53551D01*
Y1937903D01*
X-53077D01*
Y1937666D01*
X-52365D01*
Y1937428D01*
X-51654D01*
Y1937191D01*
X-50942D01*
Y1936954D01*
X-50230D01*
Y1936717D01*
X-49044D01*
Y1936479D01*
X-47858D01*
Y1936242D01*
X-46435D01*
Y1936005D01*
X-44063D01*
Y1935768D01*
X-39319D01*
Y1936005D01*
X-37184D01*
Y1936242D01*
X-35761D01*
Y1936479D01*
X-34812D01*
Y1936717D01*
X-33863D01*
Y1936954D01*
X-33152D01*
Y1937191D01*
X-32440D01*
Y1937428D01*
X-31966D01*
Y1937666D01*
X-31491D01*
Y1937903D01*
X-30780D01*
Y1938140D01*
X-30305D01*
Y1938377D01*
X-29831D01*
Y1938614D01*
X-29594D01*
Y1938851D01*
X-29119D01*
Y1939089D01*
X-28645D01*
Y1939326D01*
X-28408D01*
Y1939563D01*
X-27933D01*
Y1939800D01*
X-27696D01*
Y1940038D01*
X-27459D01*
Y1940275D01*
X-26985D01*
Y1940512D01*
X-26747D01*
Y1940749D01*
X-26510D01*
Y1940986D01*
X-26273D01*
Y1941223D01*
X-26036D01*
Y1941461D01*
X-25799D01*
Y1941698D01*
X-25561D01*
Y1941935D01*
X-25324D01*
Y1942172D01*
X-25087D01*
Y1942410D01*
X-24850D01*
Y1942647D01*
X-24613D01*
Y1942884D01*
X-24375D01*
Y1943121D01*
X-24138D01*
Y1943358D01*
Y1943596D01*
X-23901D01*
Y1943833D01*
X-23664D01*
Y1944070D01*
X-23427D01*
Y1944307D01*
Y1944544D01*
X-23189D01*
Y1944782D01*
X-22952D01*
Y1945019D01*
Y1945256D01*
X-22715D01*
Y1945493D01*
Y1945730D01*
X-22478D01*
Y1945968D01*
X-22241D01*
Y1946205D01*
Y1946442D01*
X-22003D01*
Y1946679D01*
Y1946916D01*
X-21766D01*
Y1947154D01*
Y1947391D01*
X-21529D01*
Y1947628D01*
Y1947865D01*
Y1948102D01*
X-21292D01*
Y1948340D01*
Y1948577D01*
X-21055D01*
Y1948814D01*
Y1949051D01*
Y1949288D01*
X-20817D01*
Y1949526D01*
Y1949763D01*
X-20580D01*
Y1950000D01*
Y1950237D01*
Y1950474D01*
Y1950712D01*
X-20343D01*
Y1950949D01*
Y1951186D01*
Y1951423D01*
X-20106D01*
Y1951660D01*
Y1951898D01*
Y1952135D01*
Y1952372D01*
Y1952609D01*
X-19869D01*
Y1952846D01*
Y1953084D01*
Y1953321D01*
Y1953558D01*
Y1953795D01*
X-19631D01*
Y1954032D01*
Y1954270D01*
Y1954507D01*
Y1954744D01*
Y1954981D01*
Y1955218D01*
Y1955456D01*
X-19394D01*
Y1955693D01*
Y1955930D01*
Y1956167D01*
Y1956404D01*
Y1956642D01*
Y1956879D01*
Y1957116D01*
Y1957353D01*
Y1957590D01*
Y1957828D01*
Y1958065D01*
Y1958302D01*
Y1958539D01*
Y1958776D01*
Y1959014D01*
Y1959251D01*
Y1959488D01*
Y1959725D01*
Y1959962D01*
Y1960200D01*
Y1960437D01*
Y1960674D01*
Y1960911D01*
Y1961148D01*
Y1961386D01*
Y1961623D01*
Y1961860D01*
Y1962097D01*
Y1962334D01*
Y1962572D01*
Y1962809D01*
X-19631D01*
Y1963046D01*
Y1963283D01*
Y1963521D01*
Y1963758D01*
Y1963995D01*
Y1964232D01*
Y1964469D01*
Y1964707D01*
X-19869D01*
Y1964944D01*
Y1965181D01*
Y1965418D01*
Y1965655D01*
Y1965892D01*
X-20106D01*
Y1966130D01*
Y1966367D01*
Y1966604D01*
Y1966841D01*
Y1967079D01*
X-20343D01*
Y1967316D01*
Y1967553D01*
Y1967790D01*
X-20580D01*
Y1968027D01*
Y1968264D01*
Y1968502D01*
Y1968739D01*
X-20817D01*
Y1968976D01*
Y1969213D01*
Y1969451D01*
X-21055D01*
Y1969688D01*
Y1969925D01*
X-21292D01*
Y1970162D01*
Y1970399D01*
Y1970636D01*
X-21529D01*
Y1970874D01*
Y1971111D01*
X-21766D01*
Y1971348D01*
Y1971585D01*
X-22003D01*
Y1971823D01*
Y1972060D01*
X-22241D01*
Y1972297D01*
Y1972534D01*
X-22478D01*
Y1972771D01*
Y1973009D01*
X-22715D01*
Y1973246D01*
X-22952D01*
Y1973483D01*
Y1973720D01*
X-23189D01*
Y1973957D01*
Y1974194D01*
X-23427D01*
Y1974432D01*
X-23664D01*
Y1974669D01*
Y1974906D01*
X-23901D01*
Y1975143D01*
X-24138D01*
Y1975381D01*
X-24375D01*
Y1975618D01*
X-24613D01*
Y1975855D01*
Y1976092D01*
X-24850D01*
Y1976329D01*
X-25087D01*
Y1976566D01*
X-25324D01*
Y1976804D01*
X-25561D01*
Y1977041D01*
X-25799D01*
Y1977278D01*
X-26036D01*
Y1977515D01*
X-26273D01*
Y1977753D01*
X-26510D01*
Y1977990D01*
X-26747D01*
Y1978227D01*
X-27222D01*
Y1978464D01*
X-27459D01*
Y1978701D01*
X-27696D01*
Y1978938D01*
X-27933D01*
Y1979176D01*
X-28408D01*
Y1979413D01*
X-28645D01*
Y1979650D01*
X-29119D01*
Y1979887D01*
X-29357D01*
Y1980125D01*
X-29831D01*
Y1980362D01*
X-30305D01*
Y1980599D01*
X-30780D01*
Y1980836D01*
X-31254D01*
Y1981073D01*
X-31729D01*
Y1981310D01*
X-32440D01*
Y1981548D01*
X-32915D01*
Y1981785D01*
X-33626D01*
Y1982022D01*
X-34338D01*
Y1982259D01*
X-35287D01*
Y1982497D01*
X-36235D01*
Y1982734D01*
X-37659D01*
Y1982971D01*
X-39794D01*
Y1983208D01*
X-44300D01*
Y1982971D01*
X-46672D01*
Y1982734D01*
X-48095D01*
Y1982497D01*
X-49044D01*
Y1982259D01*
X-49993D01*
Y1982022D01*
X-50942D01*
Y1981785D01*
X-51654D01*
Y1981548D01*
X-52128D01*
Y1981310D01*
X-52840D01*
Y1981073D01*
X-53314D01*
Y1980836D01*
X-53788D01*
Y1981073D01*
X-54026D01*
Y1981310D01*
Y1981548D01*
Y1981785D01*
X-54263D01*
Y1982022D01*
Y1982259D01*
Y1982497D01*
Y1982734D01*
X-54500D01*
Y1982971D01*
Y1983208D01*
Y1983445D01*
X-54737D01*
Y1983683D01*
Y1983920D01*
Y1984157D01*
X-54974D01*
Y1984394D01*
Y1984631D01*
Y1984869D01*
Y1985106D01*
X-55212D01*
Y1985343D01*
Y1985580D01*
Y1985817D01*
X-55449D01*
Y1986055D01*
Y1986292D01*
Y1986529D01*
Y1986766D01*
X-55686D01*
Y1987003D01*
X-55449D01*
Y1987241D01*
X-54974D01*
Y1987478D01*
X-54263D01*
Y1987715D01*
X-53551D01*
Y1987952D01*
X-52840D01*
Y1988189D01*
X-52128D01*
Y1988427D01*
X-51179D01*
Y1988664D01*
X-50230D01*
Y1988901D01*
X-49044D01*
Y1989138D01*
X-47384D01*
Y1989375D01*
X-45012D01*
Y1989613D01*
X-38845D01*
Y1989375D01*
D02*
G37*
G36*
X103713Y1943833D02*
X104899D01*
Y1943596D01*
X105374D01*
Y1943358D01*
X105611D01*
Y1943121D01*
X106085D01*
Y1942884D01*
X106322D01*
Y1942647D01*
X106560D01*
Y1942410D01*
Y1942172D01*
X106797D01*
Y1941935D01*
Y1941698D01*
X107034D01*
Y1941461D01*
Y1941223D01*
X107271D01*
Y1940986D01*
Y1940749D01*
Y1940512D01*
Y1940275D01*
X107508D01*
Y1940038D01*
Y1939800D01*
Y1939563D01*
Y1939326D01*
X107271D01*
Y1939089D01*
Y1938851D01*
Y1938614D01*
Y1938377D01*
X107034D01*
Y1938140D01*
Y1937903D01*
Y1937666D01*
X106797D01*
Y1937428D01*
Y1937191D01*
X106560D01*
Y1936954D01*
X106322D01*
Y1936717D01*
X106085D01*
Y1936479D01*
X105611D01*
Y1936242D01*
X105374D01*
Y1936005D01*
X104899D01*
Y1935768D01*
X104425D01*
Y1935531D01*
X102290D01*
Y1935768D01*
X101579D01*
Y1936005D01*
X101104D01*
Y1936242D01*
X100630D01*
Y1936479D01*
X100393D01*
Y1936717D01*
X100155D01*
Y1936954D01*
X99918D01*
Y1937191D01*
X99681D01*
Y1937428D01*
X99444D01*
Y1937666D01*
Y1937903D01*
X99206D01*
Y1938140D01*
Y1938377D01*
X98969D01*
Y1938614D01*
Y1938851D01*
Y1939089D01*
Y1939326D01*
Y1939563D01*
Y1939800D01*
Y1940038D01*
Y1940275D01*
Y1940512D01*
Y1940749D01*
Y1940986D01*
X99206D01*
Y1941223D01*
Y1941461D01*
Y1941698D01*
X99444D01*
Y1941935D01*
X99681D01*
Y1942172D01*
Y1942410D01*
X99918D01*
Y1942647D01*
X100155D01*
Y1942884D01*
X100393D01*
Y1943121D01*
X100630D01*
Y1943358D01*
X101104D01*
Y1943596D01*
X101579D01*
Y1943833D01*
X102290D01*
Y1944070D01*
X103713D01*
Y1943833D01*
D02*
G37*
G36*
X61966Y1934819D02*
X62915D01*
Y1934582D01*
X63389D01*
Y1934345D01*
X63626D01*
Y1934108D01*
X63864D01*
Y1933870D01*
X64338D01*
Y1933633D01*
Y1933396D01*
X64575D01*
Y1933159D01*
X64812D01*
Y1932921D01*
Y1932684D01*
X65050D01*
Y1932447D01*
Y1932210D01*
Y1931973D01*
Y1931736D01*
Y1931498D01*
X65287D01*
Y1931261D01*
Y1931024D01*
Y1930787D01*
X65050D01*
Y1930549D01*
Y1930312D01*
Y1930075D01*
X64812D01*
Y1929838D01*
Y1929601D01*
X64575D01*
Y1929364D01*
Y1929126D01*
X64338D01*
Y1928889D01*
X64101D01*
Y1928652D01*
X63864D01*
Y1928415D01*
X63626D01*
Y1928177D01*
X63389D01*
Y1927940D01*
X62915D01*
Y1927703D01*
X62440D01*
Y1927466D01*
X60305D01*
Y1927703D01*
X59831D01*
Y1927940D01*
X59357D01*
Y1928177D01*
X58882D01*
Y1928415D01*
X58645D01*
Y1928652D01*
X58408D01*
Y1928889D01*
Y1929126D01*
X58171D01*
Y1929364D01*
X57933D01*
Y1929601D01*
Y1929838D01*
X57696D01*
Y1930075D01*
Y1930312D01*
Y1930549D01*
Y1930787D01*
Y1931024D01*
X57459D01*
Y1931261D01*
Y1931498D01*
X57696D01*
Y1931736D01*
Y1931973D01*
Y1932210D01*
Y1932447D01*
Y1932684D01*
X57933D01*
Y1932921D01*
Y1933159D01*
X58171D01*
Y1933396D01*
X58408D01*
Y1933633D01*
Y1933870D01*
X58645D01*
Y1934108D01*
X59120D01*
Y1934345D01*
X59357D01*
Y1934582D01*
X59831D01*
Y1934819D01*
X60780D01*
Y1935056D01*
X61966D01*
Y1934819D01*
D02*
G37*
G36*
X158507Y1935768D02*
X159218D01*
Y1935531D01*
X159693D01*
Y1935293D01*
X160167D01*
Y1935056D01*
X160404D01*
Y1934819D01*
X160642D01*
Y1934582D01*
X160879D01*
Y1934345D01*
X161116D01*
Y1934108D01*
X161353D01*
Y1933870D01*
Y1933633D01*
X161590D01*
Y1933396D01*
Y1933159D01*
X161828D01*
Y1932921D01*
Y1932684D01*
X162065D01*
Y1932447D01*
Y1932210D01*
Y1931973D01*
Y1931736D01*
Y1931498D01*
Y1931261D01*
Y1931024D01*
Y1930787D01*
Y1930549D01*
Y1930312D01*
Y1930075D01*
Y1929838D01*
X161828D01*
Y1929601D01*
Y1929364D01*
Y1929126D01*
X161590D01*
Y1928889D01*
Y1928652D01*
X161353D01*
Y1928415D01*
X161116D01*
Y1928177D01*
X160879D01*
Y1927940D01*
X160642D01*
Y1927703D01*
X160404D01*
Y1927466D01*
X160167D01*
Y1927229D01*
X159930D01*
Y1926991D01*
X159456D01*
Y1926754D01*
X158744D01*
Y1926517D01*
X157558D01*
Y1926280D01*
X157084D01*
Y1926517D01*
X155898D01*
Y1926754D01*
X155186D01*
Y1926991D01*
X154949D01*
Y1927229D01*
X154474D01*
Y1927466D01*
X154237D01*
Y1927703D01*
X154000D01*
Y1927940D01*
X153763D01*
Y1928177D01*
X153526D01*
Y1928415D01*
X153288D01*
Y1928652D01*
Y1928889D01*
X153051D01*
Y1929126D01*
Y1929364D01*
X152814D01*
Y1929601D01*
X152577D01*
Y1929838D01*
Y1930075D01*
Y1930312D01*
Y1930549D01*
Y1930787D01*
Y1931024D01*
Y1931261D01*
Y1931498D01*
Y1931736D01*
Y1931973D01*
Y1932210D01*
Y1932447D01*
X152814D01*
Y1932684D01*
Y1932921D01*
Y1933159D01*
Y1933396D01*
X153051D01*
Y1933633D01*
Y1933870D01*
X153288D01*
Y1934108D01*
X153526D01*
Y1934345D01*
X153763D01*
Y1934582D01*
X154000D01*
Y1934819D01*
X154237D01*
Y1935056D01*
X154474D01*
Y1935293D01*
X154949D01*
Y1935531D01*
X155186D01*
Y1935768D01*
X155898D01*
Y1936005D01*
X158507D01*
Y1935768D01*
D02*
G37*
G36*
X91616Y1910862D02*
X92090D01*
Y1910625D01*
X92565D01*
Y1910387D01*
X93039D01*
Y1910150D01*
X93276D01*
Y1909913D01*
X93514D01*
Y1909676D01*
X93751D01*
Y1909438D01*
X93988D01*
Y1909201D01*
Y1908964D01*
X94225D01*
Y1908727D01*
Y1908490D01*
X94462D01*
Y1908253D01*
Y1908015D01*
Y1907778D01*
Y1907541D01*
X94700D01*
Y1907304D01*
Y1907066D01*
Y1906829D01*
Y1906592D01*
Y1906355D01*
X94462D01*
Y1906118D01*
Y1905880D01*
Y1905643D01*
Y1905406D01*
Y1905169D01*
X94225D01*
Y1904932D01*
Y1904695D01*
X93988D01*
Y1904457D01*
X93751D01*
Y1904220D01*
Y1903983D01*
X93514D01*
Y1903746D01*
X93276D01*
Y1903508D01*
X92802D01*
Y1903271D01*
X92565D01*
Y1903034D01*
X92090D01*
Y1902797D01*
X91142D01*
Y1902560D01*
X89481D01*
Y1902797D01*
X88770D01*
Y1903034D01*
X88295D01*
Y1903271D01*
X87821D01*
Y1903508D01*
X87584D01*
Y1903746D01*
X87346D01*
Y1903983D01*
X87109D01*
Y1904220D01*
X86872D01*
Y1904457D01*
Y1904695D01*
X86635D01*
Y1904932D01*
X86398D01*
Y1905169D01*
Y1905406D01*
Y1905643D01*
X86160D01*
Y1905880D01*
Y1906118D01*
Y1906355D01*
Y1906592D01*
Y1906829D01*
Y1907066D01*
Y1907304D01*
Y1907541D01*
Y1907778D01*
Y1908015D01*
Y1908253D01*
X86398D01*
Y1908490D01*
X86635D01*
Y1908727D01*
Y1908964D01*
X86872D01*
Y1909201D01*
Y1909438D01*
X87109D01*
Y1909676D01*
X87346D01*
Y1909913D01*
X87584D01*
Y1910150D01*
X87821D01*
Y1910387D01*
X88058D01*
Y1910625D01*
X88532D01*
Y1910862D01*
X89244D01*
Y1911099D01*
X91616D01*
Y1910862D01*
D02*
G37*
G36*
X128382Y1911573D02*
X129805D01*
Y1911336D01*
X130517D01*
Y1911099D01*
X130754D01*
Y1910862D01*
X131229D01*
Y1910625D01*
X131466D01*
Y1910387D01*
X131703D01*
Y1910150D01*
X131940D01*
Y1909913D01*
X132177D01*
Y1909676D01*
Y1909438D01*
X132415D01*
Y1909201D01*
X132652D01*
Y1908964D01*
Y1908727D01*
X132889D01*
Y1908490D01*
Y1908253D01*
Y1908015D01*
X133126D01*
Y1907778D01*
Y1907541D01*
Y1907304D01*
Y1907066D01*
Y1906829D01*
Y1906592D01*
Y1906355D01*
Y1906118D01*
Y1905880D01*
X132889D01*
Y1905643D01*
Y1905406D01*
Y1905169D01*
X132652D01*
Y1904932D01*
Y1904695D01*
Y1904457D01*
X132415D01*
Y1904220D01*
X132177D01*
Y1903983D01*
Y1903746D01*
X131940D01*
Y1903508D01*
X131703D01*
Y1903271D01*
X131466D01*
Y1903034D01*
X130991D01*
Y1902797D01*
X130754D01*
Y1902560D01*
X130280D01*
Y1902323D01*
X129568D01*
Y1902085D01*
X126959D01*
Y1902323D01*
X126247D01*
Y1902560D01*
X125773D01*
Y1902797D01*
X125536D01*
Y1903034D01*
X125299D01*
Y1903271D01*
X125061D01*
Y1903508D01*
X124824D01*
Y1903746D01*
X124587D01*
Y1903983D01*
X124350D01*
Y1904220D01*
X124113D01*
Y1904457D01*
Y1904695D01*
X123875D01*
Y1904932D01*
Y1905169D01*
X123638D01*
Y1905406D01*
Y1905643D01*
Y1905880D01*
Y1906118D01*
Y1906355D01*
X123401D01*
Y1906592D01*
Y1906829D01*
Y1907066D01*
Y1907304D01*
Y1907541D01*
X123638D01*
Y1907778D01*
Y1908015D01*
Y1908253D01*
Y1908490D01*
Y1908727D01*
X123875D01*
Y1908964D01*
Y1909201D01*
X124113D01*
Y1909438D01*
Y1909676D01*
X124350D01*
Y1909913D01*
X124587D01*
Y1910150D01*
X124824D01*
Y1910387D01*
X125061D01*
Y1910625D01*
X125299D01*
Y1910862D01*
X125773D01*
Y1911099D01*
X126247D01*
Y1911336D01*
X126485D01*
Y1911573D01*
X127433D01*
Y1911811D01*
X128382D01*
Y1911573D01*
D02*
G37*
G36*
X1352399Y-382064D02*
X1352776D01*
Y-382441D01*
Y-382819D01*
X1353154D01*
Y-383196D01*
Y-383574D01*
Y-383951D01*
Y-384329D01*
Y-384706D01*
X1352776D01*
Y-385084D01*
Y-385462D01*
X1352021D01*
Y-385839D01*
X1349756D01*
Y-385462D01*
X1349379D01*
Y-385084D01*
X1349001D01*
Y-384706D01*
Y-384329D01*
Y-383951D01*
Y-383574D01*
Y-383196D01*
Y-382819D01*
Y-382441D01*
X1349379D01*
Y-382064D01*
X1349756D01*
Y-381686D01*
X1352399D01*
Y-382064D01*
D02*
G37*
G36*
X872399D02*
X872776D01*
Y-382441D01*
Y-382819D01*
X873154D01*
Y-383196D01*
Y-383574D01*
Y-383951D01*
Y-384329D01*
Y-384706D01*
X872776D01*
Y-385084D01*
Y-385462D01*
X872021D01*
Y-385839D01*
X869756D01*
Y-385462D01*
X869379D01*
Y-385084D01*
X869001D01*
Y-384706D01*
Y-384329D01*
Y-383951D01*
Y-383574D01*
Y-383196D01*
Y-382819D01*
Y-382441D01*
X869379D01*
Y-382064D01*
X869756D01*
Y-381686D01*
X872399D01*
Y-382064D01*
D02*
G37*
G36*
X1347868Y-388104D02*
X1348624D01*
Y-388482D01*
X1349001D01*
Y-388859D01*
X1349379D01*
Y-389237D01*
Y-389614D01*
Y-389992D01*
Y-390369D01*
Y-390747D01*
Y-391124D01*
X1349001D01*
Y-391502D01*
X1348624D01*
Y-391879D01*
X1348246D01*
Y-392257D01*
X1346358D01*
Y-391879D01*
X1345981D01*
Y-391502D01*
X1345603D01*
Y-391124D01*
X1345226D01*
Y-390747D01*
Y-390369D01*
Y-389992D01*
Y-389614D01*
Y-389237D01*
Y-388859D01*
X1345603D01*
Y-388482D01*
X1345981D01*
Y-388104D01*
X1346736D01*
Y-387727D01*
X1347868D01*
Y-388104D01*
D02*
G37*
G36*
X867868D02*
X868624D01*
Y-388482D01*
X869001D01*
Y-388859D01*
X869379D01*
Y-389237D01*
Y-389614D01*
Y-389992D01*
Y-390369D01*
Y-390747D01*
Y-391124D01*
X869001D01*
Y-391502D01*
X868624D01*
Y-391879D01*
X868246D01*
Y-392257D01*
X866358D01*
Y-391879D01*
X865981D01*
Y-391502D01*
X865603D01*
Y-391124D01*
X865226D01*
Y-390747D01*
Y-390369D01*
Y-389992D01*
Y-389614D01*
Y-389237D01*
Y-388859D01*
X865603D01*
Y-388482D01*
X865981D01*
Y-388104D01*
X866736D01*
Y-387727D01*
X867868D01*
Y-388104D01*
D02*
G37*
G36*
X1355796Y-391124D02*
X1356551D01*
Y-391502D01*
Y-391879D01*
X1356929D01*
Y-392257D01*
Y-392634D01*
Y-393012D01*
Y-393389D01*
Y-393767D01*
X1356551D01*
Y-394144D01*
Y-394522D01*
X1355796D01*
Y-394899D01*
X1353531D01*
Y-394522D01*
X1353154D01*
Y-394144D01*
X1352776D01*
Y-393767D01*
Y-393389D01*
Y-393012D01*
Y-392634D01*
Y-392257D01*
Y-391879D01*
Y-391502D01*
X1353154D01*
Y-391124D01*
X1353531D01*
Y-390747D01*
X1355796D01*
Y-391124D01*
D02*
G37*
G36*
X875796D02*
X876551D01*
Y-391502D01*
Y-391879D01*
X876929D01*
Y-392257D01*
Y-392634D01*
Y-393012D01*
Y-393389D01*
Y-393767D01*
X876551D01*
Y-394144D01*
Y-394522D01*
X875796D01*
Y-394899D01*
X873531D01*
Y-394522D01*
X873154D01*
Y-394144D01*
X872776D01*
Y-393767D01*
Y-393389D01*
Y-393012D01*
Y-392634D01*
Y-392257D01*
Y-391879D01*
Y-391502D01*
X873154D01*
Y-391124D01*
X873531D01*
Y-390747D01*
X875796D01*
Y-391124D01*
D02*
G37*
G36*
X1232727D02*
X1233859D01*
Y-391502D01*
X1234614D01*
Y-391879D01*
X1234992D01*
Y-392257D01*
X1235369D01*
Y-392634D01*
X1235747D01*
Y-393012D01*
X1236124D01*
Y-393389D01*
Y-393767D01*
X1236502D01*
Y-394144D01*
Y-394522D01*
X1236879D01*
Y-394899D01*
Y-395277D01*
Y-395654D01*
Y-396032D01*
Y-396409D01*
Y-396787D01*
Y-397164D01*
Y-397542D01*
Y-397920D01*
Y-398297D01*
X1236502D01*
Y-398675D01*
Y-399052D01*
X1236124D01*
Y-399430D01*
Y-399807D01*
X1235747D01*
Y-400185D01*
X1235369D01*
Y-400562D01*
X1234992D01*
Y-400940D01*
X1234614D01*
Y-401317D01*
X1233859D01*
Y-401695D01*
X1232727D01*
Y-402072D01*
X1229706D01*
Y-401695D01*
X1228574D01*
Y-401317D01*
X1228196D01*
Y-400940D01*
X1227441D01*
Y-400562D01*
X1227064D01*
Y-400185D01*
X1226686D01*
Y-399807D01*
Y-399430D01*
X1226309D01*
Y-399052D01*
Y-398675D01*
X1225931D01*
Y-398297D01*
Y-397920D01*
Y-397542D01*
X1225554D01*
Y-397164D01*
Y-396787D01*
Y-396409D01*
Y-396032D01*
Y-395654D01*
Y-395277D01*
X1225931D01*
Y-394899D01*
Y-394522D01*
Y-394144D01*
X1226309D01*
Y-393767D01*
Y-393389D01*
X1226686D01*
Y-393012D01*
Y-392634D01*
X1227064D01*
Y-392257D01*
X1227441D01*
Y-391879D01*
X1228196D01*
Y-391502D01*
X1228574D01*
Y-391124D01*
X1229706D01*
Y-390747D01*
X1232727D01*
Y-391124D01*
D02*
G37*
G36*
X752727D02*
X753859D01*
Y-391502D01*
X754614D01*
Y-391879D01*
X754992D01*
Y-392257D01*
X755369D01*
Y-392634D01*
X755747D01*
Y-393012D01*
X756124D01*
Y-393389D01*
Y-393767D01*
X756502D01*
Y-394144D01*
Y-394522D01*
X756879D01*
Y-394899D01*
Y-395277D01*
Y-395654D01*
Y-396032D01*
Y-396409D01*
Y-396787D01*
Y-397164D01*
Y-397542D01*
Y-397920D01*
Y-398297D01*
X756502D01*
Y-398675D01*
Y-399052D01*
X756124D01*
Y-399430D01*
Y-399807D01*
X755747D01*
Y-400185D01*
X755369D01*
Y-400562D01*
X754992D01*
Y-400940D01*
X754614D01*
Y-401317D01*
X753859D01*
Y-401695D01*
X752727D01*
Y-402072D01*
X749706D01*
Y-401695D01*
X748574D01*
Y-401317D01*
X748196D01*
Y-400940D01*
X747441D01*
Y-400562D01*
X747064D01*
Y-400185D01*
X746686D01*
Y-399807D01*
Y-399430D01*
X746309D01*
Y-399052D01*
Y-398675D01*
X745931D01*
Y-398297D01*
Y-397920D01*
Y-397542D01*
X745554D01*
Y-397164D01*
Y-396787D01*
Y-396409D01*
Y-396032D01*
Y-395654D01*
Y-395277D01*
X745931D01*
Y-394899D01*
Y-394522D01*
Y-394144D01*
X746309D01*
Y-393767D01*
Y-393389D01*
X746686D01*
Y-393012D01*
Y-392634D01*
X747064D01*
Y-392257D01*
X747441D01*
Y-391879D01*
X748196D01*
Y-391502D01*
X748574D01*
Y-391124D01*
X749706D01*
Y-390747D01*
X752727D01*
Y-391124D01*
D02*
G37*
G36*
X1351644Y-413020D02*
X1352399D01*
Y-413398D01*
Y-413775D01*
Y-414153D01*
Y-414530D01*
X1352021D01*
Y-414908D01*
X1351644D01*
Y-415285D01*
X1350889D01*
Y-414908D01*
X1350511D01*
Y-414530D01*
X1350134D01*
Y-414153D01*
Y-413775D01*
Y-413398D01*
Y-413020D01*
X1350889D01*
Y-412643D01*
X1351644D01*
Y-413020D01*
D02*
G37*
G36*
X871644D02*
X872399D01*
Y-413398D01*
Y-413775D01*
Y-414153D01*
Y-414530D01*
X872021D01*
Y-414908D01*
X871644D01*
Y-415285D01*
X870889D01*
Y-414908D01*
X870511D01*
Y-414530D01*
X870134D01*
Y-414153D01*
Y-413775D01*
Y-413398D01*
Y-413020D01*
X870889D01*
Y-412643D01*
X871644D01*
Y-413020D01*
D02*
G37*
G36*
X1345226Y-418683D02*
X1345603D01*
Y-419060D01*
X1345981D01*
Y-419438D01*
X1345603D01*
Y-419815D01*
Y-420193D01*
X1345226D01*
Y-420570D01*
X1343716D01*
Y-420193D01*
Y-419815D01*
X1343338D01*
Y-419438D01*
Y-419060D01*
Y-418683D01*
X1343716D01*
Y-418305D01*
X1345226D01*
Y-418683D01*
D02*
G37*
G36*
X865226D02*
X865603D01*
Y-419060D01*
X865981D01*
Y-419438D01*
X865603D01*
Y-419815D01*
Y-420193D01*
X865226D01*
Y-420570D01*
X863716D01*
Y-420193D01*
Y-419815D01*
X863338D01*
Y-419438D01*
Y-419060D01*
Y-418683D01*
X863716D01*
Y-418305D01*
X865226D01*
Y-418683D01*
D02*
G37*
G36*
X1358061Y-420948D02*
X1358816D01*
Y-421325D01*
Y-421703D01*
X1359194D01*
Y-422080D01*
X1358816D01*
Y-422458D01*
Y-422836D01*
X1358439D01*
Y-423213D01*
X1357306D01*
Y-422836D01*
X1356929D01*
Y-422458D01*
X1356551D01*
Y-422080D01*
Y-421703D01*
Y-421325D01*
X1356929D01*
Y-420948D01*
X1357684D01*
Y-420570D01*
X1358061D01*
Y-420948D01*
D02*
G37*
G36*
X878061D02*
X878816D01*
Y-421325D01*
Y-421703D01*
X879194D01*
Y-422080D01*
X878816D01*
Y-422458D01*
Y-422836D01*
X878439D01*
Y-423213D01*
X877306D01*
Y-422836D01*
X876929D01*
Y-422458D01*
X876551D01*
Y-422080D01*
Y-421703D01*
Y-421325D01*
X876929D01*
Y-420948D01*
X877684D01*
Y-420570D01*
X878061D01*
Y-420948D01*
D02*
G37*
G36*
X1355041Y-401695D02*
X1355419D01*
Y-402072D01*
Y-402450D01*
Y-402827D01*
Y-403205D01*
Y-403582D01*
Y-403960D01*
Y-404337D01*
Y-404715D01*
Y-405092D01*
Y-405470D01*
Y-405847D01*
Y-406225D01*
Y-406602D01*
Y-406980D01*
Y-407357D01*
Y-407735D01*
Y-408112D01*
Y-408490D01*
Y-408867D01*
Y-409245D01*
Y-409622D01*
Y-410000D01*
Y-410378D01*
Y-410755D01*
Y-411133D01*
Y-411510D01*
Y-411888D01*
Y-412265D01*
X1356174D01*
Y-412643D01*
X1356551D01*
Y-413020D01*
X1356929D01*
Y-413398D01*
X1357306D01*
Y-413775D01*
X1357684D01*
Y-414153D01*
X1358061D01*
Y-414530D01*
X1358816D01*
Y-414908D01*
X1359194D01*
Y-415285D01*
X1359571D01*
Y-415663D01*
X1359949D01*
Y-416040D01*
X1360327D01*
Y-416418D01*
X1360704D01*
Y-416795D01*
X1361459D01*
Y-417173D01*
X1361837D01*
Y-417550D01*
X1362214D01*
Y-417928D01*
X1362592D01*
Y-418305D01*
X1362969D01*
Y-418683D01*
X1363347D01*
Y-419060D01*
X1364102D01*
Y-419438D01*
X1364479D01*
Y-419815D01*
X1364857D01*
Y-420193D01*
X1365234D01*
Y-420570D01*
X1365612D01*
Y-420948D01*
Y-421325D01*
Y-421703D01*
X1365234D01*
Y-422080D01*
Y-422458D01*
Y-422836D01*
X1364857D01*
Y-423213D01*
Y-423591D01*
X1364479D01*
Y-423968D01*
Y-424346D01*
Y-424723D01*
X1364102D01*
Y-425101D01*
Y-425478D01*
X1363724D01*
Y-425856D01*
Y-426233D01*
Y-426611D01*
X1363347D01*
Y-426988D01*
Y-427366D01*
X1362969D01*
Y-427743D01*
X1355041D01*
Y-427366D01*
X1354664D01*
Y-426988D01*
Y-426611D01*
Y-426233D01*
Y-425856D01*
X1355041D01*
Y-425478D01*
X1355419D01*
Y-425101D01*
X1355796D01*
Y-424723D01*
X1356174D01*
Y-424346D01*
X1359194D01*
Y-423968D01*
X1359571D01*
Y-423591D01*
X1359949D01*
Y-423213D01*
Y-422836D01*
X1360327D01*
Y-422458D01*
Y-422080D01*
Y-421703D01*
Y-421325D01*
Y-420948D01*
X1359949D01*
Y-420570D01*
Y-420193D01*
X1359571D01*
Y-419815D01*
X1358816D01*
Y-419438D01*
X1356929D01*
Y-419815D01*
X1356174D01*
Y-420193D01*
X1355796D01*
Y-420570D01*
X1355419D01*
Y-420948D01*
Y-421325D01*
Y-421703D01*
Y-422080D01*
Y-422458D01*
Y-422836D01*
Y-423213D01*
Y-423591D01*
X1355041D01*
Y-423968D01*
X1354664D01*
Y-424346D01*
X1354286D01*
Y-424723D01*
X1353909D01*
Y-425101D01*
X1353531D01*
Y-425478D01*
Y-425856D01*
Y-426233D01*
Y-426611D01*
Y-426988D01*
Y-427366D01*
Y-427743D01*
X1352021D01*
Y-427366D01*
Y-426988D01*
Y-426611D01*
Y-426233D01*
Y-425856D01*
Y-425478D01*
Y-425101D01*
Y-424723D01*
Y-424346D01*
Y-423968D01*
Y-423591D01*
Y-423213D01*
Y-422836D01*
Y-422458D01*
Y-422080D01*
Y-421703D01*
Y-421325D01*
Y-420948D01*
Y-420570D01*
Y-420193D01*
Y-419815D01*
Y-419438D01*
Y-419060D01*
Y-418683D01*
Y-418305D01*
Y-417928D01*
Y-417550D01*
Y-417173D01*
Y-416795D01*
Y-416418D01*
X1352399D01*
Y-416040D01*
X1352776D01*
Y-415663D01*
X1353154D01*
Y-415285D01*
X1353531D01*
Y-414908D01*
Y-414530D01*
X1353909D01*
Y-414153D01*
Y-413775D01*
Y-413398D01*
X1353531D01*
Y-413020D01*
Y-412643D01*
X1353154D01*
Y-412265D01*
Y-411888D01*
X1352399D01*
Y-411510D01*
X1350134D01*
Y-411888D01*
X1349379D01*
Y-412265D01*
Y-412643D01*
X1349001D01*
Y-413020D01*
Y-413398D01*
X1348624D01*
Y-413775D01*
Y-414153D01*
Y-414530D01*
X1349001D01*
Y-414908D01*
Y-415285D01*
X1349379D01*
Y-415663D01*
X1349756D01*
Y-416040D01*
X1350134D01*
Y-416418D01*
X1350511D01*
Y-416795D01*
Y-417173D01*
Y-417550D01*
Y-417928D01*
Y-418305D01*
Y-418683D01*
Y-419060D01*
Y-419438D01*
Y-419815D01*
Y-420193D01*
Y-420570D01*
Y-420948D01*
Y-421325D01*
Y-421703D01*
Y-422080D01*
Y-422458D01*
Y-422836D01*
Y-423213D01*
Y-423591D01*
Y-423968D01*
Y-424346D01*
Y-424723D01*
Y-425101D01*
Y-425478D01*
Y-425856D01*
Y-426233D01*
Y-426611D01*
Y-426988D01*
Y-427366D01*
Y-427743D01*
X1349001D01*
Y-427366D01*
Y-426988D01*
Y-426611D01*
Y-426233D01*
Y-425856D01*
Y-425478D01*
Y-425101D01*
Y-424723D01*
Y-424346D01*
Y-423968D01*
Y-423591D01*
Y-423213D01*
Y-422836D01*
X1348624D01*
Y-422458D01*
X1348246D01*
Y-422080D01*
X1347868D01*
Y-421703D01*
X1347491D01*
Y-421325D01*
X1347113D01*
Y-420948D01*
Y-420570D01*
X1346736D01*
Y-420193D01*
X1347113D01*
Y-419815D01*
Y-419438D01*
Y-419060D01*
Y-418683D01*
Y-418305D01*
X1346736D01*
Y-417928D01*
X1346358D01*
Y-417550D01*
X1345981D01*
Y-417173D01*
X1345226D01*
Y-416795D01*
X1343716D01*
Y-417173D01*
X1342961D01*
Y-417550D01*
X1342583D01*
Y-417928D01*
Y-418305D01*
X1342206D01*
Y-418683D01*
Y-419060D01*
Y-419438D01*
Y-419815D01*
Y-420193D01*
Y-420570D01*
X1342583D01*
Y-420948D01*
Y-421325D01*
X1343338D01*
Y-421703D01*
X1344093D01*
Y-422080D01*
X1344848D01*
Y-421703D01*
X1345981D01*
Y-422080D01*
X1346358D01*
Y-422458D01*
X1346736D01*
Y-422836D01*
X1347113D01*
Y-423213D01*
X1347491D01*
Y-423591D01*
Y-423968D01*
Y-424346D01*
Y-424723D01*
Y-425101D01*
Y-425478D01*
Y-425856D01*
Y-426233D01*
Y-426611D01*
Y-426988D01*
Y-427366D01*
Y-427743D01*
X1339563D01*
Y-427366D01*
X1339186D01*
Y-426988D01*
Y-426611D01*
X1338808D01*
Y-426233D01*
Y-425856D01*
X1338431D01*
Y-425478D01*
Y-425101D01*
Y-424723D01*
X1338053D01*
Y-424346D01*
Y-423968D01*
Y-423591D01*
X1337676D01*
Y-423213D01*
Y-422836D01*
X1337298D01*
Y-422458D01*
Y-422080D01*
Y-421703D01*
X1336921D01*
Y-421325D01*
Y-420948D01*
Y-420570D01*
X1337298D01*
Y-420193D01*
X1337676D01*
Y-419815D01*
X1338053D01*
Y-419438D01*
X1338431D01*
Y-419060D01*
X1338808D01*
Y-418683D01*
X1339563D01*
Y-418305D01*
X1339941D01*
Y-417928D01*
X1340318D01*
Y-417550D01*
X1340696D01*
Y-417173D01*
X1341073D01*
Y-416795D01*
X1341828D01*
Y-416418D01*
X1342206D01*
Y-416040D01*
X1342583D01*
Y-415663D01*
X1342961D01*
Y-415285D01*
X1343338D01*
Y-414908D01*
X1343716D01*
Y-414530D01*
X1344471D01*
Y-414153D01*
X1344848D01*
Y-413775D01*
X1345226D01*
Y-413398D01*
X1345603D01*
Y-413020D01*
X1345981D01*
Y-412643D01*
X1346358D01*
Y-412265D01*
X1347113D01*
Y-411888D01*
Y-411510D01*
Y-411133D01*
Y-410755D01*
Y-410378D01*
Y-410000D01*
Y-409622D01*
Y-409245D01*
Y-408867D01*
Y-408490D01*
Y-408112D01*
Y-407735D01*
Y-407357D01*
Y-406980D01*
Y-406602D01*
Y-406225D01*
Y-405847D01*
Y-405470D01*
Y-405092D01*
Y-404715D01*
Y-404337D01*
Y-403960D01*
Y-403582D01*
Y-403205D01*
Y-402827D01*
Y-402450D01*
Y-402072D01*
Y-401695D01*
X1347491D01*
Y-401317D01*
X1355041D01*
Y-401695D01*
D02*
G37*
G36*
X875041D02*
X875419D01*
Y-402072D01*
Y-402450D01*
Y-402827D01*
Y-403205D01*
Y-403582D01*
Y-403960D01*
Y-404337D01*
Y-404715D01*
Y-405092D01*
Y-405470D01*
Y-405847D01*
Y-406225D01*
Y-406602D01*
Y-406980D01*
Y-407357D01*
Y-407735D01*
Y-408112D01*
Y-408490D01*
Y-408867D01*
Y-409245D01*
Y-409622D01*
Y-410000D01*
Y-410378D01*
Y-410755D01*
Y-411133D01*
Y-411510D01*
Y-411888D01*
Y-412265D01*
X876174D01*
Y-412643D01*
X876551D01*
Y-413020D01*
X876929D01*
Y-413398D01*
X877306D01*
Y-413775D01*
X877684D01*
Y-414153D01*
X878061D01*
Y-414530D01*
X878816D01*
Y-414908D01*
X879194D01*
Y-415285D01*
X879571D01*
Y-415663D01*
X879949D01*
Y-416040D01*
X880327D01*
Y-416418D01*
X880704D01*
Y-416795D01*
X881459D01*
Y-417173D01*
X881836D01*
Y-417550D01*
X882214D01*
Y-417928D01*
X882591D01*
Y-418305D01*
X882969D01*
Y-418683D01*
X883347D01*
Y-419060D01*
X884102D01*
Y-419438D01*
X884479D01*
Y-419815D01*
X884857D01*
Y-420193D01*
X885234D01*
Y-420570D01*
X885612D01*
Y-420948D01*
Y-421325D01*
Y-421703D01*
X885234D01*
Y-422080D01*
Y-422458D01*
Y-422836D01*
X884857D01*
Y-423213D01*
Y-423591D01*
X884479D01*
Y-423968D01*
Y-424346D01*
Y-424723D01*
X884102D01*
Y-425101D01*
Y-425478D01*
X883724D01*
Y-425856D01*
Y-426233D01*
Y-426611D01*
X883347D01*
Y-426988D01*
Y-427366D01*
X882969D01*
Y-427743D01*
X875041D01*
Y-427366D01*
X874664D01*
Y-426988D01*
Y-426611D01*
Y-426233D01*
Y-425856D01*
X875041D01*
Y-425478D01*
X875419D01*
Y-425101D01*
X875796D01*
Y-424723D01*
X876174D01*
Y-424346D01*
X879194D01*
Y-423968D01*
X879571D01*
Y-423591D01*
X879949D01*
Y-423213D01*
Y-422836D01*
X880327D01*
Y-422458D01*
Y-422080D01*
Y-421703D01*
Y-421325D01*
Y-420948D01*
X879949D01*
Y-420570D01*
Y-420193D01*
X879571D01*
Y-419815D01*
X878816D01*
Y-419438D01*
X876929D01*
Y-419815D01*
X876174D01*
Y-420193D01*
X875796D01*
Y-420570D01*
X875419D01*
Y-420948D01*
Y-421325D01*
Y-421703D01*
Y-422080D01*
Y-422458D01*
Y-422836D01*
Y-423213D01*
Y-423591D01*
X875041D01*
Y-423968D01*
X874664D01*
Y-424346D01*
X874286D01*
Y-424723D01*
X873909D01*
Y-425101D01*
X873531D01*
Y-425478D01*
Y-425856D01*
Y-426233D01*
Y-426611D01*
Y-426988D01*
Y-427366D01*
Y-427743D01*
X872021D01*
Y-427366D01*
Y-426988D01*
Y-426611D01*
Y-426233D01*
Y-425856D01*
Y-425478D01*
Y-425101D01*
Y-424723D01*
Y-424346D01*
Y-423968D01*
Y-423591D01*
Y-423213D01*
Y-422836D01*
Y-422458D01*
Y-422080D01*
Y-421703D01*
Y-421325D01*
Y-420948D01*
Y-420570D01*
Y-420193D01*
Y-419815D01*
Y-419438D01*
Y-419060D01*
Y-418683D01*
Y-418305D01*
Y-417928D01*
Y-417550D01*
Y-417173D01*
Y-416795D01*
Y-416418D01*
X872399D01*
Y-416040D01*
X872776D01*
Y-415663D01*
X873154D01*
Y-415285D01*
X873531D01*
Y-414908D01*
Y-414530D01*
X873909D01*
Y-414153D01*
Y-413775D01*
Y-413398D01*
X873531D01*
Y-413020D01*
Y-412643D01*
X873154D01*
Y-412265D01*
Y-411888D01*
X872399D01*
Y-411510D01*
X870134D01*
Y-411888D01*
X869379D01*
Y-412265D01*
Y-412643D01*
X869001D01*
Y-413020D01*
Y-413398D01*
X868624D01*
Y-413775D01*
Y-414153D01*
Y-414530D01*
X869001D01*
Y-414908D01*
Y-415285D01*
X869379D01*
Y-415663D01*
X869756D01*
Y-416040D01*
X870134D01*
Y-416418D01*
X870511D01*
Y-416795D01*
Y-417173D01*
Y-417550D01*
Y-417928D01*
Y-418305D01*
Y-418683D01*
Y-419060D01*
Y-419438D01*
Y-419815D01*
Y-420193D01*
Y-420570D01*
Y-420948D01*
Y-421325D01*
Y-421703D01*
Y-422080D01*
Y-422458D01*
Y-422836D01*
Y-423213D01*
Y-423591D01*
Y-423968D01*
Y-424346D01*
Y-424723D01*
Y-425101D01*
Y-425478D01*
Y-425856D01*
Y-426233D01*
Y-426611D01*
Y-426988D01*
Y-427366D01*
Y-427743D01*
X869001D01*
Y-427366D01*
Y-426988D01*
Y-426611D01*
Y-426233D01*
Y-425856D01*
Y-425478D01*
Y-425101D01*
Y-424723D01*
Y-424346D01*
Y-423968D01*
Y-423591D01*
Y-423213D01*
Y-422836D01*
X868624D01*
Y-422458D01*
X868246D01*
Y-422080D01*
X867868D01*
Y-421703D01*
X867491D01*
Y-421325D01*
X867113D01*
Y-420948D01*
Y-420570D01*
X866736D01*
Y-420193D01*
X867113D01*
Y-419815D01*
Y-419438D01*
Y-419060D01*
Y-418683D01*
Y-418305D01*
X866736D01*
Y-417928D01*
X866358D01*
Y-417550D01*
X865981D01*
Y-417173D01*
X865226D01*
Y-416795D01*
X863716D01*
Y-417173D01*
X862961D01*
Y-417550D01*
X862583D01*
Y-417928D01*
Y-418305D01*
X862206D01*
Y-418683D01*
Y-419060D01*
Y-419438D01*
Y-419815D01*
Y-420193D01*
Y-420570D01*
X862583D01*
Y-420948D01*
Y-421325D01*
X863338D01*
Y-421703D01*
X864093D01*
Y-422080D01*
X864848D01*
Y-421703D01*
X865981D01*
Y-422080D01*
X866358D01*
Y-422458D01*
X866736D01*
Y-422836D01*
X867113D01*
Y-423213D01*
X867491D01*
Y-423591D01*
Y-423968D01*
Y-424346D01*
Y-424723D01*
Y-425101D01*
Y-425478D01*
Y-425856D01*
Y-426233D01*
Y-426611D01*
Y-426988D01*
Y-427366D01*
Y-427743D01*
X859563D01*
Y-427366D01*
X859186D01*
Y-426988D01*
Y-426611D01*
X858808D01*
Y-426233D01*
Y-425856D01*
X858431D01*
Y-425478D01*
Y-425101D01*
Y-424723D01*
X858053D01*
Y-424346D01*
Y-423968D01*
Y-423591D01*
X857676D01*
Y-423213D01*
Y-422836D01*
X857298D01*
Y-422458D01*
Y-422080D01*
Y-421703D01*
X856921D01*
Y-421325D01*
Y-420948D01*
Y-420570D01*
X857298D01*
Y-420193D01*
X857676D01*
Y-419815D01*
X858053D01*
Y-419438D01*
X858431D01*
Y-419060D01*
X858808D01*
Y-418683D01*
X859563D01*
Y-418305D01*
X859941D01*
Y-417928D01*
X860318D01*
Y-417550D01*
X860696D01*
Y-417173D01*
X861073D01*
Y-416795D01*
X861828D01*
Y-416418D01*
X862206D01*
Y-416040D01*
X862583D01*
Y-415663D01*
X862961D01*
Y-415285D01*
X863338D01*
Y-414908D01*
X863716D01*
Y-414530D01*
X864471D01*
Y-414153D01*
X864848D01*
Y-413775D01*
X865226D01*
Y-413398D01*
X865603D01*
Y-413020D01*
X865981D01*
Y-412643D01*
X866358D01*
Y-412265D01*
X867113D01*
Y-411888D01*
Y-411510D01*
Y-411133D01*
Y-410755D01*
Y-410378D01*
Y-410000D01*
Y-409622D01*
Y-409245D01*
Y-408867D01*
Y-408490D01*
Y-408112D01*
Y-407735D01*
Y-407357D01*
Y-406980D01*
Y-406602D01*
Y-406225D01*
Y-405847D01*
Y-405470D01*
Y-405092D01*
Y-404715D01*
Y-404337D01*
Y-403960D01*
Y-403582D01*
Y-403205D01*
Y-402827D01*
Y-402450D01*
Y-402072D01*
Y-401695D01*
X867491D01*
Y-401317D01*
X875041D01*
Y-401695D01*
D02*
G37*
%LPC*%
G36*
X1351644Y-383196D02*
X1350511D01*
Y-383574D01*
Y-383951D01*
Y-384329D01*
X1351644D01*
Y-383951D01*
Y-383574D01*
Y-383196D01*
D02*
G37*
G36*
X871644D02*
X870511D01*
Y-383574D01*
Y-383951D01*
Y-384329D01*
X871644D01*
Y-383951D01*
Y-383574D01*
Y-383196D01*
D02*
G37*
G36*
X1347868Y-389614D02*
X1346736D01*
Y-389992D01*
Y-390369D01*
X1347868D01*
Y-389992D01*
Y-389614D01*
D02*
G37*
G36*
X867868D02*
X866736D01*
Y-389992D01*
Y-390369D01*
X867868D01*
Y-389992D01*
Y-389614D01*
D02*
G37*
G36*
X1355419Y-392257D02*
X1354286D01*
Y-392634D01*
Y-393012D01*
Y-393389D01*
X1355041D01*
Y-393012D01*
X1355419D01*
Y-392634D01*
Y-392257D01*
D02*
G37*
G36*
X875419D02*
X874286D01*
Y-392634D01*
Y-393012D01*
Y-393389D01*
X875041D01*
Y-393012D01*
X875419D01*
Y-392634D01*
Y-392257D01*
D02*
G37*
G36*
X1231972Y-394522D02*
X1230462D01*
Y-394899D01*
X1230084D01*
Y-395277D01*
X1229706D01*
Y-395654D01*
Y-396032D01*
X1229329D01*
Y-396409D01*
Y-396787D01*
X1229706D01*
Y-397164D01*
Y-397542D01*
X1230084D01*
Y-397920D01*
X1230462D01*
Y-398297D01*
X1231972D01*
Y-397920D01*
X1232727D01*
Y-397542D01*
Y-397164D01*
X1233104D01*
Y-396787D01*
Y-396409D01*
Y-396032D01*
Y-395654D01*
X1232727D01*
Y-395277D01*
Y-394899D01*
X1231972D01*
Y-394522D01*
D02*
G37*
G36*
X751972D02*
X750462D01*
Y-394899D01*
X750084D01*
Y-395277D01*
X749706D01*
Y-395654D01*
Y-396032D01*
X749329D01*
Y-396409D01*
Y-396787D01*
X749706D01*
Y-397164D01*
Y-397542D01*
X750084D01*
Y-397920D01*
X750462D01*
Y-398297D01*
X751972D01*
Y-397920D01*
X752727D01*
Y-397542D01*
Y-397164D01*
X753104D01*
Y-396787D01*
Y-396409D01*
Y-396032D01*
Y-395654D01*
X752727D01*
Y-395277D01*
Y-394899D01*
X751972D01*
Y-394522D01*
D02*
G37*
%LPD*%
D10*
X-310000Y2270000D02*
G03*
X-300000Y2280000I0J10000D01*
G01*
X-365000Y2260000D02*
G03*
X-355000Y2250000I10000J0D01*
G01*
Y2270000D02*
G03*
X-365000Y2260000I0J-10000D01*
G01*
X-310000Y2250000D02*
G03*
X-280000Y2280000I0J30000D01*
G01*
X-280000Y2370000D02*
G03*
X-290000Y2380000I-10000J0D01*
G01*
D02*
G03*
X-300000Y2370000I0J-10000D01*
G01*
X195000Y-740000D02*
G03*
X205000Y-750000I10000J0D01*
G01*
X195000Y-665000D02*
G03*
X185000Y-655000I-10000J0D01*
G01*
X-5000D02*
G03*
X-15000Y-665000I0J-10000D01*
G01*
X-488000Y-102000D02*
G03*
X-498000Y-92000I-10000J0D01*
G01*
X-606000Y-129000D02*
G03*
X-570261Y-101576I0J37000D01*
G01*
X-688000Y-261000D02*
G03*
X-678000Y-271000I10000J0D01*
G01*
Y-129000D02*
G03*
X-688000Y-139000I0J-10000D01*
G01*
X-560250Y-92000D02*
G03*
X-569457Y-98838I0J-9618D01*
G01*
X-498000Y-271000D02*
G03*
X-488000Y-261000I0J10000D01*
G01*
X-25000Y-750000D02*
G03*
X-15000Y-740000I0J10000D01*
G01*
X-1100000Y-1350000D02*
G03*
X-1060000Y-1310000I0J40000D01*
G01*
X-260000Y-750000D02*
G03*
X-300000Y-790000I0J-40000D01*
G01*
X-340000Y-1050000D02*
G03*
X-300000Y-1010000I0J40000D01*
G01*
X-1020000Y-1050000D02*
G03*
X-1060000Y-1090000I0J-40000D01*
G01*
X-1489035Y-121285D02*
G03*
X-1485500Y-112750I-8536J8536D01*
G01*
X-1496465Y-128714D02*
G03*
X-1500000Y-137250I8536J-8536D01*
G01*
Y-62250D02*
G03*
X-1496465Y-70785I12071J0D01*
G01*
X-1485500Y-86750D02*
G03*
X-1489035Y-78214I-12071J0D01*
G01*
X-360000Y2410000D02*
G03*
X-400000Y2370000I0J-40000D01*
G01*
X-440000Y2140000D02*
G03*
X-400000Y2180000I0J40000D01*
G01*
X-1460000Y2140000D02*
G03*
X-1500000Y2100000I0J-40000D01*
G01*
X400000Y2180000D02*
G03*
X440000Y2140000I40000J0D01*
G01*
X400000Y2370000D02*
G03*
X360000Y2410000I-40000J0D01*
G01*
X1500000Y2100000D02*
G03*
X1460000Y2140000I-40000J0D01*
G01*
X-1500000Y-1310000D02*
G03*
X-1460000Y-1350000I40000J0D01*
G01*
X1420000Y-790000D02*
G03*
X1380000Y-750000I-40000J0D01*
G01*
X1420000Y-800000D02*
G03*
X1500000Y-800000I40000J0D01*
G01*
X-355000Y2250000D02*
X-310000Y2250000D01*
X-355000Y2270000D02*
X-310000Y2270000D01*
X-280000Y2280000D02*
X-280000Y2370000D01*
X-300000Y2280000D02*
X-300000Y2370000D01*
X-678000Y-271000D02*
X-498000D01*
X-488000Y-261000D02*
Y-190000D01*
X-688000D02*
Y-139000D01*
X-678000Y-129000D02*
X-606000D01*
X-488000Y-190000D02*
Y-102000D01*
X-560250Y-92000D02*
X-498000D01*
X-570261Y-101576D02*
X-569457Y-98838D01*
X-688000Y-261000D02*
Y-190000D01*
X-5000Y-655000D02*
X90000D01*
X185000D01*
X195000Y-740000D02*
Y-665000D01*
X-15000Y-740000D02*
Y-665000D01*
X-300000Y-1010000D02*
Y-790000D01*
X-1020000Y-1050000D02*
X-340000Y-1050000D01*
X-1060000Y-1310000D02*
Y-1090000D01*
X-1485500Y-99750D02*
Y-86750D01*
Y-112750D02*
Y-99750D01*
X-1496464Y-128715D02*
X-1489036Y-121286D01*
X-1496464Y-70785D02*
X-1489036Y-78214D01*
X-400000Y2180000D02*
Y2370000D01*
X-360000Y2410000D02*
X360000D01*
X-1460000Y2140000D02*
X-440000Y2140000D01*
X400000Y2180000D02*
Y2370000D01*
X440000Y2140000D02*
X1460000Y2140000D01*
X-1500000Y-137250D02*
X-1500000Y-1310000D01*
X-1460000Y-1350000D02*
X-1100000D01*
X-260000Y-750000D02*
X-25000Y-750000D01*
X205000Y-750000D02*
X1380000Y-750000D01*
X1420000Y-800000D02*
Y-790000D01*
X1499999Y-800000D02*
X1500000Y2100000D01*
X-1500000Y-62250D02*
Y2100000D01*
D20*
X-357620Y2342500D02*
D03*
X-342380D02*
D03*
X-1002620Y-387000D02*
D03*
X-987380D02*
D03*
X-1403380Y-172000D02*
D03*
X-1418620D02*
D03*
X-1390620Y-267000D02*
D03*
X-1375380D02*
D03*
X-1341380Y-760000D02*
D03*
X-1356620D02*
D03*
Y-772000D02*
D03*
X-1341380D02*
D03*
Y-784000D02*
D03*
X-1356620D02*
D03*
Y-796000D02*
D03*
X-1341380D02*
D03*
X-1356620Y-808000D02*
D03*
X-1341380D02*
D03*
Y-820000D02*
D03*
X-1356620D02*
D03*
Y-832000D02*
D03*
X-1341380D02*
D03*
X-1220620Y-792000D02*
D03*
X-1205380D02*
D03*
X-1272380Y-975000D02*
D03*
X-1287620D02*
D03*
X-653380Y-535000D02*
D03*
X-668620D02*
D03*
X-702620Y-535000D02*
D03*
X-687380D02*
D03*
X57620Y-40000D02*
D03*
X42380D02*
D03*
X-110620Y-240000D02*
D03*
X-95380D02*
D03*
Y-225000D02*
D03*
X-110620D02*
D03*
X42620Y-181000D02*
D03*
X27380D02*
D03*
Y-168000D02*
D03*
X42620D02*
D03*
X27380Y-251000D02*
D03*
X42620D02*
D03*
X324620Y-210000D02*
D03*
X309380D02*
D03*
X309380Y-225000D02*
D03*
X324620D02*
D03*
Y-240000D02*
D03*
X309380D02*
D03*
X1137380Y-480000D02*
D03*
X1152620D02*
D03*
X-1243380Y-368000D02*
D03*
X-1258620D02*
D03*
X-1203010Y195000D02*
D03*
X-1218250D02*
D03*
X-1129260D02*
D03*
X-1144500D02*
D03*
X-1350510D02*
D03*
X-1365750D02*
D03*
X-1276760D02*
D03*
X-1292000D02*
D03*
X-686760D02*
D03*
X-702000D02*
D03*
X-760510D02*
D03*
X-775750D02*
D03*
X-539260D02*
D03*
X-554500D02*
D03*
X-613010D02*
D03*
X-628250D02*
D03*
X-391760D02*
D03*
X-407000D02*
D03*
X-465510D02*
D03*
X-480750D02*
D03*
X-244260D02*
D03*
X-259500D02*
D03*
X-318010D02*
D03*
X-333250D02*
D03*
X-96760D02*
D03*
X-112000D02*
D03*
X-170510D02*
D03*
X-185750D02*
D03*
X50740D02*
D03*
X35500D02*
D03*
X-23010D02*
D03*
X-38250D02*
D03*
X198240D02*
D03*
X183000D02*
D03*
X124490D02*
D03*
X109250D02*
D03*
X345740D02*
D03*
X330500D02*
D03*
X271990D02*
D03*
X256750D02*
D03*
X493240D02*
D03*
X478000D02*
D03*
X419490D02*
D03*
X404250D02*
D03*
X640740D02*
D03*
X625500D02*
D03*
X566990D02*
D03*
X551750D02*
D03*
X-834260D02*
D03*
X-849500D02*
D03*
X-908010D02*
D03*
X-923250D02*
D03*
X788240D02*
D03*
X773000D02*
D03*
X714490D02*
D03*
X699250D02*
D03*
X935740D02*
D03*
X920500D02*
D03*
X861990D02*
D03*
X846750D02*
D03*
X-981760D02*
D03*
X-997000D02*
D03*
X-1055510D02*
D03*
X-1070750D02*
D03*
X1083240D02*
D03*
X1068000D02*
D03*
X1009490D02*
D03*
X994250D02*
D03*
X1230740D02*
D03*
X1215500D02*
D03*
X1156990D02*
D03*
X1141750D02*
D03*
X1378240D02*
D03*
X1363000D02*
D03*
X1304490D02*
D03*
X1289250D02*
D03*
D21*
X140000Y2085000D02*
D03*
X-140000D02*
D03*
X140000Y2365000D02*
D03*
X-140000D02*
D03*
X-860000Y-565000D02*
D03*
X-1190000D02*
D03*
Y-85000D02*
D03*
X-860000D02*
D03*
X-208000Y-617250D02*
D03*
X372000D02*
D03*
Y-127250D02*
D03*
X-208000D02*
D03*
X-610000Y-681000D02*
D03*
X530000D02*
D03*
X-610000Y-91000D02*
D03*
X530000D02*
D03*
D22*
X-27000Y2351000D02*
D03*
X-47000D02*
D03*
X-67000D02*
D03*
D23*
X-87000D02*
D03*
D24*
X162500Y-560000D02*
D03*
X17500D02*
D03*
D25*
X162500Y-619600D02*
D03*
X17500D02*
D03*
D26*
X-1415000Y-577500D02*
D03*
Y-722500D02*
D03*
D27*
X-1474600Y-577500D02*
D03*
Y-722500D02*
D03*
D28*
X-363100Y2200000D02*
D03*
X-1245000Y-1300100D02*
D03*
X63500Y-20000D02*
D03*
X-348700Y-790000D02*
D03*
D29*
X-337700Y2200000D02*
D03*
X-312300D02*
D03*
X-286900D02*
D03*
X-1315000Y-1300100D02*
D03*
X-1290000D02*
D03*
X-1270000D02*
D03*
X-63500Y-20000D02*
D03*
X-38100D02*
D03*
X-12700D02*
D03*
X12700D02*
D03*
X38100D02*
D03*
X-730110Y-1020750D02*
D03*
X-831300Y-790000D02*
D03*
X-805900D02*
D03*
X-780500D02*
D03*
X-755100D02*
D03*
X-729700D02*
D03*
X-704300D02*
D03*
X-374100D02*
D03*
X-399500D02*
D03*
X-424900D02*
D03*
X-450300D02*
D03*
X-634110Y-803500D02*
D03*
D30*
X-1080850Y2074500D02*
D03*
X-343350D02*
D03*
X394150D02*
D03*
X1131650D02*
D03*
D31*
X-1106250D02*
D03*
X-1131650D02*
D03*
X-368750D02*
D03*
X-394150D02*
D03*
X368750D02*
D03*
X343350D02*
D03*
X1106250D02*
D03*
X1080850D02*
D03*
D32*
X-1385000Y-184000D02*
D03*
X-742300Y-762600D02*
D03*
X-425000Y-760000D02*
D03*
X-715000Y-535000D02*
D03*
X87500Y-224750D02*
D03*
X339500Y-225000D02*
D03*
Y-210000D02*
D03*
X1450000Y-600000D02*
D03*
Y-585000D02*
D03*
X-1395000Y-73000D02*
D03*
X-1287500Y-184000D02*
D03*
Y-290000D02*
D03*
Y-305000D02*
D03*
X550000Y-476000D02*
D03*
Y-581000D02*
D03*
X-80500Y-225000D02*
D03*
Y-210000D02*
D03*
X87500Y-209750D02*
D03*
X550000Y-521000D02*
D03*
Y-566000D02*
D03*
Y-506000D02*
D03*
Y-551000D02*
D03*
X87500Y-194750D02*
D03*
X550000Y-491000D02*
D03*
Y-536000D02*
D03*
D33*
X-1472500Y-113500D02*
D03*
Y-83500D02*
D03*
X-1449700Y-253900D02*
D03*
Y-196100D02*
D03*
X957500Y-375500D02*
D03*
Y-514500D02*
D03*
X597500Y-415500D02*
D03*
Y-554500D02*
D03*
Y-160500D02*
D03*
Y-299500D02*
D03*
X957500Y-160500D02*
D03*
Y-299500D02*
D03*
X1077500Y-160500D02*
D03*
Y-299500D02*
D03*
Y-415500D02*
D03*
Y-554500D02*
D03*
X1437500Y-375500D02*
D03*
Y-514500D02*
D03*
Y-160500D02*
D03*
Y-299500D02*
D03*
X1180000Y475000D02*
D03*
X885000D02*
D03*
X590000D02*
D03*
X295000D02*
D03*
X0D02*
D03*
X-295000D02*
D03*
X-590000D02*
D03*
X-885000D02*
D03*
X-1180000Y475000D02*
D03*
X1327500Y1850000D02*
D03*
X1032500D02*
D03*
X737500D02*
D03*
X442500D02*
D03*
X147500D02*
D03*
X-147500D02*
D03*
X-442500D02*
D03*
X-737500D02*
D03*
X-1032500D02*
D03*
X-1327500D02*
D03*
D34*
X-1486500Y-181800D02*
D03*
Y-268200D02*
D03*
D35*
X-1444700Y-181800D02*
D03*
Y-268200D02*
D03*
D36*
X-1417200Y-359300D02*
D03*
Y-490700D02*
D03*
X-1214300Y-1327200D02*
D03*
X-1345700D02*
D03*
X-360700Y-115800D02*
D03*
Y-247200D02*
D03*
D37*
X-1390100Y-460000D02*
D03*
X-333600Y-216500D02*
D03*
D38*
X-1390100Y-435000D02*
D03*
Y-415000D02*
D03*
Y-390000D02*
D03*
X-333600Y-191500D02*
D03*
Y-171500D02*
D03*
Y-146500D02*
D03*
D39*
X-1460000Y-1025000D02*
D03*
D40*
X342500Y2357000D02*
D03*
X317500D02*
D03*
X292500D02*
D03*
X1342500Y-678000D02*
D03*
X1317500D02*
D03*
X1292500D02*
D03*
X1267500D02*
D03*
X1242500D02*
D03*
D41*
X267500Y2357000D02*
D03*
X1217500Y-678000D02*
D03*
D42*
X-934600Y-950000D02*
D03*
D43*
X-985400D02*
D03*
D44*
X-1255000Y-955000D02*
D03*
X-1305000D02*
D03*
D45*
X-1255000Y-1100000D02*
D03*
X-1280000D02*
D03*
X-1305000D02*
D03*
D46*
X-1335000Y-1025000D02*
D03*
X-1225000D02*
D03*
D47*
X1485000Y-765000D02*
D03*
Y2065000D02*
D03*
X-1485000D02*
D03*
Y-1275000D02*
D03*
D48*
X177800Y2225000D02*
D03*
X-177800D02*
D03*
X450000Y-710000D02*
D03*
X-450000D02*
D03*
X450000Y0D02*
D03*
X-1460000Y2100000D02*
D03*
X1460000D02*
D03*
X-450000D02*
D03*
X450000D02*
D03*
X-450000Y0D02*
D03*
X-1460000Y-1310000D02*
D03*
X1460000Y0D02*
D03*
X-1460000D02*
D03*
Y-800000D02*
D03*
X1460000D02*
D03*
D49*
X-1130000Y1800000D02*
D03*
X-1230000D02*
D03*
X-1130000Y1630000D02*
D03*
X-1230000D02*
D03*
X-1130000Y1460000D02*
D03*
X-1230000D02*
D03*
X-1130000Y1290000D02*
D03*
X-1230000D02*
D03*
X-1130000Y1120000D02*
D03*
X-1230000D02*
D03*
X-1130000Y950000D02*
D03*
X-1230000D02*
D03*
X-1130000Y780000D02*
D03*
X-1230000D02*
D03*
X-1130000Y610000D02*
D03*
X-1230000D02*
D03*
X-1377500Y1715000D02*
D03*
X-1277500D02*
D03*
X-1377500Y1545000D02*
D03*
X-1277500D02*
D03*
X-1377500Y1375000D02*
D03*
X-1277500D02*
D03*
X-1377500Y1205000D02*
D03*
X-1277500D02*
D03*
X-1377500Y1035000D02*
D03*
X-1277500D02*
D03*
X-1377500Y865000D02*
D03*
X-1277500D02*
D03*
X-1377500Y695000D02*
D03*
X-1277500D02*
D03*
X-1377500Y525000D02*
D03*
X-1277500D02*
D03*
X687500D02*
D03*
X787500D02*
D03*
X687500Y865000D02*
D03*
X787500D02*
D03*
X687500Y1715000D02*
D03*
X787500D02*
D03*
X-787500Y525000D02*
D03*
X-687500D02*
D03*
X-787500Y695000D02*
D03*
X-687500D02*
D03*
X-787500Y865000D02*
D03*
X-687500D02*
D03*
X-787500Y1035000D02*
D03*
X-687500D02*
D03*
X-787500Y1205000D02*
D03*
X-687500D02*
D03*
X-787500Y1375000D02*
D03*
X-687500D02*
D03*
X-787500Y1545000D02*
D03*
X-687500D02*
D03*
X-787500Y1715000D02*
D03*
X-687500D02*
D03*
X-640000Y610000D02*
D03*
X-540000D02*
D03*
X-640000Y780000D02*
D03*
X-540000D02*
D03*
X-640000Y950000D02*
D03*
X-540000D02*
D03*
X-640000Y1120000D02*
D03*
X-540000D02*
D03*
X-640000Y1290000D02*
D03*
X-540000D02*
D03*
X-640000Y1460000D02*
D03*
X-540000D02*
D03*
X-640000Y1630000D02*
D03*
X-540000D02*
D03*
X-640000Y1800000D02*
D03*
X-540000D02*
D03*
X-492500Y525000D02*
D03*
X-392500D02*
D03*
X-492500Y695000D02*
D03*
X-392500D02*
D03*
X-492500Y865000D02*
D03*
X-392500D02*
D03*
X-492500Y1035000D02*
D03*
X-392500D02*
D03*
X-492500Y1205000D02*
D03*
X-392500D02*
D03*
X-492500Y1375000D02*
D03*
X-392500D02*
D03*
X-492500Y1545000D02*
D03*
X-392500D02*
D03*
X-492500Y1715000D02*
D03*
X-392500D02*
D03*
X-345000Y610000D02*
D03*
X-245000D02*
D03*
X-345000Y780000D02*
D03*
X-245000D02*
D03*
X-345000Y950000D02*
D03*
X-245000D02*
D03*
X-345000Y1120000D02*
D03*
X-245000D02*
D03*
X-345000Y1290000D02*
D03*
X-245000D02*
D03*
X-345000Y1460000D02*
D03*
X-245000D02*
D03*
X-345000Y1630000D02*
D03*
X-245000D02*
D03*
X-345000Y1800000D02*
D03*
X-245000D02*
D03*
X-197500Y525000D02*
D03*
X-97500D02*
D03*
X-197500Y695000D02*
D03*
X-97500D02*
D03*
X-197500Y865000D02*
D03*
X-97500D02*
D03*
X-197500Y1035000D02*
D03*
X-97500D02*
D03*
X-197500Y1205000D02*
D03*
X-97500D02*
D03*
X-197500Y1375000D02*
D03*
X-97500D02*
D03*
X-197500Y1545000D02*
D03*
X-97500D02*
D03*
X-197500Y1715000D02*
D03*
X-97500D02*
D03*
X-50000Y610000D02*
D03*
X50000D02*
D03*
X-50000Y780000D02*
D03*
X50000D02*
D03*
X-50000Y950000D02*
D03*
X50000D02*
D03*
X-50000Y1120000D02*
D03*
X50000D02*
D03*
X-50000Y1290000D02*
D03*
X50000D02*
D03*
X-50000Y1460000D02*
D03*
X50000D02*
D03*
X-50000Y1630000D02*
D03*
X50000D02*
D03*
X-50000Y1800000D02*
D03*
X50000D02*
D03*
X97500Y525000D02*
D03*
X197500D02*
D03*
X97500Y695000D02*
D03*
X197500D02*
D03*
X97500Y865000D02*
D03*
X197500D02*
D03*
X97500Y1035000D02*
D03*
X197500D02*
D03*
X97500Y1205000D02*
D03*
X197500D02*
D03*
X97500Y1375000D02*
D03*
X197500D02*
D03*
X97500Y1545000D02*
D03*
X197500D02*
D03*
X97500Y1715000D02*
D03*
X197500D02*
D03*
X245000Y610000D02*
D03*
X345000D02*
D03*
X245000Y780000D02*
D03*
X345000D02*
D03*
X245000Y950000D02*
D03*
X345000D02*
D03*
X245000Y1120000D02*
D03*
X345000D02*
D03*
X245000Y1290000D02*
D03*
X345000D02*
D03*
X245000Y1460000D02*
D03*
X345000D02*
D03*
X245000Y1630000D02*
D03*
X345000D02*
D03*
X245000Y1800000D02*
D03*
X345000D02*
D03*
X392500Y525000D02*
D03*
X492500D02*
D03*
X392500Y695000D02*
D03*
X492500D02*
D03*
X392500Y865000D02*
D03*
X492500D02*
D03*
X392500Y1035000D02*
D03*
X492500D02*
D03*
X392500Y1205000D02*
D03*
X492500D02*
D03*
X392500Y1375000D02*
D03*
X492500D02*
D03*
X392500Y1545000D02*
D03*
X492500D02*
D03*
X392500Y1715000D02*
D03*
X492500D02*
D03*
X540000Y610000D02*
D03*
X640000D02*
D03*
X540000Y780000D02*
D03*
X640000D02*
D03*
X540000Y950000D02*
D03*
X640000D02*
D03*
X540000Y1120000D02*
D03*
X640000D02*
D03*
X540000Y1290000D02*
D03*
X640000D02*
D03*
X540000Y1460000D02*
D03*
X640000D02*
D03*
X540000Y1630000D02*
D03*
X640000D02*
D03*
X540000Y1800000D02*
D03*
X640000D02*
D03*
X-1082500Y865000D02*
D03*
X-982500D02*
D03*
X-1082500Y1715000D02*
D03*
X-982500D02*
D03*
X1130000Y780000D02*
D03*
X1230000D02*
D03*
X1130000Y950000D02*
D03*
X1230000D02*
D03*
X1130000Y1800000D02*
D03*
X1230000D02*
D03*
X835000Y780000D02*
D03*
X935000D02*
D03*
X835000Y950000D02*
D03*
X935000D02*
D03*
X835000Y1800000D02*
D03*
X935000D02*
D03*
X1277500Y525000D02*
D03*
X1377500D02*
D03*
X1277500Y865000D02*
D03*
X1377500D02*
D03*
X1277500Y1715000D02*
D03*
X1377500D02*
D03*
X982500Y525000D02*
D03*
X1082500D02*
D03*
X982500Y865000D02*
D03*
X1082500D02*
D03*
X982500Y1715000D02*
D03*
X1082500D02*
D03*
X-935000Y610000D02*
D03*
X-835000D02*
D03*
X-935000Y780000D02*
D03*
X-835000D02*
D03*
X-935000Y950000D02*
D03*
X-835000D02*
D03*
X-935000Y1800000D02*
D03*
X-835000D02*
D03*
X-935000Y1120000D02*
D03*
X-835000D02*
D03*
X-935000Y1290000D02*
D03*
X-835000D02*
D03*
X-935000Y1460000D02*
D03*
X-835000D02*
D03*
X-935000Y1630000D02*
D03*
X-835000D02*
D03*
X687500Y695000D02*
D03*
X787500D02*
D03*
X687500Y1035000D02*
D03*
X787500D02*
D03*
X687500Y1205000D02*
D03*
X787500D02*
D03*
X687500Y1375000D02*
D03*
X787500D02*
D03*
X687500Y1545000D02*
D03*
X787500D02*
D03*
X835000Y610000D02*
D03*
X935000D02*
D03*
X835000Y1120000D02*
D03*
X935000D02*
D03*
X835000Y1290000D02*
D03*
X935000D02*
D03*
X835000Y1460000D02*
D03*
X935000D02*
D03*
X835000Y1630000D02*
D03*
X935000D02*
D03*
X-1082500Y525000D02*
D03*
X-982500D02*
D03*
X-1082500Y695000D02*
D03*
X-982500D02*
D03*
X-1082500Y1035000D02*
D03*
X-982500D02*
D03*
X-1082500Y1205000D02*
D03*
X-982500D02*
D03*
X-1082500Y1375000D02*
D03*
X-982500D02*
D03*
X-1082500Y1545000D02*
D03*
X-982500D02*
D03*
X982500Y695000D02*
D03*
X1082500D02*
D03*
X982500Y1035000D02*
D03*
X1082500D02*
D03*
X982500Y1205000D02*
D03*
X1082500D02*
D03*
X982500Y1375000D02*
D03*
X1082500D02*
D03*
X982500Y1545000D02*
D03*
X1082500D02*
D03*
X1130000Y610000D02*
D03*
X1230000D02*
D03*
X1130000Y1120000D02*
D03*
X1230000D02*
D03*
X1130000Y1290000D02*
D03*
X1230000D02*
D03*
X1130000Y1460000D02*
D03*
X1230000D02*
D03*
X1130000Y1630000D02*
D03*
X1230000D02*
D03*
X1277500Y695000D02*
D03*
X1377500D02*
D03*
X1277500Y1035000D02*
D03*
X1377500D02*
D03*
X1277500Y1205000D02*
D03*
X1377500D02*
D03*
X1277500Y1375000D02*
D03*
X1377500D02*
D03*
X1277500Y1545000D02*
D03*
X1377500D02*
D03*
D131*
X-1301250Y-269500D02*
D03*
X-1307750D02*
D03*
X-1314250D02*
D03*
X-1320750D02*
D03*
X-1301250Y-234500D02*
D03*
X-1307750D02*
D03*
X-1314250D02*
D03*
X-1320750D02*
D03*
X-1270250Y-1037500D02*
D03*
X-1276750D02*
D03*
X-1283250D02*
D03*
X-1289750D02*
D03*
X-1270250Y-1002500D02*
D03*
X-1276750D02*
D03*
X-1283250D02*
D03*
X-1289750D02*
D03*
D132*
X-840000Y-202000D02*
D03*
X-870800D02*
D03*
X-840000Y-206000D02*
D03*
X-870800D02*
D03*
X-840000Y-210000D02*
D03*
X-870800D02*
D03*
X-840000Y-214000D02*
D03*
X-870800D02*
D03*
X-840000Y-218000D02*
D03*
X-870800D02*
D03*
X-840000Y-222000D02*
D03*
X-870800D02*
D03*
X-840000Y-226000D02*
D03*
X-870800D02*
D03*
X-840000Y-230000D02*
D03*
X-870800D02*
D03*
X-840000Y-234000D02*
D03*
X-870800D02*
D03*
X-840000Y-238000D02*
D03*
X-870800D02*
D03*
X-840000Y-242000D02*
D03*
X-870800D02*
D03*
X-840000Y-246000D02*
D03*
X-870800D02*
D03*
X-840000Y-250000D02*
D03*
X-870800D02*
D03*
X-840000Y-254000D02*
D03*
X-870800D02*
D03*
X-840000Y-258000D02*
D03*
X-870800D02*
D03*
X-840000Y-262000D02*
D03*
X-870800D02*
D03*
X-840000Y-266000D02*
D03*
X-870800D02*
D03*
X-840000Y-270000D02*
D03*
X-870800D02*
D03*
X-840000Y-274000D02*
D03*
X-870800D02*
D03*
X-840000Y-278000D02*
D03*
X-870800D02*
D03*
X-840000Y-282000D02*
D03*
X-870800D02*
D03*
X-840000Y-286000D02*
D03*
X-870800D02*
D03*
X-840000Y-290000D02*
D03*
X-870800D02*
D03*
X-840000Y-294000D02*
D03*
X-870800D02*
D03*
X-840000Y-298000D02*
D03*
X-870800D02*
D03*
X-840000Y-302000D02*
D03*
X-870800D02*
D03*
X-840000Y-306000D02*
D03*
X-870800D02*
D03*
X-840000Y-310000D02*
D03*
X-870800D02*
D03*
X-840000Y-314000D02*
D03*
X-870800D02*
D03*
X-840000Y-318000D02*
D03*
X-870800D02*
D03*
X-840000Y-322000D02*
D03*
X-870800D02*
D03*
X-840000Y-326000D02*
D03*
X-870800D02*
D03*
X-840000Y-330000D02*
D03*
X-870800D02*
D03*
X-840000Y-334000D02*
D03*
X-870800D02*
D03*
X-840000Y-338000D02*
D03*
X-870800D02*
D03*
X-840000Y-342000D02*
D03*
X-870800D02*
D03*
X-840000Y-346000D02*
D03*
X-870800D02*
D03*
X-840000Y-350000D02*
D03*
X-870800D02*
D03*
X-840000Y-354000D02*
D03*
X-870800D02*
D03*
X-840000Y-358000D02*
D03*
X-870800D02*
D03*
X-840000Y-362000D02*
D03*
X-870800D02*
D03*
X-840000Y-366000D02*
D03*
X-870800D02*
D03*
X-840000Y-370000D02*
D03*
X-870800D02*
D03*
X-840000Y-374000D02*
D03*
X-870800D02*
D03*
X-840000Y-378000D02*
D03*
X-870800D02*
D03*
X-840000Y-382000D02*
D03*
X-870800D02*
D03*
X-840000Y-386000D02*
D03*
X-870800D02*
D03*
X-840000Y-390000D02*
D03*
X-870800D02*
D03*
X-840000Y-394000D02*
D03*
X-870800D02*
D03*
X-840000Y-398000D02*
D03*
X-870800D02*
D03*
X-1179200Y-202000D02*
D03*
X-1210000D02*
D03*
X-1179200Y-206000D02*
D03*
X-1210000D02*
D03*
X-1179200Y-210000D02*
D03*
X-1210000D02*
D03*
X-1179200Y-214000D02*
D03*
X-1210000D02*
D03*
X-1179200Y-218000D02*
D03*
X-1210000D02*
D03*
X-1179200Y-222000D02*
D03*
X-1210000D02*
D03*
X-1179200Y-226000D02*
D03*
X-1210000D02*
D03*
X-1179200Y-230000D02*
D03*
X-1210000D02*
D03*
X-1179200Y-234000D02*
D03*
X-1210000D02*
D03*
X-1179200Y-238000D02*
D03*
X-1210000D02*
D03*
X-1179200Y-242000D02*
D03*
X-1210000D02*
D03*
X-1179200Y-246000D02*
D03*
X-1210000D02*
D03*
X-1179200Y-250000D02*
D03*
X-1210000D02*
D03*
X-1179200Y-254000D02*
D03*
X-1210000D02*
D03*
X-1179200Y-258000D02*
D03*
X-1210000D02*
D03*
X-1179200Y-262000D02*
D03*
X-1210000D02*
D03*
X-1179200Y-266000D02*
D03*
X-1210000D02*
D03*
X-1179200Y-270000D02*
D03*
X-1210000D02*
D03*
X-1179200Y-274000D02*
D03*
X-1210000D02*
D03*
X-1179200Y-278000D02*
D03*
X-1210000D02*
D03*
X-1179200Y-282000D02*
D03*
X-1210000D02*
D03*
X-1179200Y-286000D02*
D03*
X-1210000D02*
D03*
X-1179200Y-290000D02*
D03*
X-1210000D02*
D03*
X-1179200Y-294000D02*
D03*
X-1210000D02*
D03*
X-1179200Y-298000D02*
D03*
X-1210000D02*
D03*
X-1179200Y-302000D02*
D03*
X-1210000D02*
D03*
X-1179200Y-306000D02*
D03*
X-1210000D02*
D03*
X-1179200Y-310000D02*
D03*
X-1210000D02*
D03*
X-1179200Y-314000D02*
D03*
X-1210000D02*
D03*
X-1179200Y-318000D02*
D03*
X-1210000D02*
D03*
X-1179200Y-322000D02*
D03*
X-1210000D02*
D03*
X-1179200Y-326000D02*
D03*
X-1210000D02*
D03*
X-1179200Y-330000D02*
D03*
X-1210000D02*
D03*
X-1179200Y-334000D02*
D03*
X-1210000D02*
D03*
X-1179200Y-338000D02*
D03*
X-1210000D02*
D03*
X-1179200Y-342000D02*
D03*
X-1210000D02*
D03*
X-1179200Y-346000D02*
D03*
X-1210000D02*
D03*
X-1179200Y-350000D02*
D03*
X-1210000D02*
D03*
X-1179200Y-354000D02*
D03*
X-1210000D02*
D03*
X-1179200Y-358000D02*
D03*
X-1210000D02*
D03*
X-1179200Y-362000D02*
D03*
X-1210000D02*
D03*
X-1179200Y-366000D02*
D03*
X-1210000D02*
D03*
X-1179200Y-370000D02*
D03*
X-1210000D02*
D03*
X-1179200Y-374000D02*
D03*
X-1210000D02*
D03*
X-1179200Y-378000D02*
D03*
X-1210000D02*
D03*
X-1179200Y-382000D02*
D03*
X-1210000D02*
D03*
X-1179200Y-386000D02*
D03*
X-1210000D02*
D03*
X-1179200Y-390000D02*
D03*
X-1210000D02*
D03*
X-1179200Y-394000D02*
D03*
X-1210000D02*
D03*
X-1179200Y-398000D02*
D03*
X-1210000D02*
D03*
D133*
X-1266813Y61300D02*
D03*
Y93700D02*
D03*
X-1119313D02*
D03*
Y61300D02*
D03*
X-971813D02*
D03*
Y93700D02*
D03*
X-824313D02*
D03*
Y61300D02*
D03*
X-676813D02*
D03*
Y93700D02*
D03*
X-529313D02*
D03*
Y61300D02*
D03*
X-381813D02*
D03*
Y93700D02*
D03*
X-234312D02*
D03*
Y61300D02*
D03*
X-86812D02*
D03*
Y93700D02*
D03*
X60687D02*
D03*
Y61300D02*
D03*
X208188D02*
D03*
Y93700D02*
D03*
X355687D02*
D03*
Y61300D02*
D03*
X503187D02*
D03*
Y93700D02*
D03*
X650687D02*
D03*
Y61300D02*
D03*
X798187D02*
D03*
Y93700D02*
D03*
X945687D02*
D03*
Y61300D02*
D03*
X1093187D02*
D03*
Y93700D02*
D03*
X1240687D02*
D03*
Y61300D02*
D03*
X1388188D02*
D03*
Y93700D02*
D03*
X-1284000Y213800D02*
D03*
Y246200D02*
D03*
X-1136500D02*
D03*
Y213800D02*
D03*
X-989000D02*
D03*
Y246200D02*
D03*
X-841500D02*
D03*
Y213800D02*
D03*
X-694000D02*
D03*
Y246200D02*
D03*
X-546500D02*
D03*
Y213800D02*
D03*
X-399000D02*
D03*
Y246200D02*
D03*
X-251500D02*
D03*
Y213800D02*
D03*
X-104000D02*
D03*
Y246200D02*
D03*
X43500D02*
D03*
Y213800D02*
D03*
X191000D02*
D03*
Y246200D02*
D03*
X338500D02*
D03*
Y213800D02*
D03*
X486000D02*
D03*
Y246200D02*
D03*
X633500D02*
D03*
Y213800D02*
D03*
X781000D02*
D03*
Y246200D02*
D03*
X928500D02*
D03*
Y213800D02*
D03*
X1076000D02*
D03*
Y246200D02*
D03*
X1223500D02*
D03*
Y213800D02*
D03*
X1371000D02*
D03*
Y246200D02*
D03*
X-1290625Y343700D02*
D03*
Y311300D02*
D03*
X-1143125D02*
D03*
Y343700D02*
D03*
X-995625D02*
D03*
Y311300D02*
D03*
X-848125D02*
D03*
Y343700D02*
D03*
X-700625D02*
D03*
Y311300D02*
D03*
X-553125D02*
D03*
Y343700D02*
D03*
X-405625D02*
D03*
Y311300D02*
D03*
X-258125D02*
D03*
Y343700D02*
D03*
X-110625D02*
D03*
Y311300D02*
D03*
X36875D02*
D03*
Y343700D02*
D03*
X184375D02*
D03*
Y311300D02*
D03*
X331875D02*
D03*
Y343700D02*
D03*
X479375D02*
D03*
Y311300D02*
D03*
X626875D02*
D03*
Y343700D02*
D03*
X774375D02*
D03*
Y311300D02*
D03*
X921875D02*
D03*
Y343700D02*
D03*
X1069375D02*
D03*
Y311300D02*
D03*
X1216875D02*
D03*
Y343700D02*
D03*
X1364375D02*
D03*
Y311300D02*
D03*
X-1306000Y213800D02*
D03*
Y246200D02*
D03*
X-1158500D02*
D03*
Y213800D02*
D03*
X-1011000D02*
D03*
Y246200D02*
D03*
X-863500D02*
D03*
Y213800D02*
D03*
X-716000D02*
D03*
Y246200D02*
D03*
X-568500D02*
D03*
Y213800D02*
D03*
X-421000D02*
D03*
Y246200D02*
D03*
X-273500D02*
D03*
Y213800D02*
D03*
X-126000D02*
D03*
Y246200D02*
D03*
X21500D02*
D03*
Y213800D02*
D03*
X169000D02*
D03*
Y246200D02*
D03*
X316500D02*
D03*
Y213800D02*
D03*
X464000D02*
D03*
Y246200D02*
D03*
X611500D02*
D03*
Y213800D02*
D03*
X759000D02*
D03*
Y246200D02*
D03*
X906500D02*
D03*
Y213800D02*
D03*
X1054000D02*
D03*
Y246200D02*
D03*
X1201500D02*
D03*
Y213800D02*
D03*
X1349000D02*
D03*
Y246200D02*
D03*
X-1312750Y343700D02*
D03*
Y311300D02*
D03*
X-1165250D02*
D03*
Y343700D02*
D03*
X-1017750D02*
D03*
Y311300D02*
D03*
X-870250D02*
D03*
Y343700D02*
D03*
X-722750D02*
D03*
Y311300D02*
D03*
X-575250D02*
D03*
Y343700D02*
D03*
X-427750D02*
D03*
Y311300D02*
D03*
X-280250D02*
D03*
Y343700D02*
D03*
X-132750D02*
D03*
Y311300D02*
D03*
X14750D02*
D03*
Y343700D02*
D03*
X162250D02*
D03*
Y311300D02*
D03*
X309750D02*
D03*
Y343700D02*
D03*
X457250D02*
D03*
Y311300D02*
D03*
X604750D02*
D03*
Y343700D02*
D03*
X752250D02*
D03*
Y311300D02*
D03*
X899750D02*
D03*
Y343700D02*
D03*
X1047250D02*
D03*
Y311300D02*
D03*
X1194750D02*
D03*
Y343700D02*
D03*
X1342250D02*
D03*
Y311300D02*
D03*
X-1340560Y93700D02*
D03*
Y61300D02*
D03*
X-1193060D02*
D03*
Y93700D02*
D03*
X-1045560D02*
D03*
Y61300D02*
D03*
X-898060D02*
D03*
Y93700D02*
D03*
X-750560D02*
D03*
Y61300D02*
D03*
X-603060D02*
D03*
Y93700D02*
D03*
X-455560D02*
D03*
Y61300D02*
D03*
X-308060D02*
D03*
Y93700D02*
D03*
X-160560D02*
D03*
Y61300D02*
D03*
X-13060D02*
D03*
Y93700D02*
D03*
X134440D02*
D03*
Y61300D02*
D03*
X281940D02*
D03*
Y93700D02*
D03*
X429440D02*
D03*
Y61300D02*
D03*
X576940D02*
D03*
Y93700D02*
D03*
X724440D02*
D03*
Y61300D02*
D03*
X871940D02*
D03*
Y93700D02*
D03*
X1019440D02*
D03*
Y61300D02*
D03*
X1166940D02*
D03*
Y93700D02*
D03*
X1314440D02*
D03*
Y61300D02*
D03*
X-1357750Y246200D02*
D03*
Y213800D02*
D03*
X-1210250D02*
D03*
Y246200D02*
D03*
X-1062750D02*
D03*
Y213800D02*
D03*
X-915250D02*
D03*
Y246200D02*
D03*
X-767750D02*
D03*
Y213800D02*
D03*
X-620250D02*
D03*
Y246200D02*
D03*
X-472750D02*
D03*
Y213800D02*
D03*
X-325250D02*
D03*
Y246200D02*
D03*
X-177750D02*
D03*
Y213800D02*
D03*
X-30250D02*
D03*
Y246200D02*
D03*
X117250D02*
D03*
Y213800D02*
D03*
X264750D02*
D03*
Y246200D02*
D03*
X412250D02*
D03*
Y213800D02*
D03*
X559750D02*
D03*
Y246200D02*
D03*
X707250D02*
D03*
Y213800D02*
D03*
X854750D02*
D03*
Y246200D02*
D03*
X1002250D02*
D03*
Y213800D02*
D03*
X1149750D02*
D03*
Y246200D02*
D03*
X1297250D02*
D03*
Y213800D02*
D03*
X-1364375Y311300D02*
D03*
Y343700D02*
D03*
X-1216875D02*
D03*
Y311300D02*
D03*
X-1069375D02*
D03*
Y343700D02*
D03*
X-921875D02*
D03*
Y311300D02*
D03*
X-774375D02*
D03*
Y343700D02*
D03*
X-626875D02*
D03*
Y311300D02*
D03*
X-479375D02*
D03*
Y343700D02*
D03*
X-331875D02*
D03*
Y311300D02*
D03*
X-184375D02*
D03*
Y343700D02*
D03*
X-36875D02*
D03*
Y311300D02*
D03*
X110625D02*
D03*
Y343700D02*
D03*
X258125D02*
D03*
Y311300D02*
D03*
X405625D02*
D03*
Y343700D02*
D03*
X553125D02*
D03*
Y311300D02*
D03*
X700625D02*
D03*
Y343700D02*
D03*
X848125D02*
D03*
Y311300D02*
D03*
X995625D02*
D03*
Y343700D02*
D03*
X1143125D02*
D03*
Y311300D02*
D03*
X1290625D02*
D03*
Y343700D02*
D03*
X-1379750Y246200D02*
D03*
Y213800D02*
D03*
X-1232250D02*
D03*
Y246200D02*
D03*
X-1084750D02*
D03*
Y213800D02*
D03*
X-937250D02*
D03*
Y246200D02*
D03*
X-789750D02*
D03*
Y213800D02*
D03*
X-642250D02*
D03*
Y246200D02*
D03*
X-494750D02*
D03*
Y213800D02*
D03*
X-347250D02*
D03*
Y246200D02*
D03*
X-199750D02*
D03*
Y213800D02*
D03*
X-52250D02*
D03*
Y246200D02*
D03*
X95250D02*
D03*
Y213800D02*
D03*
X242750D02*
D03*
Y246200D02*
D03*
X390250D02*
D03*
Y213800D02*
D03*
X537750D02*
D03*
Y246200D02*
D03*
X685250D02*
D03*
Y213800D02*
D03*
X832750D02*
D03*
Y246200D02*
D03*
X980250D02*
D03*
Y213800D02*
D03*
X1127750D02*
D03*
Y246200D02*
D03*
X1275250D02*
D03*
Y213800D02*
D03*
X-1386500Y311300D02*
D03*
Y343700D02*
D03*
X-1239000D02*
D03*
Y311300D02*
D03*
X-1091500D02*
D03*
Y343700D02*
D03*
X-944000D02*
D03*
Y311300D02*
D03*
X-796500D02*
D03*
Y343700D02*
D03*
X-649000D02*
D03*
Y311300D02*
D03*
X-501500D02*
D03*
Y343700D02*
D03*
X-354000D02*
D03*
Y311300D02*
D03*
X-206500D02*
D03*
Y343700D02*
D03*
X-59000D02*
D03*
Y311300D02*
D03*
X88500D02*
D03*
Y343700D02*
D03*
X236000D02*
D03*
Y311300D02*
D03*
X383500D02*
D03*
Y343700D02*
D03*
X531000D02*
D03*
Y311300D02*
D03*
X678500D02*
D03*
Y343700D02*
D03*
X826000D02*
D03*
Y311300D02*
D03*
X973500D02*
D03*
Y343700D02*
D03*
X1121000D02*
D03*
Y311300D02*
D03*
X1268500D02*
D03*
Y343700D02*
D03*
X1166000Y2075200D02*
D03*
Y2042800D02*
D03*
D134*
X-342600Y2320000D02*
D03*
Y2330000D02*
D03*
X-357400Y2325000D02*
D03*
Y2320000D02*
D03*
Y2330000D02*
D03*
X-342600Y2325000D02*
D03*
X-987600Y-370000D02*
D03*
X-1002400Y-365000D02*
D03*
Y-375000D02*
D03*
Y-370000D02*
D03*
X-987600Y-365000D02*
D03*
Y-375000D02*
D03*
D135*
X1054250Y-674500D02*
D03*
X1060750D02*
D03*
X1067250D02*
D03*
X1073750D02*
D03*
Y-718500D02*
D03*
X1060750D02*
D03*
X1054250D02*
D03*
X1067250D02*
D03*
D136*
X-1309000Y-780000D02*
D03*
Y-785000D02*
D03*
Y-790000D02*
D03*
Y-795000D02*
D03*
Y-800000D02*
D03*
Y-805000D02*
D03*
Y-810000D02*
D03*
Y-815000D02*
D03*
Y-820000D02*
D03*
X-1251000Y-780000D02*
D03*
Y-785000D02*
D03*
Y-790000D02*
D03*
Y-795000D02*
D03*
Y-800000D02*
D03*
Y-805000D02*
D03*
Y-810000D02*
D03*
Y-815000D02*
D03*
Y-820000D02*
D03*
D137*
X-1280000Y-800000D02*
D03*
D138*
X-1260000Y-829000D02*
D03*
X-1265000D02*
D03*
X-1270000D02*
D03*
X-1275000D02*
D03*
X-1280000D02*
D03*
X-1285000D02*
D03*
X-1290000D02*
D03*
X-1295000D02*
D03*
X-1300000D02*
D03*
Y-771000D02*
D03*
X-1295000D02*
D03*
X-1290000D02*
D03*
X-1285000D02*
D03*
X-1280000D02*
D03*
X-1275000D02*
D03*
X-1270000D02*
D03*
X-1265000D02*
D03*
X-1260000D02*
D03*
D139*
X-1410001Y-234500D02*
D03*
X-1403500Y-215500D02*
D03*
X-1416500D02*
D03*
X-1409999D02*
D03*
X-1403500Y-234500D02*
D03*
X-1416500D02*
D03*
X-1206000Y-803000D02*
D03*
X-1219000D02*
D03*
X-1212501Y-822000D02*
D03*
X-1206000D02*
D03*
X-1219000D02*
D03*
X-1212499Y-803000D02*
D03*
D140*
X-1272500Y-720500D02*
D03*
Y-739500D02*
D03*
X-1296500Y-720500D02*
D03*
Y-739500D02*
D03*
D141*
X-1385000Y-201000D02*
D03*
X-1380000D02*
D03*
X-1375000D02*
D03*
X-1370000D02*
D03*
X-1385000Y-249000D02*
D03*
X-1380000D02*
D03*
X-1375000D02*
D03*
X-1370000D02*
D03*
X-1365000Y-201000D02*
D03*
Y-249000D02*
D03*
D142*
X135000Y-552400D02*
D03*
X130000D02*
D03*
X80000D02*
D03*
X75000D02*
D03*
X70000D02*
D03*
X65000D02*
D03*
X60000D02*
D03*
X55000D02*
D03*
X50000D02*
D03*
X45000D02*
D03*
X125000D02*
D03*
X120000D02*
D03*
X115000D02*
D03*
X110000D02*
D03*
X105000D02*
D03*
X100000D02*
D03*
X95000D02*
D03*
X90000D02*
D03*
X85000D02*
D03*
D143*
X-1407400Y-645000D02*
D03*
Y-650000D02*
D03*
Y-655000D02*
D03*
Y-660000D02*
D03*
Y-665000D02*
D03*
Y-670000D02*
D03*
Y-675000D02*
D03*
Y-680000D02*
D03*
Y-685000D02*
D03*
Y-605000D02*
D03*
Y-610000D02*
D03*
Y-615000D02*
D03*
Y-620000D02*
D03*
Y-625000D02*
D03*
Y-630000D02*
D03*
Y-635000D02*
D03*
Y-640000D02*
D03*
Y-690000D02*
D03*
Y-695000D02*
D03*
D144*
X289760Y2325000D02*
D03*
X320240D02*
D03*
X-72240Y2377500D02*
D03*
X-41760D02*
D03*
X-1077260Y2105000D02*
D03*
X-1107740D02*
D03*
X-339760D02*
D03*
X-370240D02*
D03*
X397740D02*
D03*
X367260D02*
D03*
X1135240D02*
D03*
X1104760D02*
D03*
X-702260Y-820000D02*
D03*
X-732740D02*
D03*
X-452740D02*
D03*
X-422260D02*
D03*
X954760Y-540000D02*
D03*
X985240D02*
D03*
X954760Y-325000D02*
D03*
X985240D02*
D03*
X594760Y-580000D02*
D03*
X625240D02*
D03*
X594760Y-325000D02*
D03*
X625240D02*
D03*
X1074760D02*
D03*
X1105240D02*
D03*
Y-580000D02*
D03*
X1074760D02*
D03*
X1434760Y-540000D02*
D03*
X1465240D02*
D03*
X1434760Y-325000D02*
D03*
X1465240D02*
D03*
D145*
X1233000Y2082620D02*
D03*
Y2067380D02*
D03*
X-1404000Y-184380D02*
D03*
Y-199620D02*
D03*
X-1418000Y-250380D02*
D03*
Y-265620D02*
D03*
X-1418000Y-184380D02*
D03*
Y-199620D02*
D03*
X-1312000Y-722380D02*
D03*
Y-737620D02*
D03*
X-1257000Y-737620D02*
D03*
Y-722380D02*
D03*
X-1244500Y-737620D02*
D03*
Y-722380D02*
D03*
X-1232000Y-737620D02*
D03*
Y-722380D02*
D03*
X-1219500D02*
D03*
Y-737620D02*
D03*
X-1207000D02*
D03*
Y-722380D02*
D03*
X-1262000Y-857380D02*
D03*
Y-872620D02*
D03*
X-1274000Y-857380D02*
D03*
Y-872620D02*
D03*
X-1286500Y-857380D02*
D03*
Y-872620D02*
D03*
X-1270000Y-1062380D02*
D03*
Y-1077620D02*
D03*
X-1255000Y-1062380D02*
D03*
Y-1077620D02*
D03*
X-1240000Y-1062380D02*
D03*
Y-1077620D02*
D03*
X-1290000Y-1062380D02*
D03*
Y-1077620D02*
D03*
X-1305000Y-1062380D02*
D03*
Y-1077620D02*
D03*
X-1320000Y-1062380D02*
D03*
Y-1077620D02*
D03*
X-1305000Y-1027620D02*
D03*
Y-1012380D02*
D03*
X-1255000D02*
D03*
Y-1027620D02*
D03*
X345000Y-281120D02*
D03*
Y-265880D02*
D03*
X1106500Y-649120D02*
D03*
Y-633880D02*
D03*
Y-686620D02*
D03*
Y-671380D02*
D03*
Y-724120D02*
D03*
Y-708880D02*
D03*
X1038000Y-688380D02*
D03*
Y-703620D02*
D03*
X-1285000Y-259620D02*
D03*
Y-244380D02*
D03*
X-1301000Y-290380D02*
D03*
Y-305620D02*
D03*
X-1314000Y-290380D02*
D03*
Y-305620D02*
D03*
X-1247250Y237620D02*
D03*
Y222380D02*
D03*
X-1232750Y69880D02*
D03*
Y85120D02*
D03*
X-1159000Y69880D02*
D03*
Y85120D02*
D03*
X-1195250Y237620D02*
D03*
Y222380D02*
D03*
X-1208750Y69880D02*
D03*
Y85120D02*
D03*
X-1173500Y237620D02*
D03*
Y222380D02*
D03*
X-1171000Y69880D02*
D03*
Y85120D02*
D03*
X-1121500Y237620D02*
D03*
Y222380D02*
D03*
X-1244750Y69880D02*
D03*
Y85120D02*
D03*
X-1135000Y69880D02*
D03*
Y85120D02*
D03*
X-1191063Y357380D02*
D03*
Y372620D02*
D03*
X-1220750Y85120D02*
D03*
Y69880D02*
D03*
X-1117313Y357380D02*
D03*
Y372620D02*
D03*
X-1147000Y85120D02*
D03*
Y69880D02*
D03*
X-1394750Y237620D02*
D03*
Y222380D02*
D03*
X-1380250Y69880D02*
D03*
Y85120D02*
D03*
X-1306500Y69880D02*
D03*
Y85120D02*
D03*
X-1342750Y237620D02*
D03*
Y222380D02*
D03*
X-1356250Y69880D02*
D03*
Y85120D02*
D03*
X-1321000Y237620D02*
D03*
Y222380D02*
D03*
X-1318500Y69880D02*
D03*
Y85120D02*
D03*
X-1269000Y237620D02*
D03*
Y222380D02*
D03*
X-1392250Y69880D02*
D03*
Y85120D02*
D03*
X-1282500Y69880D02*
D03*
Y85120D02*
D03*
X-1338563Y357380D02*
D03*
Y372620D02*
D03*
X-1368250Y85120D02*
D03*
Y69880D02*
D03*
X-1264813Y357380D02*
D03*
Y372620D02*
D03*
X-1294500Y85120D02*
D03*
Y69880D02*
D03*
X-704500Y85120D02*
D03*
Y69880D02*
D03*
X-674813Y357380D02*
D03*
Y372620D02*
D03*
X-778250Y85120D02*
D03*
Y69880D02*
D03*
X-748563Y357380D02*
D03*
Y372620D02*
D03*
X-692500Y69880D02*
D03*
Y85120D02*
D03*
X-802250Y69880D02*
D03*
Y85120D02*
D03*
X-679000Y237620D02*
D03*
Y222380D02*
D03*
X-728500Y69880D02*
D03*
Y85120D02*
D03*
X-731000Y237620D02*
D03*
Y222380D02*
D03*
X-766250Y69880D02*
D03*
Y85120D02*
D03*
X-752750Y237620D02*
D03*
Y222380D02*
D03*
X-716500Y69880D02*
D03*
Y85120D02*
D03*
X-790250Y69880D02*
D03*
Y85120D02*
D03*
X-804750Y237620D02*
D03*
Y222380D02*
D03*
X-557000Y85120D02*
D03*
Y69880D02*
D03*
X-527313Y357380D02*
D03*
Y372620D02*
D03*
X-630750Y85120D02*
D03*
Y69880D02*
D03*
X-601063Y357380D02*
D03*
Y372620D02*
D03*
X-545000Y69880D02*
D03*
Y85120D02*
D03*
X-654750Y69880D02*
D03*
Y85120D02*
D03*
X-531500Y237620D02*
D03*
Y222380D02*
D03*
X-581000Y69880D02*
D03*
Y85120D02*
D03*
X-583500Y237620D02*
D03*
Y222380D02*
D03*
X-618750Y69880D02*
D03*
Y85120D02*
D03*
X-605250Y237620D02*
D03*
Y222380D02*
D03*
X-569000Y69880D02*
D03*
Y85120D02*
D03*
X-642750Y69880D02*
D03*
Y85120D02*
D03*
X-657250Y237620D02*
D03*
Y222380D02*
D03*
X-409500Y85120D02*
D03*
Y69880D02*
D03*
X-379813Y357380D02*
D03*
Y372620D02*
D03*
X-483250Y85120D02*
D03*
Y69880D02*
D03*
X-453563Y357380D02*
D03*
Y372620D02*
D03*
X-397500Y69880D02*
D03*
Y85120D02*
D03*
X-507250Y69880D02*
D03*
Y85120D02*
D03*
X-384000Y237620D02*
D03*
Y222380D02*
D03*
X-433500Y69880D02*
D03*
Y85120D02*
D03*
X-436000Y237620D02*
D03*
Y222380D02*
D03*
X-471250Y69880D02*
D03*
Y85120D02*
D03*
X-457750Y237620D02*
D03*
Y222380D02*
D03*
X-421500Y69880D02*
D03*
Y85120D02*
D03*
X-495250Y69880D02*
D03*
Y85120D02*
D03*
X-509750Y237620D02*
D03*
Y222380D02*
D03*
X-262000Y85120D02*
D03*
Y69880D02*
D03*
X-232313Y357380D02*
D03*
Y372620D02*
D03*
X-335750Y85120D02*
D03*
Y69880D02*
D03*
X-306063Y357380D02*
D03*
Y372620D02*
D03*
X-250000Y69880D02*
D03*
Y85120D02*
D03*
X-359750Y69880D02*
D03*
Y85120D02*
D03*
X-236500Y237620D02*
D03*
Y222380D02*
D03*
X-286000Y69880D02*
D03*
Y85120D02*
D03*
X-288500Y237620D02*
D03*
Y222380D02*
D03*
X-323750Y69880D02*
D03*
Y85120D02*
D03*
X-310250Y237620D02*
D03*
Y222380D02*
D03*
X-274000Y69880D02*
D03*
Y85120D02*
D03*
X-347750Y69880D02*
D03*
Y85120D02*
D03*
X-362250Y237620D02*
D03*
Y222380D02*
D03*
X-114500Y85120D02*
D03*
Y69880D02*
D03*
X-84813Y357380D02*
D03*
Y372620D02*
D03*
X-188250Y85120D02*
D03*
Y69880D02*
D03*
X-158563Y357380D02*
D03*
Y372620D02*
D03*
X-102500Y69880D02*
D03*
Y85120D02*
D03*
X-212250Y69880D02*
D03*
Y85120D02*
D03*
X-89000Y237620D02*
D03*
Y222380D02*
D03*
X-138500Y69880D02*
D03*
Y85120D02*
D03*
X-141000Y237620D02*
D03*
Y222380D02*
D03*
X-176250Y69880D02*
D03*
Y85120D02*
D03*
X-162750Y237620D02*
D03*
Y222380D02*
D03*
X-126500Y69880D02*
D03*
Y85120D02*
D03*
X-200250Y69880D02*
D03*
Y85120D02*
D03*
X-214750Y237620D02*
D03*
Y222380D02*
D03*
X33000Y85120D02*
D03*
Y69880D02*
D03*
X62687Y357380D02*
D03*
Y372620D02*
D03*
X-40750Y85120D02*
D03*
Y69880D02*
D03*
X-11063Y357380D02*
D03*
Y372620D02*
D03*
X45000Y69880D02*
D03*
Y85120D02*
D03*
X-64750Y69880D02*
D03*
Y85120D02*
D03*
X58500Y237620D02*
D03*
Y222380D02*
D03*
X9000Y69880D02*
D03*
Y85120D02*
D03*
X6500Y237620D02*
D03*
Y222380D02*
D03*
X-28750Y69880D02*
D03*
Y85120D02*
D03*
X-15250Y237620D02*
D03*
Y222380D02*
D03*
X21000Y69880D02*
D03*
Y85120D02*
D03*
X-52750Y69880D02*
D03*
Y85120D02*
D03*
X-67250Y237620D02*
D03*
Y222380D02*
D03*
X180500Y85120D02*
D03*
Y69880D02*
D03*
X210187Y357380D02*
D03*
Y372620D02*
D03*
X106750Y85120D02*
D03*
Y69880D02*
D03*
X136437Y357380D02*
D03*
Y372620D02*
D03*
X192500Y69880D02*
D03*
Y85120D02*
D03*
X82750Y69880D02*
D03*
Y85120D02*
D03*
X206000Y237620D02*
D03*
Y222380D02*
D03*
X156500Y69880D02*
D03*
Y85120D02*
D03*
X154000Y237620D02*
D03*
Y222380D02*
D03*
X118750Y69880D02*
D03*
Y85120D02*
D03*
X132250Y237620D02*
D03*
Y222380D02*
D03*
X168500Y69880D02*
D03*
Y85120D02*
D03*
X94750Y69880D02*
D03*
Y85120D02*
D03*
X80250Y237620D02*
D03*
Y222380D02*
D03*
X328000Y85120D02*
D03*
Y69880D02*
D03*
X357687Y357380D02*
D03*
Y372620D02*
D03*
X254250Y85120D02*
D03*
Y69880D02*
D03*
X283937Y357380D02*
D03*
Y372620D02*
D03*
X340000Y69880D02*
D03*
Y85120D02*
D03*
X230250Y69880D02*
D03*
Y85120D02*
D03*
X353500Y237620D02*
D03*
Y222380D02*
D03*
X304000Y69880D02*
D03*
Y85120D02*
D03*
X301500Y237620D02*
D03*
Y222380D02*
D03*
X266250Y69880D02*
D03*
Y85120D02*
D03*
X279750Y237620D02*
D03*
Y222380D02*
D03*
X316000Y69880D02*
D03*
Y85120D02*
D03*
X242250Y69880D02*
D03*
Y85120D02*
D03*
X227750Y237620D02*
D03*
Y222380D02*
D03*
X475500Y85120D02*
D03*
Y69880D02*
D03*
X505187Y357380D02*
D03*
Y372620D02*
D03*
X401750Y85120D02*
D03*
Y69880D02*
D03*
X431437Y357380D02*
D03*
Y372620D02*
D03*
X487500Y69880D02*
D03*
Y85120D02*
D03*
X377750Y69880D02*
D03*
Y85120D02*
D03*
X501000Y237620D02*
D03*
Y222380D02*
D03*
X451500Y69880D02*
D03*
Y85120D02*
D03*
X449000Y237620D02*
D03*
Y222380D02*
D03*
X413750Y69880D02*
D03*
Y85120D02*
D03*
X427250Y237620D02*
D03*
Y222380D02*
D03*
X463500Y69880D02*
D03*
Y85120D02*
D03*
X389750Y69880D02*
D03*
Y85120D02*
D03*
X375250Y237620D02*
D03*
Y222380D02*
D03*
X623000Y85120D02*
D03*
Y69880D02*
D03*
X652687Y357380D02*
D03*
Y372620D02*
D03*
X549250Y85120D02*
D03*
Y69880D02*
D03*
X578937Y357380D02*
D03*
Y372620D02*
D03*
X635000Y69880D02*
D03*
Y85120D02*
D03*
X525250Y69880D02*
D03*
Y85120D02*
D03*
X648500Y237620D02*
D03*
Y222380D02*
D03*
X599000Y69880D02*
D03*
Y85120D02*
D03*
X596500Y237620D02*
D03*
Y222380D02*
D03*
X561250Y69880D02*
D03*
Y85120D02*
D03*
X574750Y237620D02*
D03*
Y222380D02*
D03*
X611000Y69880D02*
D03*
Y85120D02*
D03*
X537250Y69880D02*
D03*
Y85120D02*
D03*
X522750Y237620D02*
D03*
Y222380D02*
D03*
X-852000Y85120D02*
D03*
Y69880D02*
D03*
X-822313Y357380D02*
D03*
Y372620D02*
D03*
X-925750Y85120D02*
D03*
Y69880D02*
D03*
X-896063Y357380D02*
D03*
Y372620D02*
D03*
X-840000Y69880D02*
D03*
Y85120D02*
D03*
X-949750Y69880D02*
D03*
Y85120D02*
D03*
X-826500Y237620D02*
D03*
Y222380D02*
D03*
X-876000Y69880D02*
D03*
Y85120D02*
D03*
X-878500Y237620D02*
D03*
Y222380D02*
D03*
X-913750Y69880D02*
D03*
Y85120D02*
D03*
X-900250Y237620D02*
D03*
Y222380D02*
D03*
X-864000Y69880D02*
D03*
Y85120D02*
D03*
X-937750Y69880D02*
D03*
Y85120D02*
D03*
X-952250Y237620D02*
D03*
Y222380D02*
D03*
X770500Y85120D02*
D03*
Y69880D02*
D03*
X800187Y357380D02*
D03*
Y372620D02*
D03*
X696750Y85120D02*
D03*
Y69880D02*
D03*
X726437Y357380D02*
D03*
Y372620D02*
D03*
X782500Y69880D02*
D03*
Y85120D02*
D03*
X672750Y69880D02*
D03*
Y85120D02*
D03*
X796000Y237620D02*
D03*
Y222380D02*
D03*
X746500Y69880D02*
D03*
Y85120D02*
D03*
X744000Y237620D02*
D03*
Y222380D02*
D03*
X708750Y69880D02*
D03*
Y85120D02*
D03*
X722250Y237620D02*
D03*
Y222380D02*
D03*
X758500Y69880D02*
D03*
Y85120D02*
D03*
X684750Y69880D02*
D03*
Y85120D02*
D03*
X670250Y237620D02*
D03*
Y222380D02*
D03*
X918000Y85120D02*
D03*
Y69880D02*
D03*
X947687Y357380D02*
D03*
Y372620D02*
D03*
X844250Y85120D02*
D03*
Y69880D02*
D03*
X873937Y357380D02*
D03*
Y372620D02*
D03*
X930000Y69880D02*
D03*
Y85120D02*
D03*
X820250Y69880D02*
D03*
Y85120D02*
D03*
X943500Y237620D02*
D03*
Y222380D02*
D03*
X894000Y69880D02*
D03*
Y85120D02*
D03*
X891500Y237620D02*
D03*
Y222380D02*
D03*
X856250Y69880D02*
D03*
Y85120D02*
D03*
X869750Y237620D02*
D03*
Y222380D02*
D03*
X906000Y69880D02*
D03*
Y85120D02*
D03*
X832250Y69880D02*
D03*
Y85120D02*
D03*
X817750Y237620D02*
D03*
Y222380D02*
D03*
X-999500Y85120D02*
D03*
Y69880D02*
D03*
X-969813Y357380D02*
D03*
Y372620D02*
D03*
X-1073250Y85120D02*
D03*
Y69880D02*
D03*
X-1043563Y357380D02*
D03*
Y372620D02*
D03*
X-987500Y69880D02*
D03*
Y85120D02*
D03*
X-1097250Y69880D02*
D03*
Y85120D02*
D03*
X-974000Y237620D02*
D03*
Y222380D02*
D03*
X-1023500Y69880D02*
D03*
Y85120D02*
D03*
X-1026000Y237620D02*
D03*
Y222380D02*
D03*
X-1061250Y69880D02*
D03*
Y85120D02*
D03*
X-1047750Y237620D02*
D03*
Y222380D02*
D03*
X-1011500Y69880D02*
D03*
Y85120D02*
D03*
X-1085250Y69880D02*
D03*
Y85120D02*
D03*
X-1099750Y237620D02*
D03*
Y222380D02*
D03*
X1065500Y85120D02*
D03*
Y69880D02*
D03*
X1095187Y357380D02*
D03*
Y372620D02*
D03*
X991750Y85120D02*
D03*
Y69880D02*
D03*
X1021437Y357380D02*
D03*
Y372620D02*
D03*
X1077500Y69880D02*
D03*
Y85120D02*
D03*
X967750Y69880D02*
D03*
Y85120D02*
D03*
X1091000Y237620D02*
D03*
Y222380D02*
D03*
X1041500Y69880D02*
D03*
Y85120D02*
D03*
X1039000Y237620D02*
D03*
Y222380D02*
D03*
X1003750Y69880D02*
D03*
Y85120D02*
D03*
X1017250Y237620D02*
D03*
Y222380D02*
D03*
X1053500Y69880D02*
D03*
Y85120D02*
D03*
X979750Y69880D02*
D03*
Y85120D02*
D03*
X965250Y237620D02*
D03*
Y222380D02*
D03*
X1213000Y85120D02*
D03*
Y69880D02*
D03*
X1242687Y357380D02*
D03*
Y372620D02*
D03*
X1139250Y85120D02*
D03*
Y69880D02*
D03*
X1168937Y357380D02*
D03*
Y372620D02*
D03*
X1225000Y69880D02*
D03*
Y85120D02*
D03*
X1115250Y69880D02*
D03*
Y85120D02*
D03*
X1238500Y237620D02*
D03*
Y222380D02*
D03*
X1189000Y69880D02*
D03*
Y85120D02*
D03*
X1186500Y237620D02*
D03*
Y222380D02*
D03*
X1151250Y69880D02*
D03*
Y85120D02*
D03*
X1164750Y237620D02*
D03*
Y222380D02*
D03*
X1201000Y69880D02*
D03*
Y85120D02*
D03*
X1127250Y69880D02*
D03*
Y85120D02*
D03*
X1112750Y237620D02*
D03*
Y222380D02*
D03*
X1360500Y85120D02*
D03*
Y69880D02*
D03*
X1390187Y357380D02*
D03*
Y372620D02*
D03*
X1286750Y85120D02*
D03*
Y69880D02*
D03*
X1316437Y357380D02*
D03*
Y372620D02*
D03*
X1372500Y69880D02*
D03*
Y85120D02*
D03*
X1262750Y69880D02*
D03*
Y85120D02*
D03*
X1386000Y237620D02*
D03*
Y222380D02*
D03*
X1336500Y69880D02*
D03*
Y85120D02*
D03*
X1334000Y237620D02*
D03*
Y222380D02*
D03*
X1298750Y69880D02*
D03*
Y85120D02*
D03*
X1312250Y237620D02*
D03*
Y222380D02*
D03*
X1348500Y69880D02*
D03*
Y85120D02*
D03*
X1274750Y69880D02*
D03*
Y85120D02*
D03*
X1260250Y237620D02*
D03*
Y222380D02*
D03*
D146*
X1218000Y2065500D02*
D03*
Y2084500D02*
D03*
X1194000Y2075000D02*
D03*
X1122000Y-632000D02*
D03*
Y-651000D02*
D03*
X1146000Y-641500D02*
D03*
X1122000Y-669500D02*
D03*
Y-688500D02*
D03*
X1146000Y-679000D02*
D03*
X1122000Y-707000D02*
D03*
Y-726000D02*
D03*
X1146000Y-716500D02*
D03*
D147*
X-1262000Y-140240D02*
D03*
Y-109760D02*
D03*
X-1238000Y-140240D02*
D03*
Y-109760D02*
D03*
X-199500Y-288740D02*
D03*
Y-258260D02*
D03*
X-54500Y-288740D02*
D03*
Y-258260D02*
D03*
X220500Y-258260D02*
D03*
Y-288740D02*
D03*
X365500Y-258260D02*
D03*
Y-288740D02*
D03*
X-1238000Y-267240D02*
D03*
Y-236760D02*
D03*
X-1262000Y-267240D02*
D03*
Y-236760D02*
D03*
X-1194750Y312260D02*
D03*
Y342740D02*
D03*
X-1121000Y312260D02*
D03*
Y342740D02*
D03*
X-1342250Y312260D02*
D03*
Y342740D02*
D03*
X-1268500Y312260D02*
D03*
Y342740D02*
D03*
X-678500Y312260D02*
D03*
Y342740D02*
D03*
X-752250Y312260D02*
D03*
Y342740D02*
D03*
X-531000Y312260D02*
D03*
Y342740D02*
D03*
X-604750Y312260D02*
D03*
Y342740D02*
D03*
X-383500Y312260D02*
D03*
Y342740D02*
D03*
X-457250Y312260D02*
D03*
Y342740D02*
D03*
X-236000Y312260D02*
D03*
Y342740D02*
D03*
X-309750Y312260D02*
D03*
Y342740D02*
D03*
X-88500Y312260D02*
D03*
Y342740D02*
D03*
X-162250Y312260D02*
D03*
Y342740D02*
D03*
X59000Y312260D02*
D03*
Y342740D02*
D03*
X-14750Y312260D02*
D03*
Y342740D02*
D03*
X206500Y312260D02*
D03*
Y342740D02*
D03*
X132750Y312260D02*
D03*
Y342740D02*
D03*
X354000Y312260D02*
D03*
Y342740D02*
D03*
X280250Y312260D02*
D03*
Y342740D02*
D03*
X501500Y312260D02*
D03*
Y342740D02*
D03*
X427750Y312260D02*
D03*
Y342740D02*
D03*
X649000Y312260D02*
D03*
Y342740D02*
D03*
X575250Y312260D02*
D03*
Y342740D02*
D03*
X-826000Y312260D02*
D03*
Y342740D02*
D03*
X-899750Y312260D02*
D03*
Y342740D02*
D03*
X796500Y312260D02*
D03*
Y342740D02*
D03*
X722750Y312260D02*
D03*
Y342740D02*
D03*
X944000Y312260D02*
D03*
Y342740D02*
D03*
X870250Y312260D02*
D03*
Y342740D02*
D03*
X-973500Y312260D02*
D03*
Y342740D02*
D03*
X-1047250Y312260D02*
D03*
Y342740D02*
D03*
X1091500Y312260D02*
D03*
Y342740D02*
D03*
X1017750Y312260D02*
D03*
Y342740D02*
D03*
X1239000Y312260D02*
D03*
Y342740D02*
D03*
X1165250Y312260D02*
D03*
Y342740D02*
D03*
X1386500Y312260D02*
D03*
Y342740D02*
D03*
X1312750Y312260D02*
D03*
Y342740D02*
D03*
D148*
X-1462850Y-62000D02*
D03*
Y-135000D02*
D03*
X-1482150D02*
D03*
Y-62000D02*
D03*
D149*
X-1455000Y-76000D02*
D03*
Y-91000D02*
D03*
Y-121000D02*
D03*
D150*
X-1438000Y-193000D02*
D03*
Y-201000D02*
D03*
Y-249000D02*
D03*
Y-257000D02*
D03*
D151*
Y-207500D02*
D03*
Y-212500D02*
D03*
Y-217500D02*
D03*
Y-222500D02*
D03*
Y-227500D02*
D03*
Y-232500D02*
D03*
Y-237500D02*
D03*
Y-242500D02*
D03*
D152*
X-1330000Y-73000D02*
D03*
Y-157000D02*
D03*
X-348800Y-729500D02*
D03*
Y-645500D02*
D03*
X410000Y-404500D02*
D03*
Y-320500D02*
D03*
D153*
X-985000Y-885000D02*
D03*
Y-775000D02*
D03*
X-262500Y-417500D02*
D03*
Y-307500D02*
D03*
X7500D02*
D03*
Y-417500D02*
D03*
X157500Y-307500D02*
D03*
Y-417500D02*
D03*
D154*
X-892900Y-858050D02*
D03*
X-872100D02*
D03*
D155*
X-882500Y-820000D02*
D03*
D156*
X-36750Y-128750D02*
D03*
X-149250D02*
D03*
X200750D02*
D03*
X313250D02*
D03*
D157*
X-165000Y-221500D02*
D03*
X255000Y-221500D02*
D03*
D158*
X-126950Y-211100D02*
D03*
Y-231900D02*
D03*
X293050Y-231900D02*
D03*
Y-211100D02*
D03*
D159*
X-94000Y-275250D02*
D03*
X-111000D02*
D03*
X-162000D02*
D03*
X-128000D02*
D03*
X-145000D02*
D03*
X275000D02*
D03*
X292000D02*
D03*
X258000D02*
D03*
X309000D02*
D03*
X326000D02*
D03*
D160*
X-128000Y-366250D02*
D03*
X292000D02*
D03*
D161*
X8000Y-235050D02*
D03*
X62000Y-222350D02*
D03*
Y-196950D02*
D03*
X8000Y-222350D02*
D03*
Y-209650D02*
D03*
Y-196950D02*
D03*
X62000Y-235050D02*
D03*
Y-209650D02*
D03*
D162*
X992000Y-505000D02*
D03*
Y-500000D02*
D03*
Y-495000D02*
D03*
Y-490000D02*
D03*
Y-485000D02*
D03*
Y-480000D02*
D03*
Y-475000D02*
D03*
Y-470000D02*
D03*
Y-465000D02*
D03*
Y-460000D02*
D03*
Y-430000D02*
D03*
Y-450000D02*
D03*
Y-455000D02*
D03*
Y-445000D02*
D03*
Y-390000D02*
D03*
Y-440000D02*
D03*
Y-435000D02*
D03*
Y-425000D02*
D03*
Y-420000D02*
D03*
Y-415000D02*
D03*
Y-410000D02*
D03*
Y-405000D02*
D03*
Y-400000D02*
D03*
Y-395000D02*
D03*
Y-385000D02*
D03*
X948000Y-505000D02*
D03*
Y-500000D02*
D03*
Y-495000D02*
D03*
Y-490000D02*
D03*
Y-485000D02*
D03*
Y-480000D02*
D03*
Y-475000D02*
D03*
Y-470000D02*
D03*
Y-465000D02*
D03*
Y-460000D02*
D03*
Y-430000D02*
D03*
Y-450000D02*
D03*
Y-455000D02*
D03*
Y-445000D02*
D03*
Y-390000D02*
D03*
Y-440000D02*
D03*
Y-435000D02*
D03*
Y-425000D02*
D03*
Y-420000D02*
D03*
Y-415000D02*
D03*
Y-410000D02*
D03*
Y-405000D02*
D03*
Y-400000D02*
D03*
Y-395000D02*
D03*
Y-385000D02*
D03*
X632000Y-545000D02*
D03*
Y-540000D02*
D03*
Y-535000D02*
D03*
Y-530000D02*
D03*
Y-525000D02*
D03*
Y-520000D02*
D03*
Y-515000D02*
D03*
Y-510000D02*
D03*
Y-505000D02*
D03*
Y-500000D02*
D03*
Y-470000D02*
D03*
Y-490000D02*
D03*
Y-495000D02*
D03*
Y-485000D02*
D03*
Y-430000D02*
D03*
Y-480000D02*
D03*
Y-475000D02*
D03*
Y-465000D02*
D03*
Y-460000D02*
D03*
Y-455000D02*
D03*
Y-450000D02*
D03*
Y-445000D02*
D03*
Y-440000D02*
D03*
Y-435000D02*
D03*
Y-425000D02*
D03*
X588000Y-545000D02*
D03*
Y-540000D02*
D03*
Y-535000D02*
D03*
Y-530000D02*
D03*
Y-525000D02*
D03*
Y-520000D02*
D03*
Y-515000D02*
D03*
Y-510000D02*
D03*
Y-505000D02*
D03*
Y-500000D02*
D03*
Y-470000D02*
D03*
Y-490000D02*
D03*
Y-495000D02*
D03*
Y-485000D02*
D03*
Y-430000D02*
D03*
Y-480000D02*
D03*
Y-475000D02*
D03*
Y-465000D02*
D03*
Y-460000D02*
D03*
Y-455000D02*
D03*
Y-450000D02*
D03*
Y-445000D02*
D03*
Y-440000D02*
D03*
Y-435000D02*
D03*
Y-425000D02*
D03*
X632000Y-290000D02*
D03*
Y-285000D02*
D03*
Y-280000D02*
D03*
Y-275000D02*
D03*
Y-270000D02*
D03*
Y-265000D02*
D03*
Y-260000D02*
D03*
Y-255000D02*
D03*
Y-250000D02*
D03*
Y-245000D02*
D03*
Y-215000D02*
D03*
Y-235000D02*
D03*
Y-240000D02*
D03*
Y-230000D02*
D03*
Y-175000D02*
D03*
Y-225000D02*
D03*
Y-220000D02*
D03*
Y-210000D02*
D03*
Y-205000D02*
D03*
Y-200000D02*
D03*
Y-195000D02*
D03*
Y-190000D02*
D03*
Y-185000D02*
D03*
Y-180000D02*
D03*
Y-170000D02*
D03*
X588000Y-290000D02*
D03*
Y-285000D02*
D03*
Y-280000D02*
D03*
Y-275000D02*
D03*
Y-270000D02*
D03*
Y-265000D02*
D03*
Y-260000D02*
D03*
Y-255000D02*
D03*
Y-250000D02*
D03*
Y-245000D02*
D03*
Y-215000D02*
D03*
Y-235000D02*
D03*
Y-240000D02*
D03*
Y-230000D02*
D03*
Y-175000D02*
D03*
Y-225000D02*
D03*
Y-220000D02*
D03*
Y-210000D02*
D03*
Y-205000D02*
D03*
Y-200000D02*
D03*
Y-195000D02*
D03*
Y-190000D02*
D03*
Y-185000D02*
D03*
Y-180000D02*
D03*
Y-170000D02*
D03*
X992000Y-290000D02*
D03*
Y-285000D02*
D03*
Y-280000D02*
D03*
Y-275000D02*
D03*
Y-270000D02*
D03*
Y-265000D02*
D03*
Y-260000D02*
D03*
Y-255000D02*
D03*
Y-250000D02*
D03*
Y-245000D02*
D03*
Y-215000D02*
D03*
Y-235000D02*
D03*
Y-240000D02*
D03*
Y-230000D02*
D03*
Y-175000D02*
D03*
Y-225000D02*
D03*
Y-220000D02*
D03*
Y-210000D02*
D03*
Y-205000D02*
D03*
Y-200000D02*
D03*
Y-195000D02*
D03*
Y-190000D02*
D03*
Y-185000D02*
D03*
Y-180000D02*
D03*
Y-170000D02*
D03*
X948000Y-290000D02*
D03*
Y-285000D02*
D03*
Y-280000D02*
D03*
Y-275000D02*
D03*
Y-270000D02*
D03*
Y-265000D02*
D03*
Y-260000D02*
D03*
Y-255000D02*
D03*
Y-250000D02*
D03*
Y-245000D02*
D03*
Y-215000D02*
D03*
Y-235000D02*
D03*
Y-240000D02*
D03*
Y-230000D02*
D03*
Y-175000D02*
D03*
Y-225000D02*
D03*
Y-220000D02*
D03*
Y-210000D02*
D03*
Y-205000D02*
D03*
Y-200000D02*
D03*
Y-195000D02*
D03*
Y-190000D02*
D03*
Y-185000D02*
D03*
Y-180000D02*
D03*
Y-170000D02*
D03*
X1112000Y-290000D02*
D03*
Y-285000D02*
D03*
Y-280000D02*
D03*
Y-275000D02*
D03*
Y-270000D02*
D03*
Y-265000D02*
D03*
Y-260000D02*
D03*
Y-255000D02*
D03*
Y-250000D02*
D03*
Y-245000D02*
D03*
Y-215000D02*
D03*
Y-235000D02*
D03*
Y-240000D02*
D03*
Y-230000D02*
D03*
Y-175000D02*
D03*
Y-225000D02*
D03*
Y-220000D02*
D03*
Y-210000D02*
D03*
Y-205000D02*
D03*
Y-200000D02*
D03*
Y-195000D02*
D03*
Y-190000D02*
D03*
Y-185000D02*
D03*
Y-180000D02*
D03*
Y-170000D02*
D03*
X1068000Y-290000D02*
D03*
Y-285000D02*
D03*
Y-280000D02*
D03*
Y-275000D02*
D03*
Y-270000D02*
D03*
Y-265000D02*
D03*
Y-260000D02*
D03*
Y-255000D02*
D03*
Y-250000D02*
D03*
Y-245000D02*
D03*
Y-215000D02*
D03*
Y-235000D02*
D03*
Y-240000D02*
D03*
Y-230000D02*
D03*
Y-175000D02*
D03*
Y-225000D02*
D03*
Y-220000D02*
D03*
Y-210000D02*
D03*
Y-205000D02*
D03*
Y-200000D02*
D03*
Y-195000D02*
D03*
Y-190000D02*
D03*
Y-185000D02*
D03*
Y-180000D02*
D03*
Y-170000D02*
D03*
X1112000Y-545000D02*
D03*
Y-540000D02*
D03*
Y-535000D02*
D03*
Y-530000D02*
D03*
Y-525000D02*
D03*
Y-520000D02*
D03*
Y-515000D02*
D03*
Y-510000D02*
D03*
Y-505000D02*
D03*
Y-500000D02*
D03*
Y-470000D02*
D03*
Y-490000D02*
D03*
Y-495000D02*
D03*
Y-485000D02*
D03*
Y-430000D02*
D03*
Y-480000D02*
D03*
Y-475000D02*
D03*
Y-465000D02*
D03*
Y-460000D02*
D03*
Y-455000D02*
D03*
Y-450000D02*
D03*
Y-445000D02*
D03*
Y-440000D02*
D03*
Y-435000D02*
D03*
Y-425000D02*
D03*
X1068000Y-545000D02*
D03*
Y-540000D02*
D03*
Y-535000D02*
D03*
Y-530000D02*
D03*
Y-525000D02*
D03*
Y-520000D02*
D03*
Y-515000D02*
D03*
Y-510000D02*
D03*
Y-505000D02*
D03*
Y-500000D02*
D03*
Y-470000D02*
D03*
Y-490000D02*
D03*
Y-495000D02*
D03*
Y-485000D02*
D03*
Y-430000D02*
D03*
Y-480000D02*
D03*
Y-475000D02*
D03*
Y-465000D02*
D03*
Y-460000D02*
D03*
Y-455000D02*
D03*
Y-450000D02*
D03*
Y-445000D02*
D03*
Y-440000D02*
D03*
Y-435000D02*
D03*
Y-425000D02*
D03*
X1472000Y-505000D02*
D03*
Y-500000D02*
D03*
Y-495000D02*
D03*
Y-490000D02*
D03*
Y-485000D02*
D03*
Y-480000D02*
D03*
Y-475000D02*
D03*
Y-470000D02*
D03*
Y-465000D02*
D03*
Y-460000D02*
D03*
Y-430000D02*
D03*
Y-450000D02*
D03*
Y-455000D02*
D03*
Y-445000D02*
D03*
Y-390000D02*
D03*
Y-440000D02*
D03*
Y-435000D02*
D03*
Y-425000D02*
D03*
Y-420000D02*
D03*
Y-415000D02*
D03*
Y-410000D02*
D03*
Y-405000D02*
D03*
Y-400000D02*
D03*
Y-395000D02*
D03*
Y-385000D02*
D03*
X1428000Y-505000D02*
D03*
Y-500000D02*
D03*
Y-495000D02*
D03*
Y-490000D02*
D03*
Y-485000D02*
D03*
Y-480000D02*
D03*
Y-475000D02*
D03*
Y-470000D02*
D03*
Y-465000D02*
D03*
Y-460000D02*
D03*
Y-430000D02*
D03*
Y-450000D02*
D03*
Y-455000D02*
D03*
Y-445000D02*
D03*
Y-390000D02*
D03*
Y-440000D02*
D03*
Y-435000D02*
D03*
Y-425000D02*
D03*
Y-420000D02*
D03*
Y-415000D02*
D03*
Y-410000D02*
D03*
Y-405000D02*
D03*
Y-400000D02*
D03*
Y-395000D02*
D03*
Y-385000D02*
D03*
X1472000Y-290000D02*
D03*
Y-285000D02*
D03*
Y-280000D02*
D03*
Y-275000D02*
D03*
Y-270000D02*
D03*
Y-265000D02*
D03*
Y-260000D02*
D03*
Y-255000D02*
D03*
Y-250000D02*
D03*
Y-245000D02*
D03*
Y-215000D02*
D03*
Y-235000D02*
D03*
Y-240000D02*
D03*
Y-230000D02*
D03*
Y-175000D02*
D03*
Y-225000D02*
D03*
Y-220000D02*
D03*
Y-210000D02*
D03*
Y-205000D02*
D03*
Y-200000D02*
D03*
Y-195000D02*
D03*
Y-190000D02*
D03*
Y-185000D02*
D03*
Y-180000D02*
D03*
Y-170000D02*
D03*
X1428000Y-290000D02*
D03*
Y-285000D02*
D03*
Y-280000D02*
D03*
Y-275000D02*
D03*
Y-270000D02*
D03*
Y-265000D02*
D03*
Y-260000D02*
D03*
Y-255000D02*
D03*
Y-250000D02*
D03*
Y-245000D02*
D03*
Y-215000D02*
D03*
Y-235000D02*
D03*
Y-240000D02*
D03*
Y-230000D02*
D03*
Y-175000D02*
D03*
Y-225000D02*
D03*
Y-220000D02*
D03*
Y-210000D02*
D03*
Y-205000D02*
D03*
Y-200000D02*
D03*
Y-195000D02*
D03*
Y-190000D02*
D03*
Y-185000D02*
D03*
Y-180000D02*
D03*
Y-170000D02*
D03*
D163*
X1051250Y-656000D02*
D03*
X1076750D02*
D03*
Y-642000D02*
D03*
X1051250D02*
D03*
D164*
X1060000Y-656000D02*
D03*
X1068000D02*
D03*
Y-642000D02*
D03*
X1060000D02*
D03*
D165*
X-1335000Y-480240D02*
D03*
Y-449760D02*
D03*
D166*
X-1270500Y-368000D02*
D03*
X-1285500D02*
D03*
D167*
X-1201635Y487500D02*
D03*
X-1232115D02*
D03*
X1305865D02*
D03*
X1275385D02*
D03*
X-1235803Y365000D02*
D03*
X-1205322D02*
D03*
X-1162053D02*
D03*
X-1131572D02*
D03*
X-1383302D02*
D03*
X-1352823D02*
D03*
X-1379615Y487500D02*
D03*
X-1349135D02*
D03*
X-1309552Y365000D02*
D03*
X-1279072D02*
D03*
X-719553D02*
D03*
X-689072D02*
D03*
X-789615Y487500D02*
D03*
X-759135D02*
D03*
X-793303Y365000D02*
D03*
X-762822D02*
D03*
X-572052D02*
D03*
X-541572D02*
D03*
X-642115Y487500D02*
D03*
X-611635D02*
D03*
X-645803Y365000D02*
D03*
X-615322D02*
D03*
X-424552D02*
D03*
X-394072D02*
D03*
X-494615Y487500D02*
D03*
X-464135D02*
D03*
X-498302Y365000D02*
D03*
X-467822D02*
D03*
X-277052D02*
D03*
X-246572D02*
D03*
X-347115Y487500D02*
D03*
X-316635D02*
D03*
X-350802Y365000D02*
D03*
X-320322D02*
D03*
X-129552D02*
D03*
X-99073D02*
D03*
X-199615Y487500D02*
D03*
X-169135D02*
D03*
X-203302Y365000D02*
D03*
X-172822D02*
D03*
X17947D02*
D03*
X48428D02*
D03*
X-52115Y487500D02*
D03*
X-21635D02*
D03*
X-55802Y365000D02*
D03*
X-25322D02*
D03*
X165448D02*
D03*
X195928D02*
D03*
X95385Y487500D02*
D03*
X125865D02*
D03*
X91698Y365000D02*
D03*
X122177D02*
D03*
X312948D02*
D03*
X343428D02*
D03*
X242885Y487500D02*
D03*
X273365D02*
D03*
X239198Y365000D02*
D03*
X269678D02*
D03*
X460448D02*
D03*
X490928D02*
D03*
X390385Y487500D02*
D03*
X420865D02*
D03*
X386698Y365000D02*
D03*
X417178D02*
D03*
X607948D02*
D03*
X638428D02*
D03*
X537885Y487500D02*
D03*
X568365D02*
D03*
X534198Y365000D02*
D03*
X564678D02*
D03*
X-867053D02*
D03*
X-836572D02*
D03*
X-937115Y487500D02*
D03*
X-906635D02*
D03*
X-940803Y365000D02*
D03*
X-910322D02*
D03*
X755447D02*
D03*
X785928D02*
D03*
X685385Y487500D02*
D03*
X715865D02*
D03*
X681697Y365000D02*
D03*
X712178D02*
D03*
X902947D02*
D03*
X933428D02*
D03*
X832885Y487500D02*
D03*
X863365D02*
D03*
X829197Y365000D02*
D03*
X859678D02*
D03*
X-1014553D02*
D03*
X-984072D02*
D03*
X-1084615Y487500D02*
D03*
X-1054135D02*
D03*
X-1088303Y365000D02*
D03*
X-1057822D02*
D03*
X1050447D02*
D03*
X1080928D02*
D03*
X980385Y487500D02*
D03*
X1010865D02*
D03*
X976697Y365000D02*
D03*
X1007178D02*
D03*
X1197947D02*
D03*
X1228428D02*
D03*
X1127885Y487500D02*
D03*
X1158365D02*
D03*
X1124197Y365000D02*
D03*
X1154678D02*
D03*
X1345448D02*
D03*
X1375927D02*
D03*
X1271697D02*
D03*
X1302177D02*
D03*
D168*
X-1235925Y174505D02*
D03*
X-1223225Y120505D02*
D03*
X-1197825D02*
D03*
X-1223225Y174505D02*
D03*
X-1210525D02*
D03*
X-1197825D02*
D03*
X-1235925Y120505D02*
D03*
X-1210525D02*
D03*
X-1162175Y174505D02*
D03*
X-1149475Y120505D02*
D03*
X-1124075D02*
D03*
X-1149475Y174505D02*
D03*
X-1136775D02*
D03*
X-1124075D02*
D03*
X-1162175Y120505D02*
D03*
X-1136775D02*
D03*
X-1383425Y174505D02*
D03*
X-1370725Y120505D02*
D03*
X-1345325D02*
D03*
X-1370725Y174505D02*
D03*
X-1358025D02*
D03*
X-1345325D02*
D03*
X-1383425Y120505D02*
D03*
X-1358025D02*
D03*
X-1309675Y174505D02*
D03*
X-1296975Y120505D02*
D03*
X-1271575D02*
D03*
X-1296975Y174505D02*
D03*
X-1284275D02*
D03*
X-1271575D02*
D03*
X-1309675Y120505D02*
D03*
X-1284275D02*
D03*
X-719675Y174505D02*
D03*
X-706975Y120505D02*
D03*
X-681575D02*
D03*
X-706975Y174505D02*
D03*
X-694275D02*
D03*
X-681575D02*
D03*
X-719675Y120505D02*
D03*
X-694275D02*
D03*
X-793425Y174505D02*
D03*
X-780725Y120505D02*
D03*
X-755325D02*
D03*
X-780725Y174505D02*
D03*
X-768025D02*
D03*
X-755325D02*
D03*
X-793425Y120505D02*
D03*
X-768025D02*
D03*
X-572175Y174505D02*
D03*
X-559475Y120505D02*
D03*
X-534075D02*
D03*
X-559475Y174505D02*
D03*
X-546775D02*
D03*
X-534075D02*
D03*
X-572175Y120505D02*
D03*
X-546775D02*
D03*
X-645925Y174505D02*
D03*
X-633225Y120505D02*
D03*
X-607825D02*
D03*
X-633225Y174505D02*
D03*
X-620525D02*
D03*
X-607825D02*
D03*
X-645925Y120505D02*
D03*
X-620525D02*
D03*
X-424675Y174505D02*
D03*
X-411975Y120505D02*
D03*
X-386575D02*
D03*
X-411975Y174505D02*
D03*
X-399275D02*
D03*
X-386575D02*
D03*
X-424675Y120505D02*
D03*
X-399275D02*
D03*
X-498425Y174505D02*
D03*
X-485725Y120505D02*
D03*
X-460325D02*
D03*
X-485725Y174505D02*
D03*
X-473025D02*
D03*
X-460325D02*
D03*
X-498425Y120505D02*
D03*
X-473025D02*
D03*
X-277175Y174505D02*
D03*
X-264475Y120505D02*
D03*
X-239075D02*
D03*
X-264475Y174505D02*
D03*
X-251775D02*
D03*
X-239075D02*
D03*
X-277175Y120505D02*
D03*
X-251775D02*
D03*
X-350925Y174505D02*
D03*
X-338225Y120505D02*
D03*
X-312825D02*
D03*
X-338225Y174505D02*
D03*
X-325525D02*
D03*
X-312825D02*
D03*
X-350925Y120505D02*
D03*
X-325525D02*
D03*
X-129675Y174505D02*
D03*
X-116975Y120505D02*
D03*
X-91575D02*
D03*
X-116975Y174505D02*
D03*
X-104275D02*
D03*
X-91575D02*
D03*
X-129675Y120505D02*
D03*
X-104275D02*
D03*
X-203425Y174505D02*
D03*
X-190725Y120505D02*
D03*
X-165325D02*
D03*
X-190725Y174505D02*
D03*
X-178025D02*
D03*
X-165325D02*
D03*
X-203425Y120505D02*
D03*
X-178025D02*
D03*
X17825Y174505D02*
D03*
X30525Y120505D02*
D03*
X55925D02*
D03*
X30525Y174505D02*
D03*
X43225D02*
D03*
X55925D02*
D03*
X17825Y120505D02*
D03*
X43225D02*
D03*
X-55925Y174505D02*
D03*
X-43225Y120505D02*
D03*
X-17825D02*
D03*
X-43225Y174505D02*
D03*
X-30525D02*
D03*
X-17825D02*
D03*
X-55925Y120505D02*
D03*
X-30525D02*
D03*
X165325Y174505D02*
D03*
X178025Y120505D02*
D03*
X203425D02*
D03*
X178025Y174505D02*
D03*
X190725D02*
D03*
X203425D02*
D03*
X165325Y120505D02*
D03*
X190725D02*
D03*
X91575Y174505D02*
D03*
X104275Y120505D02*
D03*
X129675D02*
D03*
X104275Y174505D02*
D03*
X116975D02*
D03*
X129675D02*
D03*
X91575Y120505D02*
D03*
X116975D02*
D03*
X312825Y174505D02*
D03*
X325525Y120505D02*
D03*
X350925D02*
D03*
X325525Y174505D02*
D03*
X338225D02*
D03*
X350925D02*
D03*
X312825Y120505D02*
D03*
X338225D02*
D03*
X239075Y174505D02*
D03*
X251775Y120505D02*
D03*
X277175D02*
D03*
X251775Y174505D02*
D03*
X264475D02*
D03*
X277175D02*
D03*
X239075Y120505D02*
D03*
X264475D02*
D03*
X460325Y174505D02*
D03*
X473025Y120505D02*
D03*
X498425D02*
D03*
X473025Y174505D02*
D03*
X485725D02*
D03*
X498425D02*
D03*
X460325Y120505D02*
D03*
X485725D02*
D03*
X386575Y174505D02*
D03*
X399275Y120505D02*
D03*
X424675D02*
D03*
X399275Y174505D02*
D03*
X411975D02*
D03*
X424675D02*
D03*
X386575Y120505D02*
D03*
X411975D02*
D03*
X607825Y174505D02*
D03*
X620525Y120505D02*
D03*
X645925D02*
D03*
X620525Y174505D02*
D03*
X633225D02*
D03*
X645925D02*
D03*
X607825Y120505D02*
D03*
X633225D02*
D03*
X534075Y174505D02*
D03*
X546775Y120505D02*
D03*
X572175D02*
D03*
X546775Y174505D02*
D03*
X559475D02*
D03*
X572175D02*
D03*
X534075Y120505D02*
D03*
X559475D02*
D03*
X-867175Y174505D02*
D03*
X-854475Y120505D02*
D03*
X-829075D02*
D03*
X-854475Y174505D02*
D03*
X-841775D02*
D03*
X-829075D02*
D03*
X-867175Y120505D02*
D03*
X-841775D02*
D03*
X-940925Y174505D02*
D03*
X-928225Y120505D02*
D03*
X-902825D02*
D03*
X-928225Y174505D02*
D03*
X-915525D02*
D03*
X-902825D02*
D03*
X-940925Y120505D02*
D03*
X-915525D02*
D03*
X755325Y174505D02*
D03*
X768025Y120505D02*
D03*
X793425D02*
D03*
X768025Y174505D02*
D03*
X780725D02*
D03*
X793425D02*
D03*
X755325Y120505D02*
D03*
X780725D02*
D03*
X681575Y174505D02*
D03*
X694275Y120505D02*
D03*
X719675D02*
D03*
X694275Y174505D02*
D03*
X706975D02*
D03*
X719675D02*
D03*
X681575Y120505D02*
D03*
X706975D02*
D03*
X902825Y174505D02*
D03*
X915525Y120505D02*
D03*
X940925D02*
D03*
X915525Y174505D02*
D03*
X928225D02*
D03*
X940925D02*
D03*
X902825Y120505D02*
D03*
X928225D02*
D03*
X829075Y174505D02*
D03*
X841775Y120505D02*
D03*
X867175D02*
D03*
X841775Y174505D02*
D03*
X854475D02*
D03*
X867175D02*
D03*
X829075Y120505D02*
D03*
X854475D02*
D03*
X-1014675Y174505D02*
D03*
X-1001975Y120505D02*
D03*
X-976575D02*
D03*
X-1001975Y174505D02*
D03*
X-989275D02*
D03*
X-976575D02*
D03*
X-1014675Y120505D02*
D03*
X-989275D02*
D03*
X-1088425Y174505D02*
D03*
X-1075725Y120505D02*
D03*
X-1050325D02*
D03*
X-1075725Y174505D02*
D03*
X-1063025D02*
D03*
X-1050325D02*
D03*
X-1088425Y120505D02*
D03*
X-1063025D02*
D03*
X1050325Y174505D02*
D03*
X1063025Y120505D02*
D03*
X1088425D02*
D03*
X1063025Y174505D02*
D03*
X1075725D02*
D03*
X1088425D02*
D03*
X1050325Y120505D02*
D03*
X1075725D02*
D03*
X976575Y174505D02*
D03*
X989275Y120505D02*
D03*
X1014675D02*
D03*
X989275Y174505D02*
D03*
X1001975D02*
D03*
X1014675D02*
D03*
X976575Y120505D02*
D03*
X1001975D02*
D03*
X1197825Y174505D02*
D03*
X1210525Y120505D02*
D03*
X1235925D02*
D03*
X1210525Y174505D02*
D03*
X1223225D02*
D03*
X1235925D02*
D03*
X1197825Y120505D02*
D03*
X1223225D02*
D03*
X1124075Y174505D02*
D03*
X1136775Y120505D02*
D03*
X1162175D02*
D03*
X1136775Y174505D02*
D03*
X1149475D02*
D03*
X1162175D02*
D03*
X1124075Y120505D02*
D03*
X1149475D02*
D03*
X1345325Y174505D02*
D03*
X1358025Y120505D02*
D03*
X1383425D02*
D03*
X1358025Y174505D02*
D03*
X1370725D02*
D03*
X1383425D02*
D03*
X1345325Y120505D02*
D03*
X1370725D02*
D03*
X1271575Y174505D02*
D03*
X1284275Y120505D02*
D03*
X1309675D02*
D03*
X1284275Y174505D02*
D03*
X1296975D02*
D03*
X1309675D02*
D03*
X1271575Y120505D02*
D03*
X1296975D02*
D03*
D169*
X-1235313Y294500D02*
D03*
X-1225813Y270500D02*
D03*
X-1244813D02*
D03*
X-1198438Y294500D02*
D03*
X-1188938Y270500D02*
D03*
X-1207938D02*
D03*
X-1161563Y294500D02*
D03*
X-1152063Y270500D02*
D03*
X-1171063D02*
D03*
X-1124688Y294500D02*
D03*
X-1115188Y270500D02*
D03*
X-1134188D02*
D03*
X-1382813Y294500D02*
D03*
X-1373313Y270500D02*
D03*
X-1392313D02*
D03*
X-1345938Y294500D02*
D03*
X-1336438Y270500D02*
D03*
X-1355438D02*
D03*
X-1309063Y294500D02*
D03*
X-1299563Y270500D02*
D03*
X-1318563D02*
D03*
X-1272188Y294500D02*
D03*
X-1262688Y270500D02*
D03*
X-1281688D02*
D03*
X-682188Y294500D02*
D03*
X-672688Y270500D02*
D03*
X-691688D02*
D03*
X-719063Y294500D02*
D03*
X-709563Y270500D02*
D03*
X-728563D02*
D03*
X-755938Y294500D02*
D03*
X-746438Y270500D02*
D03*
X-765438D02*
D03*
X-792813Y294500D02*
D03*
X-783313Y270500D02*
D03*
X-802313D02*
D03*
X-534688Y294500D02*
D03*
X-525187Y270500D02*
D03*
X-544188D02*
D03*
X-571563Y294500D02*
D03*
X-562062Y270500D02*
D03*
X-581063D02*
D03*
X-608438Y294500D02*
D03*
X-598937Y270500D02*
D03*
X-617938D02*
D03*
X-645313Y294500D02*
D03*
X-635812Y270500D02*
D03*
X-654813D02*
D03*
X-387188Y294500D02*
D03*
X-377687Y270500D02*
D03*
X-396688D02*
D03*
X-424063Y294500D02*
D03*
X-414562Y270500D02*
D03*
X-433563D02*
D03*
X-460938Y294500D02*
D03*
X-451437Y270500D02*
D03*
X-470438D02*
D03*
X-497813Y294500D02*
D03*
X-488312Y270500D02*
D03*
X-507313D02*
D03*
X-239688Y294500D02*
D03*
X-230187Y270500D02*
D03*
X-249188D02*
D03*
X-276563Y294500D02*
D03*
X-267062Y270500D02*
D03*
X-286063D02*
D03*
X-313438Y294500D02*
D03*
X-303937Y270500D02*
D03*
X-322938D02*
D03*
X-350313Y294500D02*
D03*
X-340812Y270500D02*
D03*
X-359813D02*
D03*
X-92188Y294500D02*
D03*
X-82688Y270500D02*
D03*
X-101688D02*
D03*
X-129063Y294500D02*
D03*
X-119563Y270500D02*
D03*
X-138563D02*
D03*
X-165938Y294500D02*
D03*
X-156438Y270500D02*
D03*
X-175438D02*
D03*
X-202813Y294500D02*
D03*
X-193312Y270500D02*
D03*
X-212313D02*
D03*
X55312Y294500D02*
D03*
X64812Y270500D02*
D03*
X45812D02*
D03*
X18437Y294500D02*
D03*
X27938Y270500D02*
D03*
X8937D02*
D03*
X-18438Y294500D02*
D03*
X-8938Y270500D02*
D03*
X-27938D02*
D03*
X-55313Y294500D02*
D03*
X-45813Y270500D02*
D03*
X-64813D02*
D03*
X202812Y294500D02*
D03*
X212313Y270500D02*
D03*
X193312D02*
D03*
X165937Y294500D02*
D03*
X175438Y270500D02*
D03*
X156437D02*
D03*
X129062Y294500D02*
D03*
X138562Y270500D02*
D03*
X119562D02*
D03*
X92187Y294500D02*
D03*
X101687Y270500D02*
D03*
X82687D02*
D03*
X350312Y294500D02*
D03*
X359813Y270500D02*
D03*
X340812D02*
D03*
X313437Y294500D02*
D03*
X322938Y270500D02*
D03*
X303937D02*
D03*
X276562Y294500D02*
D03*
X286063Y270500D02*
D03*
X267062D02*
D03*
X239687Y294500D02*
D03*
X249188Y270500D02*
D03*
X230187D02*
D03*
X497812Y294500D02*
D03*
X507313Y270500D02*
D03*
X488312D02*
D03*
X460937Y294500D02*
D03*
X470438Y270500D02*
D03*
X451437D02*
D03*
X424062Y294500D02*
D03*
X433563Y270500D02*
D03*
X414562D02*
D03*
X387187Y294500D02*
D03*
X396688Y270500D02*
D03*
X377687D02*
D03*
X645312Y294500D02*
D03*
X654812Y270500D02*
D03*
X635812D02*
D03*
X608437Y294500D02*
D03*
X617938Y270500D02*
D03*
X598937D02*
D03*
X571562Y294500D02*
D03*
X581063Y270500D02*
D03*
X562062D02*
D03*
X534687Y294500D02*
D03*
X544188Y270500D02*
D03*
X525187D02*
D03*
X-829688Y294500D02*
D03*
X-820188Y270500D02*
D03*
X-839188D02*
D03*
X-866563Y294500D02*
D03*
X-857063Y270500D02*
D03*
X-876063D02*
D03*
X-903438Y294500D02*
D03*
X-893938Y270500D02*
D03*
X-912938D02*
D03*
X-940313Y294500D02*
D03*
X-930813Y270500D02*
D03*
X-949813D02*
D03*
X792812Y294500D02*
D03*
X802312Y270500D02*
D03*
X783312D02*
D03*
X755937Y294500D02*
D03*
X765437Y270500D02*
D03*
X746437D02*
D03*
X719062Y294500D02*
D03*
X728562Y270500D02*
D03*
X709562D02*
D03*
X682187Y294500D02*
D03*
X691687Y270500D02*
D03*
X672687D02*
D03*
X940312Y294500D02*
D03*
X949812Y270500D02*
D03*
X930812D02*
D03*
X903437Y294500D02*
D03*
X912937Y270500D02*
D03*
X893937D02*
D03*
X866562Y294500D02*
D03*
X876062Y270500D02*
D03*
X857062D02*
D03*
X829687Y294500D02*
D03*
X839187Y270500D02*
D03*
X820187D02*
D03*
X-977188Y294500D02*
D03*
X-967688Y270500D02*
D03*
X-986688D02*
D03*
X-1014063Y294500D02*
D03*
X-1004563Y270500D02*
D03*
X-1023563D02*
D03*
X-1050938Y294500D02*
D03*
X-1041438Y270500D02*
D03*
X-1060438D02*
D03*
X-1087813Y294500D02*
D03*
X-1078313Y270500D02*
D03*
X-1097313D02*
D03*
X1087812Y294500D02*
D03*
X1097312Y270500D02*
D03*
X1078312D02*
D03*
X1050937Y294500D02*
D03*
X1060437Y270500D02*
D03*
X1041437D02*
D03*
X1014062Y294500D02*
D03*
X1023562Y270500D02*
D03*
X1004562D02*
D03*
X977187Y294500D02*
D03*
X986687Y270500D02*
D03*
X967687D02*
D03*
X1235312Y294500D02*
D03*
X1244812Y270500D02*
D03*
X1225812D02*
D03*
X1198437Y294500D02*
D03*
X1207937Y270500D02*
D03*
X1188937D02*
D03*
X1161562Y294500D02*
D03*
X1171062Y270500D02*
D03*
X1152062D02*
D03*
X1124687Y294500D02*
D03*
X1134187Y270500D02*
D03*
X1115187D02*
D03*
X1382812Y294500D02*
D03*
X1392312Y270500D02*
D03*
X1373312D02*
D03*
X1345937Y294500D02*
D03*
X1355437Y270500D02*
D03*
X1336437D02*
D03*
X1309062Y294500D02*
D03*
X1318562Y270500D02*
D03*
X1299562D02*
D03*
X1272187Y294500D02*
D03*
X1281687Y270500D02*
D03*
X1262687D02*
D03*
D170*
X-1216875Y456500D02*
D03*
Y393500D02*
D03*
X-1143125Y456500D02*
D03*
Y393500D02*
D03*
X-1364375Y456500D02*
D03*
Y393500D02*
D03*
X-1290625Y456500D02*
D03*
Y393500D02*
D03*
X-700625Y456500D02*
D03*
Y393500D02*
D03*
X-774375Y456500D02*
D03*
Y393500D02*
D03*
X-553125Y456500D02*
D03*
Y393500D02*
D03*
X-626875Y456500D02*
D03*
Y393500D02*
D03*
X-405625Y456500D02*
D03*
Y393500D02*
D03*
X-479375Y456500D02*
D03*
Y393500D02*
D03*
X-258125Y456500D02*
D03*
Y393500D02*
D03*
X-331875Y456500D02*
D03*
Y393500D02*
D03*
X-110625Y456500D02*
D03*
Y393500D02*
D03*
X-184375Y456500D02*
D03*
Y393500D02*
D03*
X36875Y456500D02*
D03*
Y393500D02*
D03*
X-36875Y456500D02*
D03*
Y393500D02*
D03*
X184375Y456500D02*
D03*
Y393500D02*
D03*
X110625Y456500D02*
D03*
Y393500D02*
D03*
X331875Y456500D02*
D03*
Y393500D02*
D03*
X258125Y456500D02*
D03*
Y393500D02*
D03*
X479375Y456500D02*
D03*
Y393500D02*
D03*
X405625Y456500D02*
D03*
Y393500D02*
D03*
X626875Y456500D02*
D03*
Y393500D02*
D03*
X553125Y456500D02*
D03*
Y393500D02*
D03*
X-848125Y456500D02*
D03*
Y393500D02*
D03*
X-921875Y456500D02*
D03*
Y393500D02*
D03*
X774375Y456500D02*
D03*
Y393500D02*
D03*
X700625Y456500D02*
D03*
Y393500D02*
D03*
X921875Y456500D02*
D03*
Y393500D02*
D03*
X848125Y456500D02*
D03*
Y393500D02*
D03*
X-995625Y456500D02*
D03*
Y393500D02*
D03*
X-1069375Y456500D02*
D03*
Y393500D02*
D03*
X1069375Y456500D02*
D03*
Y393500D02*
D03*
X995625Y456500D02*
D03*
Y393500D02*
D03*
X1216875Y456500D02*
D03*
Y393500D02*
D03*
X1143125Y456500D02*
D03*
Y393500D02*
D03*
X1364375Y456500D02*
D03*
Y393500D02*
D03*
X1290625Y456500D02*
D03*
Y393500D02*
D03*
M02*
