G04*
G04 #@! TF.GenerationSoftware,Altium Limited,Altium Designer,22.2.1 (43)*
G04*
G04 Layer_Color=16711935*
%FSLAX44Y44*%
%MOMM*%
G71*
G04*
G04 #@! TF.SameCoordinates,CDD9168B-683F-4F5A-B1B2-3852E0251DB5*
G04*
G04*
G04 #@! TF.FilePolarity,Positive*
G04*
G01*
G75*
%ADD10C,0.2540*%
D10*
X-310000Y2270000D02*
G03*
X-300000Y2280000I0J10000D01*
G01*
X-365000Y2260000D02*
G03*
X-355000Y2250000I10000J0D01*
G01*
Y2270000D02*
G03*
X-365000Y2260000I0J-10000D01*
G01*
X-310000Y2250000D02*
G03*
X-280000Y2280000I0J30000D01*
G01*
X-280000Y2370000D02*
G03*
X-290000Y2380000I-10000J0D01*
G01*
D02*
G03*
X-300000Y2370000I0J-10000D01*
G01*
X195000Y-740000D02*
G03*
X205000Y-750000I10000J0D01*
G01*
X195000Y-665000D02*
G03*
X185000Y-655000I-10000J0D01*
G01*
X-5000D02*
G03*
X-15000Y-665000I0J-10000D01*
G01*
X-488000Y-102000D02*
G03*
X-498000Y-92000I-10000J0D01*
G01*
X-606000Y-129000D02*
G03*
X-570261Y-101576I0J37000D01*
G01*
X-688000Y-261000D02*
G03*
X-678000Y-271000I10000J0D01*
G01*
Y-129000D02*
G03*
X-688000Y-139000I0J-10000D01*
G01*
X-560250Y-92000D02*
G03*
X-569457Y-98838I0J-9618D01*
G01*
X-498000Y-271000D02*
G03*
X-488000Y-261000I0J10000D01*
G01*
X-25000Y-750000D02*
G03*
X-15000Y-740000I0J10000D01*
G01*
X-1100000Y-1350000D02*
G03*
X-1060000Y-1310000I0J40000D01*
G01*
X-260000Y-750000D02*
G03*
X-300000Y-790000I0J-40000D01*
G01*
X-340000Y-1050000D02*
G03*
X-300000Y-1010000I0J40000D01*
G01*
X-1020000Y-1050000D02*
G03*
X-1060000Y-1090000I0J-40000D01*
G01*
X-1489035Y-121285D02*
G03*
X-1485500Y-112750I-8536J8536D01*
G01*
X-1496465Y-128714D02*
G03*
X-1500000Y-137250I8536J-8536D01*
G01*
Y-62250D02*
G03*
X-1496465Y-70785I12071J0D01*
G01*
X-1485500Y-86750D02*
G03*
X-1489035Y-78214I-12071J0D01*
G01*
X-360000Y2410000D02*
G03*
X-400000Y2370000I0J-40000D01*
G01*
X-440000Y2140000D02*
G03*
X-400000Y2180000I0J40000D01*
G01*
X-1460000Y2140000D02*
G03*
X-1500000Y2100000I0J-40000D01*
G01*
X400000Y2180000D02*
G03*
X440000Y2140000I40000J0D01*
G01*
X400000Y2370000D02*
G03*
X360000Y2410000I-40000J0D01*
G01*
X1500000Y2100000D02*
G03*
X1460000Y2140000I-40000J0D01*
G01*
X-1500000Y-1310000D02*
G03*
X-1460000Y-1350000I40000J0D01*
G01*
X1420000Y-790000D02*
G03*
X1380000Y-750000I-40000J0D01*
G01*
X1420000Y-800000D02*
G03*
X1500000Y-800000I40000J0D01*
G01*
X-355000Y2250000D02*
X-310000Y2250000D01*
X-355000Y2270000D02*
X-310000Y2270000D01*
X-280000Y2280000D02*
X-280000Y2370000D01*
X-300000Y2280000D02*
X-300000Y2370000D01*
X-678000Y-271000D02*
X-498000D01*
X-488000Y-261000D02*
Y-190000D01*
X-688000D02*
Y-139000D01*
X-678000Y-129000D02*
X-606000D01*
X-488000Y-190000D02*
Y-102000D01*
X-560250Y-92000D02*
X-498000D01*
X-570261Y-101576D02*
X-569457Y-98838D01*
X-688000Y-261000D02*
Y-190000D01*
X-5000Y-655000D02*
X90000D01*
X185000D01*
X195000Y-740000D02*
Y-665000D01*
X-15000Y-740000D02*
Y-665000D01*
X-300000Y-1010000D02*
Y-790000D01*
X-1020000Y-1050000D02*
X-340000Y-1050000D01*
X-1060000Y-1310000D02*
Y-1090000D01*
X-1485500Y-99750D02*
Y-86750D01*
Y-112750D02*
Y-99750D01*
X-1496464Y-128715D02*
X-1489036Y-121286D01*
X-1496464Y-70785D02*
X-1489036Y-78214D01*
X-400000Y2180000D02*
Y2370000D01*
X-360000Y2410000D02*
X360000D01*
X-1460000Y2140000D02*
X-440000Y2140000D01*
X400000Y2180000D02*
Y2370000D01*
X440000Y2140000D02*
X1460000Y2140000D01*
X-1500000Y-137250D02*
X-1500000Y-1310000D01*
X-1460000Y-1350000D02*
X-1100000D01*
X-260000Y-750000D02*
X-25000Y-750000D01*
X205000Y-750000D02*
X1380000Y-750000D01*
X1420000Y-800000D02*
Y-790000D01*
X1499999Y-800000D02*
X1500000Y2100000D01*
X-1500000Y-62250D02*
Y2100000D01*
X-310000Y2270000D02*
G03*
X-300000Y2280000I0J10000D01*
G01*
X-365000Y2260000D02*
G03*
X-355000Y2250000I10000J0D01*
G01*
Y2270000D02*
G03*
X-365000Y2260000I0J-10000D01*
G01*
X-310000Y2250000D02*
G03*
X-280000Y2280000I0J30000D01*
G01*
X-280000Y2370000D02*
G03*
X-290000Y2380000I-10000J0D01*
G01*
D02*
G03*
X-300000Y2370000I0J-10000D01*
G01*
X195000Y-740000D02*
G03*
X205000Y-750000I10000J0D01*
G01*
X195000Y-665000D02*
G03*
X185000Y-655000I-10000J0D01*
G01*
X-5000D02*
G03*
X-15000Y-665000I0J-10000D01*
G01*
X-488000Y-102000D02*
G03*
X-498000Y-92000I-10000J0D01*
G01*
X-606000Y-129000D02*
G03*
X-570261Y-101576I0J37000D01*
G01*
X-688000Y-261000D02*
G03*
X-678000Y-271000I10000J0D01*
G01*
Y-129000D02*
G03*
X-688000Y-139000I0J-10000D01*
G01*
X-560250Y-92000D02*
G03*
X-569457Y-98838I0J-9618D01*
G01*
X-498000Y-271000D02*
G03*
X-488000Y-261000I0J10000D01*
G01*
X-25000Y-750000D02*
G03*
X-15000Y-740000I0J10000D01*
G01*
X-1100000Y-1350000D02*
G03*
X-1060000Y-1310000I0J40000D01*
G01*
X-260000Y-750000D02*
G03*
X-300000Y-790000I0J-40000D01*
G01*
X-340000Y-1050000D02*
G03*
X-300000Y-1010000I0J40000D01*
G01*
X-1020000Y-1050000D02*
G03*
X-1060000Y-1090000I0J-40000D01*
G01*
X-1489035Y-121285D02*
G03*
X-1485500Y-112750I-8536J8536D01*
G01*
X-1496465Y-128714D02*
G03*
X-1500000Y-137250I8536J-8536D01*
G01*
Y-62250D02*
G03*
X-1496465Y-70785I12071J0D01*
G01*
X-1485500Y-86750D02*
G03*
X-1489035Y-78214I-12071J0D01*
G01*
X-360000Y2410000D02*
G03*
X-400000Y2370000I0J-40000D01*
G01*
X-440000Y2140000D02*
G03*
X-400000Y2180000I0J40000D01*
G01*
X-1460000Y2140000D02*
G03*
X-1500000Y2100000I0J-40000D01*
G01*
X400000Y2180000D02*
G03*
X440000Y2140000I40000J0D01*
G01*
X400000Y2370000D02*
G03*
X360000Y2410000I-40000J0D01*
G01*
X1500000Y2100000D02*
G03*
X1460000Y2140000I-40000J0D01*
G01*
X-1500000Y-1310000D02*
G03*
X-1460000Y-1350000I40000J0D01*
G01*
X1420000Y-790000D02*
G03*
X1380000Y-750000I-40000J0D01*
G01*
X1420000Y-800000D02*
G03*
X1500000Y-800000I40000J0D01*
G01*
X-355000Y2250000D02*
X-310000Y2250000D01*
X-355000Y2270000D02*
X-310000Y2270000D01*
X-280000Y2280000D02*
X-280000Y2370000D01*
X-300000Y2280000D02*
X-300000Y2370000D01*
X-678000Y-271000D02*
X-498000D01*
X-488000Y-261000D02*
Y-190000D01*
X-688000D02*
Y-139000D01*
X-678000Y-129000D02*
X-606000D01*
X-488000Y-190000D02*
Y-102000D01*
X-560250Y-92000D02*
X-498000D01*
X-570261Y-101576D02*
X-569457Y-98838D01*
X-688000Y-261000D02*
Y-190000D01*
X-5000Y-655000D02*
X90000D01*
X185000D01*
X195000Y-740000D02*
Y-665000D01*
X-15000Y-740000D02*
Y-665000D01*
X-300000Y-1010000D02*
Y-790000D01*
X-1020000Y-1050000D02*
X-340000Y-1050000D01*
X-1060000Y-1310000D02*
Y-1090000D01*
X-1485500Y-99750D02*
Y-86750D01*
Y-112750D02*
Y-99750D01*
X-1496464Y-128715D02*
X-1489036Y-121286D01*
X-1496464Y-70785D02*
X-1489036Y-78214D01*
X-400000Y2180000D02*
Y2370000D01*
X-360000Y2410000D02*
X360000D01*
X-1460000Y2140000D02*
X-440000Y2140000D01*
X400000Y2180000D02*
Y2370000D01*
X440000Y2140000D02*
X1460000Y2140000D01*
X-1500000Y-137250D02*
X-1500000Y-1310000D01*
X-1460000Y-1350000D02*
X-1100000D01*
X-260000Y-750000D02*
X-25000Y-750000D01*
X205000Y-750000D02*
X1380000Y-750000D01*
X1420000Y-800000D02*
Y-790000D01*
X1499999Y-800000D02*
X1500000Y2100000D01*
X-1500000Y-62250D02*
Y2100000D01*
M02*
