M48
;Layer_Color=9474304
;FILE_FORMAT=4:4
METRIC,LZ
;TYPE=PLATED
T1F00S00C0.3000
T2F00S00C0.4000
T3F00S00C0.5500
T5F00S00C0.8500
T7F00S00C1.0000
T8F00S00C1.1000
T9F00S00C1.3000
T10F00S00C1.4000
T12F00S00C2.2000
T13F00S00C2.3000
T14F00S00C2.7000
T15F00S00C3.2000
;TYPE=NON_PLATED
T16F00S00C0.6500
T17F00S00C0.9000
T18F00S00C1.1520
T19F00S00C2.5000
%
T01
X-01476264Y-01326263
X-01468802Y-01331249
X-0146Y-01333
X-01451199Y-01331249
X-01443737Y-01326263
X-01438751Y-01318802
X-01437Y-0131
X-01438751Y-01301198
X-01443736Y-01293737
X-01451198Y-01288751
X-0146Y-01287
X-01468802Y-01288751
X-01476263Y-01293736
X-0148125Y-01301198
X-01483Y-0131
X-0148125Y-01318802
X-0140125Y-01294167
X-01352083
X-01204583
X-01155417
X-0110625
X-00565416Y-00999167
X-0051625
X-00467083
X-00417916
X-0036875
X-00319583
X-00344166Y-0095
X-00393333
X-004425
X-00491666
X-00540833
X-0036875Y-00900833
X-00319583
X-0059Y-0095
X-00639166
X-00688333
X-007375
X-00786666
X-00835833
X-0081125Y-00999167
X-00762083
X-00712916
X-0066375
X-00614583
X-00860416
X-00909583
X-0095875
X-01007917
X-01057083
X-0110625
X-01155417
X-01130833Y-0095
X-01081667
X-010325
X-01057083Y-00900833
X-0110625
X-01155417
X-01204583
X-01302917
X-01352083
X-0128975Y-00985
X-012695
X-01283Y-01013
X-0129Y-0102
X-01271Y-01026
X-0127Y-010545
X-01255Y-01044
X-0128Y-0107
X-01352083Y-010975
X-01204583
X-01155417
X-0110625
X-01081667Y-01048333
X-01130833
X-01081667Y-01146667
Y-01245
X-01425833
X-01475
X-01450417Y-01195833
X-01425833Y-01146667
X-01475
X-01450417Y-010975
X-01425833Y-01048333
X-01475
X-01450417Y-00999167
X-01425833Y-0095
X-01475
X-01450417Y-00900833
X-01425833Y-00851666
X-0141Y-00843
X-01443737Y-00816263
X-01438751Y-00808802
X-01437Y-008
X-01438751Y-00791198
X-01443736Y-00783737
X-01451198Y-00778751
X-0146Y-00777
X-01468802Y-00778751
X-01476263Y-00783736
X-0148125Y-00791198
X-01483Y-008
X-0148125Y-00808802
X-01476264Y-00816263
X-01468802Y-00821249
X-0146Y-00823
X-01451199Y-00821249
X-01475Y-00655
Y-00556666
X-01425833
X-0136475Y-005125
X-0126Y-00488
X-0125
X-0124
X-01245Y-004805
X-01235
X-01255
X-01265
X-01203435Y-00551565
X-01207554Y-00557729
X-01209Y-00565
X-01207554Y-00572271
X-01203435Y-00578435
X-01197271Y-00582554
X-0119Y-00584
X-01182729Y-00582554
X-01176565Y-00578435
X-01172446Y-00572271
X-01171Y-00565
X-01172446Y-00557729
X-01176565Y-00551565
X-01182729Y-00547446
X-0119Y-00546
X-01197271Y-00547446
X-01204583Y-00605833
X-01155417
X-0110625
X-01057083
X-010325Y-00556666
X-00983333
Y-00655
X-010325
X-01007917Y-00704166
X-01057083
X-010325Y-00753333
X-0110625Y-008025
X-01155417
X-0120538Y-0078
X-01213
Y-00761
X-01229Y-0077
X-01238
X-01228Y-00803
Y-00822
X-01237
X-01244Y-00865
X-013
X-0131Y-00834
X-01326Y-00785
X-01324Y-0076
X-01315
X-01296Y-00635
X-0129Y-00641
X-01284Y-00647
X-01278Y-00653
X-01207Y-00709
X-01166Y-00695
X-01130833Y-00655
Y-00556666
X-01081667
Y-00851666
X-01130833
X-00934166
X-00885Y-00753333
X-00835833
X-00786666
X-0081125Y-00704166
X-00860416
X-00909583
X-0095875
X-00934166Y-00655
X-00885
X-00835833
X-00786666
X-00762083Y-00605833
X-00712916
X-00688333Y-00556666
X-00678Y-00535
X-00667Y-00489
X-00727Y-00485
X-00735
X-007375Y-00556666
X-00639166
X-0059
X-00596565Y-00667565
X-00592446Y-00673729
X-00591Y-00681
X-00592446Y-00688271
X-00596565Y-00694435
X-00602729Y-00698554
X-0061Y-007
X-00617271Y-00698554
X-00623435Y-00694435
X-00627554Y-00688271
X-00629Y-00681
X-00627554Y-00673729
X-00623435Y-00667565
X-00617271Y-00663446
X-0061Y-00662
X-00602729Y-00663446
X-0066375Y-00704166
X-00639166Y-00753333
X-0059
X-00614583Y-008025
X-0066375
X-00639166Y-00851666
X-0059
X-00688333
Y-00753333
X-00846565Y-00578435
X-00842446Y-00572271
X-00841Y-00565
X-00842446Y-00557729
X-00846565Y-00551565
X-00852729Y-00547446
X-0086Y-00546
X-00867271Y-00547446
X-00873435Y-00551565
X-00877554Y-00557729
X-00879Y-00565
X-00877554Y-00572271
X-00873435Y-00578435
X-00867271Y-00582554
X-0086Y-00584
X-00852729Y-00582554
X-00934166Y-00556666
X-00491666
X-004425
X-00393333
X-00344166
X-00295
X-00245833
X-00196666
X-00200729Y-00599696
X-00208Y-0059825
X-00215271Y-00599696
X-00221435Y-00603815
X-00225554Y-00609979
X-00227Y-0061725
X-00225554Y-00624521
X-00221435Y-00630685
X-00215271Y-00634804
X-00208Y-0063625
X-00200729Y-00634804
X-00194565Y-00630685
X-00190446Y-00624521
X-00189Y-0061725
X-00190446Y-00609979
X-00194565Y-00603815
X-00270416Y-00605833
X-00319583
X-0036875
X-00417916
X-00467083
X-0051625
X-00491666Y-00655
X-004425
X-00441198Y-00688751
X-0045Y-00687
X-00458802Y-00688751
X-00466263Y-00693736
X-0047125Y-00701198
X-00473Y-0071
X-0047125Y-00718802
X-00466264Y-00726263
X-00458802Y-00731249
X-0045Y-00733
X-00441199Y-00731249
X-00433736Y-00726263
X-00428751Y-00718802
X-00427Y-0071
X-00428751Y-00701198
X-00433736Y-00693737
X-00393333Y-00655
X-00295
X-00245833
X-002315Y-0073075
X-00319583Y-008025
X-00344166Y-00851666
X-004425
X-00491666
X-00540833
X-0051625Y-008025
X-00467083
X-00491666Y-00753333
X-00540833
X-0051625Y-00704166
X-00565416
X-00540833Y-00655
X-00565416Y-008025
X-00098333Y-00655
X-00049166
X-00024583Y-00605833
X-00014Y-00535
X-00098333Y-00556666
X-001475
X-00122916Y-00605833
X0007375
X00122917
X00128Y-00525
X001625Y-005
X00172084Y-005075
X00196667Y-00556666
X00245834
X00295
X00344167
X00393334
X004425
X00467084Y-00605833
X00417917
X00389554Y-00609979
X00391Y-0061725
X00389554Y-00624521
X00385435Y-00630685
X00379271Y-00634804
X00372Y-0063625
X00364729Y-00634804
X00358565Y-00630685
X00354446Y-00624521
X00353Y-0061725
X00354446Y-00609979
X00358565Y-00603815
X00364729Y-00599696
X00372Y-0059825
X00379271Y-00599696
X00385435Y-00603815
X00393334Y-00655
X004425
X00441198Y-00688751
X0045Y-00687
X00458802Y-00688751
X00466264Y-00693737
X00471249Y-00701198
X00473Y-0071
X00471249Y-00718802
X00466264Y-00726263
X00458801Y-00731249
X0045Y-00733
X00441198Y-00731249
X00433736Y-00726263
X0042875Y-00718802
X00427Y-0071
X0042875Y-00701198
X00433737Y-00693736
X0036875Y-00704166
X00319584
X00270417
X0022125
X00245834Y-00655
X00295
X00344167
X00319584Y-00605833
X00270417
X0022125
Y-005075
X00270417
X00319584
X0036875
X00417917
X00541Y-00513
Y-00528
Y-00543
Y-00498
Y-00483
X0061Y-0058
X0061Y-00595
X0059Y-00655
X00543435Y-00667565
X00547554Y-00673729
X00549Y-00681
X00547554Y-00688271
X00543435Y-00694435
X00537271Y-00698554
X0053Y-007
X00522729Y-00698554
X00516565Y-00694435
X00512446Y-00688271
X00511Y-00681
X00512446Y-00673729
X00516565Y-00667565
X00522729Y-00663446
X0053Y-00662
X00537271Y-00663446
X00491667Y-00655
X00565417Y-00704166
X00614584
X00663751
X00712917
X00762084
X00811251
X00860417
X00909584
X00958751
X00983334Y-00655
X00934167
X00885001
X00835834
X00786667
X00737501
X00688334
X00639167
X00655Y-00506
X0066Y-00494
X00668Y-005
X00676Y-00506
X00684Y-00512
X00692Y-00518
X007Y-00524
X00708Y-0053
X0097Y-0058
X01025Y-0057
Y-00605
X01106251Y-00605833
X011Y-0062
X0109Y-0058
X01155417Y-00605833
X01204584
X01253751
X01302917
X01327501Y-00556666
X01352084Y-005075
X01401251
X01302917
X01229167Y-00556666
X01180001
X01145Y-00543
X01145Y-00534
Y-00525
Y-00516
Y-00507
X01135Y-005135
Y-00494
X01278334Y-00655
X01327501
X01376667
X01401251Y-00704166
X01352084
X01025Y-0070362
X01038Y-00719
X01450417Y-00704166
X01451198Y-00778751
X0146Y-00777
X01468802Y-00778751
X01476264Y-00783737
X01481249Y-00791198
X01483Y-008
X01481249Y-00808802
X01476263Y-00816263
X01468801Y-00821249
X0146Y-00823
X01451198Y-00821249
X01443736Y-00816263
X0143875Y-00808802
X01437Y-008
X0143875Y-00791198
X01443737Y-00783736
X0145Y-0054
X01425834Y-0036
X0145Y-0029
X01450417Y-002125
Y-00114166
X01401251
X01352084
X01302917
X01253751
X01204584
X01155417
X01106251
X01180001Y-00163333
X01229167
X01278334
X01327501
X01376667
X01401251Y-002125
X01395Y-00235
X01352084Y-002125
X01302917
X01253751
X01204584
X01155417
X01180001Y-00261666
X01229167
X01278334
X01327501
X01352084Y-00310833
X01401251
Y-00409166
X01352084
X01302917
X01253751
X01204584
X01155417
X01106251
X01057084
X01032501Y-00458333
X0114Y-00465
X01229167Y-00458333
X01278334
X01327501
Y-0036
X01278334
X01229167
X01253751Y-00310833
X01302917
X01204584
X01155417
X0109Y-0029
X01057084Y-00310833
X01007917
X0097Y-0029
X00915Y-00235
X00909584Y-002125
X00860417
X00811251
X00762084
X00712917
X00663751
X00688334Y-00163333
X00737501
X00786667
X00835834
X00885001
X00909584Y-00114166
X00958751
X00860417
X00811251
X00762084
X00712917
X00663751
X00614584
X00688334Y-00261666
X00737501
X00786667
X00835834
X00885001
X00860417Y-00310833
X00811251
X00762084
X00712917
X00663751
X00688334Y-0036
X00737501
X00786667
X00835834
X00885001
X00909584Y-00409166
X00860417
X00811251
X00762084
X00712917
X00663751
X00614584
X00639167Y-0036
X00688334Y-00458333
X00737501
X00786667
X00835834
X00885001
X00540834
X00491667
X0051625Y-00409166
X00565417
X00540834Y-0036
X00491667
X004425
X00393334
X0036875Y-00310833
X00467084
X0051625
X00565417
X0061Y-0029
X00491667Y-00261666
X004425
X00467084Y-002125
X00417917
X004425Y-00163333
X00393334
X00385435Y-00140685
X00379271Y-00144804
X00372Y-0014625
X00364729Y-00144804
X00358565Y-00140685
X00354446Y-00134521
X00353Y-0012725
X00354446Y-00119979
X00358565Y-00113815
X00364729Y-00109696
X00372Y-0010825
X00379271Y-00109696
X00385435Y-00113815
X00389554Y-00119979
X00391Y-0012725
X00389554Y-00134521
X00516565Y-00104435
X00512446Y-00098271
X00511Y-00091
X00512446Y-00083729
X00547554
X00549Y-00091
X00547554Y-00098271
X00543435Y-00104435
X00537271Y-00108554
X0053Y-0011
X00522729Y-00108554
X00565417Y-00114166
X00467084Y-00409166
X0036875
X0022125
Y-00310833
X00196667Y-0036
X0013Y-00345
X0012
X0011
X001
X00095Y-003375
X00105Y-003375
X00115
X00125
X00135
X0013Y-0033
X0012
X0011
X001
X00098334Y-00261666
X00122917Y-002125
X00172084
X001475Y-00163333
X00035Y-00158
X00018Y-00168
X00009Y-0018
X00003Y-00186
X-0001Y-0021
X-0008Y-00275
X-00024583Y-00409166
X000675Y-0041
X000775
X000875
X000975
X000925Y-004175
X001025
X000975Y-00425
X000875
X000775
X000675
X000725Y-004175
X000825
X000625Y-004175
X00122917Y-00409166
X-0022125
X-00319583
X-0032Y-00345
X-0031
X-003
X-0029
X-00295Y-003375
X-00285
X-0029Y-0033
X-003
X-0031
X-0032
X-00325Y-003375
X-00315Y-003375
X-00305
X-00417916Y-00310833
X-00393333Y-00261666
X-00417916Y-002125
X-00467083
X-004425Y-00163333
X-00393333
X-00417916Y-00114166
X-00467083
X-00270416
X-00221435Y-00113815
X-00215271Y-00109696
X-00208Y-0010825
X-00200729Y-00109696
X-00194565Y-00113815
X-00190446Y-00119979
X-00189Y-0012725
X-00190446Y-00134521
X-00194565Y-00140685
X-00200729Y-00144804
X-00208Y-0014625
X-00215271Y-00144804
X-00221435Y-00140685
X-00225554Y-00134521
X-00227Y-0012725
X-00225554Y-00119979
X-0022125Y-002125
X-00270416
X-00295Y-00163333
X-0051625Y-00310833
X-00565416
X-00491666Y-0036
X-0051625Y-00409166
X-00530871Y-00468129
X-00525Y-00475
X-0056Y-00456
X-00566Y-0045
X-00572Y-00444
X-00578Y-00438
X-00584Y-00432
X-0059Y-00426
X-00596Y-0042
X-00602Y-00414
X-00608Y-00408
X-0059Y-0036
X-00639166
X-00614583Y-00310833
X-0066375
X-00681Y-0029
X-00699Y-00298
X-00712916Y-002125
X-0077775Y-002205
X-00815Y-00215
X-0080525Y-0026625
X-00791Y-0031475
X-00786666Y-0036
X-007875Y-0038
X-007975
X-007925Y-003875
X-007825
X-007725
X-007775Y-0038
Y-00395
X-007875
X-007975
X-008025Y-003875
X-009Y-0042125
X-00909583Y-00310833
X-00891Y-00294
X-00883Y-0029
X-00934166Y-00261666
X-0095875Y-00310833
X-00969Y-00367
X-00934166Y-00163333
X-00885
X-00835833
X-0081125Y-00114166
X-00846565Y-00098435
X-00842446Y-00092271
X-00841Y-00085
X-00852729Y-00102554
X-0086Y-00104
X-00867271Y-00102554
X-00873435Y-00098435
X-00877554Y-00092271
X-00879Y-00085
X-00909583Y-00114166
X-0095875
X-00712916
X-0066375
X-00623435Y-00104435
X-00627554Y-00098271
X-00629Y-00091
X-00627554Y-00083729
X-00592446
X-00591Y-00091
X-00592446Y-00098271
X-00596565Y-00104435
X-00602729Y-00108554
X-0061Y-0011
X-00617271Y-00108554
X-007375Y-00163333
X-00689Y-00467
X-01015Y-00398
X-01021Y-00367
X-01011Y-00328
X-00995Y-0032
X-01057083Y-00310833
X-0110625
X-01145Y-00314
Y-00302
Y-00326
Y-0035
X-01151Y-00356
X-01145Y-00362
X-01151Y-00368
X-01145Y-00374
X-01139Y-0038
X-01126Y-00361
X-011946Y-00398
X-0122325Y-00383
X-01225Y-00352
Y-00326
Y-0031
X-01284Y-0032
X-0129Y-00326
X-01296Y-00332
X-01302Y-0035
X-01308Y-00344
X-01314Y-00338
X-01284Y-00384
X-0129Y-0039
X-01296Y-00396
X-01296Y-004055
X-0129Y-004115
X-01284Y-004175
X-01278Y-004235
X-0126Y-00473
X-0125
X-0124
X-01352083Y-00409166
X-01345Y-00235
X-01314Y-00252
X-013Y-00205
X-01329Y-00193
X-01365Y-00184
X-0135Y-00154
X-01352083Y-00114166
X-01287Y-00154
X-012575Y-00185
Y-00195
Y-00205
Y-00215
X-0125Y-0022
X-0125Y-0021
Y-002
Y-0019
Y-0018
X-012425Y-00185
Y-00195
Y-00205
Y-00215
X-011946Y-00206
X-01165Y-00202
X-011425Y-00205
Y-00215
X-01135Y-0021
Y-002
X-011275Y-00205
Y-00215
X-01135Y-0022
X-011Y-00239
Y-00251
X-01081667Y-00163333
X-010325
X-00983333
X-01007917Y-00114166
X-01057083
X-01155417
X-01176565Y-00098435
X-01172446Y-00092271
X-01171Y-00085
X-01182729Y-00102554
X-0119Y-00104
X-01197271Y-00102554
X-01203435Y-00098435
X-01207554Y-00092271
X-01209Y-00085
X-0118Y-00163333
X-01395Y-00155
X-01409999Y-00208
X-01386818Y-00215
X-01379Y-00235
X-014Y-00267
X-0140125Y-00310833
X-01376667Y-0036
X-01475
Y-00458333
X-01425833
X-01475Y-00163333
X-0144Y-00091
X-01404
X-01425833Y-00065
X-01443737Y-00016263
X-01438751Y-00008802
X-01437Y-0
X-01438751Y00008802
X-01443736Y00016263
X-01451198Y00021249
X-0146Y00023
X-01468802Y00021249
X-01476263Y00016264
X-0148125Y00008802
X-01483Y0
X-0148125Y-00008802
X-01476264Y-00016263
X-01468802Y-00021249
X-0146Y-00023
X-01451199Y-00021249
X-01385023Y-00025023
X-01385Y-00017
X-01379Y-00045
X-0140125Y000775
X-01475Y00131667
Y0023
X-0140561Y0022
X-0133186
X-0125811
X-0118436
X-0111061
X-0103686
X-01050395Y00152035
X-01063095Y00136335
X-01075795Y00142685
X-01124145Y00152035
X-01136845Y00142685
X-01149545Y00136335
X-01210595
X-01223295Y00142685
X-01197895Y00152035
X-01271645
X-01284345Y00142685
X-01297045Y00136335
X-01358095
X-01370795Y00142685
X-01345395Y00152035
X-013275Y000775
X-0125375
X-0118
X-0110625
X-010325
X-01002045Y00136335
X-00989345Y00142685
X-00976645Y00152035
X-00995695Y0029443
X-01069445
X-01143195
X-01216945
X-01290695
X-01364445
X-01332Y-00017
X-01325Y-00025
X-01302917Y-00015833
X-01278333Y-00065
X-01203435Y-00071565
X-01207554Y-00077729
X-01197271Y-00067446
X-0119Y-00066
X-01182729Y-00067446
X-01176565Y-00071565
X-01172446Y-00077729
X-01155417Y-00015833
X-0110625
X-01057083
X-01007917
X-00983333Y-00065
X-010325
X-01081667
X-01204583Y-00015833
X-0137Y-00045
X-0095875Y-00015833
X-00909583
X-00860416
X-0081125
X-00762083
X-00712916
X-0066375
X-00614583
X-00617271Y-00073446
X-0061Y-00072
X-00602729Y-00073446
X-00596565Y-00077565
X-00623435Y-00077565
X-007375Y-00065
X-00786666
X-00846565Y-00071565
X-00852729Y-00067446
X-0086Y-00066
X-00867271Y-00067446
X-00873435Y-00071565
X-00877554Y-00077729
X-00842446
X-00934166Y-00065
X-0095875Y000775
X-00885
X-0081125
X-007375
X-0066375
X-0059
X-00620595Y00136335
X-00633295Y00142685
X-00607895Y00152035
X-00681645
X-00694345Y00142685
X-00707045Y00136335
X-00768095
X-00780795Y00142685
X-00755395Y00152035
X-00829145
X-00841845Y00142685
X-00854545Y00136335
X-00915595
X-00928295Y00142685
X-00902895Y00152035
X-0088936Y0022
X-0081561
X-0074186
X-0066811
X-0059436
X-00626945Y0029443
X-00700695
X-00774445
X-00848195
X-00921945
X-0096311Y0022
X-0052061
X-0044686
X-0037311
X-0029936
X-0022561
X-00239145Y00152035
X-00251845Y00142685
X-00264545Y00136335
X-00325595
X-00338295Y00142685
X-00312895Y00152035
X-00386645
X-00399345Y00142685
X-00412045Y00136335
X-00473095
X-00485795Y00142685
X-00460395Y00152035
X-00534145
X-00546845Y00142685
X-00559545Y00136335
X-0051625Y000775
X-00491666Y00033334
X-00466263Y00016264
X-00458802Y00021249
X-0045Y00023
X-00441198Y00021249
X-00433736Y00016263
X-00428751Y00008802
X-00427Y-0
X-00428751Y-00008802
X-00433736Y-00016263
X-00441199Y-00021249
X-0045Y-00023
X-00458802Y-00021249
X-00466264Y-00016263
X-0047125Y-00008802
X-00473Y0
X-0047125Y00008802
X-004425Y000775
X-0036875
X-00295
X-00295Y-00065
X-00245833
X-00190795Y00142685
X-00184445Y0029443
X-00258195
X-00331945
X-00405695
X-00479445
X-00553195
X-00565416Y-00015833
X-00540833Y-00065
X-00075Y-0007
X-00065
X-00055
X-00045Y-0007
X-00035
X-00025
X-00015
X-00005
X00005
X0Y-000775
X-0001
X-0002
X-0003
X-0004
X-0005
X-0006Y-000775
X-0007
Y-000625
X-0006
X-0005Y-000625
X-0004
X-0003
X-0002
X-0001
X0
X00030455Y00136335
X00043155Y00142685
X00055855Y00152035
X00104205Y00142685
X00116905Y00136335
X00129605Y00152035
X00177955Y00136335
X00190655Y00142685
X00203355Y00152035
X0014314Y0022
X0006939
X00036805Y0029443
X00110555
X00184305
X-00036945
X-00110695
X-0015186Y0022
X-00165395Y00152035
X-00178095Y00136335
X-00117045
X-00104345Y00142685
X-00091645Y00152035
X-00043295Y00142685
X-00030595Y00136335
X-00017895Y00152035
X00251705Y00142685
X00264405Y00136335
X00277105Y00152035
X00325455Y00136335
X00338155Y00142685
X00350855Y00152035
X00399205Y00142685
X00411905Y00136335
X00424605Y00152035
X00472955Y00136335
X00485655Y00142685
X00498355Y00152035
X00546705Y00142685
X00559405Y00136335
X00572105Y00152035
X0058564Y0022
X0051189
X0043814
X0036439
X0029064
X0021689
X00258055Y0029443
X00331805
X00405555
X00479305
X00553055
X0051625Y000775
X0059
X0059Y00033334
Y-00065
X00543435Y-00077565
X00537271Y-00073446
X0053Y-00072
X00522729Y-00073446
X00516565Y-00077565
X00491667Y-00065
X00466264Y-00016263
X00471249Y-00008802
X00473Y-0
X00471249Y00008802
X00466264Y00016263
X00458802Y00021249
X0045Y00023
X00441198Y00021249
X00433737Y00016264
X0042875Y00008802
X00427Y0
X0042875Y-00008802
X00433736Y-00016263
X00441198Y-00021249
X0045Y-00023
X00458801Y-00021249
X004425Y000775
X00315Y-000625
X00305
X00295
X00285
X00275
X00265
X00255Y-000625
X00245
X0025Y-0007
X0024
X00245Y-000775
X00255
X00265Y-000775
X00275
X00285
X00295
X00305
X00315
X0031Y-0007
X0032
X003
X0029
X0028
X0027
X0026Y-0007
X00639167Y-00065
X00688334
X00737501
X00786667
X00835834
X00885001
X00934167
X00983334
X0095875Y000775
X00885
X0081125
X00786667Y00033334
X00737501
X007375Y000775
X0066375
X00639167Y00033334
X00633155Y00142685
X00620455Y00136335
X00645855Y00152035
X00694205Y00142685
X00706905Y00136335
X00719605Y00152035
X00767955Y00136335
X00780655Y00142685
X00793355Y00152035
X00841705Y00142685
X00854405Y00136335
X00867105Y00152035
X00915455Y00136335
X00928155Y00142685
X00940855Y00152035
X00989205Y00142685
X01001905Y00136335
X0095439Y0022
X0088064
X0080689
X0073314
X0065939
X00626805Y0029443
X00700555
X00774305
X00848055
X00921805
X00995555
X01069305
X01143055
X01216805
X01290555
X01364305
X0139689Y0022
X0132314
X0124939
X0117564
X0110189
X0102814
X01014605Y00152035
X01062955Y00136335
X01075655Y00142685
X01088355Y00152035
X01136705Y00142685
X01149405Y00136335
X01162105Y00152035
X01210455Y00136335
X01223155Y00142685
X01235855Y00152035
X01284205Y00142685
X01296905Y00136335
X01309605Y00152035
X01357955Y00136335
X01370655Y00142685
X01383355Y00152035
X0140125Y000775
X01376667Y00033334
X01352084Y-00015833
X01302917
X01253751
X01204584
X01155417
X01106251
X01081667Y-00065
X01180001
X01229167
X01278334
X01327501
X01376667
X013275Y000775
X0125375
X01278334Y00033334
X0118Y000775
X0110625
X010325
X01032501Y00033334
X01443737Y00016264
X01451198Y00021249
X0146Y00023
X01468802Y00021249
X01476264Y00016263
X01481249Y00008802
X01483Y-0
X01481249Y-00008802
X01476263Y-00016263
X01468801Y-00021249
X0146Y-00023
X01451198Y-00021249
X01443736Y-00016263
X0143875Y-00008802
X01437Y0
X0143875Y00008802
X01425834Y00131667
Y0023
Y00328334
Y00426667
Y00525
Y00623334
X01401251Y00672501
X01352084
X01302917
X01253751
X01204584
X01155417
X01106251
X01057084
X01032501Y00623334
X01057084Y00574167
X01106251
X01155417
X01204584
X01253751
X01302917
X01352084
X01401251
Y00475834
X01376667Y00426667
X01327501
X013275Y003875
X0125375
X01229167Y00426667
X01278334
X01253751Y00475834
X01327501Y00525
Y00623334
X01180001
Y00525
Y00426667
X0118Y003875
X0110625
X01081667Y00426667
X01130834
X01106251Y00475834
X01032501Y00525
Y00426667
X010325Y003875
X0140125
X0095875
X00934167Y00426667
X00983334
X00958751Y00475834
Y00574167
X01007917
Y00672501
X00958751
X00909584
X00860417
X00811251
X00762084
X00712917
X00663751
X00614584
Y00574167
X00663751
X00712917
X00762084
X00811251
X00860417
X00909584
X00885001Y00623334
Y00525
Y00426667
X00885Y003875
X0081125
X00786667Y00426667
X00835834
X00811251Y00475834
X00737501Y00525
Y00623334
Y00426667
X007375Y003875
X0066375
X00639167Y00426667
X00688334
X00663751Y00475834
X0059Y00525
X00565417Y00574167
X0051625
X00467084
X00417917
X0036875
X00319584
X00270417
X0022125
Y00672501
X00270417
X00319584
X0036875
X00417917
X00467084
X0051625
X00565417
X0059Y00623334
X004425
Y00525
Y00426667
X004425Y003875
X0036875
X00344167Y00426667
X00393334
X0036875Y00475834
X00295Y00525
Y00623334
Y00426667
X00295Y003875
X0022125
X00245834Y00426667
X0022125Y00475834
X0051625
X00540834Y00426667
X0059
X0059Y003875
X0051625
X00491667Y00426667
X00196667
X001475
X001475Y003875
X0007375
X00049167Y00426667
X00098334
X0007375Y00475834
Y00574167
X00122917
X00172084
X001475Y00623334
X00172084Y00672501
X00122917
X0007375
X00024584
X-00024583
X-0007375
X-00122916
X-00172083
X-001475Y00623334
X-00122916Y00574167
X-0007375
X-00024583
X00024584
X0Y00623334
Y00525
Y00426667
X0Y003875
X-0007375
X-00098333Y00426667
X-00049166
X-0007375Y00475834
X-001475Y00525
X-00172083Y00574167
X-001475Y00426667
X-001475Y003875
X001475Y00525
X-0022125Y00574167
X-00270416
X-00319583
X-0036875
X-00417916
X-00467083
X-0051625
X-00565416
Y00672501
X-0051625
X-00467083
X-00417916
X-0036875
X-00319583
X-00270416
X-0022125
X-00295Y00623334
Y00525
Y00426667
X-00295Y003875
X-0036875
X-00393333Y00426667
X-00344166
X-0036875Y00475834
X-004425Y00525
Y00623334
Y00426667
X-004425Y003875
X-0051625
X-00540833Y00426667
X-00491666
X-0051625Y00475834
X-0022125
X-00196666Y00426667
X-00245833
X-0022125Y003875
X-0059
X-0059Y00426667
X-00639166
X-00688333
X-007375
X-007375Y003875
X-0081125
X-00835833Y00426667
X-00786666
X-0081125Y00475834
Y00574167
X-00762083
X-00712916
X-0066375
X-00614583
X-0059Y00623334
X-00614583Y00672501
X-0066375
X-00712916
X-00762083
X-0081125
X-00860416
X-00909583
X-0095875
Y00574167
X-00909583
X-00860416
X-00885Y00623334
Y00525
Y00426667
X-00885Y003875
X-0095875
X-00934166Y00426667
X-0095875Y00475834
X-007375Y00525
Y00623334
X-0066375Y00475834
X-0066375Y003875
X-0059Y00525
X-010325
X-01007917Y00574167
X-01057083
X-0110625
X-01155417
X-01204583
X-0125375
X-01302917
X-01352083
X-013275Y00623334
X-01302917Y00672501
X-0125375
X-01204583
X-01155417
X-0110625
X-01057083
X-01007917
X-010325Y00623334
X-0118
Y00525
Y00426667
X-0118Y003875
X-0125375
X-01278333Y00426667
X-01229167
X-0125375Y00475834
X-013275Y00525
Y00426667
X-013275Y003875
X-0110625
X-01130833Y00426667
X-01081667
X-010325
X-010325Y003875
X-00983333Y00426667
X-0110625Y00475834
X-01352083Y00672501
X-0140125
Y00574167
Y00475834
X-01376667Y00426667
X-0140125Y003875
X-01415Y003715
X-01415Y00355
X-01475Y00328334
Y00426667
Y00525
Y00623334
Y00721667
Y00820001
Y00918334
Y01016667
X-0140125Y01065834
Y00967501
Y00770834
X-01352083
X-01302917
X-0125375
X-01204583
X-01155417
X-0110625
X-01057083
X-01007917
X-010325Y00820001
X-01007917Y00869167
X-01057083
X-010325Y00918334
X-01007917Y00967501
X-01057083
X-0110625
X-01155417
X-01204583
X-0125375
X-01302917
X-01352083
X-013275Y01016667
X-01302917Y01065834
X-0125375
X-01204583
X-01155417
X-0110625
X-01057083
X-01007917
X-010325Y01016667
X-0118
Y00918334
X-01155417Y00869167
X-01204583
X-0118Y00820001
Y00721667
X-010325
X-013275
Y00820001
X-01302917Y00869167
X-01352083
X-013275Y00918334
X-01352083Y01065834
X-0095875
X-00909583
X-00860416
X-0081125
X-00762083
X-00712916
X-0066375
X-00614583
X-0059Y01016667
X-00614583Y00967501
X-0066375
X-00712916
X-00762083
X-0081125
X-00860416
X-00909583
X-0095875
X-00885Y01016667
Y00918334
X-00860416Y00869167
X-00909583
X-00885Y00820001
X-00860416Y00770834
X-0081125
X-00762083
X-00712916
X-0066375
X-00614583
X-0059Y00820001
X-00614583Y00869167
X-0059Y00918334
X-007375
X-00712916Y00869167
X-00762083
X-007375Y00820001
Y00721667
X-0059
X-00885
X-00909583Y00770834
X-0095875
X-007375Y01016667
X-00565416Y01065834
X-0051625
X-00467083
X-00417916
X-0036875
X-00319583
X-00270416
X-0022125
Y00967501
X-00270416
X-00319583
X-0036875
X-00417916
X-00467083
X-0051625
X-00565416
Y00869167
X-00467083
X-00417916
X-004425Y00918334
Y01016667
X-00295
Y00918334
X-00270416Y00869167
X-00319583
X-00295Y00820001
X-00270416Y00770834
X-0022125
X-00319583
X-0036875
X-00417916
X-00467083
X-0051625
X-00565416
X-004425Y00820001
Y00721667
X-00295
X-001475
X-00122916Y00770834
X-0007375
X-00024583
X00024584
X0007375
X00122917
X00172084
X001475Y00820001
X00172084Y00869167
X00122917
X001475Y00918334
X00172084Y00967501
X00122917
X0007375
X00024584
X-00024583
X-0007375
X-00122916
X-00172083
X-001475Y01016667
X-00122916Y01065834
X-0007375
X-00024583
X00024584
X0007375
X00122917
X00172084
X001475Y01016667
X0
Y00918334
X00024584Y00869167
X-00024583
X0Y00820001
Y00721667
X001475
X-00172083Y00770834
X-001475Y00820001
X-00122916Y00869167
X-00172083
X-001475Y00918334
X-00172083Y01065834
X0022125
X00270417
X00319584
X0036875
X00417917
X00467084
X0051625
X00565417
X0059Y01016667
X00565417Y00967501
X0051625
X00467084
X00417917
X0036875
X00319584
X00270417
X0022125
X00295Y01016667
Y00918334
X00319584Y00869167
X00270417
X00295Y00820001
X00319584Y00770834
X0036875
X00417917
X00467084
X0051625
X00565417
X0059Y00820001
X00565417Y00869167
X0059Y00918334
X004425
X00467084Y00869167
X00417917
X004425Y00820001
Y00721667
X0059
X00295
X00270417Y00770834
X0022125
X004425Y01016667
X00614584Y01065834
X00663751
X00712917
X00762084
X00811251
X00860417
X00909584
X00958751
X01007917
Y00967501
X00958751
X00909584
X00860417
X00811251
X00762084
X00712917
X00663751
X00614584
Y00869167
X00712917
X00762084
X00737501Y00918334
Y01016667
X00885001
Y00918334
X00909584Y00869167
X00860417
X00885001Y00820001
X00909584Y00770834
X00958751
X01007917
Y00869167
X00860417Y00770834
X00811251
X00762084
X00712917
X00663751
X00614584
X00737501Y00820001
Y00721667
X00885001
X01032501
X01057084Y00770834
X01106251
X01155417
X01204584
X01253751
X01302917
X01352084
X01401251
X01327501Y00820001
X01352084Y00869167
X01302917
X01327501Y00918334
X01352084Y00967501
X01401251
Y01065834
X01352084
X01302917
X01253751
X01204584
X01155417
X01106251
X01057084
X01032501Y01016667
X01057084Y00967501
X01106251
X01155417
X01204584
X01253751
X01302917
X01327501Y01016667
X01180001
Y00918334
X01204584Y00869167
X01155417
X01180001Y00820001
Y00721667
X01327501
X01032501Y00820001
X01057084Y00869167
X01032501Y00918334
X01425834
Y01016667
Y00820001
Y00721667
Y01115001
Y01213334
Y01311667
Y01410001
X01401251Y01459167
X01352084
X01302917
X01327501Y01410001
X01352084Y01360834
X01401251
Y01262501
X01352084
X01302917
X01253751
X01204584
X01155417
X01106251
X01057084
X01032501Y01311667
X01057084Y01360834
X01106251
X01155417
X01204584
X01253751
X01302917
X01327501Y01311667
Y01213334
X01352084Y01164167
X01401251
X01302917
X01253751
X01204584
X01155417
X01106251
X01057084
X01032501Y01213334
Y01115001
X01180001
Y01213334
Y01311667
Y01410001
X01204584Y01459167
X01155417
X01057084
X01032501Y01410001
X01327501Y01115001
X01007917Y01164167
X00958751
X00909584
X00860417
X00811251
X00762084
X00712917
X00663751
X00614584
Y01262501
X00663751
X00712917
X00762084
X00811251
X00860417
X00909584
X00958751
X01007917
Y01360834
X00958751
X00909584
X00860417
X00811251
X00762084
X00712917
X00663751
X00614584
Y01459167
X00712917
X00762084
X00737501Y01410001
Y01311667
Y01213334
Y01115001
X00885001
Y01213334
Y01311667
Y01410001
X00909584Y01459167
X00860417
X01007917
X00565417
X0059Y01410001
X00565417Y01360834
X0051625
X00467084
X00417917
X0036875
X00319584
X00270417
X0022125
Y01262501
X00270417
X00319584
X0036875
X00417917
X00467084
X0051625
X00565417
X0059Y01311667
Y01213334
X00565417Y01164167
X0051625
X00467084
X00417917
X0036875
X00319584
X00270417
X0022125
X00295Y01213334
Y01311667
Y01410001
X00319584Y01459167
X00270417
X00417917
X00467084
X004425Y01410001
Y01311667
Y01213334
Y01115001
X0059
X00295
X001475
X00172084Y01164167
X00122917
X0007375
X00024584
X-00024583
X-0007375
X-00122916
X-00172083
X-001475Y01213334
X-00122916Y01262501
X-0007375
X-00024583
X00024584
X0007375
X00122917
X00172084
X001475Y01311667
X00172084Y01360834
X00122917
X0007375
X00024584
X-00024583
X-0007375
X-00122916
X-00172083
X-001475Y01410001
X-00122916Y01459167
X-00172083
X-00024583
X00024584
X0Y01410001
Y01311667
Y01213334
Y01115001
X-001475
X-00172083Y01262501
X-001475Y01311667
X001475Y01410001
X00172084Y01459167
X00122917
X001475Y01213334
X-0022125Y01262501
X-00270416
X-00319583
X-0036875
X-00417916
X-00467083
X-0051625
X-00565416
Y01360834
X-0051625
X-00467083
X-00417916
X-0036875
X-00319583
X-00270416
X-0022125
X-00295Y01410001
X-00270416Y01459167
X-00319583
X-00417916
X-00467083
X-004425Y01410001
Y01311667
Y01213334
X-00417916Y01164167
X-0036875
X-00319583
X-00270416
X-0022125
X-00295Y01213334
Y01311667
Y01115001
X-004425
X-00467083Y01164167
X-0051625
X-00565416
Y01459167
X-00614583
X-0059Y01410001
X-00614583Y01360834
X-0066375
X-00712916
X-00762083
X-0081125
X-00860416
X-00909583
X-0095875
Y01262501
X-00909583
X-00860416
X-0081125
X-00762083
X-00712916
X-0066375
X-00614583
X-0059Y01311667
Y01213334
X-00614583Y01164167
X-0066375
X-00712916
X-00762083
X-0081125
X-00860416
X-00909583
X-0095875
X-00885Y01213334
Y01311667
Y01410001
X-00860416Y01459167
X-00909583
X-00762083
X-00712916
X-007375Y01410001
Y01311667
Y01213334
Y01115001
X-0059
X-00885
X-010325
X-01007917Y01164167
X-01057083
X-0110625
X-01155417
X-01204583
X-0125375
X-01302917
X-01352083
X-013275Y01213334
X-01302917Y01262501
X-0125375
X-01204583
X-01155417
X-0110625
X-01057083
X-01007917
X-010325Y01311667
X-01007917Y01360834
X-01057083
X-0110625
X-01155417
X-01204583
X-0125375
X-01302917
X-01352083
X-013275Y01410001
X-01302917Y01459167
X-01352083
X-01204583
X-01155417
X-0118Y01410001
Y01311667
Y01213334
Y01115001
X-013275
X-01352083Y01262501
X-013275Y01311667
X-010325Y01410001
X-01007917Y01459167
X-01057083
X-010325Y01213334
X-0140125Y01262501
Y01360834
Y01459167
X-01475Y01410001
Y01311667
Y01213334
Y01115001
X-0140125Y01164167
Y01557501
Y01655834
Y01754167
X-01376667Y01803334
X-01475
Y01705001
Y01606667
Y01508334
X-014125Y01901
X-01352083Y01852501
X-01302917
X-0125375
X-01204583
X-01155417
X-0110625
X-01057083
X-01007917
X-00983333Y01803334
X-010325
X-01081667
X-01057083Y01754167
X-01007917
X-010325Y01705001
X-01007917Y01655834
X-01057083
X-0110625
X-01155417
X-01204583
X-0125375
X-01302917
X-01352083
X-013275Y01705001
X-01302917Y01754167
X-0125375
X-01204583
X-01155417
X-0110625
X-0118Y01803334
Y01705001
Y01606667
X-01155417Y01557501
X-0110625
X-01057083
X-01007917
X-010325Y01606667
Y01508334
X-0118
X-01204583Y01557501
X-0125375
X-01302917
X-01352083
X-013275Y01606667
Y01508334
X-01352083Y01754167
X-013275Y01803334
X-01278333
X-0095875Y01852501
X-00909583
X-00860416
X-0081125
X-00762083
X-00712916
X-0066375
X-00614583
X-0059Y01803334
X-00614583Y01754167
X-0066375
X-00712916
X-00762083
X-0081125
X-00860416
X-00909583
X-0095875
Y01655834
X-00909583
X-00860416
X-0081125
X-00762083
X-00712916
X-0066375
X-00614583
X-0059Y01705001
Y01606667
X-00614583Y01557501
X-0066375
X-00712916
X-00762083
X-0081125
X-00860416
X-00909583
X-0095875
X-00885Y01606667
Y01705001
Y01803334
X-00786666
X-007375
X-00688333
X-007375Y01705001
Y01606667
Y01508334
X-0059
X-00885
X-00565416Y01557501
X-0051625
X-00467083
X-00417916
X-0036875
X-00319583
X-00270416
X-0022125
Y01655834
X-00270416
X-00319583
X-0036875
X-00417916
X-00467083
X-0051625
X-00565416
Y01754167
X-0051625
X-00467083
X-00417916
X-0036875
X-00319583
X-00270416
X-0022125
X-00196666Y01803334
X-0022125Y01852501
X-00270416
X-00319583
X-0036875
X-00417916
X-00467083
X-0051625
X-00565416
X-00491666Y01803334
X-004425
X-00393333
X-00295
Y01705001
Y01606667
Y01508334
X-004425
Y01606667
Y01705001
X-001475
X-00122916Y01754167
X-0007375
X-00024583
X00024584
X0007375
X00122917
X00172084
X00196667Y01803334
X001475
X00098334
X00122917Y01852501
X00172084
X0007375
X00024584
X-00024583
X-0007375
X-00122916
X-00172083
X-001475Y01803334
X-00098333
X0
Y01705001
X00024584Y01655834
X0007375
X00122917
X00172084
X001475Y01705001
Y01606667
X00172084Y01557501
X00122917
X0007375
X00024584
X-00024583
X-0007375
X-00122916
X-00172083
X-001475Y01606667
X-00122916Y01655834
X-0007375
X-00024583
X0Y01606667
Y01508334
X001475
X-001475
X-00172083Y01655834
Y01754167
X0022125
X00270417
X00319584
X0036875
X00417917
X00467084
X0051625
X00565417
X0059Y01803334
X00565417Y01852501
X0051625
X00467084
X00417917
X0036875
X00319584
X00270417
X0022125
X00295Y01803334
X00393334
X004425
X00491667
X004425Y01705001
X00467084Y01655834
X0051625
X00565417
X0059Y01705001
Y01606667
X00565417Y01557501
X0051625
X00467084
X00417917
X0036875
X00319584
X00270417
X0022125
Y01655834
X00270417
X00319584
X0036875
X00417917
X004425Y01606667
Y01508334
X0059
X00295
Y01606667
Y01705001
X00614584Y01754167
X00663751
X00712917
X00762084
X00811251
X00860417
X00909584
X00958751
X01007917
X00983334Y01803334
X01007917Y01852501
X00958751
X00909584
X00860417
X00811251
X00762084
X00712917
X00663751
X00614584
X00688334Y01803334
X00737501
X00786667
X00885001
Y01705001
X00909584Y01655834
X00958751
X01007917
Y01557501
X00958751
X00909584
X00860417
X00811251
X00762084
X00712917
X00663751
X00614584
Y01655834
X00663751
X00712917
X00762084
X00811251
X00860417
X00885001Y01606667
Y01508334
X00737501
Y01606667
Y01705001
X01032501
X01057084Y01754167
X01106251
X01155417
X01204584
X01253751
X01302917
X01352084
X01401251
X01376667Y01803334
X01327501
X01278334
X01302917Y01852501
X01352084
X01401251
X01253751
X01204584
X01206Y01885
X01155417Y01852501
X01106251
X01057084
X01081667Y01803334
X01032501
X01180001
Y01705001
X01204584Y01655834
X01253751
X01302917
X01352084
X01401251
Y01557501
X01352084
X01302917
X01253751
X01204584
X01155417
X01106251
X01057084
X01032501Y01606667
X01057084Y01655834
X01106251
X01155417
X01180001Y01606667
Y01508334
X01327501
Y01606667
Y01705001
X01032501Y01508334
X01425834
Y01606667
Y01705001
Y01803334
X01450417Y02049167
X01451198Y02078751
X0146Y02077
X01468801Y02078751
X01476263Y02083737
X01481249Y02091198
X01483Y021
X01481249Y02108802
X01476264Y02116263
X01468802Y02121249
X0146Y02123
X01451198Y02121249
X01443737Y02116264
X0143875Y02108802
X01437Y021
X0143875Y02091198
X01443736Y02083737
X01376667Y02098334
X01327501
X01278334
X01229167
X01245Y020825
X01253751Y02049167
X01302917
X01352084
X01401251Y01950834
X01253751
X01206Y020025
X01204584Y02049167
X01180001Y02098334
X0112Y02105
X01081667Y02098334
X01032501
X0108Y02035
X0108875Y02035
X010975Y02035
X0110625Y02035
X01115Y02035
X0112375Y02035
X011325Y02035
X01106251Y01950834
X00958751
X00811251
X00663751
X00688334Y02098334
X00737501
X00786667
X00835834
X00885001
X00934167
X00983334
X00639167
X0059
X00540834
X00473Y021
X00471249Y02091198
X00466264Y02083737
X00458801Y02078751
X0045Y02077
X00441198Y02078751
X00433736Y02083737
X0042875Y02091198
X00427Y021
X0042875Y02108802
X00433737Y02116264
X00441198Y02121249
X0045Y02123
X00458802Y02121249
X00466264Y02116263
X00471249Y02108802
X003825Y02105
X00344167Y02098334
X0036875Y02147501
X00319584
X00270417
X0022125
X00245834Y02196667
X00270417Y02245834
X00319584
X0036875
X00344167Y02295001
X0032Y02295
X00245834Y02295001
X00344167Y02196667
X0036Y02035
X0036875Y02035
X003775Y02035
X0036875Y01950834
X00295Y02000001
X00245834
X0022125Y01950834
X00245834Y02098334
X0051625Y01950834
X00196667Y02000001
Y02098334
X00155588Y02094
X00158Y02085
X00155588Y02076
X00149Y02069412
X0014Y02067
X00131Y02069412
X00124412Y02076
X00122Y02085
X00124412Y02094
X00131Y02100588
X0014Y02103
X00149Y02100588
X00098334Y02098334
X00049167
X0
X-00049166
X-00098333
X-00124412Y02094
X-00122Y02085
X-00124412Y02076
X-00131Y02069412
X-0014Y02067
X-00149Y02069412
X-00155588Y02076
X-00158Y02085
X-00155588Y02094
X-00149Y02100588
X-0014Y02103
X-00131Y02100588
X-00122916Y02147501
Y02245834
X-00161536Y02241263
X-00156551Y02233802
X-001548Y02225
X-00156551Y02216198
X-00161537Y02208737
X-00168999Y02203751
X-001778Y02202
X-001778Y02248
X-00168998Y02246249
X-001475Y02295001
X-00098333
X00098334
X00122917Y02245834
X00161536Y02241263
X00156551Y02233802
X001548Y02225
X00156551Y02216198
X00161537Y02208737
X00168999Y02203751
X001778Y02202
X00186602Y02203751
X00194064Y02208737
X0019905Y02216198
X002008Y02225
X00199049Y02233802
X00194063Y02241264
X00186602Y02246249
X001778Y02248
X00168998Y02246249
X00196667Y02295001
X00172084Y02147501
X00122917
X00098334Y02196667
X-00186602Y02203751
X-00194064Y02208737
X-0019905Y02216198
X-002008Y02225
X-00199049Y02233802
X-00194063Y02241264
X-00186602Y02246249
X-00196666Y02295001
X-00245833
X-00270416Y02245834
X-00245833Y02196667
X-0022125Y02147501
X-00270416
X-00325Y02175
X-0036875Y02147501
X-00355Y02105
X-00393333Y02098334
X-00427Y021
X-00428751Y02091198
X-00433736Y02083737
X-00441199Y02078751
X-0045Y02077
X-00458802Y02078751
X-00466264Y02083737
X-0047125Y02091198
X-00473Y021
X-0047125Y02108802
X-00466263Y02116264
X-00458802Y02121249
X-0045Y02123
X-00441198Y02121249
X-00433736Y02116263
X-00428751Y02108802
X-00540833Y02098334
X-0051625Y01950834
X-0036875
X-0036875Y02035
X-0036Y02035
X-003775Y02035
X-00271794Y02021206
X-00262794
X-00248Y02021
X-00239
X-00239Y02059
X-00248Y02065
X-0023Y02075
X-00196666Y02000001
X-0022125Y01950834
X-0066375
X-0081125
X-0095875
X-00934166Y02098334
X-00885
X-00835833
X-00786666
X-007375
X-00688333
X-00639166
X-0059
X-00983333
X-010325
X-010925Y02105
X-01130833Y02098334
X-0118
X-01229167
X-01278333
X-013275
X-01302917Y02049167
X-0125375
X-01204583
X-01155417
X-0110625Y01950834
X-0125375
X-01268Y01921
X-0127675Y01921
X-012855Y01921
X-0129425Y01921
X-01303Y01921
X-01352083Y02049167
X-0140125
X-01450417
X-01451199Y02078751
X-0146Y02077
X-01468802Y02078751
X-01476264Y02083737
X-0148125Y02091198
X-01483Y021
X-0148125Y02108802
X-01476263Y02116264
X-01468802Y02121249
X-0146Y02123
X-01451198Y02121249
X-01443736Y02116263
X-01438751Y02108802
X-01437Y021
X-01438751Y02091198
X-01443737Y02083737
X-01376667Y02098334
X-01405Y01936
Y01926
Y01916
Y01906
X-014125Y01911
Y01921
Y01931
Y01941
X-0142Y01936
Y01926
Y01916
Y01906
X-01475Y01901667
Y02000001
X-0022125Y02344168
X-00155588Y02356
X-00158Y02365
X-00155588Y02374
X-00149Y02380588
X-0014Y02383
X-00131Y02380588
X-00124412Y02374
X-00122Y02365
X-00124412Y02356
X-00131Y02349412
X-0014Y02347
X-00149Y02349412
X00024584Y02344168
X0007375
X00124412Y02356
X00122Y02365
X00124412Y02374
X00131Y02380588
X0014Y02383
X00149Y02380588
X00155588Y02374
X00158Y02365
X00155588Y02356
X00149Y02349412
X0014Y02347
X00131Y02349412
X0022125Y02344168
X0036875
T02
X-007423Y-007626
X-00715Y-00535
X-00425Y-0076
X0055Y-00581
Y-00566
Y-00551
Y-00536
Y-00521
Y-00506
Y-00491
X0145Y-00585
Y-006
X0055Y-00476
X003395Y-00225
Y-0021
X000875Y-0020975
Y-0022475
Y-0019475
X-000805Y-0021
Y-00225
X-012875Y-00184
Y-0029
Y-00305
X-01385Y-00184
X-01395Y-00073
T03
X005975Y-005545
X009575Y-005145
X010775Y-005545
X014375Y-005145
Y-003755
Y-002995
Y-001605
X010775
Y-002995
Y-004155
X009575Y-003755
Y-002995
Y-001605
X005975
Y-002995
Y-004155
T05
X-00087Y02351
X-00067
X-00047
X-00027
T07
X-01315Y-013001
X-0129
X-0127
X-01245
X-0073011Y-0102075
X-01255Y-00955
X-01305
Y-011
X-0128
X-01255
X-0146Y-01025
X-008313Y-0079
X-008059
X-007805
X-007551
X-007297
X-007043
X-0063411Y-008035
X-004503Y-0079
X-004249
X-003995
X-003741
X-003487
X-003336Y-002165
Y-001915
Y-001715
Y-001465
X-013901Y-0039
Y-00415
Y-00435
Y-0046
X-000635Y-0002
X-000381
X-000127
X000127
X000381
X000635
X0108085Y020745
X0110625
X0113165
X0039415
X0036875
X0034335
X-0034335
X-0036875
X-0039415
X-003631Y022
X-003377
X-003123
X-002869
X-0108085Y020745
X-0110625
X-0113165
T08
X012175Y-00678
X012425
X012675
X012925
X013175
X013425
X003425Y02357
X003175
X002925
X002675
T09
X010825Y00525
X0113Y0061
X0123
X012775Y00695
X013775
Y00525
X012775
X010825Y00695
X009825
X00935Y0061
X00835
X007875Y00695
X006875
X0064Y0061
X006875Y00525
X007875
X009825
X004925
X003925
X00345Y0061
X00245
X003925Y00695
X004925
X0054Y0061
X001975Y00695
X000975
X0005Y0061
X-0005
X-000975Y00695
Y00525
X000975
X001975
X-001975
X-00245Y0061
X-00345
X-003925Y00695
X-004925
X-0054Y0061
X-004925Y00525
X-003925
X-001975Y00695
X-006875
X-007875
X-00835Y0061
X-00935
X-007875Y00525
X-006875
X-0064Y0061
X-009825Y00695
X-010825
X-0113Y0061
X-0123
X-012775Y00695
Y00525
X-010825
X-009825
X-013775
Y00695
Y00865
Y01035
X-012775
X-0123Y0095
X-0113
X-010825Y01035
X-009825
Y00865
X-010825
X-0113Y0078
X-0123
X-012775Y00865
X-00935Y0078
X-00835
X-007875Y00865
X-006875
X-0064Y0078
Y0095
X-006875Y01035
X-007875
X-00835Y0095
X-00935
X-0054
X-004925Y01035
X-003925
X-00345Y0095
X-00245
X-001975Y01035
Y00865
X-00245Y0078
X-00345
X-003925Y00865
X-004925
X-0054Y0078
X-0005
X0005
X000975Y00865
X001975
Y01035
X000975
X0005Y0095
X-0005
X-000975Y01035
Y00865
X00245Y0078
X00345
X003925Y00865
X004925
X0054Y0078
Y0095
X004925Y01035
X003925
X00345Y0095
X00245
X0064
X006875Y01035
X007875
X00835Y0095
X00935
X009825Y01035
Y00865
X00935Y0078
X00835
X007875Y00865
X006875
X0064Y0078
X0113
X0123
X012775Y00865
X013775
Y01035
X012775
X0123Y0095
X0113
X010825Y01035
Y00865
X0113Y0112
X0123
X012775Y01205
X013775
Y01375
X012775
X0123Y0129
X0113
X010825Y01375
X0113Y0146
X0123
X010825Y01205
X009825
X00935Y0112
X00835
X007875Y01205
X006875
X0064Y0112
Y0129
X006875Y01375
X007875
X00835Y0129
X00935
X009825Y01375
X00935Y0146
X00835
X0064
X0054
X004925Y01375
X003925
X00345Y0129
X00245
Y0146
X00345
X003925Y01205
X004925
X0054Y0112
Y0129
X00345Y0112
X00245
X001975Y01205
X000975
X0005Y0112
X-0005
X-000975Y01205
X-0005Y0129
X0005
X000975Y01375
X001975
X0005Y0146
X-0005
X-000975Y01375
X-001975
X-00245Y0129
X-00345
X-003925Y01375
X-004925
X-0054Y0129
X-004925Y01205
X-003925
X-00345Y0112
X-00245
X-001975Y01205
X-00245Y0146
X-00345
X-0054
Y0112
X-0064
X-006875Y01205
X-007875
X-00835Y0112
X-00935
Y0129
X-00835
X-007875Y01375
X-006875
X-0064Y0129
Y0146
X-00835
X-00935
X-009825Y01375
X-010825
X-0113Y0129
X-0123
X-012775Y01375
X-0123Y0146
X-0113
X-010825Y01205
X-009825
X-0113Y0112
X-0123
X-012775Y01205
X-013775
Y01375
Y01545
Y01715
X-012775
X-0123Y018
X-0113
X-010825Y01715
X-009825
Y01545
X-010825
X-0113Y0163
X-0123
X-012775Y01545
X-00935Y0163
X-00835
X-007875Y01545
X-006875
X-0064Y0163
X-006875Y01715
X-007875
X-00835Y018
X-00935
X-0064
X-0054
X-004925Y01715
X-003925
X-00345Y0163
X-00245
X-001975Y01545
Y01715
X-00245Y018
X-00345
X-003925Y01545
X-004925
X-0054Y0163
X-0005
X0005
X000975Y01545
X001975
Y01715
X000975
X0005Y018
X-0005
X-000975Y01715
Y01545
X00245Y0163
X00345
X003925Y01545
X004925
X0054Y0163
X004925Y01715
X003925
X00345Y018
X00245
X0054
X0064
X006875Y01715
X007875
X00835Y018
X00935
X009825Y01715
X00935Y0163
X00835
X007875Y01545
X006875
X0064Y0163
X009825Y01545
X010825
X0113Y0163
X0123
X012775Y01715
X013775
Y01545
X012775
X0123Y018
X0113
X010825Y01715
T10
X-009346Y-0095
X-009854
T12
X-0014Y02085
X0014
Y02365
X-0014
T13
X-013457Y-013272
X-012143
X-014172Y-004907
X-003607Y-002472
Y-001158
X-014172Y-003593
T14
X-0119Y-00565
X-0086
X-0061Y-00681
X-00208Y-0061725
X00372
X0053Y-00681
Y-00091
X00372Y-0012725
X-00208
X-0061Y-00091
X-0086Y-00085
X-0119
T15
X-0146Y-0131
Y-008
X-0045Y-0071
X0045
X0146Y-008
X-0146Y0
X-0045
X0045
X0146
Y021
X0045
X001778Y02225
X-001778
X-0045Y021
X-0146
T16
X-014497Y-002539
Y-001961
T17
X-014725Y-001135
Y-000835
T18
X-01485Y-01275
X01485Y-00765
Y02065
X-01485
T19
X0118Y00475
X00885
X0059
X00295
X0
X-00295
X-0059
X-00885
X-0118Y00475
X-010325Y0185
X-013275
X-007375
X-004425
X-001475
X001475
X004425
X007375
X010325
X013275
M30
