G04*
G04 #@! TF.GenerationSoftware,Altium Limited,Altium Designer,22.2.1 (43)*
G04*
G04 Layer_Color=8388736*
%FSLAX44Y44*%
%MOMM*%
G71*
G04*
G04 #@! TF.SameCoordinates,CDD9168B-683F-4F5A-B1B2-3852E0251DB5*
G04*
G04*
G04 #@! TF.FilePolarity,Negative*
G04*
G01*
G75*
%ADD10C,0.2540*%
%ADD19R,1.7032X1.1032*%
%ADD20R,0.8382X1.0922*%
%ADD21C,5.2032*%
%ADD22O,1.7032X2.0032*%
%ADD23R,1.7032X2.0032*%
%ADD24O,1.7032X3.5032*%
%ADD25O,1.7032X2.9032*%
%ADD26O,3.5032X1.7032*%
%ADD27O,2.9032X1.7032*%
%ADD28R,1.9032X2.4032*%
%ADD29O,1.9032X2.4032*%
%ADD30R,2.0032X2.4032*%
%ADD31O,2.0032X2.4032*%
%ADD32C,1.2032*%
%ADD33C,0.2032*%
%ADD34O,2.3032X1.4032*%
%ADD35O,2.5032X1.4032*%
%ADD36C,4.0032*%
%ADD37R,2.4032X1.9032*%
%ADD38O,2.4032X1.9032*%
%ADD39O,2.3032X1.7032*%
%ADD40O,2.1032X2.6032*%
%ADD41R,2.1032X2.6032*%
%ADD42O,3.2032X3.7032*%
%ADD43R,3.2032X3.7032*%
%ADD44C,2.7032*%
%ADD45O,2.0032X2.7032*%
%ADD46R,4.0032X5.2032*%
%ADD47C,1.4480*%
%ADD48C,6.4032*%
%ADD49C,2.9032*%
G36*
X-1305283Y-1134582D02*
X-1303178D01*
Y-1134722D01*
X-1301775D01*
Y-1134862D01*
X-1300652D01*
Y-1135003D01*
X-1299670D01*
Y-1135143D01*
X-1298828D01*
Y-1135283D01*
X-1297986D01*
Y-1135424D01*
X-1297284D01*
Y-1135564D01*
X-1296583D01*
Y-1135704D01*
X-1295881D01*
Y-1135844D01*
X-1295320D01*
Y-1135985D01*
X-1294618D01*
Y-1136125D01*
X-1294057D01*
Y-1136265D01*
X-1293496D01*
Y-1136406D01*
X-1293075D01*
Y-1136546D01*
X-1292513D01*
Y-1136686D01*
X-1292092D01*
Y-1136827D01*
X-1291531D01*
Y-1136967D01*
X-1291110D01*
Y-1137107D01*
X-1290689D01*
Y-1137248D01*
X-1290268D01*
Y-1137388D01*
X-1289847D01*
Y-1137528D01*
X-1289426D01*
Y-1137669D01*
X-1289005D01*
Y-1137809D01*
X-1288725D01*
Y-1137949D01*
X-1288304D01*
Y-1138090D01*
X-1287883D01*
Y-1138230D01*
X-1287602D01*
Y-1138370D01*
X-1287181D01*
Y-1138511D01*
X-1286900D01*
Y-1138651D01*
X-1286479D01*
Y-1138791D01*
X-1286199D01*
Y-1138932D01*
X-1285778D01*
Y-1139072D01*
X-1285497D01*
Y-1139212D01*
X-1285217D01*
Y-1139353D01*
X-1284936D01*
Y-1139493D01*
X-1284515D01*
Y-1139633D01*
X-1284234D01*
Y-1139774D01*
X-1283954D01*
Y-1139914D01*
X-1283673D01*
Y-1140054D01*
X-1283392D01*
Y-1140195D01*
X-1283112D01*
Y-1140335D01*
X-1282831D01*
Y-1140475D01*
X-1282550D01*
Y-1140616D01*
X-1282270D01*
Y-1140756D01*
X-1281989D01*
Y-1140896D01*
X-1281708D01*
Y-1141037D01*
X-1281428D01*
Y-1141177D01*
X-1281147D01*
Y-1141317D01*
X-1281007D01*
Y-1141458D01*
X-1280726D01*
Y-1141598D01*
X-1280446D01*
Y-1141738D01*
X-1280165D01*
Y-1141879D01*
X-1280024D01*
Y-1142019D01*
X-1279744D01*
Y-1142159D01*
X-1279463D01*
Y-1142299D01*
X-1279183D01*
Y-1142440D01*
X-1279042D01*
Y-1142580D01*
X-1278762D01*
Y-1142720D01*
X-1278481D01*
Y-1142861D01*
X-1278341D01*
Y-1143001D01*
X-1278060D01*
Y-1143141D01*
X-1277920D01*
Y-1143282D01*
X-1277639D01*
Y-1143422D01*
X-1277499D01*
Y-1143562D01*
X-1277218D01*
Y-1143703D01*
X-1277078D01*
Y-1143843D01*
X-1276797D01*
Y-1143983D01*
X-1276657D01*
Y-1144124D01*
X-1276376D01*
Y-1144264D01*
X-1276236D01*
Y-1144404D01*
X-1275955D01*
Y-1144545D01*
X-1275815D01*
Y-1144685D01*
X-1275534D01*
Y-1144825D01*
X-1275394D01*
Y-1144966D01*
X-1275113D01*
Y-1145106D01*
X-1274973D01*
Y-1145246D01*
X-1274833D01*
Y-1145387D01*
X-1274552D01*
Y-1145527D01*
X-1274411D01*
Y-1145667D01*
X-1274271D01*
Y-1145808D01*
X-1273990D01*
Y-1145948D01*
X-1273850D01*
Y-1146088D01*
X-1273710D01*
Y-1146228D01*
X-1273429D01*
Y-1146369D01*
X-1273289D01*
Y-1146509D01*
X-1273149D01*
Y-1146649D01*
X-1273008D01*
Y-1146790D01*
X-1272728D01*
Y-1146930D01*
X-1272587D01*
Y-1147070D01*
X-1272447D01*
Y-1147211D01*
X-1272307D01*
Y-1147351D01*
X-1272166D01*
Y-1147492D01*
X-1271886D01*
Y-1147632D01*
X-1271745D01*
Y-1147772D01*
X-1271605D01*
Y-1147912D01*
X-1271465D01*
Y-1148053D01*
X-1271324D01*
Y-1148193D01*
X-1271184D01*
Y-1148333D01*
X-1270903D01*
Y-1148474D01*
X-1270763D01*
Y-1148614D01*
X-1270623D01*
Y-1148754D01*
X-1270482D01*
Y-1148895D01*
X-1270342D01*
Y-1149035D01*
X-1270202D01*
Y-1149175D01*
X-1270061D01*
Y-1149316D01*
X-1269921D01*
Y-1149456D01*
X-1269781D01*
Y-1149596D01*
X-1269500D01*
Y-1149737D01*
X-1269360D01*
Y-1149877D01*
X-1269220D01*
Y-1150017D01*
X-1269079D01*
Y-1150158D01*
X-1268939D01*
Y-1150298D01*
X-1268799D01*
Y-1150438D01*
X-1268658D01*
Y-1150579D01*
X-1268518D01*
Y-1150719D01*
X-1268378D01*
Y-1150859D01*
X-1268237D01*
Y-1151000D01*
X-1268097D01*
Y-1151140D01*
X-1267957D01*
Y-1151280D01*
X-1267816D01*
Y-1151421D01*
X-1267676D01*
Y-1151561D01*
X-1267535D01*
Y-1151701D01*
X-1267395D01*
Y-1151842D01*
X-1267255D01*
Y-1151982D01*
X-1267115D01*
Y-1152122D01*
X-1266974D01*
Y-1152262D01*
X-1266834D01*
Y-1152403D01*
X-1266694D01*
Y-1152543D01*
X-1266553D01*
Y-1152683D01*
X-1266413D01*
Y-1152824D01*
X-1266273D01*
Y-1152964D01*
X-1266132D01*
Y-1153104D01*
X-1265992D01*
Y-1153245D01*
X-1265852D01*
Y-1153385D01*
X-1265711D01*
Y-1153525D01*
X-1265571D01*
Y-1153666D01*
X-1265431D01*
Y-1153806D01*
X-1265290D01*
Y-1153946D01*
X-1265150D01*
Y-1154087D01*
X-1265010D01*
Y-1154227D01*
X-1264870D01*
Y-1154367D01*
X-1264729D01*
Y-1154508D01*
X-1264589D01*
Y-1154648D01*
X-1264308D01*
Y-1154788D01*
X-1264168D01*
Y-1154929D01*
X-1264027D01*
Y-1155069D01*
X-1263887D01*
Y-1155209D01*
X-1263747D01*
Y-1155350D01*
X-1263606D01*
Y-1155490D01*
X-1263466D01*
Y-1155630D01*
X-1263326D01*
Y-1155771D01*
X-1263186D01*
Y-1155911D01*
X-1263045D01*
Y-1156051D01*
X-1262905D01*
Y-1156192D01*
X-1262765D01*
Y-1156332D01*
X-1262624D01*
Y-1156472D01*
X-1262484D01*
Y-1156613D01*
X-1262344D01*
Y-1156753D01*
X-1262203D01*
Y-1156893D01*
X-1262063D01*
Y-1157033D01*
X-1261923D01*
Y-1157174D01*
X-1261782D01*
Y-1157314D01*
X-1261642D01*
Y-1157455D01*
X-1261502D01*
Y-1157595D01*
X-1261221D01*
Y-1157735D01*
X-1261081D01*
Y-1157875D01*
X-1260940D01*
Y-1158016D01*
X-1260800D01*
Y-1158156D01*
X-1260660D01*
Y-1158296D01*
X-1260519D01*
Y-1158437D01*
X-1260379D01*
Y-1158577D01*
X-1260239D01*
Y-1158717D01*
X-1260098D01*
Y-1158858D01*
X-1259958D01*
Y-1158998D01*
X-1259818D01*
Y-1159138D01*
X-1259677D01*
Y-1159279D01*
X-1259537D01*
Y-1159419D01*
X-1259397D01*
Y-1159559D01*
X-1259256D01*
Y-1159700D01*
X-1259116D01*
Y-1159840D01*
X-1258976D01*
Y-1159980D01*
X-1258836D01*
Y-1160121D01*
X-1258695D01*
Y-1160261D01*
X-1258555D01*
Y-1160401D01*
X-1258415D01*
Y-1160542D01*
X-1258274D01*
Y-1160682D01*
X-1258134D01*
Y-1160822D01*
X-1257993D01*
Y-1160963D01*
X-1257853D01*
Y-1161103D01*
X-1257713D01*
Y-1161243D01*
X-1257573D01*
Y-1161384D01*
X-1257432D01*
Y-1161524D01*
X-1257292D01*
Y-1161664D01*
X-1257152D01*
Y-1161805D01*
X-1257011D01*
Y-1161945D01*
X-1256871D01*
Y-1162085D01*
X-1256731D01*
Y-1162225D01*
X-1256590D01*
Y-1162366D01*
X-1256450D01*
Y-1162506D01*
X-1256310D01*
Y-1162646D01*
X-1256169D01*
Y-1162787D01*
X-1256029D01*
Y-1162927D01*
X-1255889D01*
Y-1163067D01*
X-1255748D01*
Y-1163208D01*
X-1255608D01*
Y-1163348D01*
X-1255468D01*
Y-1163488D01*
X-1255327D01*
Y-1163629D01*
X-1255187D01*
Y-1163769D01*
X-1255047D01*
Y-1163909D01*
X-1254906D01*
Y-1164050D01*
X-1254766D01*
Y-1164190D01*
X-1254626D01*
Y-1164330D01*
X-1254485D01*
Y-1164471D01*
X-1254345D01*
Y-1164611D01*
X-1254205D01*
Y-1164751D01*
X-1254064D01*
Y-1164892D01*
X-1253924D01*
Y-1165032D01*
X-1253784D01*
Y-1165172D01*
X-1253643D01*
Y-1165313D01*
X-1253503D01*
Y-1165453D01*
Y-1165593D01*
X-1253363D01*
Y-1165734D01*
X-1253223D01*
Y-1165874D01*
X-1253082D01*
Y-1166014D01*
X-1252942D01*
Y-1166155D01*
X-1252802D01*
Y-1166295D01*
X-1252661D01*
Y-1166435D01*
X-1252521D01*
Y-1166576D01*
X-1252381D01*
Y-1166716D01*
X-1252240D01*
Y-1166856D01*
X-1252100D01*
Y-1166997D01*
X-1251960D01*
Y-1167137D01*
Y-1167277D01*
X-1251819D01*
Y-1167418D01*
X-1251679D01*
Y-1167558D01*
X-1251539D01*
Y-1167698D01*
X-1251398D01*
Y-1167839D01*
X-1251258D01*
Y-1167979D01*
X-1251118D01*
Y-1168119D01*
X-1250977D01*
Y-1168260D01*
Y-1168400D01*
X-1250837D01*
Y-1168540D01*
X-1250697D01*
Y-1168680D01*
X-1250556D01*
Y-1168821D01*
X-1250416D01*
Y-1168961D01*
X-1250276D01*
Y-1169101D01*
X-1250135D01*
Y-1169242D01*
Y-1169382D01*
X-1249995D01*
Y-1169522D01*
X-1249855D01*
Y-1169663D01*
X-1249714D01*
Y-1169803D01*
X-1249574D01*
Y-1169943D01*
X-1249434D01*
Y-1170084D01*
Y-1170224D01*
X-1249293D01*
Y-1170364D01*
X-1249153D01*
Y-1170505D01*
X-1249013D01*
Y-1170645D01*
X-1248873D01*
Y-1170785D01*
Y-1170926D01*
X-1248732D01*
Y-1171066D01*
X-1248592D01*
Y-1171206D01*
X-1248451D01*
Y-1171347D01*
X-1248311D01*
Y-1171487D01*
Y-1171627D01*
X-1248171D01*
Y-1171768D01*
X-1248030D01*
Y-1171908D01*
X-1247890D01*
Y-1172048D01*
Y-1172189D01*
X-1247750D01*
Y-1172329D01*
X-1247609D01*
Y-1172469D01*
X-1247469D01*
Y-1172609D01*
Y-1172750D01*
X-1247329D01*
Y-1172890D01*
X-1247188D01*
Y-1173030D01*
X-1247048D01*
Y-1173171D01*
Y-1173311D01*
X-1246908D01*
Y-1173452D01*
X-1246768D01*
Y-1173592D01*
Y-1173732D01*
X-1246627D01*
Y-1173872D01*
X-1246487D01*
Y-1174013D01*
X-1246347D01*
Y-1174153D01*
Y-1174293D01*
X-1246206D01*
Y-1174434D01*
X-1246066D01*
Y-1174574D01*
Y-1174714D01*
X-1245926D01*
Y-1174855D01*
X-1245785D01*
Y-1174995D01*
Y-1175135D01*
X-1245645D01*
Y-1175276D01*
X-1245505D01*
Y-1175416D01*
Y-1175556D01*
X-1245364D01*
Y-1175697D01*
X-1245224D01*
Y-1175837D01*
Y-1175977D01*
X-1245084D01*
Y-1176118D01*
Y-1176258D01*
X-1244943D01*
Y-1176398D01*
X-1244803D01*
Y-1176539D01*
Y-1176679D01*
X-1244663D01*
Y-1176819D01*
Y-1176960D01*
X-1244522D01*
Y-1177100D01*
X-1244382D01*
Y-1177240D01*
Y-1177381D01*
X-1244242D01*
Y-1177521D01*
Y-1177661D01*
X-1244101D01*
Y-1177802D01*
Y-1177942D01*
X-1243961D01*
Y-1178082D01*
X-1243821D01*
Y-1178223D01*
Y-1178363D01*
X-1243680D01*
Y-1178503D01*
Y-1178643D01*
X-1243540D01*
Y-1178784D01*
Y-1178924D01*
X-1243400D01*
Y-1179064D01*
Y-1179205D01*
X-1243259D01*
Y-1179345D01*
Y-1179485D01*
X-1243119D01*
Y-1179626D01*
Y-1179766D01*
X-1242979D01*
Y-1179906D01*
Y-1180047D01*
X-1242839D01*
Y-1180187D01*
Y-1180327D01*
X-1242698D01*
Y-1180468D01*
Y-1180608D01*
X-1242558D01*
Y-1180748D01*
Y-1180889D01*
X-1242418D01*
Y-1181029D01*
Y-1181169D01*
Y-1181310D01*
X-1242277D01*
Y-1181450D01*
Y-1181590D01*
X-1242137D01*
Y-1181731D01*
Y-1181871D01*
Y-1182011D01*
X-1241997D01*
Y-1182152D01*
Y-1182292D01*
X-1241856D01*
Y-1182432D01*
Y-1182573D01*
Y-1182713D01*
X-1241716D01*
Y-1182853D01*
Y-1182993D01*
Y-1183134D01*
X-1241576D01*
Y-1183274D01*
Y-1183415D01*
X-1241435D01*
Y-1183555D01*
Y-1183695D01*
Y-1183836D01*
X-1241295D01*
Y-1183976D01*
Y-1184116D01*
Y-1184256D01*
Y-1184397D01*
X-1241154D01*
Y-1184537D01*
Y-1184678D01*
Y-1184818D01*
X-1241014D01*
Y-1184958D01*
Y-1185098D01*
Y-1185239D01*
Y-1185379D01*
X-1240874D01*
Y-1185519D01*
Y-1185660D01*
Y-1185800D01*
Y-1185940D01*
X-1240734D01*
Y-1186081D01*
Y-1186221D01*
Y-1186361D01*
Y-1186502D01*
Y-1186642D01*
X-1240593D01*
Y-1186782D01*
Y-1186923D01*
Y-1187063D01*
Y-1187203D01*
Y-1187344D01*
X-1240453D01*
Y-1187484D01*
Y-1187624D01*
Y-1187765D01*
Y-1187905D01*
Y-1188045D01*
Y-1188186D01*
Y-1188326D01*
X-1240313D01*
Y-1188466D01*
Y-1188606D01*
Y-1188747D01*
Y-1188887D01*
Y-1189027D01*
Y-1189168D01*
Y-1189308D01*
Y-1189448D01*
Y-1189589D01*
Y-1189729D01*
Y-1189869D01*
Y-1190010D01*
Y-1190150D01*
Y-1190290D01*
Y-1190431D01*
Y-1190571D01*
Y-1190711D01*
Y-1190852D01*
Y-1190992D01*
Y-1191132D01*
Y-1191273D01*
Y-1191413D01*
Y-1191553D01*
Y-1191694D01*
Y-1191834D01*
Y-1191974D01*
Y-1192115D01*
Y-1192255D01*
Y-1192395D01*
Y-1192536D01*
Y-1192676D01*
Y-1192816D01*
Y-1192957D01*
Y-1193097D01*
Y-1193237D01*
Y-1193378D01*
X-1240453D01*
Y-1193518D01*
Y-1193658D01*
Y-1193799D01*
Y-1193939D01*
Y-1194079D01*
Y-1194220D01*
Y-1194360D01*
X-1240593D01*
Y-1194500D01*
Y-1194641D01*
Y-1194781D01*
Y-1194921D01*
Y-1195061D01*
X-1240734D01*
Y-1195202D01*
Y-1195342D01*
Y-1195482D01*
Y-1195623D01*
Y-1195763D01*
X-1240874D01*
Y-1195903D01*
Y-1196044D01*
Y-1196184D01*
Y-1196324D01*
X-1241014D01*
Y-1196465D01*
Y-1196605D01*
Y-1196745D01*
Y-1196886D01*
X-1241154D01*
Y-1197026D01*
Y-1197166D01*
Y-1197307D01*
X-1241295D01*
Y-1197447D01*
Y-1197587D01*
Y-1197728D01*
X-1241435D01*
Y-1197868D01*
Y-1198008D01*
Y-1198149D01*
X-1241576D01*
Y-1198289D01*
Y-1198429D01*
Y-1198570D01*
X-1241716D01*
Y-1198710D01*
Y-1198850D01*
Y-1198991D01*
X-1241856D01*
Y-1199131D01*
Y-1199271D01*
Y-1199411D01*
X-1241997D01*
Y-1199552D01*
Y-1199692D01*
X-1242137D01*
Y-1199833D01*
Y-1199973D01*
Y-1200113D01*
X-1242277D01*
Y-1200254D01*
Y-1200394D01*
X-1242418D01*
Y-1200534D01*
Y-1200675D01*
X-1242558D01*
Y-1200815D01*
Y-1200955D01*
Y-1201095D01*
X-1242698D01*
Y-1201236D01*
Y-1201376D01*
X-1242839D01*
Y-1201516D01*
Y-1201657D01*
X-1242979D01*
Y-1201797D01*
Y-1201937D01*
X-1243119D01*
Y-1202078D01*
Y-1202218D01*
X-1243259D01*
Y-1202358D01*
Y-1202499D01*
X-1243400D01*
Y-1202639D01*
Y-1202779D01*
X-1243540D01*
Y-1202920D01*
Y-1203060D01*
X-1243680D01*
Y-1203200D01*
Y-1203341D01*
X-1243821D01*
Y-1203481D01*
X-1243961D01*
Y-1203621D01*
Y-1203762D01*
X-1244101D01*
Y-1203902D01*
Y-1204042D01*
X-1244242D01*
Y-1204183D01*
Y-1204323D01*
X-1244382D01*
Y-1204463D01*
X-1244522D01*
Y-1204604D01*
Y-1204744D01*
X-1244663D01*
Y-1204884D01*
Y-1205024D01*
X-1244803D01*
Y-1205165D01*
X-1244943D01*
Y-1205305D01*
Y-1205445D01*
X-1245084D01*
Y-1205586D01*
Y-1205726D01*
X-1245224D01*
Y-1205866D01*
X-1245364D01*
Y-1206007D01*
Y-1206147D01*
X-1245505D01*
Y-1206287D01*
X-1245645D01*
Y-1206428D01*
Y-1206568D01*
X-1245785D01*
Y-1206708D01*
X-1245926D01*
Y-1206849D01*
Y-1206989D01*
X-1246066D01*
Y-1207129D01*
X-1246206D01*
Y-1207270D01*
Y-1207410D01*
X-1246347D01*
Y-1207550D01*
X-1246487D01*
Y-1207691D01*
Y-1207831D01*
X-1246627D01*
Y-1207971D01*
X-1246768D01*
Y-1208112D01*
X-1246908D01*
Y-1208252D01*
Y-1208392D01*
X-1247048D01*
Y-1208533D01*
X-1247188D01*
Y-1208673D01*
Y-1208813D01*
X-1247329D01*
Y-1208954D01*
X-1247469D01*
Y-1209094D01*
X-1247609D01*
Y-1209234D01*
Y-1209375D01*
X-1247750D01*
Y-1209515D01*
X-1247890D01*
Y-1209655D01*
X-1248030D01*
Y-1209796D01*
Y-1209936D01*
X-1248171D01*
Y-1210076D01*
X-1248311D01*
Y-1210217D01*
X-1248451D01*
Y-1210357D01*
X-1248592D01*
Y-1210497D01*
Y-1210638D01*
X-1248732D01*
Y-1210778D01*
X-1248873D01*
Y-1210918D01*
X-1249013D01*
Y-1211058D01*
X-1249153D01*
Y-1211199D01*
Y-1211339D01*
X-1249293D01*
Y-1211479D01*
X-1249434D01*
Y-1211620D01*
X-1249574D01*
Y-1211760D01*
X-1249714D01*
Y-1211900D01*
Y-1212041D01*
X-1249855D01*
Y-1212181D01*
X-1249995D01*
Y-1212321D01*
X-1250135D01*
Y-1212462D01*
X-1250276D01*
Y-1212602D01*
X-1250416D01*
Y-1212742D01*
X-1250556D01*
Y-1212883D01*
Y-1213023D01*
X-1250697D01*
Y-1213163D01*
X-1250837D01*
Y-1213304D01*
X-1250977D01*
Y-1213444D01*
X-1251118D01*
Y-1213584D01*
X-1251258D01*
Y-1213725D01*
X-1251398D01*
Y-1213865D01*
Y-1214005D01*
X-1251539D01*
Y-1214146D01*
X-1251679D01*
Y-1214286D01*
X-1251819D01*
Y-1214426D01*
X-1251960D01*
Y-1214567D01*
X-1252100D01*
Y-1214707D01*
X-1252240D01*
Y-1214847D01*
X-1252381D01*
Y-1214988D01*
X-1252521D01*
Y-1215128D01*
X-1252661D01*
Y-1215268D01*
X-1252802D01*
Y-1215408D01*
Y-1215549D01*
X-1252942D01*
Y-1215689D01*
X-1253082D01*
Y-1215829D01*
X-1253223D01*
Y-1215970D01*
X-1253363D01*
Y-1216110D01*
X-1253503D01*
Y-1216251D01*
X-1253643D01*
Y-1216391D01*
X-1253784D01*
Y-1216531D01*
X-1253924D01*
Y-1216672D01*
X-1254064D01*
Y-1216812D01*
X-1254205D01*
Y-1216952D01*
X-1254345D01*
Y-1217092D01*
X-1254485D01*
Y-1217233D01*
X-1254626D01*
Y-1217373D01*
X-1254766D01*
Y-1217513D01*
X-1254906D01*
Y-1217654D01*
X-1255047D01*
Y-1217794D01*
X-1255187D01*
Y-1217934D01*
Y-1218075D01*
X-1255327D01*
Y-1218215D01*
X-1255468D01*
Y-1218355D01*
X-1255608D01*
Y-1218496D01*
X-1255748D01*
Y-1218636D01*
X-1255889D01*
Y-1218776D01*
X-1256029D01*
Y-1218917D01*
X-1256169D01*
Y-1219057D01*
X-1256310D01*
Y-1219197D01*
X-1256450D01*
Y-1219338D01*
X-1256590D01*
Y-1219478D01*
X-1256731D01*
Y-1219618D01*
X-1256871D01*
Y-1219759D01*
X-1257011D01*
Y-1219899D01*
X-1257152D01*
Y-1220039D01*
X-1257292D01*
Y-1220180D01*
X-1257432D01*
Y-1220320D01*
X-1257573D01*
Y-1220460D01*
X-1257713D01*
Y-1220601D01*
X-1257853D01*
Y-1220741D01*
X-1257993D01*
Y-1220881D01*
X-1258134D01*
Y-1221021D01*
X-1258415D01*
Y-1221162D01*
X-1258555D01*
Y-1221302D01*
X-1258695D01*
Y-1221442D01*
X-1258836D01*
Y-1221583D01*
X-1258976D01*
Y-1221723D01*
X-1259116D01*
Y-1221863D01*
X-1259256D01*
Y-1222004D01*
X-1259397D01*
Y-1222144D01*
X-1259537D01*
Y-1222284D01*
X-1259677D01*
Y-1222425D01*
X-1259818D01*
Y-1222565D01*
X-1259958D01*
Y-1222705D01*
X-1260098D01*
Y-1222846D01*
X-1260239D01*
Y-1222986D01*
X-1260379D01*
Y-1223126D01*
X-1260519D01*
Y-1223267D01*
X-1260660D01*
Y-1223407D01*
X-1260800D01*
Y-1223547D01*
X-1260940D01*
Y-1223688D01*
X-1261081D01*
Y-1223828D01*
X-1261221D01*
Y-1223968D01*
X-1261361D01*
Y-1224109D01*
X-1261502D01*
Y-1224249D01*
X-1261642D01*
Y-1224389D01*
X-1261782D01*
Y-1224530D01*
X-1262063D01*
Y-1224670D01*
X-1262203D01*
Y-1224810D01*
X-1262344D01*
Y-1224951D01*
X-1262484D01*
Y-1225091D01*
X-1262624D01*
Y-1225231D01*
X-1262765D01*
Y-1225372D01*
X-1262905D01*
Y-1225512D01*
X-1263045D01*
Y-1225652D01*
X-1263186D01*
Y-1225792D01*
X-1263326D01*
Y-1225933D01*
X-1263466D01*
Y-1226073D01*
X-1263606D01*
Y-1226214D01*
X-1263747D01*
Y-1226354D01*
X-1263887D01*
Y-1226494D01*
X-1264027D01*
Y-1226635D01*
X-1264168D01*
Y-1226775D01*
X-1264308D01*
Y-1226915D01*
X-1264448D01*
Y-1227055D01*
X-1264589D01*
Y-1227196D01*
X-1264870D01*
Y-1227336D01*
X-1265010D01*
Y-1227476D01*
X-1265150D01*
Y-1227617D01*
X-1265290D01*
Y-1227757D01*
X-1265431D01*
Y-1227897D01*
X-1265571D01*
Y-1228038D01*
X-1265711D01*
Y-1228178D01*
X-1265852D01*
Y-1228318D01*
X-1265992D01*
Y-1228459D01*
X-1266132D01*
Y-1228599D01*
X-1266273D01*
Y-1228739D01*
X-1266413D01*
Y-1228880D01*
X-1266553D01*
Y-1229020D01*
X-1266694D01*
Y-1229160D01*
X-1266834D01*
Y-1229301D01*
X-1266974D01*
Y-1229441D01*
X-1267115D01*
Y-1229581D01*
X-1267255D01*
Y-1229722D01*
X-1267395D01*
Y-1229862D01*
X-1267535D01*
Y-1230002D01*
X-1267676D01*
Y-1230143D01*
X-1267816D01*
Y-1230283D01*
X-1267957D01*
Y-1230423D01*
X-1268097D01*
Y-1230564D01*
X-1268237D01*
Y-1230704D01*
X-1268378D01*
Y-1230844D01*
X-1268518D01*
Y-1230984D01*
X-1268658D01*
Y-1231125D01*
X-1268799D01*
Y-1231265D01*
X-1268939D01*
Y-1231406D01*
X-1269079D01*
Y-1231546D01*
X-1269220D01*
Y-1231686D01*
X-1269360D01*
Y-1231826D01*
X-1269500D01*
Y-1231967D01*
X-1269781D01*
Y-1232107D01*
X-1269921D01*
Y-1232247D01*
X-1270061D01*
Y-1232388D01*
X-1270202D01*
Y-1232528D01*
X-1270342D01*
Y-1232669D01*
X-1270482D01*
Y-1232809D01*
X-1270623D01*
Y-1232949D01*
X-1270763D01*
Y-1233089D01*
X-1270903D01*
Y-1233230D01*
X-1271184D01*
Y-1233370D01*
X-1271324D01*
Y-1233510D01*
X-1271465D01*
Y-1233651D01*
X-1271605D01*
Y-1233791D01*
X-1271745D01*
Y-1233931D01*
X-1271886D01*
Y-1234072D01*
X-1272166D01*
Y-1234212D01*
X-1272307D01*
Y-1234352D01*
X-1272447D01*
Y-1234493D01*
X-1272587D01*
Y-1234633D01*
X-1272728D01*
Y-1234773D01*
X-1273008D01*
Y-1234914D01*
X-1273149D01*
Y-1235054D01*
X-1273289D01*
Y-1235194D01*
X-1273570D01*
Y-1235335D01*
X-1273710D01*
Y-1235475D01*
X-1273850D01*
Y-1235615D01*
X-1273990D01*
Y-1235756D01*
X-1274271D01*
Y-1235896D01*
X-1274411D01*
Y-1236036D01*
X-1274552D01*
Y-1236177D01*
X-1274833D01*
Y-1236317D01*
X-1274973D01*
Y-1236457D01*
X-1275253D01*
Y-1236598D01*
X-1275394D01*
Y-1236738D01*
X-1275534D01*
Y-1236878D01*
X-1275815D01*
Y-1237019D01*
X-1275955D01*
Y-1237159D01*
X-1276236D01*
Y-1237299D01*
X-1276376D01*
Y-1237439D01*
X-1276657D01*
Y-1237580D01*
X-1276797D01*
Y-1237720D01*
X-1277078D01*
Y-1237860D01*
X-1277218D01*
Y-1238001D01*
X-1277499D01*
Y-1238141D01*
X-1277639D01*
Y-1238281D01*
X-1277920D01*
Y-1238422D01*
X-1278060D01*
Y-1238562D01*
X-1278341D01*
Y-1238702D01*
X-1278481D01*
Y-1238843D01*
X-1278762D01*
Y-1238983D01*
X-1279042D01*
Y-1239123D01*
X-1279183D01*
Y-1239264D01*
X-1279463D01*
Y-1239404D01*
X-1279744D01*
Y-1239544D01*
X-1280024D01*
Y-1239685D01*
X-1280165D01*
Y-1239825D01*
X-1280446D01*
Y-1239965D01*
X-1280726D01*
Y-1240106D01*
X-1281007D01*
Y-1240246D01*
X-1281147D01*
Y-1240386D01*
X-1281428D01*
Y-1240527D01*
X-1281708D01*
Y-1240667D01*
X-1281989D01*
Y-1240807D01*
X-1282270D01*
Y-1240948D01*
X-1282550D01*
Y-1241088D01*
X-1282831D01*
Y-1241228D01*
X-1283112D01*
Y-1241369D01*
X-1283392D01*
Y-1241509D01*
X-1283673D01*
Y-1241649D01*
X-1283954D01*
Y-1241789D01*
X-1284234D01*
Y-1241930D01*
X-1284515D01*
Y-1242070D01*
X-1284936D01*
Y-1242210D01*
X-1285217D01*
Y-1242351D01*
X-1285497D01*
Y-1242491D01*
X-1285778D01*
Y-1242632D01*
X-1286199D01*
Y-1242772D01*
X-1286479D01*
Y-1242912D01*
X-1286900D01*
Y-1243052D01*
X-1287181D01*
Y-1243193D01*
X-1287602D01*
Y-1243333D01*
X-1287883D01*
Y-1243473D01*
X-1288304D01*
Y-1243614D01*
X-1288725D01*
Y-1243754D01*
X-1289005D01*
Y-1243894D01*
X-1289426D01*
Y-1244035D01*
X-1289847D01*
Y-1244175D01*
X-1290268D01*
Y-1244315D01*
X-1290689D01*
Y-1244456D01*
X-1291110D01*
Y-1244596D01*
X-1291531D01*
Y-1244736D01*
X-1292092D01*
Y-1244877D01*
X-1292513D01*
Y-1245017D01*
X-1293075D01*
Y-1245157D01*
X-1293496D01*
Y-1245298D01*
X-1294057D01*
Y-1245438D01*
X-1294618D01*
Y-1245578D01*
X-1295320D01*
Y-1245719D01*
X-1295881D01*
Y-1245859D01*
X-1296583D01*
Y-1245999D01*
X-1297284D01*
Y-1246140D01*
X-1297986D01*
Y-1246280D01*
X-1298828D01*
Y-1246420D01*
X-1299670D01*
Y-1246561D01*
X-1300652D01*
Y-1246701D01*
X-1301775D01*
Y-1246841D01*
X-1303178D01*
Y-1246982D01*
X-1305283D01*
Y-1247122D01*
X-1311036D01*
Y-1246982D01*
X-1313141D01*
Y-1246841D01*
X-1314544D01*
Y-1246701D01*
X-1315667D01*
Y-1246561D01*
X-1316649D01*
Y-1246420D01*
X-1317491D01*
Y-1246280D01*
X-1318333D01*
Y-1246140D01*
X-1319035D01*
Y-1245999D01*
X-1319736D01*
Y-1245859D01*
X-1320438D01*
Y-1245719D01*
X-1320999D01*
Y-1245578D01*
X-1321701D01*
Y-1245438D01*
X-1322262D01*
Y-1245298D01*
X-1322683D01*
Y-1245157D01*
X-1323244D01*
Y-1245017D01*
X-1323806D01*
Y-1244877D01*
X-1324227D01*
Y-1244736D01*
X-1324648D01*
Y-1244596D01*
X-1325209D01*
Y-1244456D01*
X-1325630D01*
Y-1244315D01*
X-1326051D01*
Y-1244175D01*
X-1326472D01*
Y-1244035D01*
X-1326893D01*
Y-1243894D01*
X-1327314D01*
Y-1243754D01*
X-1327594D01*
Y-1243614D01*
X-1328015D01*
Y-1243473D01*
X-1328436D01*
Y-1243333D01*
X-1328717D01*
Y-1243193D01*
X-1329138D01*
Y-1243052D01*
X-1329419D01*
Y-1242912D01*
X-1329840D01*
Y-1242772D01*
X-1330120D01*
Y-1242632D01*
X-1330401D01*
Y-1242491D01*
X-1330822D01*
Y-1242351D01*
X-1331103D01*
Y-1242210D01*
X-1331383D01*
Y-1242070D01*
X-1331664D01*
Y-1241930D01*
X-1332085D01*
Y-1241789D01*
X-1332366D01*
Y-1241649D01*
X-1332646D01*
Y-1241509D01*
X-1332927D01*
Y-1241369D01*
X-1333208D01*
Y-1241228D01*
X-1333488D01*
Y-1241088D01*
X-1333769D01*
Y-1240948D01*
X-1334049D01*
Y-1240807D01*
X-1334330D01*
Y-1240667D01*
X-1334611D01*
Y-1240527D01*
X-1334891D01*
Y-1240386D01*
X-1335032D01*
Y-1240246D01*
X-1335312D01*
Y-1240106D01*
X-1335593D01*
Y-1239965D01*
X-1335874D01*
Y-1239825D01*
X-1336154D01*
Y-1239685D01*
X-1336295D01*
Y-1239544D01*
X-1336575D01*
Y-1239404D01*
X-1336856D01*
Y-1239264D01*
X-1337137D01*
Y-1239123D01*
X-1337277D01*
Y-1238983D01*
X-1337558D01*
Y-1238843D01*
X-1337698D01*
Y-1238702D01*
X-1337979D01*
Y-1238562D01*
X-1338259D01*
Y-1238422D01*
X-1338399D01*
Y-1238281D01*
X-1338680D01*
Y-1238141D01*
X-1338820D01*
Y-1238001D01*
X-1339101D01*
Y-1237860D01*
X-1339241D01*
Y-1237720D01*
X-1339522D01*
Y-1237580D01*
X-1339662D01*
Y-1237439D01*
X-1339943D01*
Y-1237299D01*
X-1340083D01*
Y-1237159D01*
X-1340364D01*
Y-1237019D01*
X-1340504D01*
Y-1236878D01*
X-1340785D01*
Y-1236738D01*
X-1340925D01*
Y-1236598D01*
X-1341066D01*
Y-1236457D01*
X-1341346D01*
Y-1236317D01*
X-1341487D01*
Y-1236177D01*
X-1341767D01*
Y-1236036D01*
X-1341908D01*
Y-1235896D01*
X-1342048D01*
Y-1235756D01*
X-1342328D01*
Y-1235615D01*
X-1342469D01*
Y-1235475D01*
X-1342609D01*
Y-1235335D01*
X-1342750D01*
Y-1235194D01*
X-1343030D01*
Y-1235054D01*
X-1343170D01*
Y-1234914D01*
X-1343311D01*
Y-1234773D01*
X-1343451D01*
Y-1234633D01*
X-1343732D01*
Y-1234493D01*
X-1343872D01*
Y-1234352D01*
X-1344012D01*
Y-1234212D01*
X-1344153D01*
Y-1234072D01*
X-1344433D01*
Y-1233931D01*
X-1344574D01*
Y-1233791D01*
X-1344714D01*
Y-1233651D01*
X-1344854D01*
Y-1233510D01*
X-1344995D01*
Y-1233370D01*
X-1345135D01*
Y-1233230D01*
X-1345416D01*
Y-1233089D01*
X-1345556D01*
Y-1232949D01*
X-1345696D01*
Y-1232809D01*
X-1345837D01*
Y-1232669D01*
X-1345977D01*
Y-1232528D01*
X-1346117D01*
Y-1232388D01*
X-1346258D01*
Y-1232247D01*
X-1346398D01*
Y-1232107D01*
X-1346538D01*
Y-1231967D01*
X-1346679D01*
Y-1231826D01*
X-1346959D01*
Y-1231686D01*
X-1347100D01*
Y-1231546D01*
X-1347240D01*
Y-1231406D01*
X-1347380D01*
Y-1231265D01*
X-1347521D01*
Y-1231125D01*
X-1347661D01*
Y-1230984D01*
X-1347801D01*
Y-1230844D01*
X-1347942D01*
Y-1230704D01*
X-1348082D01*
Y-1230564D01*
X-1348222D01*
Y-1230423D01*
X-1348362D01*
Y-1230283D01*
X-1348503D01*
Y-1230143D01*
X-1348643D01*
Y-1230002D01*
X-1348784D01*
Y-1229862D01*
X-1348924D01*
Y-1229722D01*
X-1349064D01*
Y-1229581D01*
X-1349204D01*
Y-1229441D01*
Y-1229301D01*
X-1349345D01*
Y-1229160D01*
X-1349485D01*
Y-1229020D01*
X-1349625D01*
Y-1228880D01*
X-1349766D01*
Y-1228739D01*
X-1349906D01*
Y-1228599D01*
X-1350046D01*
Y-1228459D01*
X-1350187D01*
Y-1228318D01*
X-1350327D01*
Y-1228178D01*
X-1350467D01*
Y-1228038D01*
X-1350608D01*
Y-1227897D01*
Y-1227757D01*
X-1350748D01*
Y-1227617D01*
X-1350888D01*
Y-1227476D01*
X-1351029D01*
Y-1227336D01*
X-1351169D01*
Y-1227196D01*
X-1351309D01*
Y-1227055D01*
X-1351450D01*
Y-1226915D01*
Y-1226775D01*
X-1351590D01*
Y-1226635D01*
X-1351730D01*
Y-1226494D01*
X-1351871D01*
Y-1226354D01*
X-1352011D01*
Y-1226214D01*
Y-1226073D01*
X-1352151D01*
Y-1225933D01*
X-1352292D01*
Y-1225792D01*
X-1352432D01*
Y-1225652D01*
X-1352572D01*
Y-1225512D01*
Y-1225372D01*
X-1352713D01*
Y-1225231D01*
X-1352853D01*
Y-1225091D01*
X-1352993D01*
Y-1224951D01*
X-1353134D01*
Y-1224810D01*
Y-1224670D01*
X-1353274D01*
Y-1224530D01*
X-1353414D01*
Y-1224389D01*
X-1353555D01*
Y-1224249D01*
Y-1224109D01*
X-1353695D01*
Y-1223968D01*
X-1353835D01*
Y-1223828D01*
Y-1223688D01*
X-1353976D01*
Y-1223547D01*
X-1354116D01*
Y-1223407D01*
X-1354256D01*
Y-1223267D01*
Y-1223126D01*
X-1354397D01*
Y-1222986D01*
X-1354537D01*
Y-1222846D01*
Y-1222705D01*
X-1354677D01*
Y-1222565D01*
X-1354817D01*
Y-1222425D01*
Y-1222284D01*
X-1354958D01*
Y-1222144D01*
X-1355098D01*
Y-1222004D01*
Y-1221863D01*
X-1355238D01*
Y-1221723D01*
X-1355379D01*
Y-1221583D01*
Y-1221442D01*
X-1355519D01*
Y-1221302D01*
X-1355659D01*
Y-1221162D01*
Y-1221021D01*
X-1355800D01*
Y-1220881D01*
X-1355940D01*
Y-1220741D01*
Y-1220601D01*
X-1356080D01*
Y-1220460D01*
Y-1220320D01*
X-1356221D01*
Y-1220180D01*
X-1356361D01*
Y-1220039D01*
Y-1219899D01*
X-1356501D01*
Y-1219759D01*
X-1356642D01*
Y-1219618D01*
Y-1219478D01*
X-1356782D01*
Y-1219338D01*
Y-1219197D01*
X-1356922D01*
Y-1219057D01*
Y-1218917D01*
X-1357063D01*
Y-1218776D01*
X-1357203D01*
Y-1218636D01*
Y-1218496D01*
X-1357343D01*
Y-1218355D01*
Y-1218215D01*
X-1357484D01*
Y-1218075D01*
Y-1217934D01*
X-1357624D01*
Y-1217794D01*
Y-1217654D01*
X-1357764D01*
Y-1217513D01*
X-1357905D01*
Y-1217373D01*
Y-1217233D01*
X-1358045D01*
Y-1217092D01*
Y-1216952D01*
X-1358185D01*
Y-1216812D01*
Y-1216672D01*
X-1358326D01*
Y-1216531D01*
Y-1216391D01*
X-1358466D01*
Y-1216251D01*
Y-1216110D01*
X-1358606D01*
Y-1215970D01*
Y-1215829D01*
X-1358746D01*
Y-1215689D01*
Y-1215549D01*
X-1358887D01*
Y-1215408D01*
Y-1215268D01*
X-1359027D01*
Y-1215128D01*
Y-1214988D01*
X-1359167D01*
Y-1214847D01*
Y-1214707D01*
X-1359308D01*
Y-1214567D01*
Y-1214426D01*
Y-1214286D01*
X-1359448D01*
Y-1214146D01*
Y-1214005D01*
X-1359588D01*
Y-1213865D01*
Y-1213725D01*
X-1359729D01*
Y-1213584D01*
Y-1213444D01*
X-1359869D01*
Y-1213304D01*
Y-1213163D01*
Y-1213023D01*
X-1360009D01*
Y-1212883D01*
Y-1212742D01*
X-1360150D01*
Y-1212602D01*
Y-1212462D01*
X-1360290D01*
Y-1212321D01*
Y-1212181D01*
Y-1212041D01*
X-1360430D01*
Y-1211900D01*
Y-1211760D01*
X-1360571D01*
Y-1211620D01*
Y-1211479D01*
Y-1211339D01*
X-1360711D01*
Y-1211199D01*
Y-1211058D01*
X-1360851D01*
Y-1210918D01*
Y-1210778D01*
Y-1210638D01*
X-1360992D01*
Y-1210497D01*
Y-1210357D01*
Y-1210217D01*
X-1361132D01*
Y-1210076D01*
Y-1209936D01*
X-1361272D01*
Y-1209796D01*
Y-1209655D01*
Y-1209515D01*
X-1361413D01*
Y-1209375D01*
Y-1209234D01*
Y-1209094D01*
X-1361553D01*
Y-1208954D01*
Y-1208813D01*
Y-1208673D01*
X-1361693D01*
Y-1208533D01*
Y-1208392D01*
Y-1208252D01*
X-1361834D01*
Y-1208112D01*
Y-1207971D01*
Y-1207831D01*
X-1361974D01*
Y-1207691D01*
Y-1207550D01*
Y-1207410D01*
Y-1207270D01*
X-1362114D01*
Y-1207129D01*
Y-1206989D01*
Y-1206849D01*
X-1362255D01*
Y-1206708D01*
Y-1206568D01*
Y-1206428D01*
X-1362395D01*
Y-1206287D01*
Y-1206147D01*
Y-1206007D01*
Y-1205866D01*
X-1362535D01*
Y-1205726D01*
Y-1205586D01*
Y-1205445D01*
Y-1205305D01*
X-1362676D01*
Y-1205165D01*
Y-1205024D01*
Y-1204884D01*
X-1362816D01*
Y-1204744D01*
Y-1204604D01*
Y-1204463D01*
Y-1204323D01*
X-1362956D01*
Y-1204183D01*
Y-1204042D01*
Y-1203902D01*
Y-1203762D01*
Y-1203621D01*
X-1363097D01*
Y-1203481D01*
Y-1203341D01*
Y-1203200D01*
Y-1203060D01*
X-1363237D01*
Y-1202920D01*
Y-1202779D01*
Y-1202639D01*
Y-1202499D01*
Y-1202358D01*
X-1363377D01*
Y-1202218D01*
Y-1202078D01*
Y-1201937D01*
Y-1201797D01*
Y-1201657D01*
X-1363517D01*
Y-1201516D01*
Y-1201376D01*
Y-1201236D01*
Y-1201095D01*
Y-1200955D01*
X-1363658D01*
Y-1200815D01*
Y-1200675D01*
Y-1200534D01*
Y-1200394D01*
Y-1200254D01*
Y-1200113D01*
X-1363798D01*
Y-1199973D01*
Y-1199833D01*
Y-1199692D01*
Y-1199552D01*
Y-1199411D01*
Y-1199271D01*
X-1363938D01*
Y-1199131D01*
Y-1198991D01*
Y-1198850D01*
Y-1198710D01*
Y-1198570D01*
Y-1198429D01*
Y-1198289D01*
X-1364079D01*
Y-1198149D01*
Y-1198008D01*
Y-1197868D01*
Y-1197728D01*
Y-1197587D01*
Y-1197447D01*
Y-1197307D01*
Y-1197166D01*
X-1364219D01*
Y-1197026D01*
Y-1196886D01*
Y-1196745D01*
Y-1196605D01*
Y-1196465D01*
Y-1196324D01*
Y-1196184D01*
Y-1196044D01*
Y-1195903D01*
Y-1195763D01*
Y-1195623D01*
X-1364359D01*
Y-1195482D01*
Y-1195342D01*
Y-1195202D01*
Y-1195061D01*
Y-1194921D01*
Y-1194781D01*
Y-1194641D01*
Y-1194500D01*
Y-1194360D01*
Y-1194220D01*
Y-1194079D01*
Y-1193939D01*
Y-1193799D01*
Y-1193658D01*
X-1364500D01*
Y-1193518D01*
Y-1193378D01*
Y-1193237D01*
Y-1193097D01*
Y-1192957D01*
Y-1192816D01*
Y-1192676D01*
Y-1192536D01*
Y-1192395D01*
Y-1192255D01*
Y-1192115D01*
Y-1191974D01*
Y-1191834D01*
Y-1191694D01*
Y-1191553D01*
Y-1191413D01*
Y-1191273D01*
Y-1191132D01*
Y-1190992D01*
Y-1190852D01*
Y-1190711D01*
Y-1190571D01*
Y-1190431D01*
Y-1190290D01*
Y-1190150D01*
Y-1190010D01*
Y-1189869D01*
Y-1189729D01*
Y-1189589D01*
Y-1189448D01*
Y-1189308D01*
Y-1189168D01*
Y-1189027D01*
Y-1188887D01*
Y-1188747D01*
Y-1188606D01*
Y-1188466D01*
Y-1188326D01*
Y-1188186D01*
Y-1188045D01*
Y-1187905D01*
X-1364359D01*
Y-1187765D01*
Y-1187624D01*
Y-1187484D01*
Y-1187344D01*
Y-1187203D01*
Y-1187063D01*
Y-1186923D01*
Y-1186782D01*
Y-1186642D01*
Y-1186502D01*
Y-1186361D01*
Y-1186221D01*
Y-1186081D01*
Y-1185940D01*
X-1364219D01*
Y-1185800D01*
Y-1185660D01*
Y-1185519D01*
Y-1185379D01*
Y-1185239D01*
Y-1185098D01*
Y-1184958D01*
Y-1184818D01*
Y-1184678D01*
Y-1184537D01*
Y-1184397D01*
X-1364079D01*
Y-1184256D01*
Y-1184116D01*
Y-1183976D01*
Y-1183836D01*
Y-1183695D01*
Y-1183555D01*
Y-1183415D01*
Y-1183274D01*
X-1363938D01*
Y-1183134D01*
Y-1182993D01*
Y-1182853D01*
Y-1182713D01*
Y-1182573D01*
Y-1182432D01*
Y-1182292D01*
X-1363798D01*
Y-1182152D01*
Y-1182011D01*
Y-1181871D01*
Y-1181731D01*
Y-1181590D01*
Y-1181450D01*
X-1363658D01*
Y-1181310D01*
Y-1181169D01*
Y-1181029D01*
Y-1180889D01*
Y-1180748D01*
Y-1180608D01*
X-1363517D01*
Y-1180468D01*
Y-1180327D01*
Y-1180187D01*
Y-1180047D01*
Y-1179906D01*
X-1363377D01*
Y-1179766D01*
Y-1179626D01*
Y-1179485D01*
Y-1179345D01*
Y-1179205D01*
X-1363237D01*
Y-1179064D01*
Y-1178924D01*
Y-1178784D01*
Y-1178643D01*
Y-1178503D01*
X-1363097D01*
Y-1178363D01*
Y-1178223D01*
Y-1178082D01*
Y-1177942D01*
X-1362956D01*
Y-1177802D01*
Y-1177661D01*
Y-1177521D01*
Y-1177381D01*
Y-1177240D01*
X-1362816D01*
Y-1177100D01*
Y-1176960D01*
Y-1176819D01*
Y-1176679D01*
X-1362676D01*
Y-1176539D01*
Y-1176398D01*
Y-1176258D01*
X-1362535D01*
Y-1176118D01*
Y-1175977D01*
Y-1175837D01*
Y-1175697D01*
X-1362395D01*
Y-1175556D01*
Y-1175416D01*
Y-1175276D01*
Y-1175135D01*
X-1362255D01*
Y-1174995D01*
Y-1174855D01*
Y-1174714D01*
X-1362114D01*
Y-1174574D01*
Y-1174434D01*
Y-1174293D01*
X-1361974D01*
Y-1174153D01*
Y-1174013D01*
Y-1173872D01*
Y-1173732D01*
X-1361834D01*
Y-1173592D01*
Y-1173452D01*
Y-1173311D01*
X-1361693D01*
Y-1173171D01*
Y-1173030D01*
Y-1172890D01*
X-1361553D01*
Y-1172750D01*
Y-1172609D01*
Y-1172469D01*
X-1361413D01*
Y-1172329D01*
Y-1172189D01*
Y-1172048D01*
X-1361272D01*
Y-1171908D01*
Y-1171768D01*
Y-1171627D01*
X-1361132D01*
Y-1171487D01*
Y-1171347D01*
X-1360992D01*
Y-1171206D01*
Y-1171066D01*
Y-1170926D01*
X-1360851D01*
Y-1170785D01*
Y-1170645D01*
Y-1170505D01*
X-1360711D01*
Y-1170364D01*
Y-1170224D01*
X-1360571D01*
Y-1170084D01*
Y-1169943D01*
Y-1169803D01*
X-1360430D01*
Y-1169663D01*
Y-1169522D01*
X-1360290D01*
Y-1169382D01*
Y-1169242D01*
Y-1169101D01*
X-1360150D01*
Y-1168961D01*
Y-1168821D01*
X-1360009D01*
Y-1168680D01*
Y-1168540D01*
X-1359869D01*
Y-1168400D01*
Y-1168260D01*
Y-1168119D01*
X-1359729D01*
Y-1167979D01*
Y-1167839D01*
X-1359588D01*
Y-1167698D01*
Y-1167558D01*
X-1359448D01*
Y-1167418D01*
Y-1167277D01*
X-1359308D01*
Y-1167137D01*
Y-1166997D01*
Y-1166856D01*
X-1359167D01*
Y-1166716D01*
Y-1166576D01*
X-1359027D01*
Y-1166435D01*
Y-1166295D01*
X-1358887D01*
Y-1166155D01*
Y-1166014D01*
X-1358746D01*
Y-1165874D01*
Y-1165734D01*
X-1358606D01*
Y-1165593D01*
Y-1165453D01*
X-1358466D01*
Y-1165313D01*
Y-1165172D01*
X-1358326D01*
Y-1165032D01*
Y-1164892D01*
X-1358185D01*
Y-1164751D01*
Y-1164611D01*
X-1358045D01*
Y-1164471D01*
Y-1164330D01*
X-1357905D01*
Y-1164190D01*
Y-1164050D01*
X-1357764D01*
Y-1163909D01*
X-1357624D01*
Y-1163769D01*
Y-1163629D01*
X-1357484D01*
Y-1163488D01*
Y-1163348D01*
X-1357343D01*
Y-1163208D01*
Y-1163067D01*
X-1357203D01*
Y-1162927D01*
Y-1162787D01*
X-1357063D01*
Y-1162646D01*
X-1356922D01*
Y-1162506D01*
Y-1162366D01*
X-1356782D01*
Y-1162225D01*
Y-1162085D01*
X-1356642D01*
Y-1161945D01*
Y-1161805D01*
X-1356501D01*
Y-1161664D01*
X-1356361D01*
Y-1161524D01*
Y-1161384D01*
X-1356221D01*
Y-1161243D01*
X-1356080D01*
Y-1161103D01*
Y-1160963D01*
X-1355940D01*
Y-1160822D01*
Y-1160682D01*
X-1355800D01*
Y-1160542D01*
X-1355659D01*
Y-1160401D01*
Y-1160261D01*
X-1355519D01*
Y-1160121D01*
X-1355379D01*
Y-1159980D01*
Y-1159840D01*
X-1355238D01*
Y-1159700D01*
X-1355098D01*
Y-1159559D01*
Y-1159419D01*
X-1354958D01*
Y-1159279D01*
X-1354817D01*
Y-1159138D01*
Y-1158998D01*
X-1354677D01*
Y-1158858D01*
X-1354537D01*
Y-1158717D01*
Y-1158577D01*
X-1354397D01*
Y-1158437D01*
X-1354256D01*
Y-1158296D01*
Y-1158156D01*
X-1354116D01*
Y-1158016D01*
X-1353976D01*
Y-1157875D01*
X-1353835D01*
Y-1157735D01*
Y-1157595D01*
X-1353695D01*
Y-1157455D01*
X-1353555D01*
Y-1157314D01*
Y-1157174D01*
X-1353414D01*
Y-1157033D01*
X-1353274D01*
Y-1156893D01*
X-1353134D01*
Y-1156753D01*
Y-1156613D01*
X-1352993D01*
Y-1156472D01*
X-1352853D01*
Y-1156332D01*
X-1352713D01*
Y-1156192D01*
X-1352572D01*
Y-1156051D01*
Y-1155911D01*
X-1352432D01*
Y-1155771D01*
X-1352292D01*
Y-1155630D01*
X-1352151D01*
Y-1155490D01*
X-1352011D01*
Y-1155350D01*
Y-1155209D01*
X-1351871D01*
Y-1155069D01*
X-1351730D01*
Y-1154929D01*
X-1351590D01*
Y-1154788D01*
X-1351450D01*
Y-1154648D01*
Y-1154508D01*
X-1351309D01*
Y-1154367D01*
X-1351169D01*
Y-1154227D01*
X-1351029D01*
Y-1154087D01*
X-1350888D01*
Y-1153946D01*
X-1350748D01*
Y-1153806D01*
X-1350608D01*
Y-1153666D01*
Y-1153525D01*
X-1350467D01*
Y-1153385D01*
X-1350327D01*
Y-1153245D01*
X-1350187D01*
Y-1153104D01*
X-1350046D01*
Y-1152964D01*
X-1349906D01*
Y-1152824D01*
X-1349766D01*
Y-1152683D01*
X-1349625D01*
Y-1152543D01*
X-1349485D01*
Y-1152403D01*
X-1349345D01*
Y-1152262D01*
X-1349204D01*
Y-1152122D01*
Y-1151982D01*
X-1349064D01*
Y-1151842D01*
X-1348924D01*
Y-1151701D01*
X-1348784D01*
Y-1151561D01*
X-1348643D01*
Y-1151421D01*
X-1348503D01*
Y-1151280D01*
X-1348362D01*
Y-1151140D01*
X-1348222D01*
Y-1151000D01*
X-1348082D01*
Y-1150859D01*
X-1347942D01*
Y-1150719D01*
X-1347801D01*
Y-1150579D01*
X-1347661D01*
Y-1150438D01*
X-1347521D01*
Y-1150298D01*
X-1347380D01*
Y-1150158D01*
X-1347240D01*
Y-1150017D01*
X-1347100D01*
Y-1149877D01*
X-1346959D01*
Y-1149737D01*
X-1346679D01*
Y-1149596D01*
X-1346538D01*
Y-1149456D01*
X-1346398D01*
Y-1149316D01*
X-1346258D01*
Y-1149175D01*
X-1346117D01*
Y-1149035D01*
X-1345977D01*
Y-1148895D01*
X-1345837D01*
Y-1148754D01*
X-1345696D01*
Y-1148614D01*
X-1345556D01*
Y-1148474D01*
X-1345416D01*
Y-1148333D01*
X-1345135D01*
Y-1148193D01*
X-1344995D01*
Y-1148053D01*
X-1344854D01*
Y-1147912D01*
X-1344714D01*
Y-1147772D01*
X-1344574D01*
Y-1147632D01*
X-1344433D01*
Y-1147492D01*
X-1344153D01*
Y-1147351D01*
X-1344012D01*
Y-1147211D01*
X-1343872D01*
Y-1147070D01*
X-1343732D01*
Y-1146930D01*
X-1343451D01*
Y-1146790D01*
X-1343311D01*
Y-1146649D01*
X-1343170D01*
Y-1146509D01*
X-1343030D01*
Y-1146369D01*
X-1342750D01*
Y-1146228D01*
X-1342609D01*
Y-1146088D01*
X-1342469D01*
Y-1145948D01*
X-1342328D01*
Y-1145808D01*
X-1342048D01*
Y-1145667D01*
X-1341908D01*
Y-1145527D01*
X-1341767D01*
Y-1145387D01*
X-1341487D01*
Y-1145246D01*
X-1341346D01*
Y-1145106D01*
X-1341066D01*
Y-1144966D01*
X-1340925D01*
Y-1144825D01*
X-1340785D01*
Y-1144685D01*
X-1340504D01*
Y-1144545D01*
X-1340364D01*
Y-1144404D01*
X-1340083D01*
Y-1144264D01*
X-1339943D01*
Y-1144124D01*
X-1339662D01*
Y-1143983D01*
X-1339522D01*
Y-1143843D01*
X-1339241D01*
Y-1143703D01*
X-1339101D01*
Y-1143562D01*
X-1338820D01*
Y-1143422D01*
X-1338680D01*
Y-1143282D01*
X-1338399D01*
Y-1143141D01*
X-1338259D01*
Y-1143001D01*
X-1337979D01*
Y-1142861D01*
X-1337698D01*
Y-1142720D01*
X-1337558D01*
Y-1142580D01*
X-1337277D01*
Y-1142440D01*
X-1337137D01*
Y-1142299D01*
X-1336856D01*
Y-1142159D01*
X-1336575D01*
Y-1142019D01*
X-1336295D01*
Y-1141879D01*
X-1336154D01*
Y-1141738D01*
X-1335874D01*
Y-1141598D01*
X-1335593D01*
Y-1141458D01*
X-1335312D01*
Y-1141317D01*
X-1335032D01*
Y-1141177D01*
X-1334891D01*
Y-1141037D01*
X-1334611D01*
Y-1140896D01*
X-1334330D01*
Y-1140756D01*
X-1334049D01*
Y-1140616D01*
X-1333769D01*
Y-1140475D01*
X-1333488D01*
Y-1140335D01*
X-1333208D01*
Y-1140195D01*
X-1332927D01*
Y-1140054D01*
X-1332646D01*
Y-1139914D01*
X-1332366D01*
Y-1139774D01*
X-1332085D01*
Y-1139633D01*
X-1331804D01*
Y-1139493D01*
X-1331383D01*
Y-1139353D01*
X-1331103D01*
Y-1139212D01*
X-1330822D01*
Y-1139072D01*
X-1330401D01*
Y-1138932D01*
X-1330120D01*
Y-1138791D01*
X-1329840D01*
Y-1138651D01*
X-1329419D01*
Y-1138511D01*
X-1329138D01*
Y-1138370D01*
X-1328717D01*
Y-1138230D01*
X-1328436D01*
Y-1138090D01*
X-1328015D01*
Y-1137949D01*
X-1327594D01*
Y-1137809D01*
X-1327314D01*
Y-1137669D01*
X-1326893D01*
Y-1137528D01*
X-1326472D01*
Y-1137388D01*
X-1326051D01*
Y-1137248D01*
X-1325630D01*
Y-1137107D01*
X-1325209D01*
Y-1136967D01*
X-1324788D01*
Y-1136827D01*
X-1324227D01*
Y-1136686D01*
X-1323806D01*
Y-1136546D01*
X-1323244D01*
Y-1136406D01*
X-1322683D01*
Y-1136265D01*
X-1322262D01*
Y-1136125D01*
X-1321701D01*
Y-1135985D01*
X-1320999D01*
Y-1135844D01*
X-1320438D01*
Y-1135704D01*
X-1319736D01*
Y-1135564D01*
X-1319035D01*
Y-1135424D01*
X-1318333D01*
Y-1135283D01*
X-1317491D01*
Y-1135143D01*
X-1316649D01*
Y-1135003D01*
X-1315667D01*
Y-1134862D01*
X-1314544D01*
Y-1134722D01*
X-1313141D01*
Y-1134582D01*
X-1311036D01*
Y-1134441D01*
X-1305283D01*
Y-1134582D01*
D02*
G37*
G36*
X-1206915Y-1172469D02*
X-1205933D01*
Y-1172609D01*
X-1205231D01*
Y-1172750D01*
X-1204530D01*
Y-1172890D01*
X-1204109D01*
Y-1173030D01*
X-1203548D01*
Y-1173171D01*
X-1203127D01*
Y-1173311D01*
X-1202846D01*
Y-1173452D01*
X-1202425D01*
Y-1173592D01*
X-1202144D01*
Y-1173732D01*
X-1201723D01*
Y-1173872D01*
X-1201443D01*
Y-1174013D01*
X-1201162D01*
Y-1174153D01*
X-1200881D01*
Y-1174293D01*
X-1200601D01*
Y-1174434D01*
X-1200320D01*
Y-1174574D01*
X-1200040D01*
Y-1174714D01*
X-1199899D01*
Y-1174855D01*
X-1199619D01*
Y-1174995D01*
X-1199478D01*
Y-1175135D01*
X-1199197D01*
Y-1175276D01*
X-1199057D01*
Y-1175416D01*
X-1198777D01*
Y-1175556D01*
X-1198636D01*
Y-1175697D01*
X-1198356D01*
Y-1175837D01*
X-1198215D01*
Y-1175977D01*
X-1198075D01*
Y-1176118D01*
X-1197794D01*
Y-1176258D01*
X-1197654D01*
Y-1176398D01*
X-1197514D01*
Y-1176539D01*
X-1197373D01*
Y-1176679D01*
X-1197233D01*
Y-1176819D01*
X-1197093D01*
Y-1176960D01*
X-1196952D01*
Y-1177100D01*
X-1196812D01*
Y-1177240D01*
X-1196531D01*
Y-1177381D01*
X-1196391D01*
Y-1177521D01*
X-1196251D01*
Y-1177661D01*
Y-1177802D01*
X-1196110D01*
Y-1177942D01*
X-1195970D01*
Y-1178082D01*
X-1195830D01*
Y-1178223D01*
X-1195689D01*
Y-1178363D01*
X-1195549D01*
Y-1178503D01*
X-1195409D01*
Y-1178643D01*
X-1195268D01*
Y-1178784D01*
Y-1178924D01*
X-1195128D01*
Y-1179064D01*
X-1194988D01*
Y-1179205D01*
X-1194847D01*
Y-1179345D01*
X-1194707D01*
Y-1179485D01*
Y-1179626D01*
X-1194567D01*
Y-1179766D01*
X-1194426D01*
Y-1179906D01*
Y-1180047D01*
X-1194286D01*
Y-1180187D01*
X-1194146D01*
Y-1180327D01*
Y-1180468D01*
X-1194006D01*
Y-1180608D01*
X-1193865D01*
Y-1180748D01*
Y-1180889D01*
X-1193725D01*
Y-1181029D01*
Y-1181169D01*
X-1193585D01*
Y-1181310D01*
Y-1181450D01*
X-1193444D01*
Y-1181590D01*
X-1193304D01*
Y-1181731D01*
Y-1181871D01*
X-1193164D01*
Y-1182011D01*
Y-1182152D01*
X-1193023D01*
Y-1182292D01*
Y-1182432D01*
X-1192883D01*
Y-1182573D01*
Y-1182713D01*
Y-1182853D01*
X-1192743D01*
Y-1182993D01*
Y-1183134D01*
X-1192602D01*
Y-1183274D01*
Y-1183415D01*
Y-1183555D01*
X-1192462D01*
Y-1183695D01*
Y-1183836D01*
X-1192322D01*
Y-1183976D01*
Y-1184116D01*
Y-1184256D01*
X-1192181D01*
Y-1184397D01*
Y-1184537D01*
Y-1184678D01*
X-1192041D01*
Y-1184818D01*
Y-1184958D01*
Y-1185098D01*
Y-1185239D01*
X-1191901D01*
Y-1185379D01*
Y-1185519D01*
Y-1185660D01*
Y-1185800D01*
X-1191760D01*
Y-1185940D01*
Y-1186081D01*
Y-1186221D01*
Y-1186361D01*
X-1191620D01*
Y-1186502D01*
Y-1186642D01*
Y-1186782D01*
Y-1186923D01*
Y-1187063D01*
Y-1187203D01*
X-1191480D01*
Y-1187344D01*
Y-1187484D01*
Y-1187624D01*
Y-1187765D01*
Y-1187905D01*
Y-1188045D01*
Y-1188186D01*
Y-1188326D01*
X-1191339D01*
Y-1188466D01*
Y-1188606D01*
Y-1188747D01*
Y-1188887D01*
Y-1189027D01*
Y-1189168D01*
Y-1189308D01*
Y-1189448D01*
Y-1189589D01*
Y-1189729D01*
Y-1189869D01*
Y-1190010D01*
Y-1190150D01*
Y-1190290D01*
Y-1190431D01*
Y-1190571D01*
Y-1190711D01*
Y-1190852D01*
Y-1190992D01*
Y-1191132D01*
Y-1191273D01*
Y-1191413D01*
Y-1191553D01*
Y-1191694D01*
X-1191480D01*
Y-1191834D01*
Y-1191974D01*
Y-1192115D01*
Y-1192255D01*
Y-1192395D01*
Y-1192536D01*
Y-1192676D01*
Y-1192816D01*
X-1191620D01*
Y-1192957D01*
Y-1193097D01*
Y-1193237D01*
Y-1193378D01*
Y-1193518D01*
Y-1193658D01*
X-1191760D01*
Y-1193799D01*
Y-1193939D01*
Y-1194079D01*
Y-1194220D01*
X-1191901D01*
Y-1194360D01*
Y-1194500D01*
Y-1194641D01*
Y-1194781D01*
X-1192041D01*
Y-1194921D01*
Y-1195061D01*
Y-1195202D01*
Y-1195342D01*
X-1192181D01*
Y-1195482D01*
Y-1195623D01*
Y-1195763D01*
X-1192322D01*
Y-1195903D01*
Y-1196044D01*
Y-1196184D01*
X-1192462D01*
Y-1196324D01*
Y-1196465D01*
X-1192602D01*
Y-1196605D01*
Y-1196745D01*
Y-1196886D01*
X-1192743D01*
Y-1197026D01*
Y-1197166D01*
X-1192883D01*
Y-1197307D01*
Y-1197447D01*
Y-1197587D01*
X-1193023D01*
Y-1197728D01*
Y-1197868D01*
X-1193164D01*
Y-1198008D01*
Y-1198149D01*
X-1193304D01*
Y-1198289D01*
Y-1198429D01*
X-1193444D01*
Y-1198570D01*
Y-1198710D01*
X-1193585D01*
Y-1198850D01*
X-1193725D01*
Y-1198991D01*
Y-1199131D01*
X-1193865D01*
Y-1199271D01*
Y-1199411D01*
X-1194006D01*
Y-1199552D01*
X-1194146D01*
Y-1199692D01*
Y-1199833D01*
X-1194286D01*
Y-1199973D01*
Y-1200113D01*
X-1194426D01*
Y-1200254D01*
X-1194567D01*
Y-1200394D01*
X-1194707D01*
Y-1200534D01*
Y-1200675D01*
X-1194847D01*
Y-1200815D01*
X-1194988D01*
Y-1200955D01*
Y-1201095D01*
X-1195128D01*
Y-1201236D01*
X-1195268D01*
Y-1201376D01*
X-1195409D01*
Y-1201516D01*
X-1195549D01*
Y-1201657D01*
X-1195689D01*
Y-1201797D01*
Y-1201937D01*
X-1195830D01*
Y-1202078D01*
X-1195970D01*
Y-1202218D01*
X-1196110D01*
Y-1202358D01*
X-1196251D01*
Y-1202499D01*
X-1196391D01*
Y-1202639D01*
X-1196531D01*
Y-1202779D01*
X-1196672D01*
Y-1202920D01*
X-1196812D01*
Y-1203060D01*
X-1196952D01*
Y-1203200D01*
X-1197093D01*
Y-1203341D01*
X-1197233D01*
Y-1203481D01*
X-1197373D01*
Y-1203621D01*
X-1197514D01*
Y-1203762D01*
X-1197794D01*
Y-1203902D01*
X-1197935D01*
Y-1204042D01*
X-1198075D01*
Y-1204183D01*
X-1198215D01*
Y-1204323D01*
X-1198496D01*
Y-1204463D01*
X-1198636D01*
Y-1204604D01*
X-1198777D01*
Y-1204744D01*
X-1199057D01*
Y-1204884D01*
X-1199197D01*
Y-1205024D01*
X-1199478D01*
Y-1205165D01*
X-1199619D01*
Y-1205305D01*
X-1199899D01*
Y-1205445D01*
X-1200180D01*
Y-1205586D01*
X-1200320D01*
Y-1205726D01*
X-1200601D01*
Y-1205866D01*
X-1200881D01*
Y-1206007D01*
X-1201162D01*
Y-1206147D01*
X-1201443D01*
Y-1206287D01*
X-1201723D01*
Y-1206428D01*
X-1202004D01*
Y-1206568D01*
X-1202425D01*
Y-1206708D01*
X-1202706D01*
Y-1206849D01*
X-1203127D01*
Y-1206989D01*
X-1203548D01*
Y-1207129D01*
X-1203969D01*
Y-1207270D01*
X-1204390D01*
Y-1207410D01*
X-1204951D01*
Y-1207550D01*
X-1205652D01*
Y-1207691D01*
X-1206354D01*
Y-1207831D01*
X-1207477D01*
Y-1207971D01*
X-1211265D01*
Y-1207831D01*
X-1212248D01*
Y-1207691D01*
X-1213090D01*
Y-1207550D01*
X-1213651D01*
Y-1207410D01*
X-1214212D01*
Y-1207270D01*
X-1214633D01*
Y-1207129D01*
X-1215194D01*
Y-1206989D01*
X-1215475D01*
Y-1206849D01*
X-1215896D01*
Y-1206708D01*
X-1216317D01*
Y-1206568D01*
X-1216598D01*
Y-1206428D01*
X-1216878D01*
Y-1206287D01*
X-1217159D01*
Y-1206147D01*
X-1217440D01*
Y-1206007D01*
X-1217720D01*
Y-1205866D01*
X-1218001D01*
Y-1205726D01*
X-1218282D01*
Y-1205586D01*
X-1218562D01*
Y-1205445D01*
X-1218703D01*
Y-1205305D01*
X-1218983D01*
Y-1205165D01*
X-1219124D01*
Y-1205024D01*
X-1219404D01*
Y-1204884D01*
X-1219545D01*
Y-1204744D01*
X-1219825D01*
Y-1204604D01*
X-1219966D01*
Y-1204463D01*
X-1220246D01*
Y-1204323D01*
X-1220387D01*
Y-1204183D01*
X-1220527D01*
Y-1204042D01*
X-1220667D01*
Y-1203902D01*
X-1220948D01*
Y-1203762D01*
X-1221088D01*
Y-1203621D01*
X-1221228D01*
Y-1203481D01*
X-1221369D01*
Y-1203341D01*
X-1221509D01*
Y-1203200D01*
X-1221649D01*
Y-1203060D01*
X-1221790D01*
Y-1202920D01*
X-1221930D01*
Y-1202779D01*
X-1222070D01*
Y-1202639D01*
X-1222211D01*
Y-1202499D01*
X-1222351D01*
Y-1202358D01*
X-1222491D01*
Y-1202218D01*
X-1222632D01*
Y-1202078D01*
X-1222772D01*
Y-1201937D01*
X-1222912D01*
Y-1201797D01*
X-1223053D01*
Y-1201657D01*
X-1223193D01*
Y-1201516D01*
X-1223333D01*
Y-1201376D01*
Y-1201236D01*
X-1223474D01*
Y-1201095D01*
X-1223614D01*
Y-1200955D01*
X-1223754D01*
Y-1200815D01*
Y-1200675D01*
X-1223895D01*
Y-1200534D01*
X-1224035D01*
Y-1200394D01*
X-1224175D01*
Y-1200254D01*
Y-1200113D01*
X-1224316D01*
Y-1199973D01*
X-1224456D01*
Y-1199833D01*
Y-1199692D01*
X-1224596D01*
Y-1199552D01*
Y-1199411D01*
X-1224737D01*
Y-1199271D01*
X-1224877D01*
Y-1199131D01*
Y-1198991D01*
X-1225017D01*
Y-1198850D01*
Y-1198710D01*
X-1225158D01*
Y-1198570D01*
Y-1198429D01*
X-1225298D01*
Y-1198289D01*
Y-1198149D01*
X-1225438D01*
Y-1198008D01*
Y-1197868D01*
X-1225579D01*
Y-1197728D01*
Y-1197587D01*
X-1225719D01*
Y-1197447D01*
Y-1197307D01*
X-1225859D01*
Y-1197166D01*
Y-1197026D01*
X-1226000D01*
Y-1196886D01*
Y-1196745D01*
Y-1196605D01*
X-1226140D01*
Y-1196465D01*
Y-1196324D01*
X-1226280D01*
Y-1196184D01*
Y-1196044D01*
Y-1195903D01*
X-1226421D01*
Y-1195763D01*
Y-1195623D01*
Y-1195482D01*
X-1226561D01*
Y-1195342D01*
Y-1195202D01*
Y-1195061D01*
Y-1194921D01*
X-1226701D01*
Y-1194781D01*
Y-1194641D01*
Y-1194500D01*
X-1226842D01*
Y-1194360D01*
Y-1194220D01*
Y-1194079D01*
Y-1193939D01*
Y-1193799D01*
X-1226982D01*
Y-1193658D01*
Y-1193518D01*
Y-1193378D01*
Y-1193237D01*
Y-1193097D01*
X-1227122D01*
Y-1192957D01*
Y-1192816D01*
Y-1192676D01*
Y-1192536D01*
Y-1192395D01*
Y-1192255D01*
Y-1192115D01*
X-1227262D01*
Y-1191974D01*
Y-1191834D01*
Y-1191694D01*
Y-1191553D01*
Y-1191413D01*
Y-1191273D01*
Y-1191132D01*
Y-1190992D01*
Y-1190852D01*
Y-1190711D01*
Y-1190571D01*
Y-1190431D01*
Y-1190290D01*
Y-1190150D01*
Y-1190010D01*
Y-1189869D01*
Y-1189729D01*
Y-1189589D01*
Y-1189448D01*
Y-1189308D01*
Y-1189168D01*
Y-1189027D01*
Y-1188887D01*
Y-1188747D01*
Y-1188606D01*
Y-1188466D01*
Y-1188326D01*
Y-1188186D01*
Y-1188045D01*
Y-1187905D01*
X-1227122D01*
Y-1187765D01*
Y-1187624D01*
Y-1187484D01*
Y-1187344D01*
Y-1187203D01*
Y-1187063D01*
Y-1186923D01*
X-1226982D01*
Y-1186782D01*
Y-1186642D01*
Y-1186502D01*
Y-1186361D01*
Y-1186221D01*
Y-1186081D01*
X-1226842D01*
Y-1185940D01*
Y-1185800D01*
Y-1185660D01*
Y-1185519D01*
X-1226701D01*
Y-1185379D01*
Y-1185239D01*
Y-1185098D01*
Y-1184958D01*
X-1226561D01*
Y-1184818D01*
Y-1184678D01*
Y-1184537D01*
X-1226421D01*
Y-1184397D01*
Y-1184256D01*
Y-1184116D01*
X-1226280D01*
Y-1183976D01*
Y-1183836D01*
Y-1183695D01*
X-1226140D01*
Y-1183555D01*
Y-1183415D01*
X-1226000D01*
Y-1183274D01*
Y-1183134D01*
Y-1182993D01*
X-1225859D01*
Y-1182853D01*
Y-1182713D01*
X-1225719D01*
Y-1182573D01*
Y-1182432D01*
X-1225579D01*
Y-1182292D01*
Y-1182152D01*
X-1225438D01*
Y-1182011D01*
Y-1181871D01*
X-1225298D01*
Y-1181731D01*
Y-1181590D01*
X-1225158D01*
Y-1181450D01*
Y-1181310D01*
X-1225017D01*
Y-1181169D01*
Y-1181029D01*
X-1224877D01*
Y-1180889D01*
Y-1180748D01*
X-1224737D01*
Y-1180608D01*
X-1224596D01*
Y-1180468D01*
Y-1180327D01*
X-1224456D01*
Y-1180187D01*
X-1224316D01*
Y-1180047D01*
Y-1179906D01*
X-1224175D01*
Y-1179766D01*
X-1224035D01*
Y-1179626D01*
Y-1179485D01*
X-1223895D01*
Y-1179345D01*
X-1223754D01*
Y-1179205D01*
X-1223614D01*
Y-1179064D01*
Y-1178924D01*
X-1223474D01*
Y-1178784D01*
X-1223333D01*
Y-1178643D01*
X-1223193D01*
Y-1178503D01*
X-1223053D01*
Y-1178363D01*
X-1222912D01*
Y-1178223D01*
Y-1178082D01*
X-1222772D01*
Y-1177942D01*
X-1222632D01*
Y-1177802D01*
X-1222491D01*
Y-1177661D01*
X-1222351D01*
Y-1177521D01*
X-1222211D01*
Y-1177381D01*
X-1222070D01*
Y-1177240D01*
X-1221930D01*
Y-1177100D01*
X-1221790D01*
Y-1176960D01*
X-1221649D01*
Y-1176819D01*
X-1221509D01*
Y-1176679D01*
X-1221228D01*
Y-1176539D01*
X-1221088D01*
Y-1176398D01*
X-1220948D01*
Y-1176258D01*
X-1220807D01*
Y-1176118D01*
X-1220667D01*
Y-1175977D01*
X-1220387D01*
Y-1175837D01*
X-1220246D01*
Y-1175697D01*
X-1220106D01*
Y-1175556D01*
X-1219825D01*
Y-1175416D01*
X-1219685D01*
Y-1175276D01*
X-1219404D01*
Y-1175135D01*
X-1219264D01*
Y-1174995D01*
X-1218983D01*
Y-1174855D01*
X-1218843D01*
Y-1174714D01*
X-1218562D01*
Y-1174574D01*
X-1218282D01*
Y-1174434D01*
X-1218001D01*
Y-1174293D01*
X-1217720D01*
Y-1174153D01*
X-1217440D01*
Y-1174013D01*
X-1217159D01*
Y-1173872D01*
X-1216878D01*
Y-1173732D01*
X-1216598D01*
Y-1173592D01*
X-1216177D01*
Y-1173452D01*
X-1215896D01*
Y-1173311D01*
X-1215475D01*
Y-1173171D01*
X-1215054D01*
Y-1173030D01*
X-1214633D01*
Y-1172890D01*
X-1214072D01*
Y-1172750D01*
X-1213511D01*
Y-1172609D01*
X-1212669D01*
Y-1172469D01*
X-1211827D01*
Y-1172329D01*
X-1206915D01*
Y-1172469D01*
D02*
G37*
G36*
X-1171273D02*
X-1170010D01*
Y-1172609D01*
X-1169168D01*
Y-1172750D01*
X-1168607D01*
Y-1172890D01*
X-1168046D01*
Y-1173030D01*
X-1167625D01*
Y-1173171D01*
X-1167204D01*
Y-1173311D01*
X-1166783D01*
Y-1173452D01*
X-1166502D01*
Y-1173592D01*
X-1166081D01*
Y-1173732D01*
X-1165800D01*
Y-1173872D01*
X-1165520D01*
Y-1174013D01*
X-1165239D01*
Y-1174153D01*
X-1164958D01*
Y-1174293D01*
X-1164678D01*
Y-1174434D01*
X-1164537D01*
Y-1174574D01*
X-1164257D01*
Y-1174714D01*
X-1164116D01*
Y-1174855D01*
X-1163836D01*
Y-1174995D01*
X-1163696D01*
Y-1175135D01*
X-1163415D01*
Y-1175276D01*
X-1163274D01*
Y-1175416D01*
X-1162994D01*
Y-1175556D01*
X-1162853D01*
Y-1175697D01*
X-1162713D01*
Y-1175837D01*
X-1162573D01*
Y-1175977D01*
Y-1176118D01*
Y-1176258D01*
X-1162713D01*
Y-1176398D01*
X-1162853D01*
Y-1176539D01*
Y-1176679D01*
X-1162994D01*
Y-1176819D01*
Y-1176960D01*
X-1163134D01*
Y-1177100D01*
Y-1177240D01*
X-1163274D01*
Y-1177381D01*
Y-1177521D01*
X-1163415D01*
Y-1177661D01*
Y-1177802D01*
X-1163555D01*
Y-1177942D01*
X-1163696D01*
Y-1178082D01*
Y-1178223D01*
X-1163836D01*
Y-1178363D01*
Y-1178503D01*
X-1163976D01*
Y-1178643D01*
Y-1178784D01*
X-1164116D01*
Y-1178924D01*
Y-1179064D01*
X-1164257D01*
Y-1179205D01*
Y-1179345D01*
X-1164397D01*
Y-1179485D01*
X-1164537D01*
Y-1179626D01*
Y-1179766D01*
X-1164678D01*
Y-1179906D01*
Y-1180047D01*
X-1164818D01*
Y-1180187D01*
Y-1180327D01*
X-1164958D01*
Y-1180468D01*
Y-1180608D01*
X-1165239D01*
Y-1180468D01*
X-1165520D01*
Y-1180327D01*
X-1165660D01*
Y-1180187D01*
X-1165800D01*
Y-1180047D01*
X-1166081D01*
Y-1179906D01*
X-1166221D01*
Y-1179766D01*
X-1166502D01*
Y-1179626D01*
X-1166642D01*
Y-1179485D01*
X-1166923D01*
Y-1179345D01*
X-1167204D01*
Y-1179205D01*
X-1167484D01*
Y-1179064D01*
X-1167765D01*
Y-1178924D01*
X-1168046D01*
Y-1178784D01*
X-1168326D01*
Y-1178643D01*
X-1168607D01*
Y-1178503D01*
X-1169028D01*
Y-1178363D01*
X-1169449D01*
Y-1178223D01*
X-1169870D01*
Y-1178082D01*
X-1170431D01*
Y-1177942D01*
X-1171133D01*
Y-1177802D01*
X-1172115D01*
Y-1177661D01*
X-1174220D01*
Y-1177802D01*
X-1174781D01*
Y-1177942D01*
X-1175202D01*
Y-1178082D01*
X-1175483D01*
Y-1178223D01*
X-1175763D01*
Y-1178363D01*
X-1176044D01*
Y-1178503D01*
X-1176184D01*
Y-1178643D01*
X-1176465D01*
Y-1178784D01*
X-1176605D01*
Y-1178924D01*
X-1176746D01*
Y-1179064D01*
X-1176886D01*
Y-1179205D01*
X-1177026D01*
Y-1179345D01*
X-1177167D01*
Y-1179485D01*
X-1177307D01*
Y-1179626D01*
X-1177447D01*
Y-1179766D01*
Y-1179906D01*
X-1177588D01*
Y-1180047D01*
X-1177728D01*
Y-1180187D01*
Y-1180327D01*
X-1177868D01*
Y-1180468D01*
Y-1180608D01*
X-1178008D01*
Y-1180748D01*
Y-1180889D01*
X-1178149D01*
Y-1181029D01*
Y-1181169D01*
Y-1181310D01*
X-1178289D01*
Y-1181450D01*
Y-1181590D01*
Y-1181731D01*
Y-1181871D01*
Y-1182011D01*
X-1178429D01*
Y-1182152D01*
Y-1182292D01*
Y-1182432D01*
Y-1182573D01*
X-1178289D01*
Y-1182713D01*
Y-1182853D01*
Y-1182993D01*
Y-1183134D01*
X-1178149D01*
Y-1183274D01*
Y-1183415D01*
Y-1183555D01*
X-1178008D01*
Y-1183695D01*
Y-1183836D01*
X-1177868D01*
Y-1183976D01*
X-1177728D01*
Y-1184116D01*
Y-1184256D01*
X-1177588D01*
Y-1184397D01*
X-1177447D01*
Y-1184537D01*
X-1177307D01*
Y-1184678D01*
X-1177167D01*
Y-1184818D01*
X-1177026D01*
Y-1184958D01*
X-1176886D01*
Y-1185098D01*
X-1176746D01*
Y-1185239D01*
X-1176605D01*
Y-1185379D01*
X-1176325D01*
Y-1185519D01*
X-1176184D01*
Y-1185660D01*
X-1175904D01*
Y-1185800D01*
X-1175763D01*
Y-1185940D01*
X-1175483D01*
Y-1186081D01*
X-1175202D01*
Y-1186221D01*
X-1174921D01*
Y-1186361D01*
X-1174641D01*
Y-1186502D01*
X-1174360D01*
Y-1186642D01*
X-1174079D01*
Y-1186782D01*
X-1173799D01*
Y-1186923D01*
X-1173518D01*
Y-1187063D01*
X-1173097D01*
Y-1187203D01*
X-1172816D01*
Y-1187344D01*
X-1172536D01*
Y-1187484D01*
X-1172115D01*
Y-1187624D01*
X-1171834D01*
Y-1187765D01*
X-1171554D01*
Y-1187905D01*
X-1171133D01*
Y-1188045D01*
X-1170852D01*
Y-1188186D01*
X-1170431D01*
Y-1188326D01*
X-1170150D01*
Y-1188466D01*
X-1169870D01*
Y-1188606D01*
X-1169449D01*
Y-1188747D01*
X-1169168D01*
Y-1188887D01*
X-1168887D01*
Y-1189027D01*
X-1168607D01*
Y-1189168D01*
X-1168326D01*
Y-1189308D01*
X-1168046D01*
Y-1189448D01*
X-1167765D01*
Y-1189589D01*
X-1167484D01*
Y-1189729D01*
X-1167204D01*
Y-1189869D01*
X-1166923D01*
Y-1190010D01*
X-1166783D01*
Y-1190150D01*
X-1166502D01*
Y-1190290D01*
X-1166221D01*
Y-1190431D01*
X-1166081D01*
Y-1190571D01*
X-1165800D01*
Y-1190711D01*
X-1165660D01*
Y-1190852D01*
X-1165520D01*
Y-1190992D01*
X-1165239D01*
Y-1191132D01*
X-1165099D01*
Y-1191273D01*
X-1164958D01*
Y-1191413D01*
X-1164818D01*
Y-1191553D01*
X-1164678D01*
Y-1191694D01*
X-1164397D01*
Y-1191834D01*
X-1164257D01*
Y-1191974D01*
X-1164116D01*
Y-1192115D01*
Y-1192255D01*
X-1163976D01*
Y-1192395D01*
X-1163836D01*
Y-1192536D01*
X-1163696D01*
Y-1192676D01*
X-1163555D01*
Y-1192816D01*
X-1163415D01*
Y-1192957D01*
Y-1193097D01*
X-1163274D01*
Y-1193237D01*
X-1163134D01*
Y-1193378D01*
Y-1193518D01*
X-1162994D01*
Y-1193658D01*
Y-1193799D01*
X-1162853D01*
Y-1193939D01*
X-1162713D01*
Y-1194079D01*
Y-1194220D01*
X-1162573D01*
Y-1194360D01*
Y-1194500D01*
Y-1194641D01*
X-1162432D01*
Y-1194781D01*
Y-1194921D01*
X-1162292D01*
Y-1195061D01*
Y-1195202D01*
Y-1195342D01*
Y-1195482D01*
X-1162152D01*
Y-1195623D01*
Y-1195763D01*
Y-1195903D01*
Y-1196044D01*
X-1162011D01*
Y-1196184D01*
Y-1196324D01*
Y-1196465D01*
Y-1196605D01*
Y-1196745D01*
Y-1196886D01*
X-1161871D01*
Y-1197026D01*
Y-1197166D01*
Y-1197307D01*
Y-1197447D01*
Y-1197587D01*
Y-1197728D01*
Y-1197868D01*
Y-1198008D01*
Y-1198149D01*
Y-1198289D01*
Y-1198429D01*
Y-1198570D01*
Y-1198710D01*
Y-1198850D01*
Y-1198991D01*
Y-1199131D01*
Y-1199271D01*
Y-1199411D01*
X-1162011D01*
Y-1199552D01*
Y-1199692D01*
Y-1199833D01*
Y-1199973D01*
Y-1200113D01*
Y-1200254D01*
Y-1200394D01*
X-1162152D01*
Y-1200534D01*
Y-1200675D01*
Y-1200815D01*
Y-1200955D01*
Y-1201095D01*
X-1162292D01*
Y-1201236D01*
Y-1201376D01*
Y-1201516D01*
X-1162432D01*
Y-1201657D01*
Y-1201797D01*
Y-1201937D01*
X-1162573D01*
Y-1202078D01*
Y-1202218D01*
Y-1202358D01*
X-1162713D01*
Y-1202499D01*
Y-1202639D01*
X-1162853D01*
Y-1202779D01*
Y-1202920D01*
X-1162994D01*
Y-1203060D01*
Y-1203200D01*
X-1163134D01*
Y-1203341D01*
Y-1203481D01*
X-1163274D01*
Y-1203621D01*
X-1163415D01*
Y-1203762D01*
Y-1203902D01*
X-1163555D01*
Y-1204042D01*
X-1163696D01*
Y-1204183D01*
Y-1204323D01*
X-1163836D01*
Y-1204463D01*
X-1163976D01*
Y-1204604D01*
X-1164116D01*
Y-1204744D01*
X-1164257D01*
Y-1204884D01*
Y-1205024D01*
X-1164397D01*
Y-1205165D01*
X-1164537D01*
Y-1205305D01*
X-1164678D01*
Y-1205445D01*
X-1164818D01*
Y-1205586D01*
X-1165099D01*
Y-1205726D01*
X-1165239D01*
Y-1205866D01*
X-1165379D01*
Y-1206007D01*
X-1165520D01*
Y-1206147D01*
X-1165800D01*
Y-1206287D01*
X-1165941D01*
Y-1206428D01*
X-1166081D01*
Y-1206568D01*
X-1166362D01*
Y-1206708D01*
X-1166642D01*
Y-1206849D01*
X-1166783D01*
Y-1206989D01*
X-1167063D01*
Y-1207129D01*
X-1167344D01*
Y-1207270D01*
X-1167625D01*
Y-1207410D01*
X-1168046D01*
Y-1207550D01*
X-1168326D01*
Y-1207691D01*
X-1168747D01*
Y-1207831D01*
X-1169168D01*
Y-1207971D01*
X-1169729D01*
Y-1208112D01*
X-1170431D01*
Y-1208252D01*
X-1171273D01*
Y-1208392D01*
X-1175342D01*
Y-1208252D01*
X-1176325D01*
Y-1208112D01*
X-1177026D01*
Y-1207971D01*
X-1177728D01*
Y-1207831D01*
X-1178149D01*
Y-1207691D01*
X-1178710D01*
Y-1207550D01*
X-1179131D01*
Y-1207410D01*
X-1179412D01*
Y-1207270D01*
X-1179833D01*
Y-1207129D01*
X-1180114D01*
Y-1206989D01*
X-1180534D01*
Y-1206849D01*
X-1180815D01*
Y-1206708D01*
X-1181096D01*
Y-1206568D01*
X-1181376D01*
Y-1206428D01*
X-1181657D01*
Y-1206287D01*
X-1181797D01*
Y-1206147D01*
X-1182078D01*
Y-1206007D01*
X-1182359D01*
Y-1205866D01*
X-1182639D01*
Y-1205726D01*
X-1182780D01*
Y-1205586D01*
X-1183060D01*
Y-1205445D01*
X-1183201D01*
Y-1205305D01*
X-1183481D01*
Y-1205165D01*
X-1183622D01*
Y-1205024D01*
X-1183762D01*
Y-1204884D01*
X-1184043D01*
Y-1204744D01*
X-1184183D01*
Y-1204604D01*
X-1184323D01*
Y-1204463D01*
X-1184463D01*
Y-1204323D01*
X-1184604D01*
Y-1204183D01*
X-1184884D01*
Y-1204042D01*
X-1185025D01*
Y-1203902D01*
X-1185165D01*
Y-1203762D01*
Y-1203621D01*
X-1185025D01*
Y-1203481D01*
X-1184884D01*
Y-1203341D01*
Y-1203200D01*
X-1184744D01*
Y-1203060D01*
X-1184604D01*
Y-1202920D01*
Y-1202779D01*
X-1184463D01*
Y-1202639D01*
X-1184323D01*
Y-1202499D01*
X-1184183D01*
Y-1202358D01*
Y-1202218D01*
X-1184043D01*
Y-1202078D01*
X-1183902D01*
Y-1201937D01*
X-1183762D01*
Y-1201797D01*
Y-1201657D01*
X-1183622D01*
Y-1201516D01*
X-1183481D01*
Y-1201376D01*
Y-1201236D01*
X-1183341D01*
Y-1201095D01*
X-1183201D01*
Y-1200955D01*
X-1183060D01*
Y-1200815D01*
Y-1200675D01*
X-1182920D01*
Y-1200534D01*
X-1182780D01*
Y-1200394D01*
Y-1200254D01*
X-1182639D01*
Y-1200113D01*
X-1182499D01*
Y-1199973D01*
X-1182359D01*
Y-1199833D01*
Y-1199692D01*
X-1182218D01*
Y-1199552D01*
X-1182078D01*
Y-1199411D01*
X-1181938D01*
Y-1199271D01*
X-1181797D01*
Y-1199411D01*
X-1181657D01*
Y-1199552D01*
X-1181517D01*
Y-1199692D01*
X-1181376D01*
Y-1199833D01*
X-1181236D01*
Y-1199973D01*
X-1180955D01*
Y-1200113D01*
X-1180815D01*
Y-1200254D01*
X-1180675D01*
Y-1200394D01*
X-1180394D01*
Y-1200534D01*
X-1180254D01*
Y-1200675D01*
X-1179973D01*
Y-1200815D01*
X-1179833D01*
Y-1200955D01*
X-1179552D01*
Y-1201095D01*
X-1179271D01*
Y-1201236D01*
X-1178991D01*
Y-1201376D01*
X-1178710D01*
Y-1201516D01*
X-1178429D01*
Y-1201657D01*
X-1178149D01*
Y-1201797D01*
X-1177868D01*
Y-1201937D01*
X-1177447D01*
Y-1202078D01*
X-1177167D01*
Y-1202218D01*
X-1176605D01*
Y-1202358D01*
X-1176184D01*
Y-1202499D01*
X-1175623D01*
Y-1202639D01*
X-1174921D01*
Y-1202779D01*
X-1173939D01*
Y-1202920D01*
X-1172255D01*
Y-1202779D01*
X-1171554D01*
Y-1202639D01*
X-1171133D01*
Y-1202499D01*
X-1170712D01*
Y-1202358D01*
X-1170431D01*
Y-1202218D01*
X-1170150D01*
Y-1202078D01*
X-1169870D01*
Y-1201937D01*
X-1169729D01*
Y-1201797D01*
X-1169589D01*
Y-1201657D01*
X-1169308D01*
Y-1201516D01*
X-1169168D01*
Y-1201376D01*
X-1169028D01*
Y-1201236D01*
X-1168887D01*
Y-1201095D01*
X-1168747D01*
Y-1200955D01*
Y-1200815D01*
X-1168607D01*
Y-1200675D01*
X-1168466D01*
Y-1200534D01*
X-1168326D01*
Y-1200394D01*
Y-1200254D01*
X-1168186D01*
Y-1200113D01*
Y-1199973D01*
X-1168046D01*
Y-1199833D01*
Y-1199692D01*
Y-1199552D01*
X-1167905D01*
Y-1199411D01*
Y-1199271D01*
Y-1199131D01*
Y-1198991D01*
Y-1198850D01*
X-1167765D01*
Y-1198710D01*
Y-1198570D01*
Y-1198429D01*
Y-1198289D01*
Y-1198149D01*
Y-1198008D01*
X-1167905D01*
Y-1197868D01*
Y-1197728D01*
Y-1197587D01*
Y-1197447D01*
X-1168046D01*
Y-1197307D01*
Y-1197166D01*
Y-1197026D01*
X-1168186D01*
Y-1196886D01*
Y-1196745D01*
X-1168326D01*
Y-1196605D01*
Y-1196465D01*
X-1168466D01*
Y-1196324D01*
X-1168607D01*
Y-1196184D01*
X-1168747D01*
Y-1196044D01*
Y-1195903D01*
X-1168887D01*
Y-1195763D01*
X-1169028D01*
Y-1195623D01*
X-1169168D01*
Y-1195482D01*
X-1169449D01*
Y-1195342D01*
X-1169589D01*
Y-1195202D01*
X-1169729D01*
Y-1195061D01*
X-1169870D01*
Y-1194921D01*
X-1170150D01*
Y-1194781D01*
X-1170291D01*
Y-1194641D01*
X-1170571D01*
Y-1194500D01*
X-1170852D01*
Y-1194360D01*
X-1170992D01*
Y-1194220D01*
X-1171273D01*
Y-1194079D01*
X-1171554D01*
Y-1193939D01*
X-1171834D01*
Y-1193799D01*
X-1172115D01*
Y-1193658D01*
X-1172396D01*
Y-1193518D01*
X-1172676D01*
Y-1193378D01*
X-1172957D01*
Y-1193237D01*
X-1173378D01*
Y-1193097D01*
X-1173659D01*
Y-1192957D01*
X-1173939D01*
Y-1192816D01*
X-1174360D01*
Y-1192676D01*
X-1174641D01*
Y-1192536D01*
X-1174921D01*
Y-1192395D01*
X-1175342D01*
Y-1192255D01*
X-1175623D01*
Y-1192115D01*
X-1175904D01*
Y-1191974D01*
X-1176184D01*
Y-1191834D01*
X-1176465D01*
Y-1191694D01*
X-1176886D01*
Y-1191553D01*
X-1177167D01*
Y-1191413D01*
X-1177447D01*
Y-1191273D01*
X-1177728D01*
Y-1191132D01*
X-1178008D01*
Y-1190992D01*
X-1178289D01*
Y-1190852D01*
X-1178429D01*
Y-1190711D01*
X-1178710D01*
Y-1190571D01*
X-1178991D01*
Y-1190431D01*
X-1179271D01*
Y-1190290D01*
X-1179412D01*
Y-1190150D01*
X-1179692D01*
Y-1190010D01*
X-1179833D01*
Y-1189869D01*
X-1180114D01*
Y-1189729D01*
X-1180254D01*
Y-1189589D01*
X-1180534D01*
Y-1189448D01*
X-1180675D01*
Y-1189308D01*
X-1180815D01*
Y-1189168D01*
X-1181096D01*
Y-1189027D01*
X-1181236D01*
Y-1188887D01*
X-1181376D01*
Y-1188747D01*
X-1181517D01*
Y-1188606D01*
X-1181657D01*
Y-1188466D01*
X-1181797D01*
Y-1188326D01*
X-1181938D01*
Y-1188186D01*
X-1182078D01*
Y-1188045D01*
X-1182218D01*
Y-1187905D01*
X-1182359D01*
Y-1187765D01*
X-1182499D01*
Y-1187624D01*
X-1182639D01*
Y-1187484D01*
X-1182780D01*
Y-1187344D01*
X-1182920D01*
Y-1187203D01*
Y-1187063D01*
X-1183060D01*
Y-1186923D01*
X-1183201D01*
Y-1186782D01*
Y-1186642D01*
X-1183341D01*
Y-1186502D01*
X-1183481D01*
Y-1186361D01*
Y-1186221D01*
X-1183622D01*
Y-1186081D01*
Y-1185940D01*
X-1183762D01*
Y-1185800D01*
Y-1185660D01*
X-1183902D01*
Y-1185519D01*
Y-1185379D01*
Y-1185239D01*
X-1184043D01*
Y-1185098D01*
Y-1184958D01*
Y-1184818D01*
X-1184183D01*
Y-1184678D01*
Y-1184537D01*
Y-1184397D01*
Y-1184256D01*
X-1184323D01*
Y-1184116D01*
Y-1183976D01*
Y-1183836D01*
Y-1183695D01*
Y-1183555D01*
X-1184463D01*
Y-1183415D01*
Y-1183274D01*
Y-1183134D01*
Y-1182993D01*
Y-1182853D01*
Y-1182713D01*
Y-1182573D01*
Y-1182432D01*
Y-1182292D01*
Y-1182152D01*
Y-1182011D01*
Y-1181871D01*
Y-1181731D01*
Y-1181590D01*
Y-1181450D01*
Y-1181310D01*
Y-1181169D01*
X-1184323D01*
Y-1181029D01*
Y-1180889D01*
Y-1180748D01*
Y-1180608D01*
Y-1180468D01*
Y-1180327D01*
X-1184183D01*
Y-1180187D01*
Y-1180047D01*
Y-1179906D01*
Y-1179766D01*
X-1184043D01*
Y-1179626D01*
Y-1179485D01*
Y-1179345D01*
X-1183902D01*
Y-1179205D01*
Y-1179064D01*
Y-1178924D01*
X-1183762D01*
Y-1178784D01*
Y-1178643D01*
X-1183622D01*
Y-1178503D01*
Y-1178363D01*
X-1183481D01*
Y-1178223D01*
Y-1178082D01*
X-1183341D01*
Y-1177942D01*
Y-1177802D01*
X-1183201D01*
Y-1177661D01*
Y-1177521D01*
X-1183060D01*
Y-1177381D01*
Y-1177240D01*
X-1182920D01*
Y-1177100D01*
X-1182780D01*
Y-1176960D01*
X-1182639D01*
Y-1176819D01*
Y-1176679D01*
X-1182499D01*
Y-1176539D01*
X-1182359D01*
Y-1176398D01*
X-1182218D01*
Y-1176258D01*
X-1182078D01*
Y-1176118D01*
Y-1175977D01*
X-1181938D01*
Y-1175837D01*
X-1181797D01*
Y-1175697D01*
X-1181657D01*
Y-1175556D01*
X-1181517D01*
Y-1175416D01*
X-1181236D01*
Y-1175276D01*
X-1181096D01*
Y-1175135D01*
X-1180955D01*
Y-1174995D01*
X-1180815D01*
Y-1174855D01*
X-1180534D01*
Y-1174714D01*
X-1180394D01*
Y-1174574D01*
X-1180254D01*
Y-1174434D01*
X-1179973D01*
Y-1174293D01*
X-1179833D01*
Y-1174153D01*
X-1179552D01*
Y-1174013D01*
X-1179271D01*
Y-1173872D01*
X-1178991D01*
Y-1173732D01*
X-1178710D01*
Y-1173592D01*
X-1178429D01*
Y-1173452D01*
X-1178149D01*
Y-1173311D01*
X-1177728D01*
Y-1173171D01*
X-1177307D01*
Y-1173030D01*
X-1176886D01*
Y-1172890D01*
X-1176465D01*
Y-1172750D01*
X-1175763D01*
Y-1172609D01*
X-1175062D01*
Y-1172469D01*
X-1173659D01*
Y-1172329D01*
X-1171273D01*
Y-1172469D01*
D02*
G37*
G36*
X-1132403Y-1173030D02*
Y-1173171D01*
Y-1173311D01*
Y-1173452D01*
Y-1173592D01*
Y-1173732D01*
Y-1173872D01*
Y-1174013D01*
Y-1174153D01*
Y-1174293D01*
Y-1174434D01*
Y-1174574D01*
Y-1174714D01*
Y-1174855D01*
Y-1174995D01*
Y-1175135D01*
Y-1175276D01*
Y-1175416D01*
Y-1175556D01*
Y-1175697D01*
Y-1175837D01*
Y-1175977D01*
Y-1176118D01*
Y-1176258D01*
Y-1176398D01*
Y-1176539D01*
Y-1176679D01*
Y-1176819D01*
Y-1176960D01*
Y-1177100D01*
Y-1177240D01*
Y-1177381D01*
Y-1177521D01*
Y-1177661D01*
X-1140963D01*
Y-1177802D01*
Y-1177942D01*
Y-1178082D01*
Y-1178223D01*
Y-1178363D01*
Y-1178503D01*
Y-1178643D01*
Y-1178784D01*
Y-1178924D01*
Y-1179064D01*
Y-1179205D01*
Y-1179345D01*
Y-1179485D01*
Y-1179626D01*
Y-1179766D01*
Y-1179906D01*
Y-1180047D01*
Y-1180187D01*
Y-1180327D01*
Y-1180468D01*
Y-1180608D01*
Y-1180748D01*
Y-1180889D01*
Y-1181029D01*
Y-1181169D01*
Y-1181310D01*
Y-1181450D01*
Y-1181590D01*
Y-1181731D01*
Y-1181871D01*
Y-1182011D01*
Y-1182152D01*
Y-1182292D01*
Y-1182432D01*
Y-1182573D01*
Y-1182713D01*
Y-1182853D01*
Y-1182993D01*
Y-1183134D01*
Y-1183274D01*
Y-1183415D01*
Y-1183555D01*
Y-1183695D01*
Y-1183836D01*
Y-1183976D01*
Y-1184116D01*
Y-1184256D01*
Y-1184397D01*
Y-1184537D01*
Y-1184678D01*
Y-1184818D01*
Y-1184958D01*
Y-1185098D01*
Y-1185239D01*
Y-1185379D01*
Y-1185519D01*
Y-1185660D01*
Y-1185800D01*
Y-1185940D01*
Y-1186081D01*
Y-1186221D01*
Y-1186361D01*
Y-1186502D01*
Y-1186642D01*
Y-1186782D01*
Y-1186923D01*
Y-1187063D01*
Y-1187203D01*
Y-1187344D01*
Y-1187484D01*
Y-1187624D01*
Y-1187765D01*
Y-1187905D01*
Y-1188045D01*
Y-1188186D01*
Y-1188326D01*
Y-1188466D01*
Y-1188606D01*
Y-1188747D01*
Y-1188887D01*
Y-1189027D01*
Y-1189168D01*
Y-1189308D01*
Y-1189448D01*
Y-1189589D01*
Y-1189729D01*
Y-1189869D01*
Y-1190010D01*
Y-1190150D01*
Y-1190290D01*
Y-1190431D01*
Y-1190571D01*
Y-1190711D01*
Y-1190852D01*
Y-1190992D01*
Y-1191132D01*
Y-1191273D01*
Y-1191413D01*
Y-1191553D01*
Y-1191694D01*
Y-1191834D01*
Y-1191974D01*
Y-1192115D01*
Y-1192255D01*
Y-1192395D01*
Y-1192536D01*
Y-1192676D01*
Y-1192816D01*
Y-1192957D01*
Y-1193097D01*
Y-1193237D01*
Y-1193378D01*
Y-1193518D01*
Y-1193658D01*
Y-1193799D01*
Y-1193939D01*
Y-1194079D01*
Y-1194220D01*
Y-1194360D01*
Y-1194500D01*
Y-1194641D01*
Y-1194781D01*
Y-1194921D01*
Y-1195061D01*
Y-1195202D01*
Y-1195342D01*
Y-1195482D01*
Y-1195623D01*
Y-1195763D01*
Y-1195903D01*
Y-1196044D01*
Y-1196184D01*
Y-1196324D01*
Y-1196465D01*
Y-1196605D01*
Y-1196745D01*
Y-1196886D01*
Y-1197026D01*
Y-1197166D01*
Y-1197307D01*
Y-1197447D01*
Y-1197587D01*
Y-1197728D01*
Y-1197868D01*
Y-1198008D01*
Y-1198149D01*
Y-1198289D01*
Y-1198429D01*
Y-1198570D01*
Y-1198710D01*
Y-1198850D01*
Y-1198991D01*
Y-1199131D01*
Y-1199271D01*
Y-1199411D01*
Y-1199552D01*
Y-1199692D01*
Y-1199833D01*
Y-1199973D01*
Y-1200113D01*
Y-1200254D01*
Y-1200394D01*
Y-1200534D01*
Y-1200675D01*
Y-1200815D01*
Y-1200955D01*
Y-1201095D01*
Y-1201236D01*
Y-1201376D01*
Y-1201516D01*
Y-1201657D01*
Y-1201797D01*
Y-1201937D01*
Y-1202078D01*
Y-1202218D01*
Y-1202358D01*
Y-1202499D01*
Y-1202639D01*
Y-1202779D01*
Y-1202920D01*
Y-1203060D01*
Y-1203200D01*
Y-1203341D01*
Y-1203481D01*
Y-1203621D01*
Y-1203762D01*
Y-1203902D01*
Y-1204042D01*
Y-1204183D01*
Y-1204323D01*
Y-1204463D01*
Y-1204604D01*
Y-1204744D01*
Y-1204884D01*
Y-1205024D01*
Y-1205165D01*
Y-1205305D01*
Y-1205445D01*
Y-1205586D01*
Y-1205726D01*
Y-1205866D01*
Y-1206007D01*
Y-1206147D01*
Y-1206287D01*
Y-1206428D01*
Y-1206568D01*
Y-1206708D01*
Y-1206849D01*
Y-1206989D01*
Y-1207129D01*
Y-1207270D01*
Y-1207410D01*
Y-1207550D01*
Y-1207691D01*
X-1146576D01*
Y-1207550D01*
Y-1207410D01*
Y-1207270D01*
Y-1207129D01*
Y-1206989D01*
Y-1206849D01*
Y-1206708D01*
Y-1206568D01*
Y-1206428D01*
Y-1206287D01*
Y-1206147D01*
Y-1206007D01*
Y-1205866D01*
Y-1205726D01*
Y-1205586D01*
Y-1205445D01*
Y-1205305D01*
Y-1205165D01*
Y-1205024D01*
Y-1204884D01*
Y-1204744D01*
Y-1204604D01*
Y-1204463D01*
Y-1204323D01*
Y-1204183D01*
Y-1204042D01*
Y-1203902D01*
Y-1203762D01*
Y-1203621D01*
Y-1203481D01*
Y-1203341D01*
Y-1203200D01*
Y-1203060D01*
Y-1202920D01*
Y-1202779D01*
Y-1202639D01*
Y-1202499D01*
Y-1202358D01*
Y-1202218D01*
Y-1202078D01*
Y-1201937D01*
Y-1201797D01*
Y-1201657D01*
Y-1201516D01*
Y-1201376D01*
Y-1201236D01*
Y-1201095D01*
Y-1200955D01*
Y-1200815D01*
Y-1200675D01*
Y-1200534D01*
Y-1200394D01*
Y-1200254D01*
Y-1200113D01*
Y-1199973D01*
Y-1199833D01*
Y-1199692D01*
Y-1199552D01*
Y-1199411D01*
Y-1199271D01*
Y-1199131D01*
Y-1198991D01*
Y-1198850D01*
Y-1198710D01*
Y-1198570D01*
Y-1198429D01*
Y-1198289D01*
Y-1198149D01*
Y-1198008D01*
Y-1197868D01*
Y-1197728D01*
Y-1197587D01*
Y-1197447D01*
Y-1197307D01*
Y-1197166D01*
Y-1197026D01*
Y-1196886D01*
Y-1196745D01*
Y-1196605D01*
Y-1196465D01*
Y-1196324D01*
Y-1196184D01*
Y-1196044D01*
Y-1195903D01*
Y-1195763D01*
Y-1195623D01*
Y-1195482D01*
Y-1195342D01*
Y-1195202D01*
Y-1195061D01*
Y-1194921D01*
Y-1194781D01*
Y-1194641D01*
Y-1194500D01*
Y-1194360D01*
Y-1194220D01*
Y-1194079D01*
Y-1193939D01*
Y-1193799D01*
Y-1193658D01*
Y-1193518D01*
Y-1193378D01*
Y-1193237D01*
Y-1193097D01*
Y-1192957D01*
Y-1192816D01*
Y-1192676D01*
Y-1192536D01*
Y-1192395D01*
Y-1192255D01*
Y-1192115D01*
Y-1191974D01*
Y-1191834D01*
Y-1191694D01*
Y-1191553D01*
Y-1191413D01*
Y-1191273D01*
Y-1191132D01*
Y-1190992D01*
Y-1190852D01*
Y-1190711D01*
Y-1190571D01*
Y-1190431D01*
Y-1190290D01*
Y-1190150D01*
Y-1190010D01*
Y-1189869D01*
Y-1189729D01*
Y-1189589D01*
Y-1189448D01*
Y-1189308D01*
Y-1189168D01*
Y-1189027D01*
Y-1188887D01*
Y-1188747D01*
Y-1188606D01*
Y-1188466D01*
Y-1188326D01*
Y-1188186D01*
Y-1188045D01*
Y-1187905D01*
Y-1187765D01*
Y-1187624D01*
Y-1187484D01*
Y-1187344D01*
Y-1187203D01*
Y-1187063D01*
Y-1186923D01*
Y-1186782D01*
Y-1186642D01*
Y-1186502D01*
Y-1186361D01*
Y-1186221D01*
Y-1186081D01*
Y-1185940D01*
Y-1185800D01*
Y-1185660D01*
Y-1185519D01*
Y-1185379D01*
Y-1185239D01*
Y-1185098D01*
Y-1184958D01*
Y-1184818D01*
Y-1184678D01*
Y-1184537D01*
Y-1184397D01*
Y-1184256D01*
Y-1184116D01*
Y-1183976D01*
Y-1183836D01*
Y-1183695D01*
Y-1183555D01*
Y-1183415D01*
Y-1183274D01*
Y-1183134D01*
Y-1182993D01*
Y-1182853D01*
Y-1182713D01*
Y-1182573D01*
Y-1182432D01*
Y-1182292D01*
Y-1182152D01*
Y-1182011D01*
Y-1181871D01*
Y-1181731D01*
Y-1181590D01*
Y-1181450D01*
Y-1181310D01*
Y-1181169D01*
Y-1181029D01*
Y-1180889D01*
Y-1180748D01*
Y-1180608D01*
Y-1180468D01*
Y-1180327D01*
Y-1180187D01*
Y-1180047D01*
Y-1179906D01*
Y-1179766D01*
Y-1179626D01*
Y-1179485D01*
Y-1179345D01*
Y-1179205D01*
Y-1179064D01*
Y-1178924D01*
Y-1178784D01*
Y-1178643D01*
Y-1178503D01*
Y-1178363D01*
Y-1178223D01*
Y-1178082D01*
Y-1177942D01*
Y-1177802D01*
Y-1177661D01*
X-1154995D01*
Y-1177521D01*
Y-1177381D01*
Y-1177240D01*
Y-1177100D01*
Y-1176960D01*
Y-1176819D01*
Y-1176679D01*
Y-1176539D01*
Y-1176398D01*
Y-1176258D01*
Y-1176118D01*
Y-1175977D01*
Y-1175837D01*
Y-1175697D01*
Y-1175556D01*
Y-1175416D01*
Y-1175276D01*
Y-1175135D01*
Y-1174995D01*
Y-1174855D01*
Y-1174714D01*
Y-1174574D01*
Y-1174434D01*
Y-1174293D01*
Y-1174153D01*
Y-1174013D01*
Y-1173872D01*
Y-1173732D01*
Y-1173592D01*
Y-1173452D01*
Y-1173311D01*
Y-1173171D01*
Y-1173030D01*
Y-1172890D01*
X-1132403D01*
Y-1173030D01*
D02*
G37*
G36*
X-167888Y-488569D02*
X-167161D01*
Y-488811D01*
X-166919D01*
Y-489053D01*
X-166434D01*
Y-489296D01*
X-166192D01*
Y-489538D01*
X-165950D01*
Y-489780D01*
X-165707D01*
Y-490022D01*
X-165465D01*
Y-490265D01*
X-165223D01*
Y-490507D01*
X-164981D01*
Y-490749D01*
Y-490991D01*
X-164738D01*
Y-491234D01*
Y-491476D01*
Y-491718D01*
Y-491960D01*
X-164496D01*
Y-492203D01*
Y-492445D01*
Y-492687D01*
Y-492929D01*
Y-493172D01*
Y-493414D01*
Y-493656D01*
Y-493898D01*
Y-494141D01*
Y-494383D01*
Y-494625D01*
Y-494867D01*
X-164738D01*
Y-495110D01*
X-164981D01*
Y-495352D01*
Y-495594D01*
X-165223D01*
Y-495836D01*
Y-496079D01*
X-165465D01*
Y-496321D01*
X-165707D01*
Y-496563D01*
X-165950D01*
Y-496805D01*
X-166192D01*
Y-497048D01*
X-166434D01*
Y-497290D01*
X-166919D01*
Y-497532D01*
X-167161D01*
Y-497774D01*
X-167888D01*
Y-498017D01*
X-169099D01*
Y-498259D01*
X-169583D01*
Y-498017D01*
X-170795D01*
Y-497774D01*
X-171521D01*
Y-497532D01*
X-172006D01*
Y-497290D01*
X-172248D01*
Y-497048D01*
X-172490D01*
Y-496805D01*
X-172733D01*
Y-496563D01*
X-172975D01*
Y-496321D01*
X-173217D01*
Y-496079D01*
X-173459D01*
Y-495836D01*
X-173702D01*
Y-495594D01*
Y-495352D01*
X-173944D01*
Y-495110D01*
Y-494867D01*
Y-494625D01*
X-174186D01*
Y-494383D01*
Y-494141D01*
Y-493898D01*
Y-493656D01*
Y-493414D01*
Y-493172D01*
Y-492929D01*
Y-492687D01*
Y-492445D01*
Y-492203D01*
Y-491960D01*
Y-491718D01*
X-173944D01*
Y-491476D01*
Y-491234D01*
X-173702D01*
Y-490991D01*
Y-490749D01*
X-173459D01*
Y-490507D01*
Y-490265D01*
X-173217D01*
Y-490022D01*
X-172975D01*
Y-489780D01*
X-172733D01*
Y-489538D01*
X-172490D01*
Y-489296D01*
X-172248D01*
Y-489053D01*
X-171764D01*
Y-488811D01*
X-171279D01*
Y-488569D01*
X-170552D01*
Y-488327D01*
X-167888D01*
Y-488569D01*
D02*
G37*
G36*
X-138818Y-513278D02*
X-137849D01*
Y-513520D01*
X-137607D01*
Y-513763D01*
X-137122D01*
Y-514005D01*
X-136638D01*
Y-514247D01*
X-136396D01*
Y-514489D01*
X-136153D01*
Y-514732D01*
X-135911D01*
Y-514974D01*
X-135669D01*
Y-515216D01*
X-135427D01*
Y-515458D01*
Y-515701D01*
X-135184D01*
Y-515943D01*
Y-516185D01*
X-134942D01*
Y-516427D01*
Y-516670D01*
Y-516912D01*
Y-517154D01*
Y-517396D01*
X-134700D01*
Y-517639D01*
Y-517881D01*
Y-518123D01*
Y-518365D01*
Y-518607D01*
X-134942D01*
Y-518850D01*
Y-519092D01*
Y-519334D01*
Y-519577D01*
Y-519819D01*
X-135184D01*
Y-520061D01*
Y-520303D01*
X-135427D01*
Y-520546D01*
Y-520788D01*
X-135669D01*
Y-521030D01*
X-135911D01*
Y-521272D01*
X-136153D01*
Y-521515D01*
X-136396D01*
Y-521757D01*
X-136638D01*
Y-521999D01*
X-136880D01*
Y-522241D01*
X-137122D01*
Y-522483D01*
X-137607D01*
Y-522726D01*
X-138334D01*
Y-522968D01*
X-140998D01*
Y-522726D01*
X-141725D01*
Y-522483D01*
X-142209D01*
Y-522241D01*
X-142452D01*
Y-521999D01*
X-142936D01*
Y-521757D01*
X-143178D01*
Y-521515D01*
X-143421D01*
Y-521272D01*
X-143663D01*
Y-521030D01*
Y-520788D01*
X-143905D01*
Y-520546D01*
X-144147D01*
Y-520303D01*
Y-520061D01*
Y-519819D01*
X-144390D01*
Y-519577D01*
Y-519334D01*
Y-519092D01*
X-144632D01*
Y-518850D01*
Y-518607D01*
Y-518365D01*
Y-518123D01*
Y-517881D01*
Y-517639D01*
Y-517396D01*
Y-517154D01*
Y-516912D01*
X-144390D01*
Y-516670D01*
Y-516427D01*
Y-516185D01*
X-144147D01*
Y-515943D01*
Y-515701D01*
X-143905D01*
Y-515458D01*
X-143663D01*
Y-515216D01*
Y-514974D01*
X-143421D01*
Y-514732D01*
X-143178D01*
Y-514489D01*
X-142936D01*
Y-514247D01*
X-142694D01*
Y-514005D01*
X-142209D01*
Y-513763D01*
X-141967D01*
Y-513520D01*
X-141240D01*
Y-513278D01*
X-139787D01*
Y-513036D01*
X-138818D01*
Y-513278D01*
D02*
G37*
G36*
X-148023Y-466040D02*
X-147297D01*
Y-466282D01*
X-146812D01*
Y-466524D01*
X-146328D01*
Y-466767D01*
X-146085D01*
Y-467009D01*
X-145843D01*
Y-467251D01*
X-145601D01*
Y-467493D01*
X-145359D01*
Y-467736D01*
X-145116D01*
Y-467978D01*
X-144874D01*
Y-468220D01*
Y-468462D01*
X-144632D01*
Y-468705D01*
Y-468947D01*
Y-469189D01*
X-144390D01*
Y-469431D01*
Y-469674D01*
Y-469916D01*
Y-470158D01*
Y-470400D01*
Y-470643D01*
Y-470885D01*
Y-471127D01*
Y-471369D01*
Y-471612D01*
Y-471854D01*
X-144632D01*
Y-472096D01*
Y-472338D01*
Y-472580D01*
X-144874D01*
Y-472823D01*
Y-473065D01*
X-145116D01*
Y-473307D01*
Y-473549D01*
X-145359D01*
Y-473792D01*
X-145601D01*
Y-474034D01*
X-145843D01*
Y-474276D01*
X-146085D01*
Y-474519D01*
X-146328D01*
Y-474761D01*
X-146570D01*
Y-475003D01*
X-147054D01*
Y-475245D01*
X-148023D01*
Y-475488D01*
X-150688D01*
Y-475245D01*
X-151415D01*
Y-475003D01*
X-151657D01*
Y-474761D01*
X-152142D01*
Y-474519D01*
X-152384D01*
Y-474276D01*
X-152626D01*
Y-474034D01*
X-152868D01*
Y-473792D01*
X-153111D01*
Y-473549D01*
X-153353D01*
Y-473307D01*
X-153595D01*
Y-473065D01*
Y-472823D01*
X-153837D01*
Y-472580D01*
Y-472338D01*
Y-472096D01*
X-154080D01*
Y-471854D01*
Y-471612D01*
Y-471369D01*
Y-471127D01*
Y-470885D01*
X-154322D01*
Y-470643D01*
Y-470400D01*
X-154080D01*
Y-470158D01*
Y-469916D01*
Y-469674D01*
Y-469431D01*
Y-469189D01*
X-153837D01*
Y-468947D01*
Y-468705D01*
X-153595D01*
Y-468462D01*
Y-468220D01*
X-153353D01*
Y-467978D01*
Y-467736D01*
X-153111D01*
Y-467493D01*
X-152868D01*
Y-467251D01*
X-152626D01*
Y-467009D01*
X-152384D01*
Y-466767D01*
X-152142D01*
Y-466524D01*
X-151899D01*
Y-466282D01*
X-151415D01*
Y-466040D01*
X-150446D01*
Y-465798D01*
X-148023D01*
Y-466040D01*
D02*
G37*
G36*
X-175155Y-451505D02*
X-174428D01*
Y-451747D01*
X-173944D01*
Y-451990D01*
X-173702D01*
Y-452232D01*
X-173459D01*
Y-452474D01*
X-173217D01*
Y-452716D01*
X-172975D01*
Y-452958D01*
X-172733D01*
Y-453201D01*
X-172490D01*
Y-453443D01*
Y-453685D01*
Y-453927D01*
X-172248D01*
Y-454170D01*
Y-454412D01*
Y-454654D01*
Y-454897D01*
Y-455139D01*
Y-455381D01*
Y-455623D01*
Y-455866D01*
Y-456108D01*
X-172490D01*
Y-456350D01*
Y-456592D01*
Y-456834D01*
X-172733D01*
Y-457077D01*
Y-457319D01*
X-172975D01*
Y-457561D01*
X-173217D01*
Y-457803D01*
X-173459D01*
Y-458046D01*
X-173702D01*
Y-458288D01*
X-174186D01*
Y-458530D01*
X-174671D01*
Y-458772D01*
X-175640D01*
Y-459015D01*
X-176366D01*
Y-458772D01*
X-177577D01*
Y-458530D01*
X-178062D01*
Y-458288D01*
X-178304D01*
Y-458046D01*
X-178789D01*
Y-457803D01*
X-179031D01*
Y-457561D01*
Y-457319D01*
X-179273D01*
Y-457077D01*
X-179515D01*
Y-456834D01*
Y-456592D01*
X-179758D01*
Y-456350D01*
Y-456108D01*
Y-455866D01*
Y-455623D01*
X-180000D01*
Y-455381D01*
Y-455139D01*
Y-454897D01*
Y-454654D01*
Y-454412D01*
X-179758D01*
Y-454170D01*
Y-453927D01*
Y-453685D01*
X-179515D01*
Y-453443D01*
Y-453201D01*
X-179273D01*
Y-452958D01*
Y-452716D01*
X-179031D01*
Y-452474D01*
X-178789D01*
Y-452232D01*
X-178547D01*
Y-451990D01*
X-178304D01*
Y-451747D01*
X-177820D01*
Y-451505D01*
X-177335D01*
Y-451263D01*
X-175155D01*
Y-451505D01*
D02*
G37*
G36*
X-156018Y-417348D02*
X-155049D01*
Y-417590D01*
X-154564D01*
Y-417833D01*
X-154080D01*
Y-418075D01*
X-153837D01*
Y-418317D01*
X-153595D01*
Y-418559D01*
X-153353D01*
Y-418802D01*
Y-419044D01*
X-153111D01*
Y-419286D01*
X-152868D01*
Y-419528D01*
Y-419771D01*
X-152626D01*
Y-420013D01*
Y-420255D01*
Y-420497D01*
X-152384D01*
Y-420740D01*
Y-420982D01*
Y-421224D01*
Y-421466D01*
Y-421709D01*
Y-421951D01*
Y-422193D01*
Y-422435D01*
Y-422678D01*
Y-422920D01*
X-152626D01*
Y-423162D01*
Y-423404D01*
X-152868D01*
Y-423647D01*
Y-423889D01*
X-153111D01*
Y-424131D01*
X-153353D01*
Y-424373D01*
X-153595D01*
Y-424616D01*
X-153837D01*
Y-424858D01*
X-154080D01*
Y-425100D01*
X-154322D01*
Y-425342D01*
X-154564D01*
Y-425584D01*
X-155533D01*
Y-425827D01*
X-157956D01*
Y-425584D01*
X-158682D01*
Y-425342D01*
X-158925D01*
Y-425100D01*
X-159409D01*
Y-424858D01*
X-159651D01*
Y-424616D01*
X-159894D01*
Y-424373D01*
X-160136D01*
Y-424131D01*
X-160378D01*
Y-423889D01*
Y-423647D01*
X-160620D01*
Y-423404D01*
Y-423162D01*
X-160863D01*
Y-422920D01*
Y-422678D01*
Y-422435D01*
X-161105D01*
Y-422193D01*
Y-421951D01*
Y-421709D01*
Y-421466D01*
Y-421224D01*
Y-420982D01*
Y-420740D01*
X-160863D01*
Y-420497D01*
Y-420255D01*
Y-420013D01*
Y-419771D01*
X-160620D01*
Y-419528D01*
Y-419286D01*
X-160378D01*
Y-419044D01*
X-160136D01*
Y-418802D01*
X-159894D01*
Y-418559D01*
X-159651D01*
Y-418317D01*
X-159409D01*
Y-418075D01*
X-159167D01*
Y-417833D01*
X-158682D01*
Y-417590D01*
X-158198D01*
Y-417348D01*
X-157229D01*
Y-417106D01*
X-156018D01*
Y-417348D01*
D02*
G37*
G36*
X-119680Y-403540D02*
X-118711D01*
Y-403782D01*
X-118227D01*
Y-404025D01*
X-117742D01*
Y-404267D01*
X-117258D01*
Y-404509D01*
X-117016D01*
Y-404751D01*
X-116774D01*
Y-404994D01*
X-116531D01*
Y-405236D01*
X-116289D01*
Y-405478D01*
Y-405720D01*
X-116047D01*
Y-405962D01*
X-115804D01*
Y-406205D01*
Y-406447D01*
Y-406689D01*
X-115562D01*
Y-406931D01*
Y-407174D01*
Y-407416D01*
X-115320D01*
Y-407658D01*
Y-407901D01*
Y-408143D01*
Y-408385D01*
Y-408627D01*
X-115562D01*
Y-408870D01*
Y-409112D01*
Y-409354D01*
Y-409596D01*
Y-409838D01*
X-115804D01*
Y-410081D01*
Y-410323D01*
Y-410565D01*
X-116047D01*
Y-410807D01*
X-116289D01*
Y-411050D01*
Y-411292D01*
X-116531D01*
Y-411534D01*
X-116774D01*
Y-411776D01*
X-117016D01*
Y-412019D01*
X-117258D01*
Y-412261D01*
X-117500D01*
Y-412503D01*
X-117985D01*
Y-412745D01*
X-118469D01*
Y-412988D01*
X-118954D01*
Y-413230D01*
X-121376D01*
Y-412988D01*
X-122103D01*
Y-412745D01*
X-122830D01*
Y-412503D01*
X-123072D01*
Y-412261D01*
X-123556D01*
Y-412019D01*
X-123799D01*
Y-411776D01*
X-124041D01*
Y-411534D01*
X-124283D01*
Y-411292D01*
Y-411050D01*
X-124525D01*
Y-410807D01*
Y-410565D01*
X-124768D01*
Y-410323D01*
Y-410081D01*
X-125010D01*
Y-409838D01*
Y-409596D01*
Y-409354D01*
X-125252D01*
Y-409112D01*
Y-408870D01*
Y-408627D01*
Y-408385D01*
Y-408143D01*
Y-407901D01*
Y-407658D01*
Y-407416D01*
Y-407174D01*
X-125010D01*
Y-406931D01*
Y-406689D01*
Y-406447D01*
X-124768D01*
Y-406205D01*
Y-405962D01*
X-124525D01*
Y-405720D01*
Y-405478D01*
X-124283D01*
Y-405236D01*
X-124041D01*
Y-404994D01*
X-123799D01*
Y-404751D01*
X-123556D01*
Y-404509D01*
X-123314D01*
Y-404267D01*
X-123072D01*
Y-404025D01*
X-122587D01*
Y-403782D01*
X-121861D01*
Y-403540D01*
X-120892D01*
Y-403298D01*
X-119680D01*
Y-403540D01*
D02*
G37*
G36*
X-83343Y-417348D02*
X-82374D01*
Y-417590D01*
X-81890D01*
Y-417833D01*
X-81405D01*
Y-418075D01*
X-81163D01*
Y-418317D01*
X-80921D01*
Y-418559D01*
X-80679D01*
Y-418802D01*
X-80436D01*
Y-419044D01*
X-80194D01*
Y-419286D01*
Y-419528D01*
X-79952D01*
Y-419771D01*
Y-420013D01*
X-79710D01*
Y-420255D01*
Y-420497D01*
Y-420740D01*
Y-420982D01*
Y-421224D01*
Y-421466D01*
X-79467D01*
Y-421709D01*
X-79710D01*
Y-421951D01*
Y-422193D01*
Y-422435D01*
Y-422678D01*
Y-422920D01*
X-79952D01*
Y-423162D01*
Y-423404D01*
Y-423647D01*
X-80194D01*
Y-423889D01*
Y-424131D01*
X-80436D01*
Y-424373D01*
X-80679D01*
Y-424616D01*
X-80921D01*
Y-424858D01*
X-81405D01*
Y-425100D01*
X-81648D01*
Y-425342D01*
X-82132D01*
Y-425584D01*
X-82617D01*
Y-425827D01*
X-83586D01*
Y-426069D01*
X-84312D01*
Y-425827D01*
X-85524D01*
Y-425584D01*
X-86008D01*
Y-425342D01*
X-86250D01*
Y-425100D01*
X-86735D01*
Y-424858D01*
X-86977D01*
Y-424616D01*
X-87219D01*
Y-424373D01*
X-87462D01*
Y-424131D01*
Y-423889D01*
X-87704D01*
Y-423647D01*
X-87946D01*
Y-423404D01*
Y-423162D01*
X-88188D01*
Y-422920D01*
Y-422678D01*
Y-422435D01*
X-88431D01*
Y-422193D01*
Y-421951D01*
Y-421709D01*
Y-421466D01*
X-88188D01*
Y-421224D01*
Y-420982D01*
Y-420740D01*
Y-420497D01*
Y-420255D01*
X-87946D01*
Y-420013D01*
Y-419771D01*
Y-419528D01*
X-87704D01*
Y-419286D01*
X-87462D01*
Y-419044D01*
Y-418802D01*
X-87219D01*
Y-418559D01*
X-86977D01*
Y-418317D01*
X-86735D01*
Y-418075D01*
X-86493D01*
Y-417833D01*
X-86008D01*
Y-417590D01*
X-85524D01*
Y-417348D01*
X-84555D01*
Y-417106D01*
X-83343D01*
Y-417348D01*
D02*
G37*
G36*
X37296Y-433821D02*
X39718D01*
Y-434063D01*
X41414D01*
Y-434305D01*
X42625D01*
Y-434548D01*
X43594D01*
Y-434790D01*
X44563D01*
Y-435032D01*
X45290D01*
Y-435274D01*
X46017D01*
Y-435517D01*
X46744D01*
Y-435759D01*
X47470D01*
Y-436001D01*
X47955D01*
Y-436243D01*
X48197D01*
Y-436486D01*
X47955D01*
Y-436728D01*
Y-436970D01*
Y-437212D01*
Y-437455D01*
X47713D01*
Y-437697D01*
Y-437939D01*
Y-438181D01*
X47470D01*
Y-438424D01*
Y-438666D01*
Y-438908D01*
Y-439150D01*
X47228D01*
Y-439393D01*
Y-439635D01*
Y-439877D01*
X46986D01*
Y-440119D01*
Y-440362D01*
Y-440604D01*
X46744D01*
Y-440846D01*
Y-441088D01*
Y-441331D01*
Y-441573D01*
X46501D01*
Y-441815D01*
Y-442057D01*
Y-442300D01*
X46259D01*
Y-442542D01*
X45775D01*
Y-442300D01*
X45290D01*
Y-442057D01*
X44563D01*
Y-441815D01*
X44079D01*
Y-441573D01*
X43352D01*
Y-441331D01*
X42383D01*
Y-441088D01*
X41414D01*
Y-440846D01*
X40445D01*
Y-440604D01*
X38992D01*
Y-440362D01*
X36569D01*
Y-440119D01*
X31967D01*
Y-440362D01*
X29786D01*
Y-440604D01*
X28333D01*
Y-440846D01*
X27364D01*
Y-441088D01*
X26395D01*
Y-441331D01*
X25668D01*
Y-441573D01*
X24941D01*
Y-441815D01*
X24457D01*
Y-442057D01*
X23730D01*
Y-442300D01*
X23246D01*
Y-442542D01*
X22761D01*
Y-442784D01*
X22277D01*
Y-443026D01*
X21792D01*
Y-443269D01*
X21308D01*
Y-443511D01*
X21065D01*
Y-443753D01*
X20581D01*
Y-443995D01*
X20339D01*
Y-444238D01*
X19854D01*
Y-444480D01*
X19612D01*
Y-444722D01*
X19370D01*
Y-444964D01*
X19127D01*
Y-445207D01*
X18643D01*
Y-445449D01*
X18401D01*
Y-445691D01*
X18158D01*
Y-445933D01*
X17916D01*
Y-446176D01*
X17674D01*
Y-446418D01*
X17432D01*
Y-446660D01*
X17189D01*
Y-446902D01*
X16947D01*
Y-447145D01*
X16705D01*
Y-447387D01*
X16463D01*
Y-447629D01*
Y-447871D01*
X16220D01*
Y-448114D01*
X15978D01*
Y-448356D01*
X15736D01*
Y-448598D01*
X15494D01*
Y-448840D01*
Y-449082D01*
X15251D01*
Y-449325D01*
X15009D01*
Y-449567D01*
Y-449809D01*
X14767D01*
Y-450051D01*
Y-450294D01*
X14525D01*
Y-450536D01*
X14282D01*
Y-450778D01*
Y-451021D01*
X14040D01*
Y-451263D01*
Y-451505D01*
X13798D01*
Y-451747D01*
Y-451990D01*
X13556D01*
Y-452232D01*
Y-452474D01*
X13313D01*
Y-452716D01*
Y-452958D01*
X13071D01*
Y-453201D01*
Y-453443D01*
Y-453685D01*
X12829D01*
Y-453927D01*
Y-454170D01*
X12587D01*
Y-454412D01*
Y-454654D01*
Y-454897D01*
X12344D01*
Y-455139D01*
Y-455381D01*
Y-455623D01*
Y-455866D01*
X12102D01*
Y-456108D01*
Y-456350D01*
Y-456592D01*
X11860D01*
Y-456834D01*
Y-457077D01*
Y-457319D01*
Y-457561D01*
Y-457803D01*
X11618D01*
Y-458046D01*
Y-458288D01*
Y-458530D01*
Y-458772D01*
Y-459015D01*
X11375D01*
Y-459257D01*
Y-459499D01*
Y-459741D01*
Y-459984D01*
Y-460226D01*
Y-460468D01*
Y-460710D01*
Y-460953D01*
X11133D01*
Y-461195D01*
Y-461437D01*
Y-461679D01*
Y-461922D01*
Y-462164D01*
Y-462406D01*
Y-462648D01*
Y-462891D01*
Y-463133D01*
Y-463375D01*
Y-463617D01*
Y-463860D01*
Y-464102D01*
Y-464344D01*
Y-464586D01*
Y-464829D01*
Y-465071D01*
Y-465313D01*
Y-465555D01*
Y-465798D01*
Y-466040D01*
Y-466282D01*
Y-466524D01*
Y-466767D01*
Y-467009D01*
Y-467251D01*
Y-467493D01*
Y-467736D01*
Y-467978D01*
Y-468220D01*
Y-468462D01*
X11375D01*
Y-468705D01*
Y-468947D01*
Y-469189D01*
Y-469431D01*
Y-469674D01*
Y-469916D01*
Y-470158D01*
X11618D01*
Y-470400D01*
Y-470643D01*
Y-470885D01*
Y-471127D01*
Y-471369D01*
X11860D01*
Y-471612D01*
Y-471854D01*
Y-472096D01*
Y-472338D01*
Y-472580D01*
X12102D01*
Y-472823D01*
Y-473065D01*
Y-473307D01*
X12344D01*
Y-473549D01*
Y-473792D01*
Y-474034D01*
Y-474276D01*
X12587D01*
Y-474519D01*
Y-474761D01*
X12829D01*
Y-475003D01*
Y-475245D01*
Y-475488D01*
X13071D01*
Y-475730D01*
Y-475972D01*
X13313D01*
Y-476214D01*
Y-476456D01*
Y-476699D01*
X13556D01*
Y-476941D01*
Y-477183D01*
X13798D01*
Y-477425D01*
Y-477668D01*
X14040D01*
Y-477910D01*
Y-478152D01*
X14282D01*
Y-478395D01*
X14525D01*
Y-478637D01*
Y-478879D01*
X14767D01*
Y-479121D01*
Y-479364D01*
X15009D01*
Y-479606D01*
X15251D01*
Y-479848D01*
Y-480090D01*
X15494D01*
Y-480332D01*
X15736D01*
Y-480575D01*
X15978D01*
Y-480817D01*
Y-481059D01*
X16220D01*
Y-481301D01*
X16463D01*
Y-481544D01*
X16705D01*
Y-481786D01*
X16947D01*
Y-482028D01*
X17189D01*
Y-482270D01*
X17432D01*
Y-482513D01*
X17674D01*
Y-482755D01*
X17916D01*
Y-482997D01*
X18158D01*
Y-483239D01*
X18401D01*
Y-483482D01*
X18643D01*
Y-483724D01*
X18885D01*
Y-483966D01*
X19370D01*
Y-484208D01*
X19612D01*
Y-484451D01*
X19854D01*
Y-484693D01*
X20339D01*
Y-484935D01*
X20581D01*
Y-485177D01*
X21065D01*
Y-485420D01*
X21550D01*
Y-485662D01*
X21792D01*
Y-485904D01*
X22277D01*
Y-486146D01*
X22761D01*
Y-486389D01*
X23488D01*
Y-486631D01*
X23972D01*
Y-486873D01*
X24457D01*
Y-487115D01*
X25184D01*
Y-487358D01*
X25910D01*
Y-487600D01*
X26879D01*
Y-487842D01*
X27848D01*
Y-488084D01*
X29302D01*
Y-488327D01*
X31482D01*
Y-488569D01*
X36327D01*
Y-488327D01*
X38749D01*
Y-488084D01*
X40203D01*
Y-487842D01*
X41414D01*
Y-487600D01*
X42625D01*
Y-487358D01*
X43352D01*
Y-487115D01*
X44079D01*
Y-486873D01*
X44806D01*
Y-486631D01*
X45532D01*
Y-486389D01*
X46017D01*
Y-486146D01*
X46501D01*
Y-486389D01*
Y-486631D01*
X46744D01*
Y-486873D01*
Y-487115D01*
Y-487358D01*
Y-487600D01*
X46986D01*
Y-487842D01*
Y-488084D01*
Y-488327D01*
Y-488569D01*
X47228D01*
Y-488811D01*
Y-489053D01*
Y-489296D01*
Y-489538D01*
X47470D01*
Y-489780D01*
Y-490022D01*
Y-490265D01*
X47713D01*
Y-490507D01*
Y-490749D01*
Y-490991D01*
Y-491234D01*
X47955D01*
Y-491476D01*
Y-491718D01*
Y-491960D01*
Y-492203D01*
Y-492445D01*
X47470D01*
Y-492687D01*
X46744D01*
Y-492929D01*
X46259D01*
Y-493172D01*
X45532D01*
Y-493414D01*
X44563D01*
Y-493656D01*
X43837D01*
Y-493898D01*
X42625D01*
Y-494141D01*
X41656D01*
Y-494383D01*
X40203D01*
Y-494625D01*
X38507D01*
Y-494867D01*
X35842D01*
Y-495110D01*
X29302D01*
Y-494867D01*
X27122D01*
Y-494625D01*
X25668D01*
Y-494383D01*
X24457D01*
Y-494141D01*
X23488D01*
Y-493898D01*
X22519D01*
Y-493656D01*
X21792D01*
Y-493414D01*
X21065D01*
Y-493172D01*
X20339D01*
Y-492929D01*
X19854D01*
Y-492687D01*
X19127D01*
Y-492445D01*
X18643D01*
Y-492203D01*
X18158D01*
Y-491960D01*
X17674D01*
Y-491718D01*
X17189D01*
Y-491476D01*
X16705D01*
Y-491234D01*
X16220D01*
Y-490991D01*
X15978D01*
Y-490749D01*
X15494D01*
Y-490507D01*
X15009D01*
Y-490265D01*
X14767D01*
Y-490022D01*
X14282D01*
Y-489780D01*
X14040D01*
Y-489538D01*
X13798D01*
Y-489296D01*
X13313D01*
Y-489053D01*
X13071D01*
Y-488811D01*
X12829D01*
Y-488569D01*
X12587D01*
Y-488327D01*
X12102D01*
Y-488084D01*
X11860D01*
Y-487842D01*
X11618D01*
Y-487600D01*
X11375D01*
Y-487358D01*
X11133D01*
Y-487115D01*
X10891D01*
Y-486873D01*
X10649D01*
Y-486631D01*
X10407D01*
Y-486389D01*
X10164D01*
Y-486146D01*
X9922D01*
Y-485904D01*
X9680D01*
Y-485662D01*
Y-485420D01*
X9438D01*
Y-485177D01*
X9195D01*
Y-484935D01*
X8953D01*
Y-484693D01*
X8711D01*
Y-484451D01*
Y-484208D01*
X8468D01*
Y-483966D01*
X8226D01*
Y-483724D01*
X7984D01*
Y-483482D01*
Y-483239D01*
X7742D01*
Y-482997D01*
X7499D01*
Y-482755D01*
Y-482513D01*
X7257D01*
Y-482270D01*
Y-482028D01*
X7015D01*
Y-481786D01*
X6773D01*
Y-481544D01*
Y-481301D01*
X6531D01*
Y-481059D01*
Y-480817D01*
X6288D01*
Y-480575D01*
Y-480332D01*
X6046D01*
Y-480090D01*
Y-479848D01*
X5804D01*
Y-479606D01*
Y-479364D01*
X5562D01*
Y-479121D01*
Y-478879D01*
X5319D01*
Y-478637D01*
Y-478395D01*
Y-478152D01*
X5077D01*
Y-477910D01*
Y-477668D01*
X4835D01*
Y-477425D01*
Y-477183D01*
Y-476941D01*
X4593D01*
Y-476699D01*
Y-476456D01*
Y-476214D01*
X4350D01*
Y-475972D01*
Y-475730D01*
Y-475488D01*
Y-475245D01*
X4108D01*
Y-475003D01*
Y-474761D01*
Y-474519D01*
X3866D01*
Y-474276D01*
Y-474034D01*
Y-473792D01*
Y-473549D01*
X3624D01*
Y-473307D01*
Y-473065D01*
Y-472823D01*
Y-472580D01*
Y-472338D01*
X3381D01*
Y-472096D01*
Y-471854D01*
Y-471612D01*
Y-471369D01*
Y-471127D01*
Y-470885D01*
X3139D01*
Y-470643D01*
Y-470400D01*
Y-470158D01*
Y-469916D01*
Y-469674D01*
Y-469431D01*
Y-469189D01*
Y-468947D01*
X2897D01*
Y-468705D01*
Y-468462D01*
Y-468220D01*
Y-467978D01*
Y-467736D01*
Y-467493D01*
Y-467251D01*
Y-467009D01*
Y-466767D01*
Y-466524D01*
Y-466282D01*
Y-466040D01*
Y-465798D01*
Y-465555D01*
Y-465313D01*
Y-465071D01*
Y-464829D01*
Y-464586D01*
Y-464344D01*
Y-464102D01*
Y-463860D01*
Y-463617D01*
Y-463375D01*
Y-463133D01*
Y-462891D01*
Y-462648D01*
Y-462406D01*
Y-462164D01*
Y-461922D01*
Y-461679D01*
Y-461437D01*
Y-461195D01*
Y-460953D01*
X3139D01*
Y-460710D01*
Y-460468D01*
Y-460226D01*
Y-459984D01*
Y-459741D01*
Y-459499D01*
Y-459257D01*
X3381D01*
Y-459015D01*
Y-458772D01*
Y-458530D01*
Y-458288D01*
Y-458046D01*
Y-457803D01*
X3624D01*
Y-457561D01*
Y-457319D01*
Y-457077D01*
Y-456834D01*
Y-456592D01*
X3866D01*
Y-456350D01*
Y-456108D01*
Y-455866D01*
Y-455623D01*
X4108D01*
Y-455381D01*
Y-455139D01*
Y-454897D01*
Y-454654D01*
X4350D01*
Y-454412D01*
Y-454170D01*
Y-453927D01*
X4593D01*
Y-453685D01*
Y-453443D01*
Y-453201D01*
X4835D01*
Y-452958D01*
Y-452716D01*
Y-452474D01*
X5077D01*
Y-452232D01*
Y-451990D01*
X5319D01*
Y-451747D01*
Y-451505D01*
Y-451263D01*
X5562D01*
Y-451021D01*
Y-450778D01*
X5804D01*
Y-450536D01*
Y-450294D01*
X6046D01*
Y-450051D01*
Y-449809D01*
X6288D01*
Y-449567D01*
Y-449325D01*
X6531D01*
Y-449082D01*
Y-448840D01*
X6773D01*
Y-448598D01*
Y-448356D01*
X7015D01*
Y-448114D01*
Y-447871D01*
X7257D01*
Y-447629D01*
Y-447387D01*
X7499D01*
Y-447145D01*
X7742D01*
Y-446902D01*
Y-446660D01*
X7984D01*
Y-446418D01*
X8226D01*
Y-446176D01*
Y-445933D01*
X8468D01*
Y-445691D01*
X8711D01*
Y-445449D01*
X8953D01*
Y-445207D01*
Y-444964D01*
X9195D01*
Y-444722D01*
X9438D01*
Y-444480D01*
X9680D01*
Y-444238D01*
Y-443995D01*
X9922D01*
Y-443753D01*
X10164D01*
Y-443511D01*
X10407D01*
Y-443269D01*
X10649D01*
Y-443026D01*
X10891D01*
Y-442784D01*
X11133D01*
Y-442542D01*
X11375D01*
Y-442300D01*
X11618D01*
Y-442057D01*
X11860D01*
Y-441815D01*
X12102D01*
Y-441573D01*
X12344D01*
Y-441331D01*
X12587D01*
Y-441088D01*
X12829D01*
Y-440846D01*
X13071D01*
Y-440604D01*
X13313D01*
Y-440362D01*
X13798D01*
Y-440119D01*
X14040D01*
Y-439877D01*
X14282D01*
Y-439635D01*
X14767D01*
Y-439393D01*
X15009D01*
Y-439150D01*
X15251D01*
Y-438908D01*
X15736D01*
Y-438666D01*
X15978D01*
Y-438424D01*
X16463D01*
Y-438181D01*
X16947D01*
Y-437939D01*
X17189D01*
Y-437697D01*
X17674D01*
Y-437455D01*
X18158D01*
Y-437212D01*
X18643D01*
Y-436970D01*
X19127D01*
Y-436728D01*
X19612D01*
Y-436486D01*
X20096D01*
Y-436243D01*
X20581D01*
Y-436001D01*
X21308D01*
Y-435759D01*
X22034D01*
Y-435517D01*
X22519D01*
Y-435274D01*
X23488D01*
Y-435032D01*
X24215D01*
Y-434790D01*
X25184D01*
Y-434548D01*
X26153D01*
Y-434305D01*
X27364D01*
Y-434063D01*
X28817D01*
Y-433821D01*
X30998D01*
Y-433579D01*
X37296D01*
Y-433821D01*
D02*
G37*
G36*
X-117016Y-447629D02*
X-116047D01*
Y-447871D01*
X-115562D01*
Y-448114D01*
X-115320D01*
Y-448356D01*
X-115078D01*
Y-448598D01*
X-114836D01*
Y-448840D01*
X-114593D01*
Y-449082D01*
X-114351D01*
Y-449325D01*
X-114109D01*
Y-449567D01*
Y-449809D01*
X-113866D01*
Y-450051D01*
Y-450294D01*
X-113624D01*
Y-450536D01*
Y-450778D01*
Y-451021D01*
X-113382D01*
Y-451263D01*
Y-451505D01*
Y-451747D01*
Y-451990D01*
Y-452232D01*
X-113624D01*
Y-452474D01*
Y-452716D01*
Y-452958D01*
Y-453201D01*
X-113866D01*
Y-453443D01*
Y-453685D01*
Y-453927D01*
X-114109D01*
Y-454170D01*
X-114351D01*
Y-454412D01*
Y-454654D01*
X-114593D01*
Y-454897D01*
X-114836D01*
Y-455139D01*
X-115078D01*
Y-455381D01*
X-115320D01*
Y-455623D01*
X-115804D01*
Y-455866D01*
X-116774D01*
Y-456108D01*
X-119196D01*
Y-455866D01*
X-119680D01*
Y-455623D01*
X-120165D01*
Y-455381D01*
X-120649D01*
Y-455139D01*
X-120892D01*
Y-454897D01*
X-121134D01*
Y-454654D01*
X-121376D01*
Y-454412D01*
Y-454170D01*
X-121618D01*
Y-453927D01*
Y-453685D01*
X-121861D01*
Y-453443D01*
Y-453201D01*
Y-452958D01*
X-122103D01*
Y-452716D01*
Y-452474D01*
Y-452232D01*
Y-451990D01*
Y-451747D01*
Y-451505D01*
Y-451263D01*
Y-451021D01*
Y-450778D01*
Y-450536D01*
Y-450294D01*
X-121861D01*
Y-450051D01*
X-121618D01*
Y-449809D01*
Y-449567D01*
X-121376D01*
Y-449325D01*
Y-449082D01*
X-121134D01*
Y-448840D01*
X-120892D01*
Y-448598D01*
X-120649D01*
Y-448356D01*
X-120407D01*
Y-448114D01*
X-119923D01*
Y-447871D01*
X-119438D01*
Y-447629D01*
X-118711D01*
Y-447387D01*
X-117016D01*
Y-447629D01*
D02*
G37*
G36*
X-63479Y-451505D02*
X-62752D01*
Y-451747D01*
X-62510D01*
Y-451990D01*
X-62025D01*
Y-452232D01*
X-61783D01*
Y-452474D01*
X-61541D01*
Y-452716D01*
Y-452958D01*
X-61299D01*
Y-453201D01*
X-61056D01*
Y-453443D01*
Y-453685D01*
Y-453927D01*
X-60814D01*
Y-454170D01*
Y-454412D01*
Y-454654D01*
Y-454897D01*
Y-455139D01*
Y-455381D01*
Y-455623D01*
Y-455866D01*
Y-456108D01*
Y-456350D01*
X-61056D01*
Y-456592D01*
Y-456834D01*
X-61299D01*
Y-457077D01*
Y-457319D01*
X-61541D01*
Y-457561D01*
X-61783D01*
Y-457803D01*
X-62025D01*
Y-458046D01*
X-62268D01*
Y-458288D01*
X-62510D01*
Y-458530D01*
X-62994D01*
Y-458772D01*
X-64206D01*
Y-459015D01*
X-64932D01*
Y-458772D01*
X-65901D01*
Y-458530D01*
X-66628D01*
Y-458288D01*
X-67113D01*
Y-458046D01*
X-67355D01*
Y-457803D01*
X-67597D01*
Y-457561D01*
X-67839D01*
Y-457319D01*
Y-457077D01*
X-68082D01*
Y-456834D01*
Y-456592D01*
Y-456350D01*
X-68324D01*
Y-456108D01*
Y-455866D01*
Y-455623D01*
Y-455381D01*
X-68566D01*
Y-455139D01*
Y-454897D01*
Y-454654D01*
Y-454412D01*
Y-454170D01*
X-68324D01*
Y-453927D01*
Y-453685D01*
Y-453443D01*
X-68082D01*
Y-453201D01*
Y-452958D01*
X-67839D01*
Y-452716D01*
X-67597D01*
Y-452474D01*
X-67355D01*
Y-452232D01*
X-67113D01*
Y-451990D01*
X-66628D01*
Y-451747D01*
X-66386D01*
Y-451505D01*
X-65659D01*
Y-451263D01*
X-63479D01*
Y-451505D01*
D02*
G37*
G36*
X-87704Y-458288D02*
X-87219D01*
Y-458530D01*
X-86735D01*
Y-458772D01*
X-86493D01*
Y-459015D01*
X-86250D01*
Y-459257D01*
X-86008D01*
Y-459499D01*
X-85766D01*
Y-459741D01*
Y-459984D01*
X-85524D01*
Y-460226D01*
Y-460468D01*
X-85281D01*
Y-460710D01*
Y-460953D01*
Y-461195D01*
X-85039D01*
Y-461437D01*
Y-461679D01*
Y-461922D01*
Y-462164D01*
Y-462406D01*
Y-462648D01*
Y-462891D01*
X-85281D01*
Y-463133D01*
Y-463375D01*
Y-463617D01*
X-85524D01*
Y-463860D01*
Y-464102D01*
X-85766D01*
Y-464344D01*
X-86008D01*
Y-464586D01*
X-86250D01*
Y-464829D01*
X-86735D01*
Y-465071D01*
X-86977D01*
Y-465313D01*
X-87462D01*
Y-465555D01*
X-88188D01*
Y-465798D01*
X-89157D01*
Y-465555D01*
X-90368D01*
Y-465313D01*
X-90853D01*
Y-465071D01*
X-91095D01*
Y-464829D01*
X-91580D01*
Y-464586D01*
X-91822D01*
Y-464344D01*
Y-464102D01*
X-92064D01*
Y-463860D01*
X-92306D01*
Y-463617D01*
Y-463375D01*
X-92549D01*
Y-463133D01*
Y-462891D01*
X-92791D01*
Y-462648D01*
Y-462406D01*
Y-462164D01*
Y-461922D01*
Y-461679D01*
Y-461437D01*
Y-461195D01*
X-92549D01*
Y-460953D01*
Y-460710D01*
Y-460468D01*
X-92306D01*
Y-460226D01*
Y-459984D01*
X-92064D01*
Y-459741D01*
Y-459499D01*
X-91822D01*
Y-459257D01*
X-91580D01*
Y-459015D01*
X-91337D01*
Y-458772D01*
X-91095D01*
Y-458530D01*
X-90611D01*
Y-458288D01*
X-89884D01*
Y-458046D01*
X-87704D01*
Y-458288D01*
D02*
G37*
G36*
X-113140Y-480332D02*
X-112413D01*
Y-480575D01*
X-111929D01*
Y-480817D01*
X-111444D01*
Y-481059D01*
X-111202D01*
Y-481301D01*
X-110960D01*
Y-481544D01*
X-110717D01*
Y-481786D01*
X-110475D01*
Y-482028D01*
Y-482270D01*
X-110233D01*
Y-482513D01*
X-109991D01*
Y-482755D01*
Y-482997D01*
Y-483239D01*
X-109748D01*
Y-483482D01*
Y-483724D01*
Y-483966D01*
Y-484208D01*
Y-484451D01*
Y-484693D01*
Y-484935D01*
Y-485177D01*
Y-485420D01*
Y-485662D01*
Y-485904D01*
X-109991D01*
Y-486146D01*
Y-486389D01*
X-110233D01*
Y-486631D01*
Y-486873D01*
X-110475D01*
Y-487115D01*
X-110717D01*
Y-487358D01*
X-110960D01*
Y-487600D01*
X-111202D01*
Y-487842D01*
X-111444D01*
Y-488084D01*
X-111929D01*
Y-488327D01*
X-112413D01*
Y-488569D01*
X-113140D01*
Y-488811D01*
X-115320D01*
Y-488569D01*
X-115804D01*
Y-488327D01*
X-116289D01*
Y-488084D01*
X-116531D01*
Y-487842D01*
X-117016D01*
Y-487600D01*
X-117258D01*
Y-487358D01*
X-117500D01*
Y-487115D01*
X-117742D01*
Y-486873D01*
Y-486631D01*
X-117985D01*
Y-486389D01*
Y-486146D01*
Y-485904D01*
X-118227D01*
Y-485662D01*
Y-485420D01*
Y-485177D01*
Y-484935D01*
X-118469D01*
Y-484693D01*
Y-484451D01*
Y-484208D01*
Y-483966D01*
X-118227D01*
Y-483724D01*
Y-483482D01*
Y-483239D01*
Y-482997D01*
X-117985D01*
Y-482755D01*
Y-482513D01*
X-117742D01*
Y-482270D01*
Y-482028D01*
X-117500D01*
Y-481786D01*
Y-481544D01*
X-117258D01*
Y-481301D01*
X-117016D01*
Y-481059D01*
X-116531D01*
Y-480817D01*
X-116289D01*
Y-480575D01*
X-115804D01*
Y-480332D01*
X-114593D01*
Y-480090D01*
X-113140D01*
Y-480332D01*
D02*
G37*
G36*
X-70746Y-489538D02*
X-69777D01*
Y-489780D01*
X-69293D01*
Y-490022D01*
X-69051D01*
Y-490265D01*
X-68566D01*
Y-490507D01*
X-68324D01*
Y-490749D01*
Y-490991D01*
X-68082D01*
Y-491234D01*
X-67839D01*
Y-491476D01*
Y-491718D01*
X-67597D01*
Y-491960D01*
Y-492203D01*
Y-492445D01*
Y-492687D01*
Y-492929D01*
X-67355D01*
Y-493172D01*
Y-493414D01*
X-67597D01*
Y-493656D01*
Y-493898D01*
Y-494141D01*
Y-494383D01*
Y-494625D01*
X-67839D01*
Y-494867D01*
Y-495110D01*
X-68082D01*
Y-495352D01*
X-68324D01*
Y-495594D01*
Y-495836D01*
X-68566D01*
Y-496079D01*
X-68808D01*
Y-496321D01*
X-69293D01*
Y-496563D01*
X-69777D01*
Y-496805D01*
X-70262D01*
Y-497048D01*
X-72442D01*
Y-496805D01*
X-72927D01*
Y-496563D01*
X-73411D01*
Y-496321D01*
X-73653D01*
Y-496079D01*
X-73896D01*
Y-495836D01*
X-74138D01*
Y-495594D01*
X-74380D01*
Y-495352D01*
X-74622D01*
Y-495110D01*
Y-494867D01*
X-74865D01*
Y-494625D01*
Y-494383D01*
X-75107D01*
Y-494141D01*
Y-493898D01*
Y-493656D01*
X-75349D01*
Y-493414D01*
Y-493172D01*
Y-492929D01*
X-75107D01*
Y-492687D01*
Y-492445D01*
Y-492203D01*
Y-491960D01*
Y-491718D01*
X-74865D01*
Y-491476D01*
Y-491234D01*
X-74622D01*
Y-490991D01*
X-74380D01*
Y-490749D01*
Y-490507D01*
X-73896D01*
Y-490265D01*
X-73653D01*
Y-490022D01*
X-73411D01*
Y-489780D01*
X-72927D01*
Y-489538D01*
X-71958D01*
Y-489296D01*
X-70746D01*
Y-489538D01*
D02*
G37*
G36*
X-99816Y-514005D02*
X-99089D01*
Y-514247D01*
X-98605D01*
Y-514489D01*
X-98363D01*
Y-514732D01*
X-98120D01*
Y-514974D01*
X-97878D01*
Y-515216D01*
X-97636D01*
Y-515458D01*
X-97394D01*
Y-515701D01*
Y-515943D01*
X-97151D01*
Y-516185D01*
Y-516427D01*
X-96909D01*
Y-516670D01*
X-96667D01*
Y-516912D01*
Y-517154D01*
Y-517396D01*
Y-517639D01*
Y-517881D01*
Y-518123D01*
Y-518365D01*
Y-518607D01*
Y-518850D01*
Y-519092D01*
Y-519334D01*
X-96909D01*
Y-519577D01*
Y-519819D01*
Y-520061D01*
X-97151D01*
Y-520303D01*
X-97394D01*
Y-520546D01*
Y-520788D01*
X-97636D01*
Y-521030D01*
X-97878D01*
Y-521272D01*
X-98120D01*
Y-521515D01*
X-98363D01*
Y-521757D01*
X-98847D01*
Y-521999D01*
X-99332D01*
Y-522241D01*
X-100058D01*
Y-522483D01*
X-101754D01*
Y-522241D01*
X-102723D01*
Y-521999D01*
X-103208D01*
Y-521757D01*
X-103450D01*
Y-521515D01*
X-103934D01*
Y-521272D01*
X-104177D01*
Y-521030D01*
X-104419D01*
Y-520788D01*
Y-520546D01*
X-104661D01*
Y-520303D01*
X-104903D01*
Y-520061D01*
Y-519819D01*
X-105146D01*
Y-519577D01*
Y-519334D01*
Y-519092D01*
Y-518850D01*
Y-518607D01*
X-105388D01*
Y-518365D01*
Y-518123D01*
Y-517881D01*
Y-517639D01*
Y-517396D01*
X-105146D01*
Y-517154D01*
Y-516912D01*
Y-516670D01*
Y-516427D01*
X-104903D01*
Y-516185D01*
Y-515943D01*
X-104661D01*
Y-515701D01*
Y-515458D01*
X-104419D01*
Y-515216D01*
X-104177D01*
Y-514974D01*
X-103934D01*
Y-514732D01*
X-103692D01*
Y-514489D01*
X-103208D01*
Y-514247D01*
X-102723D01*
Y-514005D01*
X-102239D01*
Y-513763D01*
X-99816D01*
Y-514005D01*
D02*
G37*
%LPC*%
G36*
X-1300933Y-1145667D02*
X-1304722D01*
Y-1145808D01*
X-1306686D01*
Y-1145948D01*
X-1307809D01*
Y-1146088D01*
X-1310054D01*
Y-1145948D01*
X-1311036D01*
Y-1145808D01*
X-1315386D01*
Y-1145667D01*
X-1317210D01*
Y-1145808D01*
X-1319877D01*
Y-1145948D01*
X-1321420D01*
Y-1146088D01*
X-1322543D01*
Y-1146228D01*
X-1323385D01*
Y-1146369D01*
X-1324227D01*
Y-1146509D01*
X-1324928D01*
Y-1146649D01*
X-1325630D01*
Y-1146790D01*
X-1326332D01*
Y-1146930D01*
X-1326893D01*
Y-1147070D01*
X-1327454D01*
Y-1147211D01*
X-1328015D01*
Y-1147351D01*
X-1328577D01*
Y-1147492D01*
X-1328998D01*
Y-1147632D01*
X-1329419D01*
Y-1147772D01*
X-1329980D01*
Y-1147912D01*
X-1330401D01*
Y-1148053D01*
X-1330822D01*
Y-1148193D01*
X-1331243D01*
Y-1148333D01*
X-1331524D01*
Y-1148474D01*
X-1331945D01*
Y-1148614D01*
X-1332366D01*
Y-1148754D01*
X-1332646D01*
Y-1148895D01*
X-1333067D01*
Y-1149035D01*
X-1333348D01*
Y-1149175D01*
X-1333769D01*
Y-1149316D01*
X-1334049D01*
Y-1149456D01*
X-1334330D01*
Y-1149596D01*
X-1334751D01*
Y-1149737D01*
X-1335032D01*
Y-1149877D01*
X-1335312D01*
Y-1150017D01*
X-1335593D01*
Y-1150158D01*
X-1335874D01*
Y-1150298D01*
X-1336154D01*
Y-1150438D01*
X-1336435D01*
Y-1150579D01*
X-1336716D01*
Y-1150719D01*
X-1336996D01*
Y-1150859D01*
X-1337277D01*
Y-1151000D01*
X-1337558D01*
Y-1151140D01*
X-1337838D01*
Y-1151280D01*
X-1338119D01*
Y-1151421D01*
X-1338259D01*
Y-1151561D01*
X-1338540D01*
Y-1151701D01*
X-1338820D01*
Y-1151842D01*
X-1339101D01*
Y-1151982D01*
X-1339241D01*
Y-1152122D01*
X-1339522D01*
Y-1152262D01*
X-1339803D01*
Y-1152403D01*
X-1339943D01*
Y-1152543D01*
X-1340224D01*
Y-1152683D01*
X-1340364D01*
Y-1152824D01*
X-1340645D01*
Y-1152964D01*
X-1340785D01*
Y-1153104D01*
X-1341066D01*
Y-1153245D01*
X-1341206D01*
Y-1153385D01*
X-1341487D01*
Y-1153525D01*
X-1341627D01*
Y-1153666D01*
X-1341908D01*
Y-1153806D01*
X-1342048D01*
Y-1153946D01*
X-1342328D01*
Y-1154087D01*
X-1342469D01*
Y-1154227D01*
X-1342750D01*
Y-1154367D01*
X-1342890D01*
Y-1154508D01*
X-1343030D01*
Y-1154648D01*
X-1343311D01*
Y-1154788D01*
X-1343451D01*
Y-1154929D01*
X-1343591D01*
Y-1155069D01*
X-1343872D01*
Y-1155209D01*
X-1344012D01*
Y-1155350D01*
X-1344153D01*
Y-1155490D01*
X-1344293D01*
Y-1155630D01*
X-1344574D01*
Y-1155771D01*
X-1344714D01*
Y-1155911D01*
X-1344854D01*
Y-1156051D01*
X-1344995D01*
Y-1156192D01*
X-1345135D01*
Y-1156332D01*
X-1345416D01*
Y-1156472D01*
X-1345556D01*
Y-1156613D01*
X-1345696D01*
Y-1156753D01*
X-1345837D01*
Y-1156893D01*
X-1345977D01*
Y-1157033D01*
X-1346117D01*
Y-1157174D01*
X-1346398D01*
Y-1157314D01*
X-1346538D01*
Y-1157455D01*
X-1346679D01*
Y-1157595D01*
X-1346819D01*
Y-1157735D01*
X-1346959D01*
Y-1157875D01*
X-1347100D01*
Y-1158016D01*
X-1347240D01*
Y-1158156D01*
X-1347380D01*
Y-1158296D01*
X-1347521D01*
Y-1158437D01*
X-1347661D01*
Y-1158577D01*
X-1347801D01*
Y-1158717D01*
X-1347942D01*
Y-1158858D01*
X-1348082D01*
Y-1158998D01*
X-1348222D01*
Y-1159138D01*
X-1348362D01*
Y-1159279D01*
X-1348503D01*
Y-1159419D01*
X-1348643D01*
Y-1159559D01*
X-1348784D01*
Y-1159700D01*
X-1348924D01*
Y-1159840D01*
X-1349064D01*
Y-1159980D01*
X-1349204D01*
Y-1160121D01*
X-1349345D01*
Y-1160261D01*
X-1349485D01*
Y-1160401D01*
X-1349625D01*
Y-1160542D01*
X-1349766D01*
Y-1160682D01*
X-1349906D01*
Y-1160822D01*
Y-1160963D01*
X-1350046D01*
Y-1161103D01*
X-1350187D01*
Y-1161243D01*
X-1350327D01*
Y-1161384D01*
X-1350467D01*
Y-1161524D01*
X-1350608D01*
Y-1161664D01*
X-1350748D01*
Y-1161805D01*
Y-1161945D01*
X-1350888D01*
Y-1162085D01*
X-1351029D01*
Y-1162225D01*
X-1351169D01*
Y-1162366D01*
X-1351309D01*
Y-1162506D01*
X-1351450D01*
Y-1162646D01*
Y-1162787D01*
X-1351590D01*
Y-1162927D01*
X-1351730D01*
Y-1163067D01*
X-1351871D01*
Y-1163208D01*
X-1352011D01*
Y-1163348D01*
Y-1163488D01*
X-1352151D01*
Y-1163629D01*
X-1352292D01*
Y-1163769D01*
X-1352432D01*
Y-1163909D01*
Y-1164050D01*
X-1352572D01*
Y-1164190D01*
X-1352713D01*
Y-1164330D01*
X-1352853D01*
Y-1164471D01*
Y-1164611D01*
X-1352993D01*
Y-1164751D01*
X-1353134D01*
Y-1164892D01*
Y-1165032D01*
X-1353274D01*
Y-1165172D01*
X-1353414D01*
Y-1165313D01*
X-1353555D01*
Y-1165453D01*
Y-1165593D01*
X-1353695D01*
Y-1165734D01*
X-1353835D01*
Y-1165874D01*
Y-1166014D01*
X-1353976D01*
Y-1166155D01*
X-1354116D01*
Y-1166295D01*
Y-1166435D01*
X-1354256D01*
Y-1166576D01*
Y-1166716D01*
X-1354397D01*
Y-1166856D01*
X-1354537D01*
Y-1166997D01*
Y-1167137D01*
X-1354677D01*
Y-1167277D01*
X-1354817D01*
Y-1167418D01*
Y-1167558D01*
X-1354958D01*
Y-1167698D01*
Y-1167839D01*
X-1355098D01*
Y-1167979D01*
X-1355238D01*
Y-1168119D01*
Y-1168260D01*
X-1355379D01*
Y-1168400D01*
Y-1168540D01*
X-1355519D01*
Y-1168680D01*
Y-1168821D01*
X-1355659D01*
Y-1168961D01*
X-1355800D01*
Y-1169101D01*
Y-1169242D01*
X-1355940D01*
Y-1169382D01*
Y-1169522D01*
X-1356080D01*
Y-1169663D01*
Y-1169803D01*
X-1356221D01*
Y-1169943D01*
Y-1170084D01*
X-1356361D01*
Y-1170224D01*
Y-1170364D01*
X-1356501D01*
Y-1170505D01*
Y-1170645D01*
X-1356642D01*
Y-1170785D01*
Y-1170926D01*
X-1356782D01*
Y-1171066D01*
Y-1171206D01*
X-1356922D01*
Y-1171347D01*
Y-1171487D01*
X-1357063D01*
Y-1171627D01*
Y-1171768D01*
X-1357203D01*
Y-1171908D01*
Y-1172048D01*
X-1357343D01*
Y-1172189D01*
Y-1172329D01*
X-1357484D01*
Y-1172469D01*
Y-1172609D01*
X-1357624D01*
Y-1172750D01*
Y-1172890D01*
Y-1173030D01*
X-1357764D01*
Y-1173171D01*
Y-1173311D01*
X-1357905D01*
Y-1173452D01*
Y-1173592D01*
X-1358045D01*
Y-1173732D01*
Y-1173872D01*
Y-1174013D01*
X-1358185D01*
Y-1174153D01*
Y-1174293D01*
X-1358326D01*
Y-1174434D01*
Y-1174574D01*
Y-1174714D01*
X-1358466D01*
Y-1174855D01*
Y-1174995D01*
Y-1175135D01*
X-1358606D01*
Y-1175276D01*
Y-1175416D01*
X-1358746D01*
Y-1175556D01*
Y-1175697D01*
Y-1175837D01*
X-1358887D01*
Y-1175977D01*
Y-1176118D01*
Y-1176258D01*
X-1359027D01*
Y-1176398D01*
Y-1176539D01*
Y-1176679D01*
X-1359167D01*
Y-1176819D01*
Y-1176960D01*
Y-1177100D01*
X-1359308D01*
Y-1177240D01*
Y-1177381D01*
Y-1177521D01*
X-1359448D01*
Y-1177661D01*
Y-1177802D01*
Y-1177942D01*
X-1359588D01*
Y-1178082D01*
Y-1178223D01*
Y-1178363D01*
Y-1178503D01*
X-1359729D01*
Y-1178643D01*
Y-1178784D01*
Y-1178924D01*
X-1359869D01*
Y-1179064D01*
Y-1179205D01*
Y-1179345D01*
Y-1179485D01*
X-1360009D01*
Y-1179626D01*
Y-1179766D01*
Y-1179906D01*
Y-1180047D01*
X-1360150D01*
Y-1180187D01*
Y-1180327D01*
Y-1180468D01*
Y-1180608D01*
X-1360290D01*
Y-1180748D01*
Y-1180889D01*
Y-1181029D01*
Y-1181169D01*
Y-1181310D01*
X-1360430D01*
Y-1181450D01*
Y-1181590D01*
Y-1181731D01*
Y-1181871D01*
X-1360571D01*
Y-1182011D01*
Y-1182152D01*
Y-1182292D01*
Y-1182432D01*
Y-1182573D01*
Y-1182713D01*
X-1360711D01*
Y-1182853D01*
Y-1182993D01*
Y-1183134D01*
Y-1183274D01*
Y-1183415D01*
X-1360851D01*
Y-1183555D01*
Y-1183695D01*
Y-1183836D01*
Y-1183976D01*
Y-1184116D01*
Y-1184256D01*
Y-1184397D01*
X-1360992D01*
Y-1184537D01*
Y-1184678D01*
Y-1184818D01*
Y-1184958D01*
Y-1185098D01*
Y-1185239D01*
Y-1185379D01*
X-1361132D01*
Y-1185519D01*
Y-1185660D01*
Y-1185800D01*
Y-1185940D01*
Y-1186081D01*
Y-1186221D01*
Y-1186361D01*
Y-1186502D01*
Y-1186642D01*
Y-1186782D01*
X-1361272D01*
Y-1186923D01*
Y-1187063D01*
Y-1187203D01*
Y-1187344D01*
Y-1187484D01*
Y-1187624D01*
Y-1187765D01*
Y-1187905D01*
Y-1188045D01*
Y-1188186D01*
Y-1188326D01*
Y-1188466D01*
Y-1188606D01*
Y-1188747D01*
Y-1188887D01*
X-1361413D01*
Y-1189027D01*
Y-1189168D01*
Y-1189308D01*
Y-1189448D01*
Y-1189589D01*
Y-1189729D01*
Y-1189869D01*
Y-1190010D01*
Y-1190150D01*
Y-1190290D01*
Y-1190431D01*
Y-1190571D01*
Y-1190711D01*
Y-1190852D01*
Y-1190992D01*
Y-1191132D01*
Y-1191273D01*
Y-1191413D01*
Y-1191553D01*
Y-1191694D01*
Y-1191834D01*
Y-1191974D01*
Y-1192115D01*
Y-1192255D01*
Y-1192395D01*
Y-1192536D01*
Y-1192676D01*
Y-1192816D01*
X-1361272D01*
Y-1192957D01*
Y-1193097D01*
Y-1193237D01*
Y-1193378D01*
Y-1193518D01*
Y-1193658D01*
Y-1193799D01*
Y-1193939D01*
Y-1194079D01*
Y-1194220D01*
Y-1194360D01*
Y-1194500D01*
Y-1194641D01*
Y-1194781D01*
X-1361132D01*
Y-1194921D01*
Y-1195061D01*
Y-1195202D01*
Y-1195342D01*
Y-1195482D01*
Y-1195623D01*
Y-1195763D01*
Y-1195903D01*
Y-1196044D01*
Y-1196184D01*
X-1360992D01*
Y-1196324D01*
Y-1196465D01*
Y-1196605D01*
Y-1196745D01*
Y-1196886D01*
Y-1197026D01*
Y-1197166D01*
Y-1197307D01*
X-1360851D01*
Y-1197447D01*
Y-1197587D01*
Y-1197728D01*
Y-1197868D01*
Y-1198008D01*
Y-1198149D01*
X-1360711D01*
Y-1198289D01*
Y-1198429D01*
Y-1198570D01*
Y-1198710D01*
Y-1198850D01*
Y-1198991D01*
X-1360571D01*
Y-1199131D01*
Y-1199271D01*
Y-1199411D01*
Y-1199552D01*
Y-1199692D01*
X-1360430D01*
Y-1199833D01*
Y-1199973D01*
Y-1200113D01*
Y-1200254D01*
Y-1200394D01*
X-1360290D01*
Y-1200534D01*
Y-1200675D01*
Y-1200815D01*
Y-1200955D01*
X-1360150D01*
Y-1201095D01*
Y-1201236D01*
Y-1201376D01*
Y-1201516D01*
X-1360009D01*
Y-1201657D01*
Y-1201797D01*
Y-1201937D01*
Y-1202078D01*
X-1359869D01*
Y-1202218D01*
Y-1202358D01*
Y-1202499D01*
Y-1202639D01*
X-1359729D01*
Y-1202779D01*
Y-1202920D01*
Y-1203060D01*
Y-1203200D01*
X-1359588D01*
Y-1203341D01*
Y-1203481D01*
Y-1203621D01*
X-1359448D01*
Y-1203762D01*
Y-1203902D01*
Y-1204042D01*
X-1359308D01*
Y-1204183D01*
Y-1204323D01*
Y-1204463D01*
Y-1204604D01*
X-1359167D01*
Y-1204744D01*
Y-1204884D01*
Y-1205024D01*
X-1359027D01*
Y-1205165D01*
Y-1205305D01*
Y-1205445D01*
X-1358887D01*
Y-1205586D01*
Y-1205726D01*
X-1358746D01*
Y-1205866D01*
Y-1206007D01*
Y-1206147D01*
X-1358606D01*
Y-1206287D01*
Y-1206428D01*
Y-1206568D01*
X-1358466D01*
Y-1206708D01*
Y-1206849D01*
Y-1206989D01*
X-1358326D01*
Y-1207129D01*
Y-1207270D01*
X-1358185D01*
Y-1207410D01*
Y-1207550D01*
Y-1207691D01*
X-1358045D01*
Y-1207831D01*
Y-1207971D01*
X-1357905D01*
Y-1208112D01*
Y-1208252D01*
X-1357764D01*
Y-1208392D01*
Y-1208533D01*
Y-1208673D01*
X-1357624D01*
Y-1208813D01*
Y-1208954D01*
X-1357484D01*
Y-1209094D01*
Y-1209234D01*
X-1357343D01*
Y-1209375D01*
Y-1209515D01*
Y-1209655D01*
X-1357203D01*
Y-1209796D01*
Y-1209936D01*
X-1357063D01*
Y-1210076D01*
Y-1210217D01*
X-1356922D01*
Y-1210357D01*
Y-1210497D01*
X-1356782D01*
Y-1210638D01*
Y-1210778D01*
X-1356642D01*
Y-1210918D01*
Y-1211058D01*
X-1356501D01*
Y-1211199D01*
Y-1211339D01*
X-1356361D01*
Y-1211479D01*
Y-1211620D01*
X-1356221D01*
Y-1211760D01*
Y-1211900D01*
X-1356080D01*
Y-1212041D01*
Y-1212181D01*
X-1355940D01*
Y-1212321D01*
X-1355800D01*
Y-1212462D01*
Y-1212602D01*
X-1355659D01*
Y-1212742D01*
Y-1212883D01*
X-1355519D01*
Y-1213023D01*
Y-1213163D01*
X-1355379D01*
Y-1213304D01*
X-1355238D01*
Y-1213444D01*
Y-1213584D01*
X-1355098D01*
Y-1213725D01*
Y-1213865D01*
X-1354958D01*
Y-1214005D01*
Y-1214146D01*
X-1354817D01*
Y-1214286D01*
X-1354677D01*
Y-1214426D01*
Y-1214567D01*
X-1354537D01*
Y-1214707D01*
X-1354397D01*
Y-1214847D01*
Y-1214988D01*
X-1354256D01*
Y-1215128D01*
Y-1215268D01*
X-1354116D01*
Y-1215408D01*
X-1353976D01*
Y-1215549D01*
Y-1215689D01*
X-1353835D01*
Y-1215829D01*
X-1353695D01*
Y-1215970D01*
Y-1216110D01*
X-1353555D01*
Y-1216251D01*
X-1353414D01*
Y-1216391D01*
X-1353274D01*
Y-1216531D01*
Y-1216672D01*
X-1353134D01*
Y-1216812D01*
X-1352993D01*
Y-1216952D01*
Y-1217092D01*
X-1352853D01*
Y-1217233D01*
X-1352713D01*
Y-1217373D01*
X-1352572D01*
Y-1217513D01*
Y-1217654D01*
X-1352432D01*
Y-1217794D01*
X-1352292D01*
Y-1217934D01*
X-1352151D01*
Y-1218075D01*
Y-1218215D01*
X-1352011D01*
Y-1218355D01*
X-1351871D01*
Y-1218496D01*
X-1351730D01*
Y-1218636D01*
Y-1218776D01*
X-1351590D01*
Y-1218917D01*
X-1351450D01*
Y-1219057D01*
X-1351309D01*
Y-1219197D01*
X-1351169D01*
Y-1219338D01*
Y-1219478D01*
X-1351029D01*
Y-1219618D01*
X-1350888D01*
Y-1219759D01*
X-1350748D01*
Y-1219899D01*
X-1350608D01*
Y-1220039D01*
X-1350467D01*
Y-1220180D01*
X-1350327D01*
Y-1220320D01*
Y-1220460D01*
X-1350187D01*
Y-1220601D01*
X-1350046D01*
Y-1220741D01*
X-1349906D01*
Y-1220881D01*
X-1349766D01*
Y-1221021D01*
X-1349625D01*
Y-1221162D01*
X-1349485D01*
Y-1221302D01*
X-1349345D01*
Y-1221442D01*
X-1349204D01*
Y-1221583D01*
X-1349064D01*
Y-1221723D01*
Y-1221863D01*
X-1348924D01*
Y-1222004D01*
X-1348784D01*
Y-1222144D01*
X-1348643D01*
Y-1222284D01*
X-1348503D01*
Y-1222425D01*
X-1348362D01*
Y-1222565D01*
X-1348222D01*
Y-1222705D01*
X-1348082D01*
Y-1222846D01*
X-1347942D01*
Y-1222986D01*
X-1347801D01*
Y-1223126D01*
X-1347661D01*
Y-1223267D01*
X-1347521D01*
Y-1223407D01*
X-1347380D01*
Y-1223547D01*
X-1347100D01*
Y-1223688D01*
X-1346959D01*
Y-1223828D01*
X-1346819D01*
Y-1223968D01*
X-1346679D01*
Y-1224109D01*
X-1346538D01*
Y-1224249D01*
X-1346398D01*
Y-1224389D01*
X-1346258D01*
Y-1224530D01*
X-1346117D01*
Y-1224670D01*
X-1345977D01*
Y-1224810D01*
X-1345837D01*
Y-1224951D01*
X-1345556D01*
Y-1225091D01*
X-1345416D01*
Y-1225231D01*
X-1345275D01*
Y-1225372D01*
X-1345135D01*
Y-1225512D01*
X-1344995D01*
Y-1225652D01*
X-1344714D01*
Y-1225792D01*
X-1344574D01*
Y-1225933D01*
X-1344433D01*
Y-1226073D01*
X-1344293D01*
Y-1226214D01*
X-1344012D01*
Y-1226354D01*
X-1343872D01*
Y-1226494D01*
X-1343732D01*
Y-1226635D01*
X-1343591D01*
Y-1226775D01*
X-1343311D01*
Y-1226915D01*
X-1343170D01*
Y-1227055D01*
X-1343030D01*
Y-1227196D01*
X-1342750D01*
Y-1227336D01*
X-1342609D01*
Y-1227476D01*
X-1342328D01*
Y-1227617D01*
X-1342188D01*
Y-1227757D01*
X-1342048D01*
Y-1227897D01*
X-1341767D01*
Y-1228038D01*
X-1341627D01*
Y-1228178D01*
X-1341346D01*
Y-1228318D01*
X-1341206D01*
Y-1228459D01*
X-1340925D01*
Y-1228599D01*
X-1340785D01*
Y-1228739D01*
X-1340504D01*
Y-1228880D01*
X-1340364D01*
Y-1229020D01*
X-1340083D01*
Y-1229160D01*
X-1339803D01*
Y-1229301D01*
X-1339662D01*
Y-1229441D01*
X-1339382D01*
Y-1229581D01*
X-1339101D01*
Y-1229722D01*
X-1338961D01*
Y-1229862D01*
X-1338680D01*
Y-1230002D01*
X-1338399D01*
Y-1230143D01*
X-1338119D01*
Y-1230283D01*
X-1337979D01*
Y-1230423D01*
X-1337698D01*
Y-1230564D01*
X-1337417D01*
Y-1230704D01*
X-1337137D01*
Y-1230844D01*
X-1336856D01*
Y-1230984D01*
X-1336575D01*
Y-1231125D01*
X-1336295D01*
Y-1231265D01*
X-1336014D01*
Y-1231406D01*
X-1335733D01*
Y-1231546D01*
X-1335453D01*
Y-1231686D01*
X-1335172D01*
Y-1231826D01*
X-1334891D01*
Y-1231967D01*
X-1334470D01*
Y-1232107D01*
X-1334190D01*
Y-1232247D01*
X-1333909D01*
Y-1232388D01*
X-1333488D01*
Y-1232528D01*
X-1333208D01*
Y-1232669D01*
X-1332927D01*
Y-1232809D01*
X-1332506D01*
Y-1232949D01*
X-1332085D01*
Y-1233089D01*
X-1331804D01*
Y-1233230D01*
X-1331383D01*
Y-1233370D01*
X-1330962D01*
Y-1233510D01*
X-1330541D01*
Y-1233651D01*
X-1330120D01*
Y-1233791D01*
X-1329699D01*
Y-1233931D01*
X-1329278D01*
Y-1234072D01*
X-1328717D01*
Y-1234212D01*
X-1328296D01*
Y-1234352D01*
X-1327735D01*
Y-1234493D01*
X-1327173D01*
Y-1234633D01*
X-1326612D01*
Y-1234773D01*
X-1326051D01*
Y-1234914D01*
X-1325349D01*
Y-1235054D01*
X-1324648D01*
Y-1235194D01*
X-1323806D01*
Y-1235335D01*
X-1322964D01*
Y-1235475D01*
X-1321982D01*
Y-1235615D01*
X-1320719D01*
Y-1235756D01*
X-1319035D01*
Y-1235896D01*
X-1312159D01*
Y-1235756D01*
X-1310475D01*
Y-1235615D01*
X-1309352D01*
Y-1235475D01*
X-1308791D01*
Y-1235615D01*
X-1307528D01*
Y-1235756D01*
X-1306265D01*
Y-1235896D01*
X-1299670D01*
Y-1235756D01*
X-1298126D01*
Y-1235615D01*
X-1296863D01*
Y-1235475D01*
X-1296022D01*
Y-1235335D01*
X-1295179D01*
Y-1235194D01*
X-1294337D01*
Y-1235054D01*
X-1293636D01*
Y-1234914D01*
X-1293075D01*
Y-1234773D01*
X-1292373D01*
Y-1234633D01*
X-1291812D01*
Y-1234493D01*
X-1291250D01*
Y-1234352D01*
X-1290829D01*
Y-1234212D01*
X-1290268D01*
Y-1234072D01*
X-1289847D01*
Y-1233931D01*
X-1289426D01*
Y-1233791D01*
X-1288865D01*
Y-1233651D01*
X-1288444D01*
Y-1233510D01*
X-1288163D01*
Y-1233370D01*
X-1287742D01*
Y-1233230D01*
X-1287321D01*
Y-1233089D01*
X-1286900D01*
Y-1232949D01*
X-1286620D01*
Y-1232809D01*
X-1286199D01*
Y-1232669D01*
X-1285918D01*
Y-1232528D01*
X-1285497D01*
Y-1232388D01*
X-1285217D01*
Y-1232247D01*
X-1284936D01*
Y-1232107D01*
X-1284515D01*
Y-1231967D01*
X-1284234D01*
Y-1231826D01*
X-1283954D01*
Y-1231686D01*
X-1283673D01*
Y-1231546D01*
X-1283392D01*
Y-1231406D01*
X-1283112D01*
Y-1231265D01*
X-1282831D01*
Y-1231125D01*
X-1282550D01*
Y-1230984D01*
X-1282270D01*
Y-1230844D01*
X-1281989D01*
Y-1230704D01*
X-1281708D01*
Y-1230564D01*
X-1281428D01*
Y-1230423D01*
X-1281147D01*
Y-1230283D01*
X-1280866D01*
Y-1230143D01*
X-1280726D01*
Y-1230002D01*
X-1280446D01*
Y-1229862D01*
X-1280165D01*
Y-1229722D01*
X-1280024D01*
Y-1229581D01*
X-1279744D01*
Y-1229441D01*
X-1279463D01*
Y-1229301D01*
X-1279323D01*
Y-1229160D01*
X-1279042D01*
Y-1229020D01*
X-1278762D01*
Y-1228880D01*
X-1278621D01*
Y-1228739D01*
X-1278341D01*
Y-1228599D01*
X-1278200D01*
Y-1228459D01*
X-1277920D01*
Y-1228318D01*
X-1277779D01*
Y-1228178D01*
X-1277499D01*
Y-1228038D01*
X-1277358D01*
Y-1227897D01*
X-1277078D01*
Y-1227757D01*
X-1276937D01*
Y-1227617D01*
X-1276797D01*
Y-1227476D01*
X-1276516D01*
Y-1227336D01*
X-1276376D01*
Y-1227196D01*
X-1276095D01*
Y-1227055D01*
X-1275955D01*
Y-1226915D01*
X-1275815D01*
Y-1226775D01*
X-1275534D01*
Y-1226635D01*
X-1275394D01*
Y-1226494D01*
X-1275253D01*
Y-1226354D01*
X-1275113D01*
Y-1226214D01*
X-1274833D01*
Y-1226073D01*
X-1274692D01*
Y-1225933D01*
X-1274552D01*
Y-1225792D01*
X-1274411D01*
Y-1225652D01*
X-1274131D01*
Y-1225512D01*
X-1273990D01*
Y-1225372D01*
X-1273850D01*
Y-1225231D01*
X-1273710D01*
Y-1225091D01*
X-1273570D01*
Y-1224951D01*
X-1273429D01*
Y-1224810D01*
X-1273149D01*
Y-1224670D01*
X-1273008D01*
Y-1224530D01*
X-1272868D01*
Y-1224389D01*
X-1272728D01*
Y-1224249D01*
X-1272587D01*
Y-1224109D01*
X-1272447D01*
Y-1223968D01*
X-1272307D01*
Y-1223828D01*
X-1272166D01*
Y-1223688D01*
X-1272026D01*
Y-1223547D01*
X-1271886D01*
Y-1223407D01*
X-1271745D01*
Y-1223267D01*
X-1271605D01*
Y-1223126D01*
X-1271465D01*
Y-1222986D01*
X-1271324D01*
Y-1222846D01*
X-1271184D01*
Y-1222705D01*
X-1271044D01*
Y-1222565D01*
X-1270903D01*
Y-1222425D01*
X-1270763D01*
Y-1222284D01*
X-1270482D01*
Y-1222144D01*
X-1270342D01*
Y-1222004D01*
X-1270202D01*
Y-1221863D01*
X-1270061D01*
Y-1221723D01*
X-1269921D01*
Y-1221583D01*
X-1269781D01*
Y-1221442D01*
X-1269640D01*
Y-1221302D01*
X-1269500D01*
Y-1221162D01*
X-1269360D01*
Y-1221021D01*
X-1269220D01*
Y-1220881D01*
X-1269079D01*
Y-1220741D01*
X-1268939D01*
Y-1220601D01*
X-1268799D01*
Y-1220460D01*
X-1268658D01*
Y-1220320D01*
X-1268518D01*
Y-1220180D01*
X-1268378D01*
Y-1220039D01*
X-1268237D01*
Y-1219899D01*
X-1268097D01*
Y-1219759D01*
X-1267957D01*
Y-1219618D01*
X-1267816D01*
Y-1219478D01*
X-1267676D01*
Y-1219338D01*
X-1267535D01*
Y-1219197D01*
X-1267395D01*
Y-1219057D01*
X-1267255D01*
Y-1218917D01*
X-1267115D01*
Y-1218776D01*
X-1266974D01*
Y-1218636D01*
X-1266694D01*
Y-1218496D01*
X-1266553D01*
Y-1218355D01*
X-1266413D01*
Y-1218215D01*
X-1266273D01*
Y-1218075D01*
X-1266132D01*
Y-1217934D01*
X-1265992D01*
Y-1217794D01*
X-1265852D01*
Y-1217654D01*
X-1265711D01*
Y-1217513D01*
X-1265571D01*
Y-1217373D01*
X-1265431D01*
Y-1217233D01*
X-1265290D01*
Y-1217092D01*
X-1265150D01*
Y-1216952D01*
X-1265010D01*
Y-1216812D01*
X-1264870D01*
Y-1216672D01*
X-1264729D01*
Y-1216531D01*
X-1264589D01*
Y-1216391D01*
X-1264448D01*
Y-1216251D01*
X-1264308D01*
Y-1216110D01*
X-1264168D01*
Y-1215970D01*
X-1264027D01*
Y-1215829D01*
X-1263887D01*
Y-1215689D01*
X-1263747D01*
Y-1215549D01*
X-1263606D01*
Y-1215408D01*
X-1263466D01*
Y-1215268D01*
X-1263326D01*
Y-1215128D01*
X-1263186D01*
Y-1214988D01*
X-1263045D01*
Y-1214847D01*
X-1262905D01*
Y-1214707D01*
X-1262765D01*
Y-1214567D01*
X-1262624D01*
Y-1214426D01*
X-1262484D01*
Y-1214286D01*
X-1262344D01*
Y-1214146D01*
X-1262203D01*
Y-1214005D01*
X-1262063D01*
Y-1213865D01*
X-1261923D01*
Y-1213725D01*
X-1261782D01*
Y-1213584D01*
X-1261642D01*
Y-1213444D01*
X-1261502D01*
Y-1213304D01*
X-1261361D01*
Y-1213163D01*
X-1261221D01*
Y-1213023D01*
X-1261081D01*
Y-1212883D01*
X-1260940D01*
Y-1212742D01*
X-1260800D01*
Y-1212602D01*
X-1260660D01*
Y-1212462D01*
X-1260519D01*
Y-1212321D01*
X-1260379D01*
Y-1212181D01*
X-1260239D01*
Y-1212041D01*
X-1260098D01*
Y-1211900D01*
X-1259958D01*
Y-1211760D01*
X-1259818D01*
Y-1211620D01*
X-1259677D01*
Y-1211479D01*
X-1259537D01*
Y-1211339D01*
X-1259397D01*
Y-1211199D01*
X-1259256D01*
Y-1211058D01*
X-1259116D01*
Y-1210918D01*
X-1258976D01*
Y-1210778D01*
X-1258836D01*
Y-1210638D01*
X-1258695D01*
Y-1210497D01*
Y-1210357D01*
X-1258555D01*
Y-1210217D01*
X-1258415D01*
Y-1210076D01*
X-1258274D01*
Y-1209936D01*
X-1258134D01*
Y-1209796D01*
X-1257993D01*
Y-1209655D01*
X-1257853D01*
Y-1209515D01*
X-1257713D01*
Y-1209375D01*
X-1257573D01*
Y-1209234D01*
Y-1209094D01*
X-1257432D01*
Y-1208954D01*
X-1257292D01*
Y-1208813D01*
X-1257152D01*
Y-1208673D01*
X-1257011D01*
Y-1208533D01*
X-1256871D01*
Y-1208392D01*
X-1256731D01*
Y-1208252D01*
Y-1208112D01*
X-1256590D01*
Y-1207971D01*
X-1256450D01*
Y-1207831D01*
X-1256310D01*
Y-1207691D01*
X-1256169D01*
Y-1207550D01*
X-1256029D01*
Y-1207410D01*
Y-1207270D01*
X-1255889D01*
Y-1207129D01*
X-1255748D01*
Y-1206989D01*
X-1255608D01*
Y-1206849D01*
X-1255468D01*
Y-1206708D01*
Y-1206568D01*
X-1255327D01*
Y-1206428D01*
X-1255187D01*
Y-1206287D01*
X-1255047D01*
Y-1206147D01*
X-1254906D01*
Y-1206007D01*
Y-1205866D01*
X-1254766D01*
Y-1205726D01*
X-1254626D01*
Y-1205586D01*
X-1254485D01*
Y-1205445D01*
Y-1205305D01*
X-1254345D01*
Y-1205165D01*
X-1254205D01*
Y-1205024D01*
X-1254064D01*
Y-1204884D01*
Y-1204744D01*
X-1253924D01*
Y-1204604D01*
X-1253784D01*
Y-1204463D01*
Y-1204323D01*
X-1253643D01*
Y-1204183D01*
X-1253503D01*
Y-1204042D01*
Y-1203902D01*
X-1253363D01*
Y-1203762D01*
X-1253223D01*
Y-1203621D01*
Y-1203481D01*
X-1253082D01*
Y-1203341D01*
X-1252942D01*
Y-1203200D01*
Y-1203060D01*
X-1252802D01*
Y-1202920D01*
X-1252661D01*
Y-1202779D01*
Y-1202639D01*
X-1252521D01*
Y-1202499D01*
X-1252381D01*
Y-1202358D01*
Y-1202218D01*
X-1252240D01*
Y-1202078D01*
Y-1201937D01*
X-1252100D01*
Y-1201797D01*
X-1251960D01*
Y-1201657D01*
Y-1201516D01*
X-1251819D01*
Y-1201376D01*
Y-1201236D01*
X-1251679D01*
Y-1201095D01*
X-1251539D01*
Y-1200955D01*
Y-1200815D01*
X-1251398D01*
Y-1200675D01*
Y-1200534D01*
X-1251258D01*
Y-1200394D01*
Y-1200254D01*
X-1251118D01*
Y-1200113D01*
Y-1199973D01*
X-1250977D01*
Y-1199833D01*
Y-1199692D01*
X-1250837D01*
Y-1199552D01*
Y-1199411D01*
X-1250697D01*
Y-1199271D01*
Y-1199131D01*
X-1250556D01*
Y-1198991D01*
Y-1198850D01*
X-1250416D01*
Y-1198710D01*
Y-1198570D01*
Y-1198429D01*
X-1250276D01*
Y-1198289D01*
Y-1198149D01*
X-1250135D01*
Y-1198008D01*
Y-1197868D01*
X-1249995D01*
Y-1197728D01*
Y-1197587D01*
Y-1197447D01*
X-1249855D01*
Y-1197307D01*
Y-1197166D01*
Y-1197026D01*
X-1249714D01*
Y-1196886D01*
Y-1196745D01*
X-1249574D01*
Y-1196605D01*
Y-1196465D01*
Y-1196324D01*
X-1249434D01*
Y-1196184D01*
Y-1196044D01*
Y-1195903D01*
Y-1195763D01*
X-1249293D01*
Y-1195623D01*
Y-1195482D01*
Y-1195342D01*
X-1249153D01*
Y-1195202D01*
Y-1195061D01*
Y-1194921D01*
Y-1194781D01*
X-1249013D01*
Y-1194641D01*
Y-1194500D01*
Y-1194360D01*
Y-1194220D01*
Y-1194079D01*
X-1248873D01*
Y-1193939D01*
Y-1193799D01*
Y-1193658D01*
Y-1193518D01*
Y-1193378D01*
X-1248732D01*
Y-1193237D01*
Y-1193097D01*
Y-1192957D01*
Y-1192816D01*
Y-1192676D01*
Y-1192536D01*
Y-1192395D01*
Y-1192255D01*
X-1248592D01*
Y-1192115D01*
Y-1191974D01*
Y-1191834D01*
Y-1191694D01*
Y-1191553D01*
Y-1191413D01*
Y-1191273D01*
Y-1191132D01*
Y-1190992D01*
Y-1190852D01*
Y-1190711D01*
Y-1190571D01*
Y-1190431D01*
Y-1190290D01*
Y-1190150D01*
Y-1190010D01*
Y-1189869D01*
Y-1189729D01*
Y-1189589D01*
Y-1189448D01*
Y-1189308D01*
X-1248732D01*
Y-1189168D01*
Y-1189027D01*
Y-1188887D01*
Y-1188747D01*
Y-1188606D01*
Y-1188466D01*
Y-1188326D01*
Y-1188186D01*
X-1248873D01*
Y-1188045D01*
Y-1187905D01*
Y-1187765D01*
Y-1187624D01*
Y-1187484D01*
X-1249013D01*
Y-1187344D01*
Y-1187203D01*
Y-1187063D01*
Y-1186923D01*
Y-1186782D01*
X-1249153D01*
Y-1186642D01*
Y-1186502D01*
Y-1186361D01*
Y-1186221D01*
X-1249293D01*
Y-1186081D01*
Y-1185940D01*
Y-1185800D01*
X-1249434D01*
Y-1185660D01*
Y-1185519D01*
Y-1185379D01*
Y-1185239D01*
X-1249574D01*
Y-1185098D01*
Y-1184958D01*
Y-1184818D01*
X-1249714D01*
Y-1184678D01*
Y-1184537D01*
X-1249855D01*
Y-1184397D01*
Y-1184256D01*
Y-1184116D01*
X-1249995D01*
Y-1183976D01*
Y-1183836D01*
Y-1183695D01*
X-1250135D01*
Y-1183555D01*
Y-1183415D01*
X-1250276D01*
Y-1183274D01*
Y-1183134D01*
X-1250416D01*
Y-1182993D01*
Y-1182853D01*
Y-1182713D01*
X-1250556D01*
Y-1182573D01*
Y-1182432D01*
X-1250697D01*
Y-1182292D01*
Y-1182152D01*
X-1250837D01*
Y-1182011D01*
Y-1181871D01*
X-1250977D01*
Y-1181731D01*
Y-1181590D01*
X-1251118D01*
Y-1181450D01*
Y-1181310D01*
X-1251258D01*
Y-1181169D01*
Y-1181029D01*
X-1251398D01*
Y-1180889D01*
Y-1180748D01*
X-1251539D01*
Y-1180608D01*
X-1251679D01*
Y-1180468D01*
Y-1180327D01*
X-1251819D01*
Y-1180187D01*
Y-1180047D01*
X-1251960D01*
Y-1179906D01*
Y-1179766D01*
X-1252100D01*
Y-1179626D01*
X-1252240D01*
Y-1179485D01*
Y-1179345D01*
X-1252381D01*
Y-1179205D01*
Y-1179064D01*
X-1252521D01*
Y-1178924D01*
X-1252661D01*
Y-1178784D01*
Y-1178643D01*
X-1252802D01*
Y-1178503D01*
X-1252942D01*
Y-1178363D01*
Y-1178223D01*
X-1253082D01*
Y-1178082D01*
X-1253223D01*
Y-1177942D01*
Y-1177802D01*
X-1253363D01*
Y-1177661D01*
X-1253503D01*
Y-1177521D01*
Y-1177381D01*
X-1253643D01*
Y-1177240D01*
X-1253784D01*
Y-1177100D01*
Y-1176960D01*
X-1253924D01*
Y-1176819D01*
X-1254064D01*
Y-1176679D01*
X-1254205D01*
Y-1176539D01*
Y-1176398D01*
X-1254345D01*
Y-1176258D01*
X-1254485D01*
Y-1176118D01*
X-1254626D01*
Y-1175977D01*
Y-1175837D01*
X-1254766D01*
Y-1175697D01*
X-1254906D01*
Y-1175556D01*
X-1255047D01*
Y-1175416D01*
Y-1175276D01*
X-1255187D01*
Y-1175135D01*
X-1255327D01*
Y-1174995D01*
X-1255468D01*
Y-1174855D01*
X-1255608D01*
Y-1174714D01*
Y-1174574D01*
X-1255748D01*
Y-1174434D01*
X-1255889D01*
Y-1174293D01*
X-1256029D01*
Y-1174153D01*
X-1256169D01*
Y-1174013D01*
Y-1173872D01*
X-1256310D01*
Y-1173732D01*
X-1256450D01*
Y-1173592D01*
X-1256590D01*
Y-1173452D01*
X-1256731D01*
Y-1173311D01*
X-1256871D01*
Y-1173171D01*
X-1257011D01*
Y-1173030D01*
Y-1172890D01*
X-1257152D01*
Y-1172750D01*
X-1257292D01*
Y-1172609D01*
X-1257432D01*
Y-1172469D01*
X-1257573D01*
Y-1172329D01*
X-1257713D01*
Y-1172189D01*
X-1257853D01*
Y-1172048D01*
X-1257993D01*
Y-1171908D01*
Y-1171768D01*
X-1258134D01*
Y-1171627D01*
X-1258274D01*
Y-1171487D01*
X-1258415D01*
Y-1171347D01*
X-1258555D01*
Y-1171206D01*
X-1258695D01*
Y-1171066D01*
X-1258836D01*
Y-1170926D01*
X-1258976D01*
Y-1170785D01*
X-1259116D01*
Y-1170645D01*
X-1259256D01*
Y-1170505D01*
X-1259397D01*
Y-1170364D01*
X-1259537D01*
Y-1170224D01*
X-1259677D01*
Y-1170084D01*
Y-1169943D01*
X-1259818D01*
Y-1169803D01*
X-1259958D01*
Y-1169663D01*
X-1260098D01*
Y-1169522D01*
X-1260239D01*
Y-1169382D01*
X-1260379D01*
Y-1169242D01*
X-1260519D01*
Y-1169101D01*
X-1260660D01*
Y-1168961D01*
X-1260800D01*
Y-1168821D01*
X-1260940D01*
Y-1168680D01*
X-1261081D01*
Y-1168540D01*
X-1261221D01*
Y-1168400D01*
X-1261361D01*
Y-1168260D01*
X-1261502D01*
Y-1168119D01*
X-1261642D01*
Y-1167979D01*
X-1261782D01*
Y-1167839D01*
X-1261923D01*
Y-1167698D01*
X-1262063D01*
Y-1167558D01*
X-1262203D01*
Y-1167418D01*
X-1262344D01*
Y-1167277D01*
X-1262484D01*
Y-1167137D01*
X-1262624D01*
Y-1166997D01*
X-1262765D01*
Y-1166856D01*
X-1262905D01*
Y-1166716D01*
X-1263045D01*
Y-1166576D01*
X-1263186D01*
Y-1166435D01*
X-1263326D01*
Y-1166295D01*
X-1263466D01*
Y-1166155D01*
X-1263606D01*
Y-1166014D01*
X-1263747D01*
Y-1165874D01*
X-1263887D01*
Y-1165734D01*
X-1264027D01*
Y-1165593D01*
X-1264168D01*
Y-1165453D01*
X-1264308D01*
Y-1165313D01*
X-1264448D01*
Y-1165172D01*
X-1264729D01*
Y-1165032D01*
X-1264870D01*
Y-1164892D01*
X-1265010D01*
Y-1164751D01*
X-1265150D01*
Y-1164611D01*
X-1265290D01*
Y-1164471D01*
X-1265431D01*
Y-1164330D01*
X-1265571D01*
Y-1164190D01*
X-1265711D01*
Y-1164050D01*
X-1265852D01*
Y-1163909D01*
X-1265992D01*
Y-1163769D01*
X-1266132D01*
Y-1163629D01*
X-1266273D01*
Y-1163488D01*
X-1266413D01*
Y-1163348D01*
X-1266553D01*
Y-1163208D01*
X-1266694D01*
Y-1163067D01*
X-1266834D01*
Y-1162927D01*
X-1266974D01*
Y-1162787D01*
X-1267115D01*
Y-1162646D01*
X-1267255D01*
Y-1162506D01*
X-1267395D01*
Y-1162366D01*
X-1267535D01*
Y-1162225D01*
X-1267676D01*
Y-1162085D01*
X-1267816D01*
Y-1161945D01*
X-1268097D01*
Y-1161805D01*
X-1268237D01*
Y-1161664D01*
X-1268378D01*
Y-1161524D01*
X-1268518D01*
Y-1161384D01*
X-1268658D01*
Y-1161243D01*
X-1268799D01*
Y-1161103D01*
X-1268939D01*
Y-1160963D01*
X-1269079D01*
Y-1160822D01*
X-1269220D01*
Y-1160682D01*
X-1269360D01*
Y-1160542D01*
X-1269500D01*
Y-1160401D01*
X-1269640D01*
Y-1160261D01*
X-1269781D01*
Y-1160121D01*
X-1269921D01*
Y-1159980D01*
X-1270061D01*
Y-1159840D01*
X-1270202D01*
Y-1159700D01*
X-1270342D01*
Y-1159559D01*
X-1270482D01*
Y-1159419D01*
X-1270623D01*
Y-1159279D01*
X-1270763D01*
Y-1159138D01*
X-1270903D01*
Y-1158998D01*
X-1271044D01*
Y-1158858D01*
X-1271184D01*
Y-1158717D01*
X-1271324D01*
Y-1158577D01*
X-1271465D01*
Y-1158437D01*
X-1271605D01*
Y-1158296D01*
X-1271745D01*
Y-1158156D01*
X-1271886D01*
Y-1158016D01*
X-1272026D01*
Y-1157875D01*
X-1272166D01*
Y-1157735D01*
X-1272307D01*
Y-1157595D01*
X-1272447D01*
Y-1157455D01*
X-1272728D01*
Y-1157314D01*
X-1272868D01*
Y-1157174D01*
X-1273008D01*
Y-1157033D01*
X-1273149D01*
Y-1156893D01*
X-1273289D01*
Y-1156753D01*
X-1273429D01*
Y-1156613D01*
X-1273570D01*
Y-1156472D01*
X-1273710D01*
Y-1156332D01*
X-1273990D01*
Y-1156192D01*
X-1274131D01*
Y-1156051D01*
X-1274271D01*
Y-1155911D01*
X-1274411D01*
Y-1155771D01*
X-1274692D01*
Y-1155630D01*
X-1274833D01*
Y-1155490D01*
X-1274973D01*
Y-1155350D01*
X-1275113D01*
Y-1155209D01*
X-1275394D01*
Y-1155069D01*
X-1275534D01*
Y-1154929D01*
X-1275674D01*
Y-1154788D01*
X-1275815D01*
Y-1154648D01*
X-1276095D01*
Y-1154508D01*
X-1276236D01*
Y-1154367D01*
X-1276516D01*
Y-1154227D01*
X-1276657D01*
Y-1154087D01*
X-1276797D01*
Y-1153946D01*
X-1277078D01*
Y-1153806D01*
X-1277218D01*
Y-1153666D01*
X-1277499D01*
Y-1153525D01*
X-1277639D01*
Y-1153385D01*
X-1277920D01*
Y-1153245D01*
X-1278060D01*
Y-1153104D01*
X-1278341D01*
Y-1152964D01*
X-1278481D01*
Y-1152824D01*
X-1278762D01*
Y-1152683D01*
X-1278902D01*
Y-1152543D01*
X-1279183D01*
Y-1152403D01*
X-1279323D01*
Y-1152262D01*
X-1279604D01*
Y-1152122D01*
X-1279884D01*
Y-1151982D01*
X-1280024D01*
Y-1151842D01*
X-1280305D01*
Y-1151701D01*
X-1280586D01*
Y-1151561D01*
X-1280866D01*
Y-1151421D01*
X-1281007D01*
Y-1151280D01*
X-1281287D01*
Y-1151140D01*
X-1281568D01*
Y-1151000D01*
X-1281849D01*
Y-1150859D01*
X-1282129D01*
Y-1150719D01*
X-1282410D01*
Y-1150579D01*
X-1282691D01*
Y-1150438D01*
X-1282971D01*
Y-1150298D01*
X-1283252D01*
Y-1150158D01*
X-1283533D01*
Y-1150017D01*
X-1283813D01*
Y-1149877D01*
X-1284094D01*
Y-1149737D01*
X-1284375D01*
Y-1149596D01*
X-1284796D01*
Y-1149456D01*
X-1285076D01*
Y-1149316D01*
X-1285357D01*
Y-1149175D01*
X-1285778D01*
Y-1149035D01*
X-1286058D01*
Y-1148895D01*
X-1286479D01*
Y-1148754D01*
X-1286760D01*
Y-1148614D01*
X-1287181D01*
Y-1148474D01*
X-1287602D01*
Y-1148333D01*
X-1287883D01*
Y-1148193D01*
X-1288304D01*
Y-1148053D01*
X-1288725D01*
Y-1147912D01*
X-1289146D01*
Y-1147772D01*
X-1289567D01*
Y-1147632D01*
X-1290128D01*
Y-1147492D01*
X-1290549D01*
Y-1147351D01*
X-1291110D01*
Y-1147211D01*
X-1291531D01*
Y-1147070D01*
X-1292092D01*
Y-1146930D01*
X-1292794D01*
Y-1146790D01*
X-1293355D01*
Y-1146649D01*
X-1294057D01*
Y-1146509D01*
X-1294758D01*
Y-1146369D01*
X-1295600D01*
Y-1146228D01*
X-1296442D01*
Y-1146088D01*
X-1297565D01*
Y-1145948D01*
X-1298828D01*
Y-1145808D01*
X-1300933D01*
Y-1145667D01*
D02*
G37*
G36*
X-1208459Y-1178082D02*
X-1210143D01*
Y-1178223D01*
X-1211265D01*
Y-1178363D01*
X-1211967D01*
Y-1178503D01*
X-1212528D01*
Y-1178643D01*
X-1212949D01*
Y-1178784D01*
X-1213370D01*
Y-1178924D01*
X-1213791D01*
Y-1179064D01*
X-1214072D01*
Y-1179205D01*
X-1214353D01*
Y-1179345D01*
X-1214633D01*
Y-1179485D01*
X-1214914D01*
Y-1179626D01*
X-1215194D01*
Y-1179766D01*
X-1215475D01*
Y-1179906D01*
X-1215615D01*
Y-1180047D01*
X-1215896D01*
Y-1180187D01*
X-1216037D01*
Y-1180327D01*
X-1216317D01*
Y-1180468D01*
X-1216458D01*
Y-1180608D01*
X-1216598D01*
Y-1180748D01*
X-1216738D01*
Y-1180889D01*
X-1217019D01*
Y-1181029D01*
X-1217159D01*
Y-1181169D01*
X-1217299D01*
Y-1181310D01*
X-1217440D01*
Y-1181450D01*
X-1217580D01*
Y-1181590D01*
X-1217720D01*
Y-1181731D01*
X-1217861D01*
Y-1181871D01*
X-1218001D01*
Y-1182011D01*
X-1218141D01*
Y-1182152D01*
X-1218282D01*
Y-1182292D01*
X-1218422D01*
Y-1182432D01*
Y-1182573D01*
X-1218562D01*
Y-1182713D01*
X-1218703D01*
Y-1182853D01*
X-1218843D01*
Y-1182993D01*
X-1218983D01*
Y-1183134D01*
Y-1183274D01*
X-1219124D01*
Y-1183415D01*
X-1219264D01*
Y-1183555D01*
Y-1183695D01*
X-1219404D01*
Y-1183836D01*
X-1219545D01*
Y-1183976D01*
Y-1184116D01*
X-1219685D01*
Y-1184256D01*
Y-1184397D01*
X-1219825D01*
Y-1184537D01*
Y-1184678D01*
X-1219966D01*
Y-1184818D01*
Y-1184958D01*
X-1220106D01*
Y-1185098D01*
Y-1185239D01*
X-1220246D01*
Y-1185379D01*
Y-1185519D01*
X-1220387D01*
Y-1185660D01*
Y-1185800D01*
Y-1185940D01*
X-1220527D01*
Y-1186081D01*
Y-1186221D01*
Y-1186361D01*
X-1220667D01*
Y-1186502D01*
Y-1186642D01*
Y-1186782D01*
X-1220807D01*
Y-1186923D01*
Y-1187063D01*
Y-1187203D01*
Y-1187344D01*
X-1220948D01*
Y-1187484D01*
Y-1187624D01*
Y-1187765D01*
Y-1187905D01*
X-1221088D01*
Y-1188045D01*
Y-1188186D01*
Y-1188326D01*
Y-1188466D01*
Y-1188606D01*
Y-1188747D01*
Y-1188887D01*
Y-1189027D01*
X-1221228D01*
Y-1189168D01*
Y-1189308D01*
Y-1189448D01*
Y-1189589D01*
Y-1189729D01*
Y-1189869D01*
Y-1190010D01*
Y-1190150D01*
Y-1190290D01*
Y-1190431D01*
Y-1190571D01*
Y-1190711D01*
Y-1190852D01*
Y-1190992D01*
Y-1191132D01*
Y-1191273D01*
Y-1191413D01*
Y-1191553D01*
Y-1191694D01*
Y-1191834D01*
X-1221088D01*
Y-1191974D01*
Y-1192115D01*
Y-1192255D01*
Y-1192395D01*
Y-1192536D01*
Y-1192676D01*
Y-1192816D01*
X-1220948D01*
Y-1192957D01*
Y-1193097D01*
Y-1193237D01*
Y-1193378D01*
Y-1193518D01*
X-1220807D01*
Y-1193658D01*
Y-1193799D01*
Y-1193939D01*
X-1220667D01*
Y-1194079D01*
Y-1194220D01*
Y-1194360D01*
X-1220527D01*
Y-1194500D01*
Y-1194641D01*
Y-1194781D01*
X-1220387D01*
Y-1194921D01*
Y-1195061D01*
Y-1195202D01*
X-1220246D01*
Y-1195342D01*
Y-1195482D01*
X-1220106D01*
Y-1195623D01*
Y-1195763D01*
X-1219966D01*
Y-1195903D01*
Y-1196044D01*
X-1219825D01*
Y-1196184D01*
Y-1196324D01*
X-1219685D01*
Y-1196465D01*
Y-1196605D01*
X-1219545D01*
Y-1196745D01*
Y-1196886D01*
X-1219404D01*
Y-1197026D01*
X-1219264D01*
Y-1197166D01*
Y-1197307D01*
X-1219124D01*
Y-1197447D01*
Y-1197587D01*
X-1218983D01*
Y-1197728D01*
X-1218843D01*
Y-1197868D01*
X-1218703D01*
Y-1198008D01*
Y-1198149D01*
X-1218562D01*
Y-1198289D01*
X-1218422D01*
Y-1198429D01*
X-1218282D01*
Y-1198570D01*
X-1218141D01*
Y-1198710D01*
X-1218001D01*
Y-1198850D01*
X-1217861D01*
Y-1198991D01*
Y-1199131D01*
X-1217720D01*
Y-1199271D01*
X-1217580D01*
Y-1199411D01*
X-1217440D01*
Y-1199552D01*
X-1217159D01*
Y-1199692D01*
X-1217019D01*
Y-1199833D01*
X-1216878D01*
Y-1199973D01*
X-1216738D01*
Y-1200113D01*
X-1216598D01*
Y-1200254D01*
X-1216458D01*
Y-1200394D01*
X-1216177D01*
Y-1200534D01*
X-1216037D01*
Y-1200675D01*
X-1215896D01*
Y-1200815D01*
X-1215615D01*
Y-1200955D01*
X-1215335D01*
Y-1201095D01*
X-1215194D01*
Y-1201236D01*
X-1214914D01*
Y-1201376D01*
X-1214633D01*
Y-1201516D01*
X-1214353D01*
Y-1201657D01*
X-1214072D01*
Y-1201797D01*
X-1213791D01*
Y-1201937D01*
X-1213511D01*
Y-1202078D01*
X-1213090D01*
Y-1202218D01*
X-1212669D01*
Y-1202358D01*
X-1212248D01*
Y-1202499D01*
X-1211686D01*
Y-1202639D01*
X-1210985D01*
Y-1202779D01*
X-1210003D01*
Y-1202920D01*
X-1208599D01*
Y-1202779D01*
X-1207617D01*
Y-1202639D01*
X-1206915D01*
Y-1202499D01*
X-1206354D01*
Y-1202358D01*
X-1205933D01*
Y-1202218D01*
X-1205512D01*
Y-1202078D01*
X-1205231D01*
Y-1201937D01*
X-1204810D01*
Y-1201797D01*
X-1204530D01*
Y-1201657D01*
X-1204249D01*
Y-1201516D01*
X-1203969D01*
Y-1201376D01*
X-1203688D01*
Y-1201236D01*
X-1203548D01*
Y-1201095D01*
X-1203267D01*
Y-1200955D01*
X-1202986D01*
Y-1200815D01*
X-1202846D01*
Y-1200675D01*
X-1202565D01*
Y-1200534D01*
X-1202425D01*
Y-1200394D01*
X-1202285D01*
Y-1200254D01*
X-1202004D01*
Y-1200113D01*
X-1201864D01*
Y-1199973D01*
X-1201723D01*
Y-1199833D01*
X-1201583D01*
Y-1199692D01*
X-1201443D01*
Y-1199552D01*
X-1201302D01*
Y-1199411D01*
X-1201162D01*
Y-1199271D01*
X-1201022D01*
Y-1199131D01*
X-1200881D01*
Y-1198991D01*
X-1200741D01*
Y-1198850D01*
X-1200601D01*
Y-1198710D01*
X-1200460D01*
Y-1198570D01*
X-1200320D01*
Y-1198429D01*
X-1200180D01*
Y-1198289D01*
Y-1198149D01*
X-1200040D01*
Y-1198008D01*
X-1199899D01*
Y-1197868D01*
X-1199759D01*
Y-1197728D01*
Y-1197587D01*
X-1199619D01*
Y-1197447D01*
X-1199478D01*
Y-1197307D01*
X-1199338D01*
Y-1197166D01*
Y-1197026D01*
X-1199197D01*
Y-1196886D01*
Y-1196745D01*
X-1199057D01*
Y-1196605D01*
X-1198917D01*
Y-1196465D01*
Y-1196324D01*
X-1198777D01*
Y-1196184D01*
Y-1196044D01*
X-1198636D01*
Y-1195903D01*
Y-1195763D01*
X-1198496D01*
Y-1195623D01*
Y-1195482D01*
Y-1195342D01*
X-1198356D01*
Y-1195202D01*
Y-1195061D01*
X-1198215D01*
Y-1194921D01*
Y-1194781D01*
Y-1194641D01*
X-1198075D01*
Y-1194500D01*
Y-1194360D01*
Y-1194220D01*
X-1197935D01*
Y-1194079D01*
Y-1193939D01*
Y-1193799D01*
X-1197794D01*
Y-1193658D01*
Y-1193518D01*
Y-1193378D01*
Y-1193237D01*
X-1197654D01*
Y-1193097D01*
Y-1192957D01*
Y-1192816D01*
Y-1192676D01*
Y-1192536D01*
X-1197514D01*
Y-1192395D01*
Y-1192255D01*
Y-1192115D01*
Y-1191974D01*
Y-1191834D01*
Y-1191694D01*
Y-1191553D01*
Y-1191413D01*
Y-1191273D01*
Y-1191132D01*
X-1197373D01*
Y-1190992D01*
Y-1190852D01*
Y-1190711D01*
Y-1190571D01*
Y-1190431D01*
Y-1190290D01*
Y-1190150D01*
X-1197514D01*
Y-1190010D01*
Y-1189869D01*
Y-1189729D01*
Y-1189589D01*
Y-1189448D01*
Y-1189308D01*
Y-1189168D01*
Y-1189027D01*
Y-1188887D01*
Y-1188747D01*
Y-1188606D01*
Y-1188466D01*
Y-1188326D01*
Y-1188186D01*
X-1197654D01*
Y-1188045D01*
Y-1187905D01*
Y-1187765D01*
Y-1187624D01*
Y-1187484D01*
X-1197794D01*
Y-1187344D01*
Y-1187203D01*
Y-1187063D01*
Y-1186923D01*
X-1197935D01*
Y-1186782D01*
Y-1186642D01*
Y-1186502D01*
X-1198075D01*
Y-1186361D01*
Y-1186221D01*
Y-1186081D01*
X-1198215D01*
Y-1185940D01*
Y-1185800D01*
Y-1185660D01*
X-1198356D01*
Y-1185519D01*
Y-1185379D01*
X-1198496D01*
Y-1185239D01*
Y-1185098D01*
Y-1184958D01*
X-1198636D01*
Y-1184818D01*
Y-1184678D01*
X-1198777D01*
Y-1184537D01*
Y-1184397D01*
X-1198917D01*
Y-1184256D01*
X-1199057D01*
Y-1184116D01*
Y-1183976D01*
X-1199197D01*
Y-1183836D01*
Y-1183695D01*
X-1199338D01*
Y-1183555D01*
X-1199478D01*
Y-1183415D01*
Y-1183274D01*
X-1199619D01*
Y-1183134D01*
X-1199759D01*
Y-1182993D01*
X-1199899D01*
Y-1182853D01*
Y-1182713D01*
X-1200040D01*
Y-1182573D01*
X-1200180D01*
Y-1182432D01*
X-1200320D01*
Y-1182292D01*
X-1200460D01*
Y-1182152D01*
Y-1182011D01*
X-1200601D01*
Y-1181871D01*
X-1200741D01*
Y-1181731D01*
X-1200881D01*
Y-1181590D01*
X-1201022D01*
Y-1181450D01*
X-1201162D01*
Y-1181310D01*
X-1201302D01*
Y-1181169D01*
X-1201583D01*
Y-1181029D01*
X-1201723D01*
Y-1180889D01*
X-1201864D01*
Y-1180748D01*
X-1202004D01*
Y-1180608D01*
X-1202144D01*
Y-1180468D01*
X-1202425D01*
Y-1180327D01*
X-1202565D01*
Y-1180187D01*
X-1202846D01*
Y-1180047D01*
X-1202986D01*
Y-1179906D01*
X-1203267D01*
Y-1179766D01*
X-1203407D01*
Y-1179626D01*
X-1203688D01*
Y-1179485D01*
X-1203969D01*
Y-1179345D01*
X-1204249D01*
Y-1179205D01*
X-1204530D01*
Y-1179064D01*
X-1204951D01*
Y-1178924D01*
X-1205231D01*
Y-1178784D01*
X-1205652D01*
Y-1178643D01*
X-1206073D01*
Y-1178503D01*
X-1206635D01*
Y-1178363D01*
X-1207336D01*
Y-1178223D01*
X-1208459D01*
Y-1178082D01*
D02*
G37*
%LPD*%
D10*
X-310000Y2270000D02*
G03*
X-300000Y2280000I0J10000D01*
G01*
X-365000Y2260000D02*
G03*
X-355000Y2250000I10000J0D01*
G01*
Y2270000D02*
G03*
X-365000Y2260000I0J-10000D01*
G01*
X-310000Y2250000D02*
G03*
X-280000Y2280000I0J30000D01*
G01*
X-280000Y2370000D02*
G03*
X-290000Y2380000I-10000J0D01*
G01*
D02*
G03*
X-300000Y2370000I0J-10000D01*
G01*
X195000Y-740000D02*
G03*
X205000Y-750000I10000J0D01*
G01*
X195000Y-665000D02*
G03*
X185000Y-655000I-10000J0D01*
G01*
X-5000D02*
G03*
X-15000Y-665000I0J-10000D01*
G01*
X-488000Y-102000D02*
G03*
X-498000Y-92000I-10000J0D01*
G01*
X-606000Y-129000D02*
G03*
X-570261Y-101576I0J37000D01*
G01*
X-688000Y-261000D02*
G03*
X-678000Y-271000I10000J0D01*
G01*
Y-129000D02*
G03*
X-688000Y-139000I0J-10000D01*
G01*
X-560250Y-92000D02*
G03*
X-569457Y-98838I0J-9618D01*
G01*
X-498000Y-271000D02*
G03*
X-488000Y-261000I0J10000D01*
G01*
X-25000Y-750000D02*
G03*
X-15000Y-740000I0J10000D01*
G01*
X-1100000Y-1350000D02*
G03*
X-1060000Y-1310000I0J40000D01*
G01*
X-260000Y-750000D02*
G03*
X-300000Y-790000I0J-40000D01*
G01*
X-340000Y-1050000D02*
G03*
X-300000Y-1010000I0J40000D01*
G01*
X-1020000Y-1050000D02*
G03*
X-1060000Y-1090000I0J-40000D01*
G01*
X-1489035Y-121285D02*
G03*
X-1485500Y-112750I-8536J8536D01*
G01*
X-1496465Y-128714D02*
G03*
X-1500000Y-137250I8536J-8536D01*
G01*
Y-62250D02*
G03*
X-1496465Y-70785I12071J0D01*
G01*
X-1485500Y-86750D02*
G03*
X-1489035Y-78214I-12071J0D01*
G01*
X-360000Y2410000D02*
G03*
X-400000Y2370000I0J-40000D01*
G01*
X-440000Y2140000D02*
G03*
X-400000Y2180000I0J40000D01*
G01*
X-1460000Y2140000D02*
G03*
X-1500000Y2100000I0J-40000D01*
G01*
X400000Y2180000D02*
G03*
X440000Y2140000I40000J0D01*
G01*
X400000Y2370000D02*
G03*
X360000Y2410000I-40000J0D01*
G01*
X1500000Y2100000D02*
G03*
X1460000Y2140000I-40000J0D01*
G01*
X-1500000Y-1310000D02*
G03*
X-1460000Y-1350000I40000J0D01*
G01*
X1420000Y-790000D02*
G03*
X1380000Y-750000I-40000J0D01*
G01*
X1420000Y-800000D02*
G03*
X1500000Y-800000I40000J0D01*
G01*
X-355000Y2250000D02*
X-310000Y2250000D01*
X-355000Y2270000D02*
X-310000Y2270000D01*
X-280000Y2280000D02*
X-280000Y2370000D01*
X-300000Y2280000D02*
X-300000Y2370000D01*
X-678000Y-271000D02*
X-498000D01*
X-488000Y-261000D02*
Y-190000D01*
X-688000D02*
Y-139000D01*
X-678000Y-129000D02*
X-606000D01*
X-488000Y-190000D02*
Y-102000D01*
X-560250Y-92000D02*
X-498000D01*
X-570261Y-101576D02*
X-569457Y-98838D01*
X-688000Y-261000D02*
Y-190000D01*
X-5000Y-655000D02*
X90000D01*
X185000D01*
X195000Y-740000D02*
Y-665000D01*
X-15000Y-740000D02*
Y-665000D01*
X-300000Y-1010000D02*
Y-790000D01*
X-1020000Y-1050000D02*
X-340000Y-1050000D01*
X-1060000Y-1310000D02*
Y-1090000D01*
X-1485500Y-99750D02*
Y-86750D01*
Y-112750D02*
Y-99750D01*
X-1496464Y-128715D02*
X-1489036Y-121286D01*
X-1496464Y-70785D02*
X-1489036Y-78214D01*
X-400000Y2180000D02*
Y2370000D01*
X-360000Y2410000D02*
X360000D01*
X-1460000Y2140000D02*
X-440000Y2140000D01*
X400000Y2180000D02*
Y2370000D01*
X440000Y2140000D02*
X1460000Y2140000D01*
X-1500000Y-137250D02*
X-1500000Y-1310000D01*
X-1460000Y-1350000D02*
X-1100000D01*
X-260000Y-750000D02*
X-25000Y-750000D01*
X205000Y-750000D02*
X1380000Y-750000D01*
X1420000Y-800000D02*
Y-790000D01*
X1499999Y-800000D02*
X1500000Y2100000D01*
X-1500000Y-62250D02*
Y2100000D01*
D19*
X1352000Y1953500D02*
D03*
Y1986500D02*
D03*
X1303000Y1953500D02*
D03*
Y1986500D02*
D03*
Y1970000D02*
D03*
X1352000D02*
D03*
X1204500Y1953500D02*
D03*
Y1986500D02*
D03*
X1155500Y1953500D02*
D03*
Y1986500D02*
D03*
Y1970000D02*
D03*
X1204500D02*
D03*
X1057000Y1953500D02*
D03*
Y1986500D02*
D03*
X1008000Y1953500D02*
D03*
Y1986500D02*
D03*
Y1970000D02*
D03*
X1057000D02*
D03*
X909500Y1953500D02*
D03*
Y1986500D02*
D03*
X860500Y1953500D02*
D03*
Y1986500D02*
D03*
Y1970000D02*
D03*
X909500D02*
D03*
X762000Y1953500D02*
D03*
Y1986500D02*
D03*
X713000Y1953500D02*
D03*
Y1986500D02*
D03*
Y1970000D02*
D03*
X762000D02*
D03*
X614500Y1953500D02*
D03*
Y1986500D02*
D03*
X565500Y1953500D02*
D03*
Y1986500D02*
D03*
Y1970000D02*
D03*
X614500D02*
D03*
X467000Y1953500D02*
D03*
Y1986500D02*
D03*
X418000Y1953500D02*
D03*
Y1986500D02*
D03*
Y1970000D02*
D03*
X467000D02*
D03*
X319500Y1953500D02*
D03*
Y1986500D02*
D03*
X270500Y1953500D02*
D03*
Y1986500D02*
D03*
Y1970000D02*
D03*
X319500D02*
D03*
X172000Y1953500D02*
D03*
Y1986500D02*
D03*
X123000Y1953500D02*
D03*
Y1986500D02*
D03*
Y1970000D02*
D03*
X172000D02*
D03*
X24500Y1953500D02*
D03*
Y1986500D02*
D03*
X-24500Y1953500D02*
D03*
Y1986500D02*
D03*
Y1970000D02*
D03*
X24500D02*
D03*
X-123000Y1953500D02*
D03*
Y1986500D02*
D03*
X-172000Y1953500D02*
D03*
Y1986500D02*
D03*
Y1970000D02*
D03*
X-123000D02*
D03*
X-270500Y1953500D02*
D03*
Y1986500D02*
D03*
X-319500Y1953500D02*
D03*
Y1986500D02*
D03*
Y1970000D02*
D03*
X-270500D02*
D03*
X-418000Y1953500D02*
D03*
Y1986500D02*
D03*
X-467000Y1953500D02*
D03*
Y1986500D02*
D03*
Y1970000D02*
D03*
X-418000D02*
D03*
X-565500Y1953500D02*
D03*
Y1986500D02*
D03*
X-614500Y1953500D02*
D03*
Y1986500D02*
D03*
Y1970000D02*
D03*
X-565500D02*
D03*
X-713000Y1953500D02*
D03*
Y1986500D02*
D03*
X-762000Y1953500D02*
D03*
Y1986500D02*
D03*
Y1970000D02*
D03*
X-713000D02*
D03*
X-860500Y1953500D02*
D03*
Y1986500D02*
D03*
X-909500Y1953500D02*
D03*
Y1986500D02*
D03*
Y1970000D02*
D03*
X-860500D02*
D03*
X-1008000Y1953500D02*
D03*
Y1986500D02*
D03*
X-1057000Y1953500D02*
D03*
Y1986500D02*
D03*
Y1970000D02*
D03*
X-1008000D02*
D03*
X-1155500Y1953500D02*
D03*
Y1986500D02*
D03*
X-1204500Y1953500D02*
D03*
Y1986500D02*
D03*
Y1970000D02*
D03*
X-1155500D02*
D03*
X-1303000Y1953500D02*
D03*
Y1986500D02*
D03*
X-1352000Y1953500D02*
D03*
Y1986500D02*
D03*
Y1970000D02*
D03*
X-1303000D02*
D03*
X1352000Y355000D02*
D03*
X1303000D02*
D03*
Y371500D02*
D03*
Y338500D02*
D03*
X1352000Y371500D02*
D03*
Y338500D02*
D03*
X1204500Y355000D02*
D03*
X1155500D02*
D03*
Y371500D02*
D03*
Y338500D02*
D03*
X1204500Y371500D02*
D03*
Y338500D02*
D03*
X1057000Y355000D02*
D03*
X1008000D02*
D03*
Y371500D02*
D03*
Y338500D02*
D03*
X1057000Y371500D02*
D03*
Y338500D02*
D03*
X909500Y355000D02*
D03*
X860500D02*
D03*
Y371500D02*
D03*
Y338500D02*
D03*
X909500Y371500D02*
D03*
Y338500D02*
D03*
X762000Y355000D02*
D03*
X713000D02*
D03*
Y371500D02*
D03*
Y338500D02*
D03*
X762000Y371500D02*
D03*
Y338500D02*
D03*
X614500Y355000D02*
D03*
X565500D02*
D03*
Y371500D02*
D03*
Y338500D02*
D03*
X614500Y371500D02*
D03*
Y338500D02*
D03*
X467000Y355000D02*
D03*
X418000D02*
D03*
Y371500D02*
D03*
Y338500D02*
D03*
X467000Y371500D02*
D03*
Y338500D02*
D03*
X319500Y355000D02*
D03*
X270500D02*
D03*
Y371500D02*
D03*
Y338500D02*
D03*
X319500Y371500D02*
D03*
Y338500D02*
D03*
X172000Y355000D02*
D03*
X123000D02*
D03*
Y371500D02*
D03*
Y338500D02*
D03*
X172000Y371500D02*
D03*
Y338500D02*
D03*
X24500Y355000D02*
D03*
X-24500D02*
D03*
Y371500D02*
D03*
Y338500D02*
D03*
X24500Y371500D02*
D03*
Y338500D02*
D03*
X-123000Y355000D02*
D03*
X-172000D02*
D03*
Y371500D02*
D03*
Y338500D02*
D03*
X-123000Y371500D02*
D03*
Y338500D02*
D03*
X-270500Y355000D02*
D03*
X-319500D02*
D03*
Y371500D02*
D03*
Y338500D02*
D03*
X-270500Y371500D02*
D03*
Y338500D02*
D03*
X-418000Y355000D02*
D03*
X-467000D02*
D03*
Y371500D02*
D03*
Y338500D02*
D03*
X-418000Y371500D02*
D03*
Y338500D02*
D03*
X-565500Y355000D02*
D03*
X-614500D02*
D03*
Y371500D02*
D03*
Y338500D02*
D03*
X-565500Y371500D02*
D03*
Y338500D02*
D03*
X-713000Y355000D02*
D03*
X-762000D02*
D03*
Y371500D02*
D03*
Y338500D02*
D03*
X-713000Y371500D02*
D03*
Y338500D02*
D03*
X-860500Y355000D02*
D03*
X-909500D02*
D03*
Y371500D02*
D03*
Y338500D02*
D03*
X-860500Y371500D02*
D03*
Y338500D02*
D03*
X-1008000Y355000D02*
D03*
X-1057000D02*
D03*
Y371500D02*
D03*
Y338500D02*
D03*
X-1008000Y371500D02*
D03*
Y338500D02*
D03*
X-1155500Y355000D02*
D03*
X-1204500D02*
D03*
Y371500D02*
D03*
Y338500D02*
D03*
X-1155500Y371500D02*
D03*
Y338500D02*
D03*
X-1303000Y355000D02*
D03*
X-1352000D02*
D03*
Y371500D02*
D03*
Y338500D02*
D03*
X-1303000Y371500D02*
D03*
Y338500D02*
D03*
D20*
X1319880Y1932500D02*
D03*
X1335120D02*
D03*
X1172380D02*
D03*
X1187620D02*
D03*
X1024880D02*
D03*
X1040120D02*
D03*
X877380D02*
D03*
X892620D02*
D03*
X729880D02*
D03*
X745120D02*
D03*
X582380D02*
D03*
X597620D02*
D03*
X434880D02*
D03*
X450120D02*
D03*
X287380D02*
D03*
X302620D02*
D03*
X139880D02*
D03*
X155120D02*
D03*
X-7620D02*
D03*
X7620D02*
D03*
X-155120D02*
D03*
X-139880D02*
D03*
X-302620D02*
D03*
X-287380D02*
D03*
X-450120D02*
D03*
X-434880D02*
D03*
X-597620D02*
D03*
X-582380D02*
D03*
X-745120D02*
D03*
X-729880D02*
D03*
X-892620D02*
D03*
X-877380D02*
D03*
X-1040120D02*
D03*
X-1024880D02*
D03*
X-1187620D02*
D03*
X-1172380D02*
D03*
X-1335120D02*
D03*
X-1319880D02*
D03*
X-1335120Y317500D02*
D03*
X-1319880D02*
D03*
X1335120D02*
D03*
X1319880D02*
D03*
X1187620D02*
D03*
X1172380D02*
D03*
X1040120D02*
D03*
X1024880D02*
D03*
X892620D02*
D03*
X877380D02*
D03*
X745120D02*
D03*
X729880D02*
D03*
X597620D02*
D03*
X582380D02*
D03*
X450120D02*
D03*
X434880D02*
D03*
X302620D02*
D03*
X287380D02*
D03*
X155120D02*
D03*
X139880D02*
D03*
X7620D02*
D03*
X-7620D02*
D03*
X-139880D02*
D03*
X-155120D02*
D03*
X-287380D02*
D03*
X-302620D02*
D03*
X-434880D02*
D03*
X-450120D02*
D03*
X-582380D02*
D03*
X-597620D02*
D03*
X-729880D02*
D03*
X-745120D02*
D03*
X-877380D02*
D03*
X-892620D02*
D03*
X-1024880D02*
D03*
X-1040120D02*
D03*
X-1172380D02*
D03*
X-1187620D02*
D03*
D21*
X140000Y2085000D02*
D03*
X-140000D02*
D03*
X140000Y2365000D02*
D03*
X-140000D02*
D03*
X-860000Y-565000D02*
D03*
X-1190000D02*
D03*
Y-85000D02*
D03*
X-860000D02*
D03*
X-208000Y-617250D02*
D03*
X372000D02*
D03*
Y-127250D02*
D03*
X-208000D02*
D03*
X-610000Y-681000D02*
D03*
X530000D02*
D03*
X-610000Y-91000D02*
D03*
X530000D02*
D03*
D22*
X-27000Y2351000D02*
D03*
X-47000D02*
D03*
X-67000D02*
D03*
D23*
X-87000D02*
D03*
D24*
X162500Y-560000D02*
D03*
X17500D02*
D03*
D25*
X162500Y-619600D02*
D03*
X17500D02*
D03*
D26*
X-1415000Y-577500D02*
D03*
Y-722500D02*
D03*
D27*
X-1474600Y-577500D02*
D03*
Y-722500D02*
D03*
D28*
X-363100Y2200000D02*
D03*
X-1245000Y-1300100D02*
D03*
X63500Y-20000D02*
D03*
X-348700Y-790000D02*
D03*
D29*
X-337700Y2200000D02*
D03*
X-312300D02*
D03*
X-286900D02*
D03*
X-1315000Y-1300100D02*
D03*
X-1290000D02*
D03*
X-1270000D02*
D03*
X-63500Y-20000D02*
D03*
X-38100D02*
D03*
X-12700D02*
D03*
X12700D02*
D03*
X38100D02*
D03*
X-730110Y-1020750D02*
D03*
X-831300Y-790000D02*
D03*
X-805900D02*
D03*
X-780500D02*
D03*
X-755100D02*
D03*
X-729700D02*
D03*
X-704300D02*
D03*
X-374100D02*
D03*
X-399500D02*
D03*
X-424900D02*
D03*
X-450300D02*
D03*
X-634110Y-803500D02*
D03*
D30*
X-1080850Y2074500D02*
D03*
X-343350D02*
D03*
X394150D02*
D03*
X1131650D02*
D03*
D31*
X-1106250D02*
D03*
X-1131650D02*
D03*
X-368750D02*
D03*
X-394150D02*
D03*
X368750D02*
D03*
X343350D02*
D03*
X1106250D02*
D03*
X1080850D02*
D03*
D32*
X-1385000Y-184000D02*
D03*
X-742300Y-762600D02*
D03*
X-425000Y-760000D02*
D03*
X-715000Y-535000D02*
D03*
X87500Y-224750D02*
D03*
X339500Y-225000D02*
D03*
Y-210000D02*
D03*
X1450000Y-600000D02*
D03*
Y-585000D02*
D03*
X-1395000Y-73000D02*
D03*
X-1287500Y-184000D02*
D03*
Y-290000D02*
D03*
Y-305000D02*
D03*
X550000Y-476000D02*
D03*
Y-581000D02*
D03*
X-80500Y-225000D02*
D03*
Y-210000D02*
D03*
X87500Y-209750D02*
D03*
X550000Y-521000D02*
D03*
Y-566000D02*
D03*
Y-506000D02*
D03*
Y-551000D02*
D03*
X87500Y-194750D02*
D03*
X550000Y-491000D02*
D03*
Y-536000D02*
D03*
D33*
X-1472500Y-113500D02*
D03*
Y-83500D02*
D03*
X-1449700Y-253900D02*
D03*
Y-196100D02*
D03*
X957500Y-375500D02*
D03*
Y-514500D02*
D03*
X597500Y-415500D02*
D03*
Y-554500D02*
D03*
Y-160500D02*
D03*
Y-299500D02*
D03*
X957500Y-160500D02*
D03*
Y-299500D02*
D03*
X1077500Y-160500D02*
D03*
Y-299500D02*
D03*
Y-415500D02*
D03*
Y-554500D02*
D03*
X1437500Y-375500D02*
D03*
Y-514500D02*
D03*
Y-160500D02*
D03*
Y-299500D02*
D03*
X1180000Y475000D02*
D03*
X885000D02*
D03*
X590000D02*
D03*
X295000D02*
D03*
X0D02*
D03*
X-295000D02*
D03*
X-590000D02*
D03*
X-885000D02*
D03*
X-1180000Y475000D02*
D03*
X1327500Y1850000D02*
D03*
X1032500D02*
D03*
X737500D02*
D03*
X442500D02*
D03*
X147500D02*
D03*
X-147500D02*
D03*
X-442500D02*
D03*
X-737500D02*
D03*
X-1032500D02*
D03*
X-1327500D02*
D03*
D34*
X-1486500Y-181800D02*
D03*
Y-268200D02*
D03*
D35*
X-1444700Y-181800D02*
D03*
Y-268200D02*
D03*
D36*
X-1417200Y-359300D02*
D03*
Y-490700D02*
D03*
X-1214300Y-1327200D02*
D03*
X-1345700D02*
D03*
X-360700Y-115800D02*
D03*
Y-247200D02*
D03*
D37*
X-1390100Y-460000D02*
D03*
X-333600Y-216500D02*
D03*
D38*
X-1390100Y-435000D02*
D03*
Y-415000D02*
D03*
Y-390000D02*
D03*
X-333600Y-191500D02*
D03*
Y-171500D02*
D03*
Y-146500D02*
D03*
D39*
X-1460000Y-1025000D02*
D03*
D40*
X342500Y2357000D02*
D03*
X317500D02*
D03*
X292500D02*
D03*
X1342500Y-678000D02*
D03*
X1317500D02*
D03*
X1292500D02*
D03*
X1267500D02*
D03*
X1242500D02*
D03*
D41*
X267500Y2357000D02*
D03*
X1217500Y-678000D02*
D03*
D42*
X-934600Y-950000D02*
D03*
D43*
X-985400D02*
D03*
D44*
X-1255000Y-955000D02*
D03*
X-1305000D02*
D03*
D45*
X-1255000Y-1100000D02*
D03*
X-1280000D02*
D03*
X-1305000D02*
D03*
D46*
X-1335000Y-1025000D02*
D03*
X-1225000D02*
D03*
D47*
X1485000Y-765000D02*
D03*
Y2065000D02*
D03*
X-1485000D02*
D03*
Y-1275000D02*
D03*
D48*
X177800Y2225000D02*
D03*
X-177800D02*
D03*
X450000Y-710000D02*
D03*
X-450000D02*
D03*
X450000Y0D02*
D03*
X-1460000Y2100000D02*
D03*
X1460000D02*
D03*
X-450000D02*
D03*
X450000D02*
D03*
X-450000Y0D02*
D03*
X-1460000Y-1310000D02*
D03*
X1460000Y0D02*
D03*
X-1460000D02*
D03*
Y-800000D02*
D03*
X1460000D02*
D03*
D49*
X-1130000Y1800000D02*
D03*
X-1230000D02*
D03*
X-1130000Y1630000D02*
D03*
X-1230000D02*
D03*
X-1130000Y1460000D02*
D03*
X-1230000D02*
D03*
X-1130000Y1290000D02*
D03*
X-1230000D02*
D03*
X-1130000Y1120000D02*
D03*
X-1230000D02*
D03*
X-1130000Y950000D02*
D03*
X-1230000D02*
D03*
X-1130000Y780000D02*
D03*
X-1230000D02*
D03*
X-1130000Y610000D02*
D03*
X-1230000D02*
D03*
X-1377500Y1715000D02*
D03*
X-1277500D02*
D03*
X-1377500Y1545000D02*
D03*
X-1277500D02*
D03*
X-1377500Y1375000D02*
D03*
X-1277500D02*
D03*
X-1377500Y1205000D02*
D03*
X-1277500D02*
D03*
X-1377500Y1035000D02*
D03*
X-1277500D02*
D03*
X-1377500Y865000D02*
D03*
X-1277500D02*
D03*
X-1377500Y695000D02*
D03*
X-1277500D02*
D03*
X-1377500Y525000D02*
D03*
X-1277500D02*
D03*
X687500D02*
D03*
X787500D02*
D03*
X687500Y865000D02*
D03*
X787500D02*
D03*
X687500Y1715000D02*
D03*
X787500D02*
D03*
X-787500Y525000D02*
D03*
X-687500D02*
D03*
X-787500Y695000D02*
D03*
X-687500D02*
D03*
X-787500Y865000D02*
D03*
X-687500D02*
D03*
X-787500Y1035000D02*
D03*
X-687500D02*
D03*
X-787500Y1205000D02*
D03*
X-687500D02*
D03*
X-787500Y1375000D02*
D03*
X-687500D02*
D03*
X-787500Y1545000D02*
D03*
X-687500D02*
D03*
X-787500Y1715000D02*
D03*
X-687500D02*
D03*
X-640000Y610000D02*
D03*
X-540000D02*
D03*
X-640000Y780000D02*
D03*
X-540000D02*
D03*
X-640000Y950000D02*
D03*
X-540000D02*
D03*
X-640000Y1120000D02*
D03*
X-540000D02*
D03*
X-640000Y1290000D02*
D03*
X-540000D02*
D03*
X-640000Y1460000D02*
D03*
X-540000D02*
D03*
X-640000Y1630000D02*
D03*
X-540000D02*
D03*
X-640000Y1800000D02*
D03*
X-540000D02*
D03*
X-492500Y525000D02*
D03*
X-392500D02*
D03*
X-492500Y695000D02*
D03*
X-392500D02*
D03*
X-492500Y865000D02*
D03*
X-392500D02*
D03*
X-492500Y1035000D02*
D03*
X-392500D02*
D03*
X-492500Y1205000D02*
D03*
X-392500D02*
D03*
X-492500Y1375000D02*
D03*
X-392500D02*
D03*
X-492500Y1545000D02*
D03*
X-392500D02*
D03*
X-492500Y1715000D02*
D03*
X-392500D02*
D03*
X-345000Y610000D02*
D03*
X-245000D02*
D03*
X-345000Y780000D02*
D03*
X-245000D02*
D03*
X-345000Y950000D02*
D03*
X-245000D02*
D03*
X-345000Y1120000D02*
D03*
X-245000D02*
D03*
X-345000Y1290000D02*
D03*
X-245000D02*
D03*
X-345000Y1460000D02*
D03*
X-245000D02*
D03*
X-345000Y1630000D02*
D03*
X-245000D02*
D03*
X-345000Y1800000D02*
D03*
X-245000D02*
D03*
X-197500Y525000D02*
D03*
X-97500D02*
D03*
X-197500Y695000D02*
D03*
X-97500D02*
D03*
X-197500Y865000D02*
D03*
X-97500D02*
D03*
X-197500Y1035000D02*
D03*
X-97500D02*
D03*
X-197500Y1205000D02*
D03*
X-97500D02*
D03*
X-197500Y1375000D02*
D03*
X-97500D02*
D03*
X-197500Y1545000D02*
D03*
X-97500D02*
D03*
X-197500Y1715000D02*
D03*
X-97500D02*
D03*
X-50000Y610000D02*
D03*
X50000D02*
D03*
X-50000Y780000D02*
D03*
X50000D02*
D03*
X-50000Y950000D02*
D03*
X50000D02*
D03*
X-50000Y1120000D02*
D03*
X50000D02*
D03*
X-50000Y1290000D02*
D03*
X50000D02*
D03*
X-50000Y1460000D02*
D03*
X50000D02*
D03*
X-50000Y1630000D02*
D03*
X50000D02*
D03*
X-50000Y1800000D02*
D03*
X50000D02*
D03*
X97500Y525000D02*
D03*
X197500D02*
D03*
X97500Y695000D02*
D03*
X197500D02*
D03*
X97500Y865000D02*
D03*
X197500D02*
D03*
X97500Y1035000D02*
D03*
X197500D02*
D03*
X97500Y1205000D02*
D03*
X197500D02*
D03*
X97500Y1375000D02*
D03*
X197500D02*
D03*
X97500Y1545000D02*
D03*
X197500D02*
D03*
X97500Y1715000D02*
D03*
X197500D02*
D03*
X245000Y610000D02*
D03*
X345000D02*
D03*
X245000Y780000D02*
D03*
X345000D02*
D03*
X245000Y950000D02*
D03*
X345000D02*
D03*
X245000Y1120000D02*
D03*
X345000D02*
D03*
X245000Y1290000D02*
D03*
X345000D02*
D03*
X245000Y1460000D02*
D03*
X345000D02*
D03*
X245000Y1630000D02*
D03*
X345000D02*
D03*
X245000Y1800000D02*
D03*
X345000D02*
D03*
X392500Y525000D02*
D03*
X492500D02*
D03*
X392500Y695000D02*
D03*
X492500D02*
D03*
X392500Y865000D02*
D03*
X492500D02*
D03*
X392500Y1035000D02*
D03*
X492500D02*
D03*
X392500Y1205000D02*
D03*
X492500D02*
D03*
X392500Y1375000D02*
D03*
X492500D02*
D03*
X392500Y1545000D02*
D03*
X492500D02*
D03*
X392500Y1715000D02*
D03*
X492500D02*
D03*
X540000Y610000D02*
D03*
X640000D02*
D03*
X540000Y780000D02*
D03*
X640000D02*
D03*
X540000Y950000D02*
D03*
X640000D02*
D03*
X540000Y1120000D02*
D03*
X640000D02*
D03*
X540000Y1290000D02*
D03*
X640000D02*
D03*
X540000Y1460000D02*
D03*
X640000D02*
D03*
X540000Y1630000D02*
D03*
X640000D02*
D03*
X540000Y1800000D02*
D03*
X640000D02*
D03*
X-1082500Y865000D02*
D03*
X-982500D02*
D03*
X-1082500Y1715000D02*
D03*
X-982500D02*
D03*
X1130000Y780000D02*
D03*
X1230000D02*
D03*
X1130000Y950000D02*
D03*
X1230000D02*
D03*
X1130000Y1800000D02*
D03*
X1230000D02*
D03*
X835000Y780000D02*
D03*
X935000D02*
D03*
X835000Y950000D02*
D03*
X935000D02*
D03*
X835000Y1800000D02*
D03*
X935000D02*
D03*
X1277500Y525000D02*
D03*
X1377500D02*
D03*
X1277500Y865000D02*
D03*
X1377500D02*
D03*
X1277500Y1715000D02*
D03*
X1377500D02*
D03*
X982500Y525000D02*
D03*
X1082500D02*
D03*
X982500Y865000D02*
D03*
X1082500D02*
D03*
X982500Y1715000D02*
D03*
X1082500D02*
D03*
X-935000Y610000D02*
D03*
X-835000D02*
D03*
X-935000Y780000D02*
D03*
X-835000D02*
D03*
X-935000Y950000D02*
D03*
X-835000D02*
D03*
X-935000Y1800000D02*
D03*
X-835000D02*
D03*
X-935000Y1120000D02*
D03*
X-835000D02*
D03*
X-935000Y1290000D02*
D03*
X-835000D02*
D03*
X-935000Y1460000D02*
D03*
X-835000D02*
D03*
X-935000Y1630000D02*
D03*
X-835000D02*
D03*
X687500Y695000D02*
D03*
X787500D02*
D03*
X687500Y1035000D02*
D03*
X787500D02*
D03*
X687500Y1205000D02*
D03*
X787500D02*
D03*
X687500Y1375000D02*
D03*
X787500D02*
D03*
X687500Y1545000D02*
D03*
X787500D02*
D03*
X835000Y610000D02*
D03*
X935000D02*
D03*
X835000Y1120000D02*
D03*
X935000D02*
D03*
X835000Y1290000D02*
D03*
X935000D02*
D03*
X835000Y1460000D02*
D03*
X935000D02*
D03*
X835000Y1630000D02*
D03*
X935000D02*
D03*
X-1082500Y525000D02*
D03*
X-982500D02*
D03*
X-1082500Y695000D02*
D03*
X-982500D02*
D03*
X-1082500Y1035000D02*
D03*
X-982500D02*
D03*
X-1082500Y1205000D02*
D03*
X-982500D02*
D03*
X-1082500Y1375000D02*
D03*
X-982500D02*
D03*
X-1082500Y1545000D02*
D03*
X-982500D02*
D03*
X982500Y695000D02*
D03*
X1082500D02*
D03*
X982500Y1035000D02*
D03*
X1082500D02*
D03*
X982500Y1205000D02*
D03*
X1082500D02*
D03*
X982500Y1375000D02*
D03*
X1082500D02*
D03*
X982500Y1545000D02*
D03*
X1082500D02*
D03*
X1130000Y610000D02*
D03*
X1230000D02*
D03*
X1130000Y1120000D02*
D03*
X1230000D02*
D03*
X1130000Y1290000D02*
D03*
X1230000D02*
D03*
X1130000Y1460000D02*
D03*
X1230000D02*
D03*
X1130000Y1630000D02*
D03*
X1230000D02*
D03*
X1277500Y695000D02*
D03*
X1377500D02*
D03*
X1277500Y1035000D02*
D03*
X1377500D02*
D03*
X1277500Y1205000D02*
D03*
X1377500D02*
D03*
X1277500Y1375000D02*
D03*
X1377500D02*
D03*
X1277500Y1545000D02*
D03*
X1377500D02*
D03*
M02*
