G04*
G04 #@! TF.GenerationSoftware,Altium Limited,Altium Designer,22.2.1 (43)*
G04*
G04 Layer_Physical_Order=1*
G04 Layer_Color=255*
%FSLAX44Y44*%
%MOMM*%
G71*
G04*
G04 #@! TF.SameCoordinates,B242430B-52BB-43DD-A0E7-0EA7797FDCDA*
G04*
G04*
G04 #@! TF.FilePolarity,Positive*
G04*
G01*
G75*
%ADD15C,0.2540*%
%ADD16R,0.8890X0.6350*%
%ADD17R,1.5700X1.5550*%
%ADD18R,0.6350X0.8890*%
%ADD19R,1.8000X2.0000*%
%ADD20O,0.6000X2.2000*%
%ADD29C,0.3810*%
%ADD30C,0.5588*%
%ADD31O,2.0000X1.5000*%
%ADD32R,2.0000X1.5000*%
%ADD33C,1.5000*%
G36*
X-120650Y136284D02*
X-100775D01*
X-100289Y135110D01*
X-109258Y126142D01*
X-111800Y126476D01*
X-116800D01*
X-119951Y126061D01*
X-122313Y125083D01*
X-123583Y125809D01*
Y133350D01*
X-123606Y133462D01*
X-123401Y134490D01*
X-122756Y135456D01*
X-121790Y136102D01*
X-120762Y136306D01*
X-120650Y136284D01*
D02*
G37*
G36*
X47780Y121950D02*
X47294Y120777D01*
X41783D01*
Y107275D01*
X41224Y107022D01*
X40005Y107864D01*
Y110490D01*
X34290D01*
Y111760D01*
D01*
Y110490D01*
X28575D01*
Y106031D01*
X27406Y105877D01*
X25564Y105114D01*
X23982Y103900D01*
X22768Y102319D01*
X22597Y101906D01*
X21164Y101764D01*
X20676Y102494D01*
X18844Y103719D01*
X17952Y103896D01*
Y90500D01*
X16682D01*
Y89230D01*
X11034D01*
Y82500D01*
X11464Y80338D01*
X12688Y78506D01*
X14521Y77281D01*
X15551Y77077D01*
X15426Y75806D01*
X9017D01*
Y86487D01*
X-9017D01*
X-9288Y87645D01*
Y101072D01*
X-16256D01*
Y102743D01*
X-15113D01*
Y120777D01*
X-38481D01*
Y125476D01*
X44255D01*
X47780Y121950D01*
D02*
G37*
G36*
X-73025Y113030D02*
X-67310D01*
Y110490D01*
X-73025D01*
Y106031D01*
X-74194Y105877D01*
X-76036Y105114D01*
X-77618Y103900D01*
X-78832Y102319D01*
X-79003Y101906D01*
X-80436Y101764D01*
X-80924Y102494D01*
X-82756Y103719D01*
X-83648Y103896D01*
Y90500D01*
X-84918D01*
D01*
X-83648D01*
Y77104D01*
X-82756Y77281D01*
X-80924Y78506D01*
X-80436Y79236D01*
X-79003Y79094D01*
X-78832Y78681D01*
X-78174Y77824D01*
Y69629D01*
X-101286D01*
X-103190Y72110D01*
X-105712Y74045D01*
X-108649Y75261D01*
X-110914Y75560D01*
Y76841D01*
X-108649Y77139D01*
X-105712Y78355D01*
X-103190Y80290D01*
X-101255Y82812D01*
X-100039Y85749D01*
X-99624Y88900D01*
X-99908Y91058D01*
X-94848Y96118D01*
X-93557Y98051D01*
X-93104Y100330D01*
Y114373D01*
X-88973Y118504D01*
X-73025D01*
Y113030D01*
D02*
G37*
G36*
X121790Y136102D02*
X122756Y135456D01*
X123401Y134490D01*
X123606Y133462D01*
X123583Y133350D01*
Y0D01*
Y-28060D01*
X115570D01*
Y-38100D01*
X114300D01*
D01*
X115570D01*
Y-48140D01*
X123583D01*
Y-51991D01*
X122313Y-52717D01*
X119951Y-51739D01*
X116800Y-51324D01*
X111800D01*
X108649Y-51739D01*
X105712Y-52955D01*
X103190Y-54890D01*
X102284Y-56070D01*
X76454D01*
Y-40835D01*
X80870Y-36420D01*
X82301Y-34277D01*
X82526Y-33147D01*
X85217D01*
Y-31541D01*
X86578Y-31270D01*
X88721Y-29839D01*
X91030Y-27530D01*
X92461Y-25387D01*
X92964Y-22860D01*
Y7425D01*
X99920Y14380D01*
X101351Y16523D01*
X101854Y19050D01*
Y54610D01*
X101351Y57137D01*
X99920Y59280D01*
X96110Y63090D01*
X93967Y64521D01*
X91440Y65024D01*
X43357D01*
X42871Y66197D01*
X46294Y69620D01*
X46294Y69620D01*
X47585Y71553D01*
X48039Y73832D01*
Y76764D01*
X49309Y77195D01*
X49382Y77100D01*
X50964Y75886D01*
X52806Y75123D01*
X54782Y74863D01*
X56759Y75123D01*
X58601Y75886D01*
X60183Y77100D01*
X61396Y78681D01*
X62159Y80523D01*
X62420Y82500D01*
Y98500D01*
X62159Y100477D01*
X61881Y101148D01*
X62616Y102248D01*
X62715Y102743D01*
X72136D01*
Y101072D01*
X65168D01*
Y71928D01*
X92312D01*
Y101072D01*
X85344D01*
Y102743D01*
X86487D01*
Y120777D01*
X63119D01*
Y122555D01*
X62616Y125082D01*
X61185Y127225D01*
X53299Y135110D01*
X53785Y136284D01*
X120650D01*
X120762Y136306D01*
X121790Y136102D01*
D02*
G37*
G36*
X25613Y56542D02*
X24713Y55642D01*
X23281Y53499D01*
X22778Y50972D01*
Y50967D01*
X21508Y50341D01*
X20501Y51114D01*
X18659Y51877D01*
X16682Y52137D01*
X14705Y51877D01*
X12864Y51114D01*
X11282Y49900D01*
X10068Y48319D01*
X9305Y46477D01*
X9045Y44500D01*
Y28500D01*
X9305Y26523D01*
X10068Y24681D01*
X10078Y24668D01*
Y21418D01*
X10581Y18891D01*
X12012Y16748D01*
X13870Y14890D01*
X13384Y13717D01*
X12978D01*
Y7974D01*
X11530D01*
X9003Y7471D01*
X6860Y6040D01*
X2950Y2130D01*
X1519Y-13D01*
X1041Y-2413D01*
X-1397D01*
Y-17907D01*
Y-33147D01*
X1041D01*
X1519Y-35547D01*
X2950Y-37690D01*
X6860Y-41600D01*
X9003Y-43031D01*
X11530Y-43534D01*
X12978D01*
Y-44993D01*
X12432Y-45539D01*
X11000Y-47682D01*
X10682Y-49282D01*
X10068Y-50081D01*
X9305Y-51923D01*
X9045Y-53900D01*
Y-69900D01*
X9305Y-71877D01*
X10068Y-73719D01*
X11282Y-75300D01*
X12864Y-76514D01*
X14705Y-77277D01*
X16682Y-77537D01*
X18659Y-77277D01*
X20501Y-76514D01*
X22083Y-75300D01*
X23296Y-73719D01*
X23467Y-73306D01*
X24901Y-73165D01*
X25388Y-73894D01*
X27221Y-75119D01*
X28112Y-75296D01*
Y-61900D01*
X30652D01*
Y-75296D01*
X31544Y-75119D01*
X33376Y-73894D01*
X33864Y-73165D01*
X35297Y-73306D01*
X35468Y-73719D01*
X36682Y-75300D01*
X38264Y-76514D01*
X40106Y-77277D01*
X42082Y-77537D01*
X44059Y-77277D01*
X45901Y-76514D01*
X46214Y-76274D01*
X47353Y-76836D01*
Y-83110D01*
X42643Y-87820D01*
X22860D01*
X20937Y-88074D01*
X19145Y-88816D01*
X17607Y-89997D01*
X11429Y-96174D01*
X10248Y-97713D01*
X9506Y-99505D01*
X9253Y-101428D01*
Y-106322D01*
X9045Y-107900D01*
Y-123900D01*
X9305Y-125877D01*
X9849Y-127190D01*
X9151Y-128460D01*
X-39388D01*
Y-125478D01*
X-39181Y-123900D01*
Y-107900D01*
X-39441Y-105923D01*
X-40204Y-104081D01*
X-41417Y-102500D01*
X-42999Y-101286D01*
X-44841Y-100523D01*
X-46139Y-100352D01*
X-46594Y-99011D01*
X-43913Y-96330D01*
X-35043D01*
X-32812Y-98560D01*
X-30060Y-100149D01*
X-26989Y-100972D01*
X-23811D01*
X-20740Y-100149D01*
X-17988Y-98560D01*
X-15740Y-96312D01*
X-14151Y-93560D01*
X-13328Y-90489D01*
Y-87311D01*
X-14151Y-84240D01*
X-15740Y-81488D01*
X-17988Y-79240D01*
X-18796Y-78773D01*
Y-33147D01*
X-16383D01*
Y-31541D01*
X-15022Y-31270D01*
X-12879Y-29839D01*
X-10570Y-27530D01*
X-9139Y-25387D01*
X-8636Y-22860D01*
Y7425D01*
X-410Y15650D01*
X1021Y17793D01*
X1524Y20320D01*
Y53340D01*
X1021Y55867D01*
X534Y56596D01*
X1133Y57716D01*
X25127D01*
X25613Y56542D01*
D02*
G37*
G36*
X65168Y29483D02*
Y25928D01*
X72136D01*
Y23055D01*
X71530Y22450D01*
X70099Y20307D01*
X69596Y17780D01*
Y2182D01*
X68381Y1814D01*
X68170Y2130D01*
X64260Y6040D01*
X62117Y7471D01*
X59590Y7974D01*
X58142D01*
Y13717D01*
X52324D01*
Y17780D01*
X51854Y20142D01*
X52240Y20655D01*
X52803Y21124D01*
X52806Y21123D01*
X54782Y20863D01*
X56759Y21123D01*
X58601Y21886D01*
X60183Y23100D01*
X61396Y24681D01*
X62159Y26523D01*
X62420Y28500D01*
Y29999D01*
X63898Y30294D01*
X65168Y29483D01*
D02*
G37*
G36*
X-36432D02*
Y25928D01*
X-29464D01*
Y23055D01*
X-30070Y22450D01*
X-31501Y20307D01*
X-32004Y17780D01*
Y2182D01*
X-33219Y1814D01*
X-33430Y2130D01*
X-37340Y6040D01*
X-39483Y7471D01*
X-42010Y7974D01*
X-43458D01*
Y13717D01*
X-49276D01*
Y17780D01*
X-49746Y20142D01*
X-49360Y20655D01*
X-48797Y21124D01*
X-48794Y21123D01*
X-46818Y20863D01*
X-44841Y21123D01*
X-42999Y21886D01*
X-41417Y23100D01*
X-40204Y24681D01*
X-39441Y26523D01*
X-39181Y28500D01*
Y29999D01*
X-37702Y30294D01*
X-36432Y29483D01*
D02*
G37*
G36*
X54483Y-17907D02*
Y-24583D01*
X16637D01*
Y-17907D01*
Y-10977D01*
X54483D01*
Y-17907D01*
D02*
G37*
G36*
X-47117D02*
Y-24583D01*
X-84963D01*
Y-17907D01*
Y-10977D01*
X-47117D01*
Y-17907D01*
D02*
G37*
G36*
X103190Y-72110D02*
X105712Y-74045D01*
X108649Y-75261D01*
X110914Y-75560D01*
Y-76841D01*
X108649Y-77139D01*
X105712Y-78355D01*
X103190Y-80290D01*
X102284Y-81470D01*
X98543D01*
X96312Y-79240D01*
X93560Y-77651D01*
X90489Y-76828D01*
X87311D01*
X84240Y-77651D01*
X81488Y-79240D01*
X79240Y-81488D01*
X77651Y-84240D01*
X76828Y-87311D01*
Y-90489D01*
X77651Y-93560D01*
X79240Y-96312D01*
X81488Y-98560D01*
X84240Y-100149D01*
X87311Y-100972D01*
X90489D01*
X93560Y-100149D01*
X96312Y-98560D01*
X98543Y-96330D01*
X102284D01*
X103190Y-97510D01*
X105712Y-99445D01*
X108649Y-100661D01*
X110914Y-100960D01*
Y-102240D01*
X108649Y-102539D01*
X105712Y-103755D01*
X103190Y-105690D01*
X102284Y-106870D01*
X96520D01*
X94597Y-107124D01*
X92805Y-107866D01*
X91266Y-109046D01*
X71853Y-128460D01*
X62212D01*
Y-125478D01*
X62420Y-123900D01*
Y-107900D01*
X62159Y-105923D01*
X61396Y-104081D01*
X60183Y-102500D01*
X58601Y-101286D01*
X56759Y-100523D01*
X54782Y-100263D01*
X52806Y-100523D01*
X52711Y-100562D01*
X51992Y-99485D01*
X60036Y-91441D01*
X61216Y-89903D01*
X61959Y-88111D01*
X62212Y-86188D01*
Y-71478D01*
X62284Y-70930D01*
X102284D01*
X103190Y-72110D01*
D02*
G37*
G36*
X-32004Y-37742D02*
Y-78773D01*
X-32812Y-79240D01*
X-35043Y-81470D01*
X-39388D01*
Y-71478D01*
X-39181Y-69900D01*
Y-53900D01*
X-39441Y-51923D01*
X-40204Y-50081D01*
X-41417Y-48500D01*
X-42999Y-47286D01*
X-43458Y-47096D01*
Y-43534D01*
X-42010D01*
X-39483Y-43031D01*
X-37340Y-41600D01*
X-33430Y-37690D01*
X-33219Y-37374D01*
X-32004Y-37742D01*
D02*
G37*
G36*
X103190Y-122910D02*
X105712Y-124845D01*
X108649Y-126061D01*
X111800Y-126476D01*
X116800D01*
X119951Y-126061D01*
X122313Y-125083D01*
X123583Y-125809D01*
Y-133350D01*
X123606Y-133462D01*
X123401Y-134490D01*
X122756Y-135456D01*
X121790Y-136102D01*
X120762Y-136306D01*
X120650Y-136284D01*
X86703D01*
X86217Y-135110D01*
X99597Y-121730D01*
X102284D01*
X103190Y-122910D01*
D02*
G37*
G36*
X-113030Y28060D02*
X-105016D01*
Y22987D01*
X-106807D01*
Y4953D01*
X-97486D01*
X-97000Y3780D01*
X-98650Y2130D01*
X-100081Y-13D01*
X-100559Y-2413D01*
X-102997D01*
Y-17907D01*
Y-33147D01*
X-100559D01*
X-100081Y-35547D01*
X-98650Y-37690D01*
X-94740Y-41600D01*
X-92597Y-43031D01*
X-90070Y-43534D01*
X-88622D01*
Y-44993D01*
X-89168Y-45539D01*
X-90600Y-47682D01*
X-90918Y-49282D01*
X-91532Y-50081D01*
X-92295Y-51923D01*
X-92555Y-53900D01*
Y-69900D01*
X-92295Y-71877D01*
X-91532Y-73719D01*
X-90318Y-75300D01*
X-88736Y-76514D01*
X-86895Y-77277D01*
X-84918Y-77537D01*
X-82941Y-77277D01*
X-81099Y-76514D01*
X-79517Y-75300D01*
X-78304Y-73719D01*
X-78133Y-73306D01*
X-76700Y-73165D01*
X-76212Y-73894D01*
X-74379Y-75119D01*
X-73488Y-75296D01*
Y-61900D01*
X-70948D01*
Y-75296D01*
X-70056Y-75119D01*
X-68224Y-73894D01*
X-67736Y-73165D01*
X-66303Y-73306D01*
X-66132Y-73719D01*
X-64918Y-75300D01*
X-63336Y-76514D01*
X-61494Y-77277D01*
X-59518Y-77537D01*
X-57541Y-77277D01*
X-55699Y-76514D01*
X-55386Y-76274D01*
X-54247Y-76836D01*
Y-85650D01*
X-56417Y-87820D01*
X-78740D01*
X-80663Y-88074D01*
X-82455Y-88816D01*
X-83994Y-89997D01*
X-90171Y-96174D01*
X-91352Y-97713D01*
X-92094Y-99505D01*
X-92347Y-101428D01*
Y-106322D01*
X-92555Y-107900D01*
Y-123900D01*
X-92295Y-125877D01*
X-91532Y-127719D01*
X-90318Y-129300D01*
X-88736Y-130514D01*
X-86895Y-131277D01*
X-84918Y-131537D01*
X-82941Y-131277D01*
X-81099Y-130514D01*
X-79517Y-129300D01*
X-79203Y-128890D01*
X-77933D01*
X-77618Y-129300D01*
X-76036Y-130514D01*
X-74194Y-131277D01*
X-72218Y-131537D01*
X-70241Y-131277D01*
X-68399Y-130514D01*
X-68086Y-130274D01*
X-66947Y-130836D01*
Y-130982D01*
X-66694Y-132905D01*
X-65952Y-134697D01*
X-65709Y-135014D01*
X-66335Y-136284D01*
X-120650D01*
X-120762Y-136306D01*
X-121790Y-136102D01*
X-122756Y-135456D01*
X-123401Y-134490D01*
X-123606Y-133462D01*
X-123583Y-133350D01*
Y0D01*
Y28060D01*
X-115570D01*
Y38100D01*
X-113030D01*
Y28060D01*
D02*
G37*
%LPC*%
G36*
X40005Y118745D02*
X35560D01*
Y113030D01*
X40005D01*
Y118745D01*
D02*
G37*
G36*
X33020D02*
X28575D01*
Y113030D01*
X33020D01*
Y118745D01*
D02*
G37*
G36*
X6985Y99695D02*
X1270D01*
Y95250D01*
X6985D01*
Y99695D01*
D02*
G37*
G36*
X-1270D02*
X-6985D01*
Y95250D01*
X-1270D01*
Y99695D01*
D02*
G37*
G36*
X15412Y103896D02*
X14521Y103719D01*
X12688Y102494D01*
X11464Y100662D01*
X11034Y98500D01*
Y91770D01*
X15412D01*
Y103896D01*
D02*
G37*
G36*
X6985Y92710D02*
X1270D01*
Y88265D01*
X6985D01*
Y92710D01*
D02*
G37*
G36*
X-1270D02*
X-6985D01*
Y88265D01*
X-1270D01*
Y92710D01*
D02*
G37*
G36*
X-86188Y103896D02*
X-87079Y103719D01*
X-88912Y102494D01*
X-90136Y100662D01*
X-90566Y98500D01*
Y91770D01*
X-86188D01*
Y103896D01*
D02*
G37*
G36*
Y89230D02*
X-90566D01*
Y82500D01*
X-90136Y80338D01*
X-88912Y78506D01*
X-87079Y77281D01*
X-86188Y77104D01*
Y89230D01*
D02*
G37*
G36*
X113030Y-28060D02*
X101760D01*
Y-36830D01*
X113030D01*
Y-28060D01*
D02*
G37*
G36*
Y-39370D02*
X101760D01*
Y-48140D01*
X113030D01*
Y-39370D01*
D02*
G37*
G36*
X-108585Y20955D02*
X-113030D01*
Y15240D01*
X-108585D01*
Y20955D01*
D02*
G37*
G36*
X-115570D02*
X-120015D01*
Y15240D01*
X-115570D01*
Y20955D01*
D02*
G37*
G36*
X-108585Y12700D02*
X-113030D01*
Y6985D01*
X-108585D01*
Y12700D01*
D02*
G37*
G36*
X-115570D02*
X-120015D01*
Y6985D01*
X-115570D01*
Y12700D01*
D02*
G37*
%LPD*%
D15*
X-99060Y100330D02*
Y116840D01*
X-114300Y88900D02*
X-110490D01*
X-99060Y100330D01*
X-114300Y63672D02*
X-72218D01*
X-99060Y13970D02*
Y63500D01*
Y116840D02*
X-91440Y124460D01*
X-65369D01*
X-59518Y118609D01*
X0Y69850D02*
X22860D01*
X-54610D02*
X0D01*
Y78740D01*
X-59518Y90500D02*
Y118609D01*
X-59690Y74930D02*
X-54610Y69850D01*
X-59690Y74930D02*
Y90328D01*
X-72218Y63672D02*
X31922D01*
X42082Y73832D01*
X22860Y69850D02*
X27942Y74932D01*
X-72218Y63672D02*
Y90500D01*
X42082Y73832D02*
Y90500D01*
X-59690Y90328D02*
X-59518Y90500D01*
X27942Y74932D02*
X29382Y76372D01*
X27942Y74932D02*
Y74932D01*
X29382Y76372D02*
Y90500D01*
X120650Y-146050D02*
G03*
X133350Y-133350I0J12700D01*
G01*
X-133350D02*
G03*
X-120650Y-146050I12700J-0D01*
G01*
X133350Y133350D02*
G03*
X120650Y146050I-12700J0D01*
G01*
X-120650D02*
G03*
X-133350Y133350I0J-12700D01*
G01*
X133350Y-133350D02*
Y0D01*
X0Y-146050D02*
X120650D01*
X-120650D02*
X0D01*
X-133350Y-133350D02*
Y0D01*
X133350D02*
Y133350D01*
X0Y146050D02*
X120650D01*
X-120650D02*
X0D01*
X-133350Y0D02*
Y133350D01*
D16*
X-38100Y-10160D02*
D03*
Y-25400D02*
D03*
X-25400D02*
D03*
Y-10160D02*
D03*
X-93980D02*
D03*
Y-25400D02*
D03*
X76200D02*
D03*
Y-10160D02*
D03*
X63500D02*
D03*
Y-25400D02*
D03*
X0Y78740D02*
D03*
Y93980D02*
D03*
X7620Y-10160D02*
D03*
Y-25400D02*
D03*
D17*
X25400Y1370D02*
D03*
Y-36930D02*
D03*
X45720Y1370D02*
D03*
Y-36930D02*
D03*
X-76200Y1370D02*
D03*
Y-36930D02*
D03*
X-55880Y1370D02*
D03*
Y-36930D02*
D03*
D18*
X-38100Y111760D02*
D03*
X-22860D02*
D03*
X-67310D02*
D03*
X-52070D02*
D03*
X63500D02*
D03*
X78740D02*
D03*
X34290D02*
D03*
X49530D02*
D03*
X-99060Y13970D02*
D03*
X-114300D02*
D03*
D19*
X-22860Y40500D02*
D03*
Y86500D02*
D03*
X78740Y40500D02*
D03*
Y86500D02*
D03*
D20*
X-84918Y36500D02*
D03*
X-72218Y90500D02*
D03*
X-46818D02*
D03*
X-72218Y36500D02*
D03*
X-59518D02*
D03*
X-46818D02*
D03*
X-84918Y90500D02*
D03*
X-59518D02*
D03*
X-84918Y-115900D02*
D03*
X-72218Y-61900D02*
D03*
X-46818D02*
D03*
X-72218Y-115900D02*
D03*
X-59518D02*
D03*
X-46818D02*
D03*
X-84918Y-61900D02*
D03*
X-59518D02*
D03*
X16682Y36500D02*
D03*
X29382Y90500D02*
D03*
X54782D02*
D03*
X29382Y36500D02*
D03*
X42082D02*
D03*
X54782D02*
D03*
X16682Y90500D02*
D03*
X42082D02*
D03*
X16682Y-115900D02*
D03*
X29382Y-61900D02*
D03*
X54782D02*
D03*
X29382Y-115900D02*
D03*
X42082D02*
D03*
X54782D02*
D03*
X16682Y-61900D02*
D03*
X42082D02*
D03*
D29*
X105410Y-10160D02*
Y101600D01*
X95250Y111760D02*
X105410Y101600D01*
Y-10160D02*
X114300Y-19050D01*
Y-38100D02*
Y-19050D01*
X106205Y-32505D02*
X111800Y-38100D01*
X95250Y19050D02*
Y54610D01*
X36830Y58420D02*
X91440D01*
X95250Y54610D01*
X86360Y10160D02*
X95250Y19050D01*
X5166Y111760D02*
X16682D01*
X-6350D02*
X5166D01*
X0Y100330D02*
X5166Y105496D01*
Y111760D01*
X0Y93980D02*
Y100330D01*
X-6350Y110283D02*
Y111760D01*
X-107950Y-63500D02*
Y-1270D01*
X-77470Y-82550D02*
X-72218Y-77298D01*
X-107950Y-77470D02*
X-102870Y-82550D01*
X-77470D01*
X-107950Y-77470D02*
Y-63500D01*
X-6350D02*
Y-38100D01*
Y-77470D02*
Y-63500D01*
X-1270Y-82550D02*
X24130D01*
X-6350Y-77470D02*
X-1270Y-82550D01*
X69850Y-63500D02*
Y-38100D01*
X76200Y-31750D01*
Y-25400D01*
X-114300Y5080D02*
X-107950Y-1270D01*
X-114300Y5080D02*
Y13970D01*
Y38100D01*
X-46818Y-88728D02*
X-46646Y-88900D01*
X54782Y-62488D02*
X55794Y-63500D01*
X54782Y-62488D02*
Y-61900D01*
X-45085Y132080D02*
X46990D01*
X-93980D02*
X-45085D01*
X16682Y111760D02*
X34290D01*
X56515D02*
Y122555D01*
X46990Y132080D02*
X56515Y122555D01*
X-45085Y111760D02*
Y132080D01*
X-111760Y114300D02*
X-93980Y132080D01*
X-114300Y114300D02*
X-111760D01*
X49530Y111760D02*
X56515D01*
X63500D01*
X54864Y103124D02*
X56515Y104775D01*
X54864Y90581D02*
Y103124D01*
X56515Y104775D02*
Y111760D01*
X54782Y90500D02*
X54864Y90581D01*
X-46818Y90500D02*
X-46736Y90581D01*
X-45085Y104775D02*
Y111760D01*
X-46736Y90581D02*
Y103124D01*
X-45085Y104775D01*
Y111760D02*
X-38100D01*
X-52070D02*
X-45085D01*
X-8890Y57150D02*
X-5080Y53340D01*
X-66040Y57150D02*
X-8890D01*
X-5080Y20320D02*
Y53340D01*
X-15240Y10160D02*
X-5080Y20320D01*
X-72218Y50972D02*
X-66040Y57150D01*
X42082Y21418D02*
X45720Y17780D01*
X42082Y21418D02*
Y36500D01*
X45720Y1370D02*
Y17780D01*
X16682Y21418D02*
Y36500D01*
X25400Y1370D02*
Y12700D01*
X16682Y21418D02*
X25400Y12700D01*
X66040Y40640D02*
X78600D01*
X54782Y36500D02*
X61900D01*
X66040Y40640D01*
X59590Y1370D02*
X63500Y-2540D01*
Y-10160D02*
Y-2540D01*
X45720Y1370D02*
X59590D01*
X45720Y-36930D02*
X59590D01*
X63500Y-33020D02*
Y-25400D01*
X59590Y-36930D02*
X63500Y-33020D01*
X11530Y1370D02*
X25400D01*
X7620Y-10160D02*
Y-2540D01*
X11530Y1370D01*
Y-36930D02*
X25400D01*
X7620Y-33020D02*
Y-25400D01*
Y-33020D02*
X11530Y-36930D01*
X42082Y-40568D02*
X45720Y-36930D01*
X42082Y-61900D02*
Y-40568D01*
X17101Y-61481D02*
Y-50209D01*
X16682Y-61900D02*
X17101Y-61481D01*
Y-50209D02*
X20320Y-46990D01*
Y-42010D01*
X25400Y-36930D01*
X29382Y-96348D02*
X30480Y-95250D01*
X76200Y-10160D02*
Y17780D01*
X78740Y20320D01*
Y40500D01*
X78600Y40640D02*
X78740Y40500D01*
X24130Y-82550D02*
X29382Y-77298D01*
Y36500D02*
Y50972D01*
X36830Y58420D01*
X84051Y-25169D02*
X86360Y-22860D01*
X76431Y-25169D02*
X84051D01*
X76200Y-25400D02*
X76431Y-25169D01*
X86360Y-22860D02*
Y10160D01*
X78740Y86500D02*
Y111760D01*
X16682Y90500D02*
Y111760D01*
X-84918Y90500D02*
Y111760D01*
X-67310D01*
X-22860Y86500D02*
Y111760D01*
X-15240Y-22860D02*
Y10160D01*
X-25400Y-25400D02*
X-25169Y-25169D01*
X-17549D01*
X-15240Y-22860D01*
X-72218Y36500D02*
Y50972D01*
X-23000Y40640D02*
X-22860Y40500D01*
Y20320D02*
Y40500D01*
X-25400Y17780D02*
X-22860Y20320D01*
X-25400Y-10160D02*
Y17780D01*
Y-88900D02*
Y-25400D01*
X-72218Y-96348D02*
X-71120Y-95250D01*
X-81280Y-42010D02*
X-76200Y-36930D01*
X-81280Y-46990D02*
Y-42010D01*
X-84499Y-50209D02*
X-81280Y-46990D01*
X-84918Y-61900D02*
X-84499Y-61481D01*
Y-50209D01*
X-59518Y-61900D02*
Y-40568D01*
X-55880Y-36930D01*
X-93980Y-33020D02*
X-90070Y-36930D01*
X-93980Y-33020D02*
Y-25400D01*
X-90070Y-36930D02*
X-76200D01*
X-93980Y-2540D02*
X-90070Y1370D01*
X-93980Y-10160D02*
Y-2540D01*
X-90070Y1370D02*
X-76200D01*
X-42010Y-36930D02*
X-38100Y-33020D01*
Y-25400D01*
X-55880Y-36930D02*
X-42010D01*
X-55880Y1370D02*
X-42010D01*
X-38100Y-10160D02*
Y-2540D01*
X-42010Y1370D02*
X-38100Y-2540D01*
X-39700Y36500D02*
X-35560Y40640D01*
X-46818Y36500D02*
X-39700D01*
X-35560Y40640D02*
X-23000D01*
X-84918Y21418D02*
X-76200Y12700D01*
Y1370D02*
Y12700D01*
X-84918Y21418D02*
Y36500D01*
X-55880Y1370D02*
Y17780D01*
X-59518Y21418D02*
Y36500D01*
Y21418D02*
X-55880Y17780D01*
D30*
X88900Y-38100D02*
X111800D01*
X-72218Y-77298D02*
Y-61900D01*
X55794Y-63500D02*
X69850D01*
X-46646Y-88900D02*
X-25400D01*
X-46818Y-88728D02*
Y-61900D01*
X-53340Y-95250D02*
X-46818Y-88728D01*
X-71120Y-95250D02*
X-53340D01*
X88900Y-88900D02*
X114300D01*
X69850Y-63500D02*
X114300D01*
X54782Y-86188D02*
Y-62488D01*
X-46990Y-135890D02*
X41910D01*
X-54610D02*
X-46990D01*
X-46818Y-135718D01*
Y-115900D01*
X41910Y-135890D02*
X54610D01*
X41910D02*
X42082Y-135718D01*
Y-115900D01*
X54610Y-135890D02*
X74930D01*
X54610D02*
X54782Y-135718D01*
Y-115900D01*
X74930Y-135890D02*
X96520Y-114300D01*
X114300D01*
X-59518Y-130982D02*
Y-115900D01*
Y-130982D02*
X-54610Y-135890D01*
X16682Y-115900D02*
Y-101428D01*
X22860Y-95250D01*
X45720D02*
X54782Y-86188D01*
X29382Y-115900D02*
Y-96348D01*
X22860Y-95250D02*
X30480D01*
X45720D01*
X29382Y-77298D02*
Y-61900D01*
X-78740Y-95250D02*
X-71120D01*
X-72218Y-115900D02*
Y-96348D01*
X-84918Y-101428D02*
X-78740Y-95250D01*
X-84918Y-115900D02*
Y-101428D01*
D31*
X114300Y-114300D02*
D03*
Y-88900D02*
D03*
Y-63500D02*
D03*
X-114300Y114300D02*
D03*
Y88900D02*
D03*
Y63500D02*
D03*
D32*
X114300Y-38100D02*
D03*
X-114300Y38100D02*
D03*
D33*
X95250Y111760D02*
D03*
X16682D02*
D03*
X-6350D02*
D03*
X-107950Y-63500D02*
D03*
X-6350D02*
D03*
Y-38100D02*
D03*
X88900D02*
D03*
X-25400Y-88900D02*
D03*
X88900D02*
D03*
X-84918Y111760D02*
D03*
M02*
