G04*
G04 #@! TF.GenerationSoftware,Altium Limited,Altium Designer,22.2.1 (43)*
G04*
G04 Layer_Color=8388736*
%FSLAX44Y44*%
%MOMM*%
G71*
G04*
G04 #@! TF.SameCoordinates,B242430B-52BB-43DD-A0E7-0EA7797FDCDA*
G04*
G04*
G04 #@! TF.FilePolarity,Negative*
G04*
G01*
G75*
%ADD15C,0.2540*%
%ADD21R,1.0922X0.8382*%
%ADD22R,1.7732X1.7582*%
%ADD23R,0.8382X1.0922*%
%ADD24R,2.0032X2.2032*%
%ADD25O,0.8032X2.4032*%
%ADD26O,2.2032X1.7032*%
%ADD27R,2.2032X1.7032*%
%ADD28C,1.7032*%
D15*
X120650Y-146050D02*
G03*
X133350Y-133350I0J12700D01*
G01*
X-133350D02*
G03*
X-120650Y-146050I12700J-0D01*
G01*
X133350Y133350D02*
G03*
X120650Y146050I-12700J0D01*
G01*
X-120650D02*
G03*
X-133350Y133350I0J-12700D01*
G01*
X133350Y-133350D02*
Y0D01*
X0Y-146050D02*
X120650D01*
X-120650D02*
X0D01*
X-133350Y-133350D02*
Y0D01*
X133350D02*
Y133350D01*
X0Y146050D02*
X120650D01*
X-120650D02*
X0D01*
X-133350Y0D02*
Y133350D01*
D21*
X-38100Y-10160D02*
D03*
Y-25400D02*
D03*
X-25400D02*
D03*
Y-10160D02*
D03*
X-93980D02*
D03*
Y-25400D02*
D03*
X76200D02*
D03*
Y-10160D02*
D03*
X63500D02*
D03*
Y-25400D02*
D03*
X0Y78740D02*
D03*
Y93980D02*
D03*
X7620Y-10160D02*
D03*
Y-25400D02*
D03*
D22*
X25400Y1370D02*
D03*
Y-36930D02*
D03*
X45720Y1370D02*
D03*
Y-36930D02*
D03*
X-76200Y1370D02*
D03*
Y-36930D02*
D03*
X-55880Y1370D02*
D03*
Y-36930D02*
D03*
D23*
X-38100Y111760D02*
D03*
X-22860D02*
D03*
X-67310D02*
D03*
X-52070D02*
D03*
X63500D02*
D03*
X78740D02*
D03*
X34290D02*
D03*
X49530D02*
D03*
X-99060Y13970D02*
D03*
X-114300D02*
D03*
D24*
X-22860Y40500D02*
D03*
Y86500D02*
D03*
X78740Y40500D02*
D03*
Y86500D02*
D03*
D25*
X-84918Y36500D02*
D03*
X-72218Y90500D02*
D03*
X-46818D02*
D03*
X-72218Y36500D02*
D03*
X-59518D02*
D03*
X-46818D02*
D03*
X-84918Y90500D02*
D03*
X-59518D02*
D03*
X-84918Y-115900D02*
D03*
X-72218Y-61900D02*
D03*
X-46818D02*
D03*
X-72218Y-115900D02*
D03*
X-59518D02*
D03*
X-46818D02*
D03*
X-84918Y-61900D02*
D03*
X-59518D02*
D03*
X16682Y36500D02*
D03*
X29382Y90500D02*
D03*
X54782D02*
D03*
X29382Y36500D02*
D03*
X42082D02*
D03*
X54782D02*
D03*
X16682Y90500D02*
D03*
X42082D02*
D03*
X16682Y-115900D02*
D03*
X29382Y-61900D02*
D03*
X54782D02*
D03*
X29382Y-115900D02*
D03*
X42082D02*
D03*
X54782D02*
D03*
X16682Y-61900D02*
D03*
X42082D02*
D03*
D26*
X114300Y-114300D02*
D03*
Y-88900D02*
D03*
Y-63500D02*
D03*
X-114300Y114300D02*
D03*
Y88900D02*
D03*
Y63500D02*
D03*
D27*
X114300Y-38100D02*
D03*
X-114300Y38100D02*
D03*
D28*
X95250Y111760D02*
D03*
X16682D02*
D03*
X-6350D02*
D03*
X-107950Y-63500D02*
D03*
X-6350D02*
D03*
Y-38100D02*
D03*
X88900D02*
D03*
X-25400Y-88900D02*
D03*
X88900D02*
D03*
X-84918Y111760D02*
D03*
M02*
