G04*
G04 #@! TF.GenerationSoftware,Altium Limited,Altium Designer,22.2.1 (43)*
G04*
G04 Layer_Color=65535*
%FSLAX44Y44*%
%MOMM*%
G71*
G04*
G04 #@! TF.SameCoordinates,B242430B-52BB-43DD-A0E7-0EA7797FDCDA*
G04*
G04*
G04 #@! TF.FilePolarity,Positive*
G04*
G01*
G75*
%ADD10C,0.4064*%
%ADD11C,0.2032*%
%ADD12C,0.1270*%
%ADD13C,0.2000*%
%ADD14R,1.6000X0.6000*%
%ADD15C,0.2540*%
D10*
X-47135Y72500D02*
G03*
X-47135Y72500I-1905J0D01*
G01*
Y-79900D02*
G03*
X-47135Y-79900I-1905J0D01*
G01*
X54465Y72500D02*
G03*
X54465Y72500I-1905J0D01*
G01*
Y-79900D02*
G03*
X54465Y-79900I-1905J0D01*
G01*
D11*
X-41040Y68500D02*
G03*
X-41040Y58500I0J-5000D01*
G01*
Y-83900D02*
G03*
X-41040Y-93900I0J-5000D01*
G01*
X60560Y68500D02*
G03*
X60560Y58500I0J-5000D01*
G01*
Y-83900D02*
G03*
X60560Y-93900I0J-5000D01*
G01*
X-41040Y43500D02*
Y58500D01*
Y68500D02*
Y83500D01*
Y-108900D02*
Y-93900D01*
Y-83900D02*
Y-68900D01*
X60560Y43500D02*
Y58500D01*
Y68500D02*
Y83500D01*
Y-108900D02*
Y-93900D01*
Y-83900D02*
Y-68900D01*
D12*
X-41910Y-25400D02*
Y-10160D01*
X-34290D01*
X-41910Y-25400D02*
X-34290D01*
Y-10160D01*
X-38100Y107950D02*
X-22860D01*
X-38100D02*
Y115570D01*
X-22860Y107950D02*
Y115570D01*
X-38100D02*
X-22860D01*
X-67310D02*
X-52070D01*
Y107950D02*
Y115570D01*
X-67310Y107950D02*
Y115570D01*
Y107950D02*
X-52070D01*
X-29210Y-25400D02*
Y-10160D01*
X-21590D01*
X-29210Y-25400D02*
X-21590D01*
Y-10160D01*
X-97790Y-25400D02*
Y-10160D01*
X-90170D01*
X-97790Y-25400D02*
X-90170D01*
Y-10160D01*
X63500Y107950D02*
X78740D01*
X63500D02*
Y115570D01*
X78740Y107950D02*
Y115570D01*
X63500D02*
X78740D01*
X34290D02*
X49530D01*
Y107950D02*
Y115570D01*
X34290Y107950D02*
Y115570D01*
Y107950D02*
X49530D01*
X72390Y-25400D02*
Y-10160D01*
X80010D01*
X72390Y-25400D02*
X80010D01*
Y-10160D01*
X59690Y-25400D02*
Y-10160D01*
X67310D01*
X59690Y-25400D02*
X67310D01*
Y-10160D01*
X3810Y78740D02*
Y93980D01*
X-3810Y78740D02*
X3810D01*
X-3810Y93980D02*
X3810D01*
X-3810Y78740D02*
Y93980D01*
X-114300Y17780D02*
X-99060D01*
Y10160D02*
Y17780D01*
X-114300Y10160D02*
Y17780D01*
Y10160D02*
X-99060D01*
X3810Y-25400D02*
Y-10160D01*
X11430D01*
X3810Y-25400D02*
X11430D01*
Y-10160D01*
D13*
X33400Y-35780D02*
Y220D01*
X17400Y-35780D02*
X33400D01*
X17400D02*
Y220D01*
X33400D01*
X53720Y-35780D02*
Y220D01*
X37720Y-35780D02*
X53720D01*
X37720D02*
Y220D01*
X53720D01*
X-68200Y-35780D02*
Y220D01*
X-84200Y-35780D02*
X-68200D01*
X-84200D02*
Y220D01*
X-68200D01*
X-47880Y-35780D02*
Y220D01*
X-63880Y-35780D02*
X-47880D01*
X-63880D02*
Y220D01*
X-47880D01*
X-36440Y40500D02*
Y86500D01*
Y40500D02*
X-10160D01*
X-36440Y86500D02*
X-10160D01*
Y40500D02*
Y86500D01*
X-36140Y54500D02*
X-10860D01*
X-36140Y53500D02*
X-10860D01*
X-36140Y52500D02*
X-10860D01*
X-91040Y83500D02*
X-41040D01*
X-91040Y43500D02*
Y83500D01*
Y43500D02*
X-41040D01*
X-91040Y79750D02*
X-41040D01*
X-91040Y-68900D02*
X-41040D01*
X-91040Y-108900D02*
Y-68900D01*
Y-108900D02*
X-41040D01*
X-91040Y-72650D02*
X-41040D01*
X65160Y40500D02*
Y86500D01*
Y40500D02*
X91440D01*
X65160Y86500D02*
X91440D01*
Y40500D02*
Y86500D01*
X65460Y54500D02*
X90740D01*
X65460Y53500D02*
X90740D01*
X65460Y52500D02*
X90740D01*
X10560Y83500D02*
X60560D01*
X10560Y43500D02*
Y83500D01*
Y43500D02*
X60560D01*
X10560Y79750D02*
X60560D01*
X10560Y-68900D02*
X60560D01*
X10560Y-108900D02*
Y-68900D01*
Y-108900D02*
X60560D01*
X10560Y-72650D02*
X60560D01*
D14*
X25400Y-10780D02*
D03*
X45720D02*
D03*
X-76200D02*
D03*
X-55880D02*
D03*
D15*
X120650Y-146050D02*
G03*
X133350Y-133350I0J12700D01*
G01*
X-133350D02*
G03*
X-120650Y-146050I12700J-0D01*
G01*
X133350Y133350D02*
G03*
X120650Y146050I-12700J0D01*
G01*
X-120650D02*
G03*
X-133350Y133350I0J-12700D01*
G01*
X133350Y-133350D02*
Y0D01*
X0Y-146050D02*
X120650D01*
X-120650D02*
X0D01*
X-133350Y-133350D02*
Y0D01*
X133350D02*
Y133350D01*
X0Y146050D02*
X120650D01*
X-120650D02*
X0D01*
X-133350Y0D02*
Y133350D01*
M02*
