G04*
G04 #@! TF.GenerationSoftware,Altium Limited,Altium Designer,22.2.1 (43)*
G04*
G04 Layer_Color=16711935*
%FSLAX44Y44*%
%MOMM*%
G71*
G04*
G04 #@! TF.SameCoordinates,B242430B-52BB-43DD-A0E7-0EA7797FDCDA*
G04*
G04*
G04 #@! TF.FilePolarity,Positive*
G04*
G01*
G75*
%ADD15C,0.2540*%
D15*
X120650Y-146050D02*
G03*
X133350Y-133350I0J12700D01*
G01*
X-133350D02*
G03*
X-120650Y-146050I12700J-0D01*
G01*
X133350Y133350D02*
G03*
X120650Y146050I-12700J0D01*
G01*
X-120650D02*
G03*
X-133350Y133350I0J-12700D01*
G01*
X133350Y-133350D02*
Y0D01*
X0Y-146050D02*
X120650D01*
X-120650D02*
X0D01*
X-133350Y-133350D02*
Y0D01*
X133350D02*
Y133350D01*
X0Y146050D02*
X120650D01*
X-120650D02*
X0D01*
X-133350Y0D02*
Y133350D01*
X120650Y-146050D02*
G03*
X133350Y-133350I0J12700D01*
G01*
X-133350D02*
G03*
X-120650Y-146050I12700J-0D01*
G01*
X133350Y133350D02*
G03*
X120650Y146050I-12700J0D01*
G01*
X-120650D02*
G03*
X-133350Y133350I0J-12700D01*
G01*
X133350Y-133350D02*
Y0D01*
X0Y-146050D02*
X120650D01*
X-120650D02*
X0D01*
X-133350Y-133350D02*
Y0D01*
X133350D02*
Y133350D01*
X0Y146050D02*
X120650D01*
X-120650D02*
X0D01*
X-133350Y0D02*
Y133350D01*
M02*
