G04*
G04 #@! TF.GenerationSoftware,Altium Limited,Altium Designer,22.2.1 (43)*
G04*
G04 Layer_Physical_Order=2*
G04 Layer_Color=16711680*
%FSLAX44Y44*%
%MOMM*%
G71*
G04*
G04 #@! TF.SameCoordinates,B242430B-52BB-43DD-A0E7-0EA7797FDCDA*
G04*
G04*
G04 #@! TF.FilePolarity,Positive*
G04*
G01*
G75*
%ADD15C,0.2540*%
%ADD29C,0.3810*%
%ADD31O,2.0000X1.5000*%
%ADD32R,2.0000X1.5000*%
%ADD33C,1.5000*%
D15*
X120650Y-146050D02*
G03*
X133350Y-133350I0J12700D01*
G01*
X-133350D02*
G03*
X-120650Y-146050I12700J-0D01*
G01*
X133350Y133350D02*
G03*
X120650Y146050I-12700J0D01*
G01*
X-120650D02*
G03*
X-133350Y133350I0J-12700D01*
G01*
X133350Y-133350D02*
Y0D01*
X0Y-146050D02*
X120650D01*
X-120650D02*
X0D01*
X-133350Y-133350D02*
Y0D01*
X133350D02*
Y133350D01*
X0Y146050D02*
X120650D01*
X-120650D02*
X0D01*
X-133350Y0D02*
Y133350D01*
D29*
X16682Y111760D02*
X95250D01*
X-84918D02*
X-6350D01*
X-107950Y-63500D02*
X-6350D01*
Y-38100D02*
X88900D01*
X-25400Y-88900D02*
X88900D01*
D31*
X114300Y-114300D02*
D03*
Y-88900D02*
D03*
Y-63500D02*
D03*
X-114300Y114300D02*
D03*
Y88900D02*
D03*
Y63500D02*
D03*
D32*
X114300Y-38100D02*
D03*
X-114300Y38100D02*
D03*
D33*
X95250Y111760D02*
D03*
X16682D02*
D03*
X-6350D02*
D03*
X-107950Y-63500D02*
D03*
X-6350D02*
D03*
Y-38100D02*
D03*
X88900D02*
D03*
X-25400Y-88900D02*
D03*
X88900D02*
D03*
X-84918Y111760D02*
D03*
M02*
